%TF.GenerationSoftware,KiCad,Pcbnew,(6.0.7-1)-1*%
%TF.CreationDate,2022-12-29T08:39:09+01:00*%
%TF.ProjectId,cover_test,636f7665-725f-4746-9573-742e6b696361,rev?*%
%TF.SameCoordinates,Original*%
%TF.FileFunction,Legend,Bot*%
%TF.FilePolarity,Positive*%
%FSLAX46Y46*%
G04 Gerber Fmt 4.6, Leading zero omitted, Abs format (unit mm)*
G04 Created by KiCad (PCBNEW (6.0.7-1)-1) date 2022-12-29 08:39:09*
%MOMM*%
%LPD*%
G01*
G04 APERTURE LIST*
%ADD10C,0.150000*%
%ADD11C,0.120000*%
G04 APERTURE END LIST*
D10*
%TO.C,J5*%
X169325332Y-106377380D02*
X169325332Y-107091666D01*
X169372951Y-107234523D01*
X169468189Y-107329761D01*
X169611046Y-107377380D01*
X169706284Y-107377380D01*
X168372951Y-106377380D02*
X168849141Y-106377380D01*
X168896760Y-106853571D01*
X168849141Y-106805952D01*
X168753903Y-106758333D01*
X168515808Y-106758333D01*
X168420570Y-106805952D01*
X168372951Y-106853571D01*
X168325332Y-106948809D01*
X168325332Y-107186904D01*
X168372951Y-107282142D01*
X168420570Y-107329761D01*
X168515808Y-107377380D01*
X168753903Y-107377380D01*
X168849141Y-107329761D01*
X168896760Y-107282142D01*
%TO.C,J7*%
X102650332Y-83937380D02*
X102650332Y-84651666D01*
X102697951Y-84794523D01*
X102793189Y-84889761D01*
X102936046Y-84937380D01*
X103031284Y-84937380D01*
X102269379Y-83937380D02*
X101602713Y-83937380D01*
X102031284Y-84937380D01*
D11*
%TO.C,J5*%
X170321999Y-105925000D02*
X170321999Y-105355000D01*
X167661999Y-86055000D02*
X167661999Y-85485000D01*
X170321999Y-98755000D02*
X170321999Y-95195000D01*
X170321999Y-93675000D02*
X170321999Y-90115000D01*
X167661999Y-96215000D02*
X167661999Y-92655000D01*
X167661999Y-101295000D02*
X167661999Y-97735000D01*
X170321999Y-88595000D02*
X170321999Y-85485000D01*
X167661999Y-91135000D02*
X167661999Y-87575000D01*
X167661999Y-85485000D02*
X170321999Y-85485000D01*
X170321999Y-105355000D02*
X171841999Y-105355000D01*
X167661999Y-105925000D02*
X170321999Y-105925000D01*
X167661999Y-105925000D02*
X167661999Y-102815000D01*
X170321999Y-103835000D02*
X170321999Y-100275000D01*
%TO.C,J7*%
X103646999Y-100275000D02*
X103646999Y-103385000D01*
X100986999Y-87575000D02*
X100986999Y-91135000D01*
X103646999Y-85485000D02*
X103646999Y-88595000D01*
X100986999Y-92655000D02*
X100986999Y-96215000D01*
X100986999Y-85485000D02*
X100986999Y-86055000D01*
X103646999Y-90115000D02*
X103646999Y-93675000D01*
X103646999Y-103385000D02*
X100986999Y-103385000D01*
X100986999Y-86055000D02*
X99466999Y-86055000D01*
X103646999Y-85485000D02*
X100986999Y-85485000D01*
X100986999Y-97735000D02*
X100986999Y-101295000D01*
X103646999Y-95195000D02*
X103646999Y-98755000D01*
X103646999Y-102815000D02*
X103646999Y-103385000D01*
%TD*%
M02*
