%TF.GenerationSoftware,KiCad,Pcbnew,(6.0.7-1)-1*%
%TF.CreationDate,2022-12-29T08:39:09+01:00*%
%TF.ProjectId,cover_test,636f7665-725f-4746-9573-742e6b696361,rev?*%
%TF.SameCoordinates,Original*%
%TF.FileFunction,Copper,L1,Top*%
%TF.FilePolarity,Positive*%
%FSLAX46Y46*%
G04 Gerber Fmt 4.6, Leading zero omitted, Abs format (unit mm)*
G04 Created by KiCad (PCBNEW (6.0.7-1)-1) date 2022-12-29 08:39:09*
%MOMM*%
%LPD*%
G01*
G04 APERTURE LIST*
%TA.AperFunction,NonConductor*%
%ADD10C,0.200000*%
%TD*%
%TA.AperFunction,ViaPad*%
%ADD11C,0.500000*%
%TD*%
G04 APERTURE END LIST*
D10*
G36*
X116021820Y-96164428D02*
G01*
X116043355Y-96165919D01*
X116064647Y-96168177D01*
X116085611Y-96171187D01*
X116106159Y-96174935D01*
X116126204Y-96179410D01*
X116145659Y-96184598D01*
X116175519Y-96194383D01*
X116203233Y-96205364D01*
X116228832Y-96217574D01*
X116252347Y-96231048D01*
X116263332Y-96238270D01*
X116273809Y-96245820D01*
X116283781Y-96253706D01*
X116293250Y-96261928D01*
X116302223Y-96270492D01*
X116310701Y-96279403D01*
X116318690Y-96288664D01*
X116326194Y-96298280D01*
X116333215Y-96308256D01*
X116339759Y-96318595D01*
X116345828Y-96329303D01*
X116351428Y-96340382D01*
X116356561Y-96351839D01*
X116361232Y-96363676D01*
X116365444Y-96375899D01*
X116369203Y-96388511D01*
X116375370Y-96414921D01*
X116379767Y-96442944D01*
X116382423Y-96472610D01*
X116383372Y-96503957D01*
X116382679Y-96572544D01*
X116381283Y-96640640D01*
X116378857Y-96708736D01*
X116377154Y-96742939D01*
X116375072Y-96777325D01*
X115667104Y-96777325D01*
X115664332Y-96763728D01*
X115661842Y-96749924D01*
X115657633Y-96721808D01*
X115654342Y-96693198D01*
X115651834Y-96664315D01*
X115649976Y-96635379D01*
X115648632Y-96606612D01*
X115646953Y-96550465D01*
X115646982Y-96550446D01*
X115647295Y-96525193D01*
X115648324Y-96499336D01*
X115650202Y-96473092D01*
X115653062Y-96446673D01*
X115657036Y-96420297D01*
X115662258Y-96394178D01*
X115668860Y-96368530D01*
X115676976Y-96343569D01*
X115681643Y-96331414D01*
X115686738Y-96319509D01*
X115692278Y-96307885D01*
X115698280Y-96296566D01*
X115704759Y-96285581D01*
X115711734Y-96274955D01*
X115719220Y-96264716D01*
X115727234Y-96254890D01*
X115735793Y-96245505D01*
X115744912Y-96236588D01*
X115754609Y-96228164D01*
X115764901Y-96220261D01*
X115775804Y-96212906D01*
X115787335Y-96206126D01*
X115799510Y-96199948D01*
X115812346Y-96194397D01*
X115831507Y-96187535D01*
X115851297Y-96181566D01*
X115871629Y-96176476D01*
X115892417Y-96172254D01*
X115913572Y-96168889D01*
X115935008Y-96166364D01*
X115956638Y-96164668D01*
X115978375Y-96163789D01*
X116000132Y-96163713D01*
X116021820Y-96164428D01*
G37*
X116021820Y-96164428D02*
X116043355Y-96165919D01*
X116064647Y-96168177D01*
X116085611Y-96171187D01*
X116106159Y-96174935D01*
X116126204Y-96179410D01*
X116145659Y-96184598D01*
X116175519Y-96194383D01*
X116203233Y-96205364D01*
X116228832Y-96217574D01*
X116252347Y-96231048D01*
X116263332Y-96238270D01*
X116273809Y-96245820D01*
X116283781Y-96253706D01*
X116293250Y-96261928D01*
X116302223Y-96270492D01*
X116310701Y-96279403D01*
X116318690Y-96288664D01*
X116326194Y-96298280D01*
X116333215Y-96308256D01*
X116339759Y-96318595D01*
X116345828Y-96329303D01*
X116351428Y-96340382D01*
X116356561Y-96351839D01*
X116361232Y-96363676D01*
X116365444Y-96375899D01*
X116369203Y-96388511D01*
X116375370Y-96414921D01*
X116379767Y-96442944D01*
X116382423Y-96472610D01*
X116383372Y-96503957D01*
X116382679Y-96572544D01*
X116381283Y-96640640D01*
X116378857Y-96708736D01*
X116377154Y-96742939D01*
X116375072Y-96777325D01*
X115667104Y-96777325D01*
X115664332Y-96763728D01*
X115661842Y-96749924D01*
X115657633Y-96721808D01*
X115654342Y-96693198D01*
X115651834Y-96664315D01*
X115649976Y-96635379D01*
X115648632Y-96606612D01*
X115646953Y-96550465D01*
X115646982Y-96550446D01*
X115647295Y-96525193D01*
X115648324Y-96499336D01*
X115650202Y-96473092D01*
X115653062Y-96446673D01*
X115657036Y-96420297D01*
X115662258Y-96394178D01*
X115668860Y-96368530D01*
X115676976Y-96343569D01*
X115681643Y-96331414D01*
X115686738Y-96319509D01*
X115692278Y-96307885D01*
X115698280Y-96296566D01*
X115704759Y-96285581D01*
X115711734Y-96274955D01*
X115719220Y-96264716D01*
X115727234Y-96254890D01*
X115735793Y-96245505D01*
X115744912Y-96236588D01*
X115754609Y-96228164D01*
X115764901Y-96220261D01*
X115775804Y-96212906D01*
X115787335Y-96206126D01*
X115799510Y-96199948D01*
X115812346Y-96194397D01*
X115831507Y-96187535D01*
X115851297Y-96181566D01*
X115871629Y-96176476D01*
X115892417Y-96172254D01*
X115913572Y-96168889D01*
X115935008Y-96166364D01*
X115956638Y-96164668D01*
X115978375Y-96163789D01*
X116000132Y-96163713D01*
X116021820Y-96164428D01*
G36*
X116548387Y-101308814D02*
G01*
X116600494Y-101310538D01*
X116651238Y-101313370D01*
X116700248Y-101317252D01*
X116747153Y-101322130D01*
X116791584Y-101327950D01*
X116850793Y-101338394D01*
X116908223Y-101351609D01*
X116963595Y-101367702D01*
X117016630Y-101386786D01*
X117067050Y-101408972D01*
X117091192Y-101421261D01*
X117114576Y-101434368D01*
X117137166Y-101448304D01*
X117158928Y-101463085D01*
X117179828Y-101478723D01*
X117199829Y-101495233D01*
X117218898Y-101512627D01*
X117237000Y-101530922D01*
X117254099Y-101550129D01*
X117270161Y-101570263D01*
X117285151Y-101591337D01*
X117299035Y-101613366D01*
X117311776Y-101636362D01*
X117323341Y-101660340D01*
X117333696Y-101685313D01*
X117342802Y-101711296D01*
X117350629Y-101738302D01*
X117357139Y-101766344D01*
X117362299Y-101795437D01*
X117366074Y-101825594D01*
X117368429Y-101856830D01*
X117369326Y-101889157D01*
X117367612Y-101952941D01*
X117366336Y-101984059D01*
X117364716Y-102014941D01*
X117362703Y-102045798D01*
X117360249Y-102076837D01*
X117357307Y-102108270D01*
X117353827Y-102140305D01*
X115674344Y-102140305D01*
X115668597Y-102083937D01*
X115664000Y-102028633D01*
X115662138Y-102001016D01*
X115660570Y-101973226D01*
X115659296Y-101945118D01*
X115658323Y-101916547D01*
X115658320Y-101916543D01*
X115659276Y-101869069D01*
X115662238Y-101823268D01*
X115667340Y-101779177D01*
X115674723Y-101736833D01*
X115679312Y-101716328D01*
X115684523Y-101696273D01*
X115690372Y-101676675D01*
X115696876Y-101657536D01*
X115704054Y-101638862D01*
X115711921Y-101620658D01*
X115720496Y-101602928D01*
X115729795Y-101585677D01*
X115739836Y-101568909D01*
X115750636Y-101552630D01*
X115762212Y-101536843D01*
X115774580Y-101521554D01*
X115787759Y-101506767D01*
X115801765Y-101492487D01*
X115816616Y-101478718D01*
X115832329Y-101465466D01*
X115848920Y-101452735D01*
X115866408Y-101440529D01*
X115884809Y-101428853D01*
X115904141Y-101417712D01*
X115924420Y-101407111D01*
X115945664Y-101397053D01*
X115967891Y-101387545D01*
X115991116Y-101378590D01*
X116033783Y-101364515D01*
X116079159Y-101352151D01*
X116126876Y-101341443D01*
X116176562Y-101332336D01*
X116227846Y-101324778D01*
X116280358Y-101318709D01*
X116333729Y-101314078D01*
X116387587Y-101310827D01*
X116441563Y-101308903D01*
X116495287Y-101308250D01*
X116548387Y-101308814D01*
G37*
X116548387Y-101308814D02*
X116600494Y-101310538D01*
X116651238Y-101313370D01*
X116700248Y-101317252D01*
X116747153Y-101322130D01*
X116791584Y-101327950D01*
X116850793Y-101338394D01*
X116908223Y-101351609D01*
X116963595Y-101367702D01*
X117016630Y-101386786D01*
X117067050Y-101408972D01*
X117091192Y-101421261D01*
X117114576Y-101434368D01*
X117137166Y-101448304D01*
X117158928Y-101463085D01*
X117179828Y-101478723D01*
X117199829Y-101495233D01*
X117218898Y-101512627D01*
X117237000Y-101530922D01*
X117254099Y-101550129D01*
X117270161Y-101570263D01*
X117285151Y-101591337D01*
X117299035Y-101613366D01*
X117311776Y-101636362D01*
X117323341Y-101660340D01*
X117333696Y-101685313D01*
X117342802Y-101711296D01*
X117350629Y-101738302D01*
X117357139Y-101766344D01*
X117362299Y-101795437D01*
X117366074Y-101825594D01*
X117368429Y-101856830D01*
X117369326Y-101889157D01*
X117367612Y-101952941D01*
X117366336Y-101984059D01*
X117364716Y-102014941D01*
X117362703Y-102045798D01*
X117360249Y-102076837D01*
X117357307Y-102108270D01*
X117353827Y-102140305D01*
X115674344Y-102140305D01*
X115668597Y-102083937D01*
X115664000Y-102028633D01*
X115662138Y-102001016D01*
X115660570Y-101973226D01*
X115659296Y-101945118D01*
X115658323Y-101916547D01*
X115658320Y-101916543D01*
X115659276Y-101869069D01*
X115662238Y-101823268D01*
X115667340Y-101779177D01*
X115674723Y-101736833D01*
X115679312Y-101716328D01*
X115684523Y-101696273D01*
X115690372Y-101676675D01*
X115696876Y-101657536D01*
X115704054Y-101638862D01*
X115711921Y-101620658D01*
X115720496Y-101602928D01*
X115729795Y-101585677D01*
X115739836Y-101568909D01*
X115750636Y-101552630D01*
X115762212Y-101536843D01*
X115774580Y-101521554D01*
X115787759Y-101506767D01*
X115801765Y-101492487D01*
X115816616Y-101478718D01*
X115832329Y-101465466D01*
X115848920Y-101452735D01*
X115866408Y-101440529D01*
X115884809Y-101428853D01*
X115904141Y-101417712D01*
X115924420Y-101407111D01*
X115945664Y-101397053D01*
X115967891Y-101387545D01*
X115991116Y-101378590D01*
X116033783Y-101364515D01*
X116079159Y-101352151D01*
X116126876Y-101341443D01*
X116176562Y-101332336D01*
X116227846Y-101324778D01*
X116280358Y-101318709D01*
X116333729Y-101314078D01*
X116387587Y-101310827D01*
X116441563Y-101308903D01*
X116495287Y-101308250D01*
X116548387Y-101308814D01*
G36*
X116228829Y-92861806D02*
G01*
X116094471Y-93163594D01*
X115821103Y-93008565D01*
X115757022Y-92635980D01*
X116228829Y-92861806D01*
G37*
X116228829Y-92861806D02*
X116094471Y-93163594D01*
X115821103Y-93008565D01*
X115757022Y-92635980D01*
X116228829Y-92861806D01*
G36*
X116575577Y-92075806D02*
G01*
X116100153Y-91894421D01*
X116715104Y-91760579D01*
X116575577Y-92075806D01*
G37*
X116575577Y-92075806D02*
X116100153Y-91894421D01*
X116715104Y-91760579D01*
X116575577Y-92075806D01*
G36*
X119746008Y-99294226D02*
G01*
X119761874Y-99294986D01*
X119777444Y-99296255D01*
X119792717Y-99298033D01*
X119807693Y-99300323D01*
X119822370Y-99303125D01*
X119836749Y-99306440D01*
X119850827Y-99310271D01*
X119864605Y-99314617D01*
X119878082Y-99319481D01*
X119891257Y-99324865D01*
X119904129Y-99330767D01*
X119916697Y-99337191D01*
X119928961Y-99344138D01*
X119940920Y-99351609D01*
X119952572Y-99359605D01*
X119963712Y-99368171D01*
X119974133Y-99377353D01*
X119983835Y-99387151D01*
X119992819Y-99397565D01*
X120001082Y-99408594D01*
X120008627Y-99420237D01*
X120015455Y-99432496D01*
X120021560Y-99445369D01*
X120026950Y-99458856D01*
X120031620Y-99472957D01*
X120035572Y-99487672D01*
X120038805Y-99503000D01*
X120041319Y-99518941D01*
X120043117Y-99535496D01*
X120044193Y-99552663D01*
X120044552Y-99570443D01*
X120044035Y-99645371D01*
X120043537Y-99667723D01*
X120042898Y-99689715D01*
X120042053Y-99711496D01*
X120040936Y-99733220D01*
X120039565Y-99753604D01*
X120038806Y-99763052D01*
X120037998Y-99771975D01*
X120037137Y-99780349D01*
X120036224Y-99788151D01*
X120035257Y-99795359D01*
X120034235Y-99801949D01*
X119478713Y-99801949D01*
X119475856Y-99790709D01*
X119473144Y-99779162D01*
X119470591Y-99767321D01*
X119468206Y-99755205D01*
X119466004Y-99742827D01*
X119463998Y-99730203D01*
X119462200Y-99717348D01*
X119460623Y-99704278D01*
X119459478Y-99691169D01*
X119458512Y-99678174D01*
X119457718Y-99665272D01*
X119457086Y-99652442D01*
X119456608Y-99639664D01*
X119456277Y-99626919D01*
X119456023Y-99601441D01*
X119455961Y-99601441D01*
X119456107Y-99586082D01*
X119456550Y-99571159D01*
X119457291Y-99556675D01*
X119458330Y-99542633D01*
X119459670Y-99529036D01*
X119461312Y-99515888D01*
X119463259Y-99503191D01*
X119465510Y-99490948D01*
X119468069Y-99479162D01*
X119470937Y-99467837D01*
X119474115Y-99456975D01*
X119477605Y-99446579D01*
X119481409Y-99436653D01*
X119485528Y-99427199D01*
X119489964Y-99418221D01*
X119494719Y-99409722D01*
X119499721Y-99401522D01*
X119504901Y-99393648D01*
X119510260Y-99386102D01*
X119515799Y-99378884D01*
X119521518Y-99371992D01*
X119527418Y-99365427D01*
X119533500Y-99359189D01*
X119539764Y-99353278D01*
X119546211Y-99347693D01*
X119552842Y-99342435D01*
X119559657Y-99337504D01*
X119566657Y-99332899D01*
X119573843Y-99328621D01*
X119581215Y-99324668D01*
X119588775Y-99321042D01*
X119596522Y-99317743D01*
X119604395Y-99314809D01*
X119612335Y-99312078D01*
X119620340Y-99309544D01*
X119628409Y-99307206D01*
X119636541Y-99305064D01*
X119644735Y-99303115D01*
X119652990Y-99301359D01*
X119661304Y-99299794D01*
X119669677Y-99298418D01*
X119678108Y-99297229D01*
X119686596Y-99296230D01*
X119695139Y-99295413D01*
X119703737Y-99294781D01*
X119712389Y-99294331D01*
X119729847Y-99293972D01*
X119746008Y-99294226D01*
G37*
X119746008Y-99294226D02*
X119761874Y-99294986D01*
X119777444Y-99296255D01*
X119792717Y-99298033D01*
X119807693Y-99300323D01*
X119822370Y-99303125D01*
X119836749Y-99306440D01*
X119850827Y-99310271D01*
X119864605Y-99314617D01*
X119878082Y-99319481D01*
X119891257Y-99324865D01*
X119904129Y-99330767D01*
X119916697Y-99337191D01*
X119928961Y-99344138D01*
X119940920Y-99351609D01*
X119952572Y-99359605D01*
X119963712Y-99368171D01*
X119974133Y-99377353D01*
X119983835Y-99387151D01*
X119992819Y-99397565D01*
X120001082Y-99408594D01*
X120008627Y-99420237D01*
X120015455Y-99432496D01*
X120021560Y-99445369D01*
X120026950Y-99458856D01*
X120031620Y-99472957D01*
X120035572Y-99487672D01*
X120038805Y-99503000D01*
X120041319Y-99518941D01*
X120043117Y-99535496D01*
X120044193Y-99552663D01*
X120044552Y-99570443D01*
X120044035Y-99645371D01*
X120043537Y-99667723D01*
X120042898Y-99689715D01*
X120042053Y-99711496D01*
X120040936Y-99733220D01*
X120039565Y-99753604D01*
X120038806Y-99763052D01*
X120037998Y-99771975D01*
X120037137Y-99780349D01*
X120036224Y-99788151D01*
X120035257Y-99795359D01*
X120034235Y-99801949D01*
X119478713Y-99801949D01*
X119475856Y-99790709D01*
X119473144Y-99779162D01*
X119470591Y-99767321D01*
X119468206Y-99755205D01*
X119466004Y-99742827D01*
X119463998Y-99730203D01*
X119462200Y-99717348D01*
X119460623Y-99704278D01*
X119459478Y-99691169D01*
X119458512Y-99678174D01*
X119457718Y-99665272D01*
X119457086Y-99652442D01*
X119456608Y-99639664D01*
X119456277Y-99626919D01*
X119456023Y-99601441D01*
X119455961Y-99601441D01*
X119456107Y-99586082D01*
X119456550Y-99571159D01*
X119457291Y-99556675D01*
X119458330Y-99542633D01*
X119459670Y-99529036D01*
X119461312Y-99515888D01*
X119463259Y-99503191D01*
X119465510Y-99490948D01*
X119468069Y-99479162D01*
X119470937Y-99467837D01*
X119474115Y-99456975D01*
X119477605Y-99446579D01*
X119481409Y-99436653D01*
X119485528Y-99427199D01*
X119489964Y-99418221D01*
X119494719Y-99409722D01*
X119499721Y-99401522D01*
X119504901Y-99393648D01*
X119510260Y-99386102D01*
X119515799Y-99378884D01*
X119521518Y-99371992D01*
X119527418Y-99365427D01*
X119533500Y-99359189D01*
X119539764Y-99353278D01*
X119546211Y-99347693D01*
X119552842Y-99342435D01*
X119559657Y-99337504D01*
X119566657Y-99332899D01*
X119573843Y-99328621D01*
X119581215Y-99324668D01*
X119588775Y-99321042D01*
X119596522Y-99317743D01*
X119604395Y-99314809D01*
X119612335Y-99312078D01*
X119620340Y-99309544D01*
X119628409Y-99307206D01*
X119636541Y-99305064D01*
X119644735Y-99303115D01*
X119652990Y-99301359D01*
X119661304Y-99299794D01*
X119669677Y-99298418D01*
X119678108Y-99297229D01*
X119686596Y-99296230D01*
X119695139Y-99295413D01*
X119703737Y-99294781D01*
X119712389Y-99294331D01*
X119729847Y-99293972D01*
X119746008Y-99294226D01*
G36*
X120112137Y-91244738D02*
G01*
X120152815Y-91245958D01*
X120191967Y-91247993D01*
X120229596Y-91250844D01*
X120265697Y-91254513D01*
X120300270Y-91259001D01*
X120333317Y-91264310D01*
X120364835Y-91270440D01*
X120394824Y-91277393D01*
X120423284Y-91285172D01*
X120450213Y-91293776D01*
X120475613Y-91303208D01*
X120499481Y-91313468D01*
X120521817Y-91324559D01*
X120542621Y-91336481D01*
X120561893Y-91349236D01*
X120579915Y-91362710D01*
X120596761Y-91376788D01*
X120612434Y-91391471D01*
X120626937Y-91406758D01*
X120640270Y-91422652D01*
X120652435Y-91439151D01*
X120663433Y-91456257D01*
X120673267Y-91473970D01*
X120681937Y-91492290D01*
X120689446Y-91511219D01*
X120695796Y-91530757D01*
X120700987Y-91550904D01*
X120705022Y-91571660D01*
X120707902Y-91593027D01*
X120709628Y-91615004D01*
X120710204Y-91637593D01*
X120709892Y-91654140D01*
X120708957Y-91670330D01*
X120707400Y-91686161D01*
X120705217Y-91701634D01*
X120702414Y-91716749D01*
X120698991Y-91731504D01*
X120694945Y-91745901D01*
X120690277Y-91759939D01*
X120684990Y-91773617D01*
X120679081Y-91786935D01*
X120672553Y-91799894D01*
X120665405Y-91812494D01*
X120657638Y-91824732D01*
X120649251Y-91836610D01*
X120640246Y-91848127D01*
X120630623Y-91859284D01*
X120620360Y-91870186D01*
X120609639Y-91880727D01*
X120598459Y-91890910D01*
X120586818Y-91900738D01*
X120574714Y-91910214D01*
X120562146Y-91919342D01*
X120549111Y-91928125D01*
X120535607Y-91936563D01*
X120521633Y-91944663D01*
X120507187Y-91952425D01*
X120492265Y-91959854D01*
X120476868Y-91966951D01*
X120460993Y-91973721D01*
X120444638Y-91980165D01*
X120427802Y-91986289D01*
X120410480Y-91992093D01*
X120375080Y-92002487D01*
X120338309Y-92011504D01*
X120300187Y-92019141D01*
X120260738Y-92025396D01*
X120219981Y-92030265D01*
X120177940Y-92033746D01*
X120134634Y-92035837D01*
X120090085Y-92036534D01*
X120061306Y-92036312D01*
X120033298Y-92035646D01*
X120006061Y-92034536D01*
X119979596Y-92032985D01*
X119953902Y-92030992D01*
X119928979Y-92028558D01*
X119904827Y-92025686D01*
X119881447Y-92022374D01*
X119858837Y-92018625D01*
X119836999Y-92014440D01*
X119815932Y-92009818D01*
X119795634Y-92004761D01*
X119776108Y-91999270D01*
X119757351Y-91993346D01*
X119739366Y-91986990D01*
X119722151Y-91980203D01*
X119705622Y-91972946D01*
X119689696Y-91965396D01*
X119674374Y-91957549D01*
X119659655Y-91949407D01*
X119645544Y-91940967D01*
X119632038Y-91932229D01*
X119619139Y-91923192D01*
X119606847Y-91913856D01*
X119595161Y-91904219D01*
X119584084Y-91894280D01*
X119573617Y-91884040D01*
X119563758Y-91873496D01*
X119554510Y-91862649D01*
X119545873Y-91851496D01*
X119537847Y-91840040D01*
X119530432Y-91828275D01*
X119523541Y-91816278D01*
X119517083Y-91804123D01*
X119511061Y-91791809D01*
X119505476Y-91779338D01*
X119500330Y-91766708D01*
X119495623Y-91753920D01*
X119491358Y-91740976D01*
X119487536Y-91727874D01*
X119484159Y-91714615D01*
X119481225Y-91701200D01*
X119478740Y-91687628D01*
X119476704Y-91673901D01*
X119475117Y-91660017D01*
X119473982Y-91645979D01*
X119473300Y-91631785D01*
X119473073Y-91617436D01*
X119473067Y-91617436D01*
X119473363Y-91601721D01*
X119474251Y-91586353D01*
X119475730Y-91571334D01*
X119477799Y-91556666D01*
X119480459Y-91542348D01*
X119483709Y-91528382D01*
X119487547Y-91514765D01*
X119491975Y-91501502D01*
X119496990Y-91488591D01*
X119502593Y-91476034D01*
X119508782Y-91463830D01*
X119515559Y-91451984D01*
X119522921Y-91440489D01*
X119530868Y-91429352D01*
X119539401Y-91418571D01*
X119548518Y-91408147D01*
X119558059Y-91397963D01*
X119568076Y-91388113D01*
X119578566Y-91378594D01*
X119589531Y-91369406D01*
X119600968Y-91360547D01*
X119612877Y-91352017D01*
X119625260Y-91343816D01*
X119638111Y-91335942D01*
X119651432Y-91328394D01*
X119665225Y-91321173D01*
X119679488Y-91314276D01*
X119694216Y-91307703D01*
X119709414Y-91301455D01*
X119725079Y-91295529D01*
X119741210Y-91289925D01*
X119757807Y-91284642D01*
X119792120Y-91275065D01*
X119827747Y-91266818D01*
X119864702Y-91259881D01*
X119902998Y-91254242D01*
X119942655Y-91249883D01*
X119983686Y-91246788D01*
X120026107Y-91244944D01*
X120069933Y-91244333D01*
X120112137Y-91244738D01*
G37*
X120112137Y-91244738D02*
X120152815Y-91245958D01*
X120191967Y-91247993D01*
X120229596Y-91250844D01*
X120265697Y-91254513D01*
X120300270Y-91259001D01*
X120333317Y-91264310D01*
X120364835Y-91270440D01*
X120394824Y-91277393D01*
X120423284Y-91285172D01*
X120450213Y-91293776D01*
X120475613Y-91303208D01*
X120499481Y-91313468D01*
X120521817Y-91324559D01*
X120542621Y-91336481D01*
X120561893Y-91349236D01*
X120579915Y-91362710D01*
X120596761Y-91376788D01*
X120612434Y-91391471D01*
X120626937Y-91406758D01*
X120640270Y-91422652D01*
X120652435Y-91439151D01*
X120663433Y-91456257D01*
X120673267Y-91473970D01*
X120681937Y-91492290D01*
X120689446Y-91511219D01*
X120695796Y-91530757D01*
X120700987Y-91550904D01*
X120705022Y-91571660D01*
X120707902Y-91593027D01*
X120709628Y-91615004D01*
X120710204Y-91637593D01*
X120709892Y-91654140D01*
X120708957Y-91670330D01*
X120707400Y-91686161D01*
X120705217Y-91701634D01*
X120702414Y-91716749D01*
X120698991Y-91731504D01*
X120694945Y-91745901D01*
X120690277Y-91759939D01*
X120684990Y-91773617D01*
X120679081Y-91786935D01*
X120672553Y-91799894D01*
X120665405Y-91812494D01*
X120657638Y-91824732D01*
X120649251Y-91836610D01*
X120640246Y-91848127D01*
X120630623Y-91859284D01*
X120620360Y-91870186D01*
X120609639Y-91880727D01*
X120598459Y-91890910D01*
X120586818Y-91900738D01*
X120574714Y-91910214D01*
X120562146Y-91919342D01*
X120549111Y-91928125D01*
X120535607Y-91936563D01*
X120521633Y-91944663D01*
X120507187Y-91952425D01*
X120492265Y-91959854D01*
X120476868Y-91966951D01*
X120460993Y-91973721D01*
X120444638Y-91980165D01*
X120427802Y-91986289D01*
X120410480Y-91992093D01*
X120375080Y-92002487D01*
X120338309Y-92011504D01*
X120300187Y-92019141D01*
X120260738Y-92025396D01*
X120219981Y-92030265D01*
X120177940Y-92033746D01*
X120134634Y-92035837D01*
X120090085Y-92036534D01*
X120061306Y-92036312D01*
X120033298Y-92035646D01*
X120006061Y-92034536D01*
X119979596Y-92032985D01*
X119953902Y-92030992D01*
X119928979Y-92028558D01*
X119904827Y-92025686D01*
X119881447Y-92022374D01*
X119858837Y-92018625D01*
X119836999Y-92014440D01*
X119815932Y-92009818D01*
X119795634Y-92004761D01*
X119776108Y-91999270D01*
X119757351Y-91993346D01*
X119739366Y-91986990D01*
X119722151Y-91980203D01*
X119705622Y-91972946D01*
X119689696Y-91965396D01*
X119674374Y-91957549D01*
X119659655Y-91949407D01*
X119645544Y-91940967D01*
X119632038Y-91932229D01*
X119619139Y-91923192D01*
X119606847Y-91913856D01*
X119595161Y-91904219D01*
X119584084Y-91894280D01*
X119573617Y-91884040D01*
X119563758Y-91873496D01*
X119554510Y-91862649D01*
X119545873Y-91851496D01*
X119537847Y-91840040D01*
X119530432Y-91828275D01*
X119523541Y-91816278D01*
X119517083Y-91804123D01*
X119511061Y-91791809D01*
X119505476Y-91779338D01*
X119500330Y-91766708D01*
X119495623Y-91753920D01*
X119491358Y-91740976D01*
X119487536Y-91727874D01*
X119484159Y-91714615D01*
X119481225Y-91701200D01*
X119478740Y-91687628D01*
X119476704Y-91673901D01*
X119475117Y-91660017D01*
X119473982Y-91645979D01*
X119473300Y-91631785D01*
X119473073Y-91617436D01*
X119473067Y-91617436D01*
X119473363Y-91601721D01*
X119474251Y-91586353D01*
X119475730Y-91571334D01*
X119477799Y-91556666D01*
X119480459Y-91542348D01*
X119483709Y-91528382D01*
X119487547Y-91514765D01*
X119491975Y-91501502D01*
X119496990Y-91488591D01*
X119502593Y-91476034D01*
X119508782Y-91463830D01*
X119515559Y-91451984D01*
X119522921Y-91440489D01*
X119530868Y-91429352D01*
X119539401Y-91418571D01*
X119548518Y-91408147D01*
X119558059Y-91397963D01*
X119568076Y-91388113D01*
X119578566Y-91378594D01*
X119589531Y-91369406D01*
X119600968Y-91360547D01*
X119612877Y-91352017D01*
X119625260Y-91343816D01*
X119638111Y-91335942D01*
X119651432Y-91328394D01*
X119665225Y-91321173D01*
X119679488Y-91314276D01*
X119694216Y-91307703D01*
X119709414Y-91301455D01*
X119725079Y-91295529D01*
X119741210Y-91289925D01*
X119757807Y-91284642D01*
X119792120Y-91275065D01*
X119827747Y-91266818D01*
X119864702Y-91259881D01*
X119902998Y-91254242D01*
X119942655Y-91249883D01*
X119983686Y-91246788D01*
X120026107Y-91244944D01*
X120069933Y-91244333D01*
X120112137Y-91244738D01*
G36*
X120112137Y-106145120D02*
G01*
X120152815Y-106146355D01*
X120191967Y-106148416D01*
X120229596Y-106151300D01*
X120265697Y-106155008D01*
X120300270Y-106159539D01*
X120333317Y-106164894D01*
X120364835Y-106171073D01*
X120394824Y-106178074D01*
X120423284Y-106185899D01*
X120450213Y-106194547D01*
X120475613Y-106204018D01*
X120499481Y-106214311D01*
X120521817Y-106225427D01*
X120542621Y-106237366D01*
X120561893Y-106250127D01*
X120579914Y-106263594D01*
X120596761Y-106277656D01*
X120612434Y-106292312D01*
X120626937Y-106307563D01*
X120640270Y-106323412D01*
X120652435Y-106339858D01*
X120663433Y-106356903D01*
X120673267Y-106374549D01*
X120681937Y-106392795D01*
X120689446Y-106411644D01*
X120695797Y-106431096D01*
X120700988Y-106451153D01*
X120705022Y-106471815D01*
X120707902Y-106493084D01*
X120709628Y-106514960D01*
X120710204Y-106537446D01*
X120709892Y-106553993D01*
X120708957Y-106570182D01*
X120707399Y-106586012D01*
X120705218Y-106601485D01*
X120702415Y-106616600D01*
X120698991Y-106631355D01*
X120694945Y-106645752D01*
X120690277Y-106659790D01*
X120684990Y-106673468D01*
X120679081Y-106686787D01*
X120672553Y-106699746D01*
X120665405Y-106712345D01*
X120657638Y-106724584D01*
X120649251Y-106736462D01*
X120640246Y-106747980D01*
X120630623Y-106759137D01*
X120620360Y-106770050D01*
X120609639Y-106780625D01*
X120598459Y-106790858D01*
X120586818Y-106800751D01*
X120574714Y-106810300D01*
X120562146Y-106819507D01*
X120549111Y-106828369D01*
X120535607Y-106836886D01*
X120521633Y-106845056D01*
X120507187Y-106852879D01*
X120492265Y-106860353D01*
X120476868Y-106867479D01*
X120460993Y-106874253D01*
X120444638Y-106880676D01*
X120427802Y-106886747D01*
X120410481Y-106892464D01*
X120375080Y-106902859D01*
X120338309Y-106911876D01*
X120300187Y-106919513D01*
X120260738Y-106925767D01*
X120219981Y-106930637D01*
X120177940Y-106934118D01*
X120134634Y-106936208D01*
X120090086Y-106936907D01*
X120061306Y-106936684D01*
X120033298Y-106936018D01*
X120006061Y-106934909D01*
X119979596Y-106933356D01*
X119953902Y-106931359D01*
X119928979Y-106928918D01*
X119904827Y-106926033D01*
X119881447Y-106922703D01*
X119858837Y-106918929D01*
X119836999Y-106914711D01*
X119815931Y-106910048D01*
X119795634Y-106904941D01*
X119776108Y-106899390D01*
X119757352Y-106893393D01*
X119739366Y-106886952D01*
X119722151Y-106880067D01*
X119705622Y-106872902D01*
X119689696Y-106865420D01*
X119674374Y-106857621D01*
X119659655Y-106849506D01*
X119645544Y-106841078D01*
X119632038Y-106832338D01*
X119619140Y-106823288D01*
X119606846Y-106813929D01*
X119595161Y-106804263D01*
X119584084Y-106794291D01*
X119573617Y-106784016D01*
X119563758Y-106773439D01*
X119554510Y-106762562D01*
X119545873Y-106751383D01*
X119537847Y-106739909D01*
X119530432Y-106728139D01*
X119523541Y-106716148D01*
X119517083Y-106704007D01*
X119511060Y-106691720D01*
X119505476Y-106679281D01*
X119500330Y-106666691D01*
X119495623Y-106653946D01*
X119491358Y-106641048D01*
X119487536Y-106627994D01*
X119484158Y-106614783D01*
X119481226Y-106601415D01*
X119478740Y-106587887D01*
X119476704Y-106574199D01*
X119475117Y-106560349D01*
X119473983Y-106546336D01*
X119473300Y-106532158D01*
X119473073Y-106517815D01*
X119473067Y-106517812D01*
X119473363Y-106502095D01*
X119474251Y-106486728D01*
X119475731Y-106471708D01*
X119477800Y-106457037D01*
X119480459Y-106442713D01*
X119483710Y-106428737D01*
X119487547Y-106415108D01*
X119491975Y-106401825D01*
X119496990Y-106388889D01*
X119502593Y-106376299D01*
X119508782Y-106364054D01*
X119515559Y-106352155D01*
X119522921Y-106340600D01*
X119530868Y-106329390D01*
X119539401Y-106318525D01*
X119548518Y-106308004D01*
X119558059Y-106297823D01*
X119568076Y-106287988D01*
X119578567Y-106278494D01*
X119589531Y-106269340D01*
X119600968Y-106260524D01*
X119612877Y-106252047D01*
X119625260Y-106243905D01*
X119638111Y-106236099D01*
X119651433Y-106228625D01*
X119665225Y-106221484D01*
X119679487Y-106214673D01*
X119694216Y-106208191D01*
X119709414Y-106202037D01*
X119725079Y-106196209D01*
X119741210Y-106190707D01*
X119757807Y-106185529D01*
X119792120Y-106175930D01*
X119827747Y-106167624D01*
X119864701Y-106160606D01*
X119902998Y-106154873D01*
X119942654Y-106150420D01*
X119983686Y-106147244D01*
X120026107Y-106145341D01*
X120069933Y-106144707D01*
X120112137Y-106145120D01*
G37*
X120112137Y-106145120D02*
X120152815Y-106146355D01*
X120191967Y-106148416D01*
X120229596Y-106151300D01*
X120265697Y-106155008D01*
X120300270Y-106159539D01*
X120333317Y-106164894D01*
X120364835Y-106171073D01*
X120394824Y-106178074D01*
X120423284Y-106185899D01*
X120450213Y-106194547D01*
X120475613Y-106204018D01*
X120499481Y-106214311D01*
X120521817Y-106225427D01*
X120542621Y-106237366D01*
X120561893Y-106250127D01*
X120579914Y-106263594D01*
X120596761Y-106277656D01*
X120612434Y-106292312D01*
X120626937Y-106307563D01*
X120640270Y-106323412D01*
X120652435Y-106339858D01*
X120663433Y-106356903D01*
X120673267Y-106374549D01*
X120681937Y-106392795D01*
X120689446Y-106411644D01*
X120695797Y-106431096D01*
X120700988Y-106451153D01*
X120705022Y-106471815D01*
X120707902Y-106493084D01*
X120709628Y-106514960D01*
X120710204Y-106537446D01*
X120709892Y-106553993D01*
X120708957Y-106570182D01*
X120707399Y-106586012D01*
X120705218Y-106601485D01*
X120702415Y-106616600D01*
X120698991Y-106631355D01*
X120694945Y-106645752D01*
X120690277Y-106659790D01*
X120684990Y-106673468D01*
X120679081Y-106686787D01*
X120672553Y-106699746D01*
X120665405Y-106712345D01*
X120657638Y-106724584D01*
X120649251Y-106736462D01*
X120640246Y-106747980D01*
X120630623Y-106759137D01*
X120620360Y-106770050D01*
X120609639Y-106780625D01*
X120598459Y-106790858D01*
X120586818Y-106800751D01*
X120574714Y-106810300D01*
X120562146Y-106819507D01*
X120549111Y-106828369D01*
X120535607Y-106836886D01*
X120521633Y-106845056D01*
X120507187Y-106852879D01*
X120492265Y-106860353D01*
X120476868Y-106867479D01*
X120460993Y-106874253D01*
X120444638Y-106880676D01*
X120427802Y-106886747D01*
X120410481Y-106892464D01*
X120375080Y-106902859D01*
X120338309Y-106911876D01*
X120300187Y-106919513D01*
X120260738Y-106925767D01*
X120219981Y-106930637D01*
X120177940Y-106934118D01*
X120134634Y-106936208D01*
X120090086Y-106936907D01*
X120061306Y-106936684D01*
X120033298Y-106936018D01*
X120006061Y-106934909D01*
X119979596Y-106933356D01*
X119953902Y-106931359D01*
X119928979Y-106928918D01*
X119904827Y-106926033D01*
X119881447Y-106922703D01*
X119858837Y-106918929D01*
X119836999Y-106914711D01*
X119815931Y-106910048D01*
X119795634Y-106904941D01*
X119776108Y-106899390D01*
X119757352Y-106893393D01*
X119739366Y-106886952D01*
X119722151Y-106880067D01*
X119705622Y-106872902D01*
X119689696Y-106865420D01*
X119674374Y-106857621D01*
X119659655Y-106849506D01*
X119645544Y-106841078D01*
X119632038Y-106832338D01*
X119619140Y-106823288D01*
X119606846Y-106813929D01*
X119595161Y-106804263D01*
X119584084Y-106794291D01*
X119573617Y-106784016D01*
X119563758Y-106773439D01*
X119554510Y-106762562D01*
X119545873Y-106751383D01*
X119537847Y-106739909D01*
X119530432Y-106728139D01*
X119523541Y-106716148D01*
X119517083Y-106704007D01*
X119511060Y-106691720D01*
X119505476Y-106679281D01*
X119500330Y-106666691D01*
X119495623Y-106653946D01*
X119491358Y-106641048D01*
X119487536Y-106627994D01*
X119484158Y-106614783D01*
X119481226Y-106601415D01*
X119478740Y-106587887D01*
X119476704Y-106574199D01*
X119475117Y-106560349D01*
X119473983Y-106546336D01*
X119473300Y-106532158D01*
X119473073Y-106517815D01*
X119473067Y-106517812D01*
X119473363Y-106502095D01*
X119474251Y-106486728D01*
X119475731Y-106471708D01*
X119477800Y-106457037D01*
X119480459Y-106442713D01*
X119483710Y-106428737D01*
X119487547Y-106415108D01*
X119491975Y-106401825D01*
X119496990Y-106388889D01*
X119502593Y-106376299D01*
X119508782Y-106364054D01*
X119515559Y-106352155D01*
X119522921Y-106340600D01*
X119530868Y-106329390D01*
X119539401Y-106318525D01*
X119548518Y-106308004D01*
X119558059Y-106297823D01*
X119568076Y-106287988D01*
X119578567Y-106278494D01*
X119589531Y-106269340D01*
X119600968Y-106260524D01*
X119612877Y-106252047D01*
X119625260Y-106243905D01*
X119638111Y-106236099D01*
X119651433Y-106228625D01*
X119665225Y-106221484D01*
X119679487Y-106214673D01*
X119694216Y-106208191D01*
X119709414Y-106202037D01*
X119725079Y-106196209D01*
X119741210Y-106190707D01*
X119757807Y-106185529D01*
X119792120Y-106175930D01*
X119827747Y-106167624D01*
X119864701Y-106160606D01*
X119902998Y-106154873D01*
X119942654Y-106150420D01*
X119983686Y-106147244D01*
X120026107Y-106145341D01*
X120069933Y-106144707D01*
X120112137Y-106145120D01*
G36*
X96495666Y-156704408D02*
G01*
X96495666Y-111693726D01*
X111692671Y-111693726D01*
X111692672Y-111693726D01*
X111694193Y-111753585D01*
X111698705Y-111812681D01*
X111706135Y-111870938D01*
X111716408Y-111928281D01*
X111729448Y-111984632D01*
X111745182Y-112039918D01*
X111763535Y-112094061D01*
X111784432Y-112146987D01*
X111807799Y-112198619D01*
X111833560Y-112248881D01*
X111861643Y-112297698D01*
X111891971Y-112344994D01*
X111924471Y-112390692D01*
X111959067Y-112434719D01*
X111995687Y-112476996D01*
X112034254Y-112517449D01*
X112074908Y-112556217D01*
X112117371Y-112593023D01*
X112161568Y-112627790D01*
X112207422Y-112660445D01*
X112254859Y-112690915D01*
X112303803Y-112719124D01*
X112354177Y-112744999D01*
X112405910Y-112768466D01*
X112458923Y-112789449D01*
X112513139Y-112807876D01*
X112568486Y-112823672D01*
X112624887Y-112836761D01*
X112682266Y-112847071D01*
X112740550Y-112854527D01*
X112799662Y-112859055D01*
X112859526Y-112860580D01*
X117942420Y-112860581D01*
X116746112Y-111818129D01*
X116636560Y-111722665D01*
X120510218Y-111722665D01*
X121816615Y-112860577D01*
X122670826Y-112860577D01*
X122729662Y-112859094D01*
X122787781Y-112854694D01*
X122845109Y-112847448D01*
X122901572Y-112837429D01*
X122957096Y-112824709D01*
X123011607Y-112809361D01*
X123065031Y-112791458D01*
X123117295Y-112771071D01*
X123168323Y-112748274D01*
X123218042Y-112723137D01*
X123266379Y-112695735D01*
X123313259Y-112666140D01*
X123358608Y-112634421D01*
X123402352Y-112600655D01*
X123444418Y-112564912D01*
X123484730Y-112527264D01*
X123494530Y-112516934D01*
X123533305Y-112476277D01*
X123570126Y-112433812D01*
X123604919Y-112389617D01*
X123637608Y-112343772D01*
X123668117Y-112296356D01*
X123696370Y-112247448D01*
X123722291Y-112197126D01*
X123745806Y-112145472D01*
X123766838Y-112092563D01*
X123785311Y-112038479D01*
X123801149Y-111983298D01*
X123814278Y-111927101D01*
X123824621Y-111869966D01*
X123832103Y-111811971D01*
X123836648Y-111753199D01*
X123838179Y-111693726D01*
X123838179Y-109896420D01*
X122800000Y-108992081D01*
X122800000Y-110388379D01*
X122798257Y-110456222D01*
X122793087Y-110523268D01*
X122784575Y-110589428D01*
X122772806Y-110654612D01*
X122757865Y-110718732D01*
X122739836Y-110781699D01*
X122718807Y-110843424D01*
X122694860Y-110903817D01*
X122668083Y-110962791D01*
X122638559Y-111020255D01*
X122606375Y-111076122D01*
X122571615Y-111130301D01*
X122534365Y-111182705D01*
X122494710Y-111233244D01*
X122452734Y-111281829D01*
X122408522Y-111328372D01*
X122362164Y-111372783D01*
X122313739Y-111414973D01*
X122263336Y-111454854D01*
X122211038Y-111492337D01*
X122156932Y-111527331D01*
X122101102Y-111559749D01*
X122043634Y-111589502D01*
X121984612Y-111616501D01*
X121924123Y-111640657D01*
X121862251Y-111661880D01*
X121799081Y-111680083D01*
X121734699Y-111695175D01*
X121669189Y-111707068D01*
X121602638Y-111715674D01*
X121535129Y-111720902D01*
X121466750Y-111722665D01*
X120510218Y-111722665D01*
X116636560Y-111722665D01*
X116636555Y-111722661D01*
X114064619Y-111722661D01*
X113996236Y-111720916D01*
X113928719Y-111715737D01*
X113862154Y-111707211D01*
X113796625Y-111695423D01*
X113732220Y-111680458D01*
X113669022Y-111662402D01*
X113607119Y-111641342D01*
X113546594Y-111617360D01*
X113487535Y-111590545D01*
X113430026Y-111560981D01*
X113374154Y-111528754D01*
X113320003Y-111493950D01*
X113267659Y-111456653D01*
X113217208Y-111416950D01*
X113168736Y-111374927D01*
X113122328Y-111330669D01*
X113078069Y-111284260D01*
X113036045Y-111235788D01*
X112996341Y-111185337D01*
X112959046Y-111132993D01*
X112924241Y-111078842D01*
X112892014Y-111022970D01*
X112862450Y-110965461D01*
X112835635Y-110906401D01*
X112811654Y-110845877D01*
X112790593Y-110783973D01*
X112772537Y-110720776D01*
X112757572Y-110656370D01*
X112745784Y-110590841D01*
X112737257Y-110524275D01*
X112732079Y-110456758D01*
X112730334Y-110388375D01*
X112730334Y-108319253D01*
X112588544Y-108195752D01*
X115031486Y-108195752D01*
X115031486Y-109047379D01*
X116746113Y-109055695D01*
X116830148Y-109054238D01*
X116913750Y-109049701D01*
X116996628Y-109041835D01*
X117078490Y-109030394D01*
X117159046Y-109015129D01*
X117238005Y-108995792D01*
X117315076Y-108972136D01*
X117389969Y-108943912D01*
X117426507Y-108928010D01*
X117462391Y-108910873D01*
X117497585Y-108892471D01*
X117532053Y-108872770D01*
X117565758Y-108851744D01*
X117598663Y-108829357D01*
X117630733Y-108805581D01*
X117661931Y-108780385D01*
X117692221Y-108753736D01*
X117721566Y-108725605D01*
X117749929Y-108695960D01*
X117777276Y-108664771D01*
X117803568Y-108632006D01*
X117828771Y-108597633D01*
X117852847Y-108561624D01*
X117875760Y-108523945D01*
X117895613Y-108487869D01*
X117914186Y-108450326D01*
X117931468Y-108411345D01*
X117947452Y-108370952D01*
X117962129Y-108329174D01*
X117975490Y-108286038D01*
X117987527Y-108241570D01*
X117998232Y-108195798D01*
X118007486Y-108149329D01*
X118015584Y-108101502D01*
X118017154Y-108090333D01*
X119122691Y-108090333D01*
X119123642Y-108140524D01*
X119124830Y-108165313D01*
X119126495Y-108189896D01*
X119128636Y-108214274D01*
X119131254Y-108238444D01*
X119134347Y-108262407D01*
X119137917Y-108286161D01*
X119141965Y-108309706D01*
X119146490Y-108333042D01*
X119151492Y-108356167D01*
X119156972Y-108379080D01*
X119162929Y-108401781D01*
X119169365Y-108424270D01*
X119176278Y-108446546D01*
X119183670Y-108468606D01*
X119191538Y-108490385D01*
X119199878Y-108511821D01*
X119208691Y-108532911D01*
X119217978Y-108553656D01*
X119227739Y-108574059D01*
X119237975Y-108594119D01*
X119248687Y-108613839D01*
X119259875Y-108633218D01*
X119271540Y-108652256D01*
X119283682Y-108670955D01*
X119296304Y-108689317D01*
X119309404Y-108707341D01*
X119322983Y-108725029D01*
X119337043Y-108742381D01*
X119351583Y-108759399D01*
X119366603Y-108776082D01*
X119382098Y-108792272D01*
X119398048Y-108808017D01*
X119414459Y-108823315D01*
X119431327Y-108838167D01*
X119448654Y-108852571D01*
X119466438Y-108866526D01*
X119484681Y-108880032D01*
X119503381Y-108893087D01*
X119522537Y-108905692D01*
X119542153Y-108917845D01*
X119562224Y-108929546D01*
X119582752Y-108940793D01*
X119603737Y-108951587D01*
X119625178Y-108961926D01*
X119647075Y-108971809D01*
X119669428Y-108981236D01*
X119692333Y-108990157D01*
X119715677Y-108998519D01*
X119739463Y-109006321D01*
X119763695Y-109013560D01*
X119788374Y-109020234D01*
X119813502Y-109026340D01*
X119839082Y-109031876D01*
X119865117Y-109036839D01*
X119891610Y-109041227D01*
X119918563Y-109045038D01*
X119945978Y-109048269D01*
X119973857Y-109050917D01*
X120002204Y-109052983D01*
X120031022Y-109054461D01*
X120060311Y-109055349D01*
X120090075Y-109055646D01*
X120126364Y-109055201D01*
X120162052Y-109053869D01*
X120197139Y-109051652D01*
X120231623Y-109048550D01*
X120265503Y-109044565D01*
X120298778Y-109039700D01*
X120331447Y-109033956D01*
X120363509Y-109027334D01*
X120394965Y-109019838D01*
X120425812Y-109011467D01*
X120456049Y-109002224D01*
X120485676Y-108992111D01*
X120514690Y-108981130D01*
X120543092Y-108969281D01*
X120570881Y-108956567D01*
X120598055Y-108942990D01*
X120624744Y-108928477D01*
X120650657Y-108913159D01*
X120675798Y-108897038D01*
X120700167Y-108880111D01*
X120723764Y-108862377D01*
X120746594Y-108843836D01*
X120768655Y-108824486D01*
X120789951Y-108804328D01*
X120810482Y-108783359D01*
X120830251Y-108761579D01*
X120849257Y-108738987D01*
X120867504Y-108715582D01*
X120884992Y-108691363D01*
X120901723Y-108666328D01*
X120917698Y-108640479D01*
X120932919Y-108613812D01*
X120947197Y-108586363D01*
X120960552Y-108558167D01*
X120972985Y-108529224D01*
X120984494Y-108499532D01*
X120995081Y-108469092D01*
X121004746Y-108437903D01*
X121013489Y-108405963D01*
X121021310Y-108373273D01*
X121028211Y-108339831D01*
X121034190Y-108305637D01*
X121039249Y-108270692D01*
X121043387Y-108234991D01*
X121046605Y-108198536D01*
X121048902Y-108161329D01*
X121050074Y-108129086D01*
X124208716Y-108129086D01*
X129030127Y-108129091D01*
X129030127Y-109602383D01*
X129776335Y-109602383D01*
X129776335Y-104465226D01*
X129776320Y-104465226D01*
X129030127Y-104465225D01*
X129030127Y-105939038D01*
X124208717Y-105939038D01*
X124208716Y-108129086D01*
X121050074Y-108129086D01*
X121050282Y-108123365D01*
X121050742Y-108084645D01*
X121050488Y-108057457D01*
X121049725Y-108031070D01*
X121048448Y-108005462D01*
X121046653Y-107980610D01*
X121044335Y-107956488D01*
X121041490Y-107933074D01*
X121038113Y-107910345D01*
X121034201Y-107888276D01*
X121029929Y-107867044D01*
X121025478Y-107846424D01*
X121020844Y-107826419D01*
X121016029Y-107807036D01*
X121011030Y-107788280D01*
X121005848Y-107770156D01*
X121000482Y-107752672D01*
X120994930Y-107735829D01*
X120983444Y-107704346D01*
X120972390Y-107675062D01*
X120961754Y-107647869D01*
X120951521Y-107622659D01*
X120562916Y-107622659D01*
X120566269Y-107626770D01*
X120569637Y-107631156D01*
X120576414Y-107640744D01*
X120583237Y-107651407D01*
X120590095Y-107663131D01*
X120596981Y-107675901D01*
X120603882Y-107689702D01*
X120610790Y-107704516D01*
X120617695Y-107720330D01*
X120624471Y-107737266D01*
X120631005Y-107754638D01*
X120637296Y-107772466D01*
X120643348Y-107790769D01*
X120649166Y-107809570D01*
X120654751Y-107828888D01*
X120660106Y-107848743D01*
X120665236Y-107869157D01*
X120669766Y-107889804D01*
X120673722Y-107910349D01*
X120677093Y-107930790D01*
X120679871Y-107951125D01*
X120682047Y-107971356D01*
X120683613Y-107991484D01*
X120684559Y-108011506D01*
X120684876Y-108031422D01*
X120684563Y-108053350D01*
X120683627Y-108074811D01*
X120682070Y-108095808D01*
X120679894Y-108116341D01*
X120677101Y-108136415D01*
X120673692Y-108156032D01*
X120669674Y-108175193D01*
X120665044Y-108193900D01*
X120659807Y-108212157D01*
X120653965Y-108229965D01*
X120647519Y-108247327D01*
X120640473Y-108264246D01*
X120632827Y-108280722D01*
X120624587Y-108296760D01*
X120615752Y-108312361D01*
X120606326Y-108327527D01*
X120596366Y-108342237D01*
X120585931Y-108356476D01*
X120575020Y-108370242D01*
X120563632Y-108383536D01*
X120551764Y-108396360D01*
X120539416Y-108408717D01*
X120526588Y-108420607D01*
X120513277Y-108432031D01*
X120499482Y-108442992D01*
X120485203Y-108453490D01*
X120470438Y-108463527D01*
X120455186Y-108473104D01*
X120439446Y-108482223D01*
X120423216Y-108490885D01*
X120406497Y-108499092D01*
X120389285Y-108506844D01*
X120371639Y-108514144D01*
X120353618Y-108520990D01*
X120335224Y-108527378D01*
X120316455Y-108533308D01*
X120297312Y-108538776D01*
X120277797Y-108543781D01*
X120257908Y-108548318D01*
X120237646Y-108552389D01*
X120217013Y-108555988D01*
X120196006Y-108559115D01*
X120174629Y-108561768D01*
X120152878Y-108563943D01*
X120130758Y-108565638D01*
X120115323Y-108566471D01*
X120108267Y-108566852D01*
X120085404Y-108567582D01*
X120062172Y-108567826D01*
X120039602Y-108567556D01*
X120017472Y-108566748D01*
X119995781Y-108565401D01*
X119974530Y-108563516D01*
X119953718Y-108561094D01*
X119933344Y-108558135D01*
X119913408Y-108554638D01*
X119893910Y-108550606D01*
X119874850Y-108546038D01*
X119856228Y-108540935D01*
X119838042Y-108535296D01*
X119820294Y-108529123D01*
X119802982Y-108522417D01*
X119786107Y-108515176D01*
X119769668Y-108507403D01*
X119753665Y-108499097D01*
X119738018Y-108490337D01*
X119722857Y-108481201D01*
X119708181Y-108471688D01*
X119693989Y-108461799D01*
X119680278Y-108451533D01*
X119667049Y-108440889D01*
X119654298Y-108429867D01*
X119642027Y-108418466D01*
X119630232Y-108406687D01*
X119618913Y-108394528D01*
X119608067Y-108381990D01*
X119597694Y-108369070D01*
X119587796Y-108355770D01*
X119578365Y-108342088D01*
X119569405Y-108328025D01*
X119560912Y-108313580D01*
X119553014Y-108298932D01*
X119545628Y-108284050D01*
X119538754Y-108268937D01*
X119532391Y-108253593D01*
X119526540Y-108238021D01*
X119521199Y-108222222D01*
X119516369Y-108206197D01*
X119512048Y-108189949D01*
X119508238Y-108173478D01*
X119504936Y-108156787D01*
X119502145Y-108139877D01*
X119499860Y-108122750D01*
X119498084Y-108105407D01*
X119496816Y-108087849D01*
X119496056Y-108070079D01*
X119495802Y-108052098D01*
X119496120Y-108024398D01*
X119497068Y-107997759D01*
X119498637Y-107972193D01*
X119500815Y-107947714D01*
X119503595Y-107924330D01*
X119506965Y-107902059D01*
X119510918Y-107880909D01*
X119515442Y-107860894D01*
X119520529Y-107841733D01*
X119525763Y-107823545D01*
X119531156Y-107806313D01*
X119536720Y-107790015D01*
X119542467Y-107774631D01*
X119548408Y-107760142D01*
X119554556Y-107746528D01*
X119560923Y-107733769D01*
X119566070Y-107724104D01*
X119571335Y-107714503D01*
X119576717Y-107704968D01*
X119582216Y-107695500D01*
X119587830Y-107686100D01*
X119593560Y-107676769D01*
X119599404Y-107667508D01*
X119605362Y-107658318D01*
X119198670Y-107597336D01*
X119195825Y-107611682D01*
X119192736Y-107626273D01*
X119185873Y-107656179D01*
X119178172Y-107687024D01*
X119169730Y-107718777D01*
X119165198Y-107735047D01*
X119160798Y-107752082D01*
X119156521Y-107769886D01*
X119152359Y-107788469D01*
X119148301Y-107807835D01*
X119144337Y-107827992D01*
X119136660Y-107870705D01*
X119133347Y-107893520D01*
X119130493Y-107917645D01*
X119128093Y-107943087D01*
X119126140Y-107969856D01*
X119124632Y-107997956D01*
X119123560Y-108027397D01*
X119122922Y-108058186D01*
X119122710Y-108090329D01*
X119122691Y-108090333D01*
X118017154Y-108090333D01*
X118022500Y-108052317D01*
X118028212Y-108001773D01*
X118032696Y-107949869D01*
X118035928Y-107896607D01*
X118037885Y-107841985D01*
X118038542Y-107786004D01*
X118037210Y-107707819D01*
X118035547Y-107669679D01*
X118033219Y-107632179D01*
X118030228Y-107595321D01*
X118026575Y-107559108D01*
X118022260Y-107523542D01*
X118017284Y-107488627D01*
X118011649Y-107454366D01*
X118005354Y-107420760D01*
X117998401Y-107387814D01*
X117990791Y-107355530D01*
X117982524Y-107323910D01*
X117973602Y-107292958D01*
X117964025Y-107262676D01*
X117953794Y-107233067D01*
X117935426Y-107185566D01*
X117915280Y-107140054D01*
X117893409Y-107096500D01*
X117869869Y-107054872D01*
X117844716Y-107015140D01*
X117818005Y-106977270D01*
X117789790Y-106941233D01*
X117760128Y-106906994D01*
X117729074Y-106874525D01*
X117696684Y-106843792D01*
X117663012Y-106814764D01*
X117628114Y-106787411D01*
X117554862Y-106737598D01*
X117477371Y-106694101D01*
X117396084Y-106656668D01*
X117311444Y-106625045D01*
X117223894Y-106598980D01*
X117133877Y-106578222D01*
X117041836Y-106562515D01*
X116948213Y-106551609D01*
X116853453Y-106545250D01*
X116758000Y-106543187D01*
X115031491Y-106543187D01*
X115031491Y-107391713D01*
X116662400Y-107391713D01*
X116697046Y-107391903D01*
X116730718Y-107392480D01*
X116763392Y-107393454D01*
X116795043Y-107394836D01*
X116825651Y-107396634D01*
X116855189Y-107398860D01*
X116883633Y-107401523D01*
X116910963Y-107404633D01*
X116958768Y-107410849D01*
X116983985Y-107414973D01*
X117009766Y-107419882D01*
X117035874Y-107425656D01*
X117062074Y-107432372D01*
X117088131Y-107440112D01*
X117113809Y-107448955D01*
X117138873Y-107458981D01*
X117163088Y-107470269D01*
X117186217Y-107482898D01*
X117197301Y-107489741D01*
X117208026Y-107496950D01*
X117218362Y-107504533D01*
X117228279Y-107512502D01*
X117237749Y-107520866D01*
X117246741Y-107529635D01*
X117255227Y-107538820D01*
X117263177Y-107548429D01*
X117270561Y-107558473D01*
X117277350Y-107568963D01*
X117285027Y-107582593D01*
X117292163Y-107596994D01*
X117304780Y-107627879D01*
X117315133Y-107661148D01*
X117323155Y-107696333D01*
X117328775Y-107732968D01*
X117331929Y-107770582D01*
X117332546Y-107808707D01*
X117330559Y-107846877D01*
X117325900Y-107884622D01*
X117318501Y-107921473D01*
X117313752Y-107939418D01*
X117308293Y-107956964D01*
X117302115Y-107974053D01*
X117295209Y-107990625D01*
X117287568Y-108006624D01*
X117279181Y-108021989D01*
X117270042Y-108036663D01*
X117260140Y-108050587D01*
X117249469Y-108063702D01*
X117238019Y-108075949D01*
X117225783Y-108087273D01*
X117212750Y-108097611D01*
X117197003Y-108108377D01*
X117180544Y-108118324D01*
X117163446Y-108127490D01*
X117145782Y-108135911D01*
X117127624Y-108143622D01*
X117109046Y-108150664D01*
X117090120Y-108157069D01*
X117070918Y-108162878D01*
X117051515Y-108168123D01*
X117031981Y-108172843D01*
X117012390Y-108177075D01*
X116992815Y-108180854D01*
X116954003Y-108187203D01*
X116916127Y-108192181D01*
X116887981Y-108195097D01*
X116858762Y-108197569D01*
X116828494Y-108199605D01*
X116797206Y-108201216D01*
X116764924Y-108202408D01*
X116731677Y-108203189D01*
X116697492Y-108203568D01*
X116662396Y-108203553D01*
X115031486Y-108195752D01*
X112588544Y-108195752D01*
X111692671Y-107415433D01*
X111692671Y-111693726D01*
X96495666Y-111693726D01*
X96495666Y-106477321D01*
X119122254Y-106477321D01*
X119122710Y-106510583D01*
X119122712Y-106510587D01*
X119124005Y-106542977D01*
X119126005Y-106574913D01*
X119128713Y-106606398D01*
X119132129Y-106637430D01*
X119136254Y-106668010D01*
X119141088Y-106698138D01*
X119146633Y-106727815D01*
X119152889Y-106757040D01*
X119159858Y-106785815D01*
X119167540Y-106814139D01*
X119175935Y-106842013D01*
X119185045Y-106869438D01*
X119194871Y-106896412D01*
X119205414Y-106922937D01*
X119216671Y-106949013D01*
X119228648Y-106974641D01*
X119241314Y-106999714D01*
X119254849Y-107024126D01*
X119269255Y-107047877D01*
X119284527Y-107070963D01*
X119300665Y-107093384D01*
X119317670Y-107115135D01*
X119335537Y-107136218D01*
X119354269Y-107156630D01*
X119373865Y-107176369D01*
X119394321Y-107195433D01*
X119415637Y-107213822D01*
X119437813Y-107231530D01*
X119460847Y-107248560D01*
X119484738Y-107264908D01*
X119509485Y-107280573D01*
X119535088Y-107295552D01*
X119561518Y-107309758D01*
X119588954Y-107323106D01*
X119617397Y-107335596D01*
X119646843Y-107347226D01*
X119677294Y-107357997D01*
X119708747Y-107367907D01*
X119741202Y-107376957D01*
X119774658Y-107385145D01*
X119809113Y-107392471D01*
X119844567Y-107398936D01*
X119881019Y-107404537D01*
X119918468Y-107409274D01*
X119956912Y-107413147D01*
X119996350Y-107416155D01*
X120036783Y-107418298D01*
X120078207Y-107419576D01*
X120115323Y-107419685D01*
X120151817Y-107418968D01*
X120187689Y-107417425D01*
X120222943Y-107415054D01*
X120257576Y-107411856D01*
X120291585Y-107407830D01*
X120324976Y-107402975D01*
X120357745Y-107397292D01*
X120389893Y-107390778D01*
X120421422Y-107383434D01*
X120452328Y-107375259D01*
X120482615Y-107366253D01*
X120512281Y-107356415D01*
X120541326Y-107345744D01*
X120569751Y-107334241D01*
X120597556Y-107321904D01*
X120624749Y-107308780D01*
X120651135Y-107294915D01*
X120676714Y-107280309D01*
X120701487Y-107264958D01*
X120725457Y-107248862D01*
X120748625Y-107232019D01*
X120770992Y-107214427D01*
X120792562Y-107196086D01*
X120813334Y-107176993D01*
X120833310Y-107157147D01*
X120852493Y-107136547D01*
X120870883Y-107115192D01*
X120888483Y-107093078D01*
X120905293Y-107070206D01*
X120921316Y-107046574D01*
X120936553Y-107022179D01*
X120950917Y-106997191D01*
X120964324Y-106971567D01*
X120976771Y-106945307D01*
X120988258Y-106918406D01*
X120998784Y-106890868D01*
X121008347Y-106862686D01*
X121016945Y-106833862D01*
X121024579Y-106804392D01*
X121031246Y-106774275D01*
X121036945Y-106743509D01*
X121041676Y-106712094D01*
X121045437Y-106680026D01*
X121048227Y-106647305D01*
X121050044Y-106613929D01*
X121050888Y-106579896D01*
X121050757Y-106545205D01*
X121049660Y-106513244D01*
X121047830Y-106481758D01*
X121045265Y-106450747D01*
X121041961Y-106420210D01*
X121037918Y-106390150D01*
X121033130Y-106360565D01*
X121030083Y-106344532D01*
X121027598Y-106331458D01*
X121021316Y-106302825D01*
X121014283Y-106274670D01*
X121006496Y-106246993D01*
X120997952Y-106219793D01*
X120988648Y-106193071D01*
X120978583Y-106166827D01*
X120967752Y-106141063D01*
X120956155Y-106115776D01*
X120943787Y-106090970D01*
X120930702Y-106066630D01*
X120916747Y-106042955D01*
X120901924Y-106019945D01*
X120886232Y-105997596D01*
X120869673Y-105975911D01*
X120852249Y-105954887D01*
X120833959Y-105934525D01*
X120814807Y-105914823D01*
X120794792Y-105895782D01*
X120773915Y-105877399D01*
X120752179Y-105859675D01*
X120729583Y-105842609D01*
X120706129Y-105826200D01*
X120681818Y-105810448D01*
X120656651Y-105795352D01*
X120630629Y-105780911D01*
X120603596Y-105767217D01*
X120575603Y-105754358D01*
X120546649Y-105742332D01*
X120516735Y-105731140D01*
X120485862Y-105720781D01*
X120454027Y-105711253D01*
X120421233Y-105702556D01*
X120387478Y-105694689D01*
X120352764Y-105687651D01*
X120317087Y-105681442D01*
X120280451Y-105676060D01*
X120242854Y-105671505D01*
X120204296Y-105667776D01*
X120164779Y-105664873D01*
X120124299Y-105662793D01*
X120082859Y-105661538D01*
X120045853Y-105661326D01*
X120009475Y-105661942D01*
X119973727Y-105663387D01*
X119938605Y-105665660D01*
X119904114Y-105668763D01*
X119870250Y-105672695D01*
X119837013Y-105677456D01*
X119804404Y-105683047D01*
X119772423Y-105689468D01*
X119741068Y-105696718D01*
X119710340Y-105704798D01*
X119680239Y-105713709D01*
X119650764Y-105723450D01*
X119621916Y-105734021D01*
X119593691Y-105745424D01*
X119566094Y-105757657D01*
X119539111Y-105770565D01*
X119512943Y-105784197D01*
X119487588Y-105798553D01*
X119463043Y-105813629D01*
X119439308Y-105829425D01*
X119416381Y-105845939D01*
X119394260Y-105863168D01*
X119372945Y-105881111D01*
X119352433Y-105899767D01*
X119332725Y-105919133D01*
X119313815Y-105939206D01*
X119295705Y-105959988D01*
X119278394Y-105981474D01*
X119261878Y-106003663D01*
X119246158Y-106026555D01*
X119231230Y-106050145D01*
X119217187Y-106074390D01*
X119204115Y-106099246D01*
X119192012Y-106124711D01*
X119180880Y-106150784D01*
X119170717Y-106177464D01*
X119161522Y-106204748D01*
X119153296Y-106232637D01*
X119146037Y-106261128D01*
X119139744Y-106290220D01*
X119134417Y-106319912D01*
X119130056Y-106350202D01*
X119126660Y-106381089D01*
X119124228Y-106412572D01*
X119122759Y-106444651D01*
X119122254Y-106477321D01*
X96495666Y-106477321D01*
X96495666Y-99315156D01*
X111692671Y-99315156D01*
X111692671Y-104040448D01*
X112730334Y-104944268D01*
X112730334Y-103529370D01*
X115031485Y-103529370D01*
X115031485Y-104319505D01*
X115841021Y-104325746D01*
X116041719Y-104323791D01*
X116242569Y-104317805D01*
X116443983Y-104306477D01*
X116646374Y-104288495D01*
X116557019Y-104332966D01*
X116463124Y-104383118D01*
X116264288Y-104497669D01*
X116055000Y-104626560D01*
X115840394Y-104764201D01*
X115415769Y-105043381D01*
X115216017Y-105173743D01*
X115031486Y-105290501D01*
X115031486Y-106067715D01*
X117934147Y-106067712D01*
X118008047Y-106067712D01*
X118008047Y-105351998D01*
X119142859Y-105351998D01*
X121030083Y-105352006D01*
X121030083Y-104922574D01*
X120215145Y-104922574D01*
X119732487Y-104980965D01*
X120019291Y-104844022D01*
X121030083Y-104231656D01*
X121030083Y-103756749D01*
X119641026Y-103756750D01*
X119142859Y-103756749D01*
X119142859Y-104185662D01*
X119973816Y-104185662D01*
X120453890Y-104134503D01*
X120179490Y-104264729D01*
X119142859Y-104909650D01*
X119142859Y-105351998D01*
X118008047Y-105351998D01*
X118008047Y-105276548D01*
X117211973Y-105269348D01*
X117016862Y-105271442D01*
X116821286Y-105278042D01*
X116624231Y-105290623D01*
X116424681Y-105310658D01*
X116514700Y-105266127D01*
X116608362Y-105216957D01*
X116804510Y-105106953D01*
X117008926Y-104985138D01*
X117217411Y-104856007D01*
X117629789Y-104593771D01*
X117825283Y-104469653D01*
X118008047Y-104356194D01*
X118008047Y-103529370D01*
X115031485Y-103529370D01*
X112730334Y-103529370D01*
X112730334Y-101891229D01*
X115000987Y-101891229D01*
X115008101Y-102168704D01*
X115018321Y-102444621D01*
X115027496Y-102720957D01*
X115030396Y-102859900D01*
X115031477Y-102999688D01*
X118008044Y-102999688D01*
X118009593Y-102753205D01*
X119122710Y-102753205D01*
X119123217Y-102790382D01*
X119124736Y-102826652D01*
X119127260Y-102862031D01*
X119130783Y-102896533D01*
X119135300Y-102930172D01*
X119140803Y-102962961D01*
X119147289Y-102994920D01*
X119154749Y-103026059D01*
X119158957Y-103041302D01*
X119163427Y-103056293D01*
X119168157Y-103071031D01*
X119173145Y-103085512D01*
X119178389Y-103099734D01*
X119183887Y-103113695D01*
X119189637Y-103127395D01*
X119195638Y-103140827D01*
X119201887Y-103153992D01*
X119208382Y-103166888D01*
X119215122Y-103179509D01*
X119222104Y-103191855D01*
X119229327Y-103203926D01*
X119236788Y-103215717D01*
X119244486Y-103227226D01*
X119252419Y-103238450D01*
X119260401Y-103249360D01*
X119268700Y-103260003D01*
X119277310Y-103270370D01*
X119286221Y-103280459D01*
X119295429Y-103290263D01*
X119304924Y-103299773D01*
X119314701Y-103308986D01*
X119324752Y-103317893D01*
X119335070Y-103326490D01*
X119345648Y-103334771D01*
X119356478Y-103342729D01*
X119367554Y-103350358D01*
X119378868Y-103357651D01*
X119390413Y-103364604D01*
X119402182Y-103371209D01*
X119414168Y-103377461D01*
X119426424Y-103383340D01*
X119438940Y-103388853D01*
X119451714Y-103393997D01*
X119464746Y-103398771D01*
X119478036Y-103403173D01*
X119491582Y-103407201D01*
X119505384Y-103410854D01*
X119519442Y-103414130D01*
X119533755Y-103417029D01*
X119548322Y-103419544D01*
X119563142Y-103421678D01*
X119578216Y-103423428D01*
X119593541Y-103424793D01*
X119609119Y-103425769D01*
X119624947Y-103426356D01*
X119641026Y-103426553D01*
X119659779Y-103426309D01*
X119678194Y-103425579D01*
X119696276Y-103424364D01*
X119714026Y-103422669D01*
X119731446Y-103420493D01*
X119748538Y-103417841D01*
X119765306Y-103414713D01*
X119781752Y-103411114D01*
X119797877Y-103407044D01*
X119813685Y-103402505D01*
X119829177Y-103397500D01*
X119844356Y-103392032D01*
X119859225Y-103386103D01*
X119873786Y-103379715D01*
X119888040Y-103372870D01*
X119901991Y-103365571D01*
X119915537Y-103357815D01*
X119928867Y-103349727D01*
X119941974Y-103341311D01*
X119954854Y-103332573D01*
X119967501Y-103323517D01*
X119979908Y-103314148D01*
X119992070Y-103304472D01*
X120003983Y-103294492D01*
X120015638Y-103284215D01*
X120027032Y-103273645D01*
X120038159Y-103262785D01*
X120049012Y-103251645D01*
X120059586Y-103240224D01*
X120069875Y-103228531D01*
X120079874Y-103216567D01*
X120089577Y-103204343D01*
X120108727Y-103178944D01*
X120127276Y-103152932D01*
X120145206Y-103126309D01*
X120162501Y-103099082D01*
X120179142Y-103071251D01*
X120195112Y-103042825D01*
X120210393Y-103013807D01*
X120224967Y-102984200D01*
X120257154Y-102917316D01*
X120286685Y-102857277D01*
X120313392Y-102804242D01*
X120337107Y-102758374D01*
X120342634Y-102748007D01*
X120348133Y-102738020D01*
X120353607Y-102728410D01*
X120359059Y-102719176D01*
X120364489Y-102710321D01*
X120369900Y-102701839D01*
X120375294Y-102693732D01*
X120380673Y-102685998D01*
X120386039Y-102678637D01*
X120391395Y-102671648D01*
X120396741Y-102665027D01*
X120402080Y-102658778D01*
X120407414Y-102652895D01*
X120412745Y-102647381D01*
X120418076Y-102642234D01*
X120423407Y-102637452D01*
X120428811Y-102632998D01*
X120434364Y-102628833D01*
X120440062Y-102624958D01*
X120445908Y-102621372D01*
X120451898Y-102618073D01*
X120458035Y-102615064D01*
X120464316Y-102612343D01*
X120470741Y-102609909D01*
X120477310Y-102607763D01*
X120484023Y-102605904D01*
X120490878Y-102604331D01*
X120497875Y-102603046D01*
X120505014Y-102602046D01*
X120512295Y-102601333D01*
X120519716Y-102600905D01*
X120527277Y-102600762D01*
X120537554Y-102601001D01*
X120547474Y-102601714D01*
X120557038Y-102602902D01*
X120566248Y-102604564D01*
X120570720Y-102605573D01*
X120575103Y-102606700D01*
X120579398Y-102607945D01*
X120583604Y-102609309D01*
X120587722Y-102610790D01*
X120591751Y-102612389D01*
X120595692Y-102614105D01*
X120599545Y-102615940D01*
X120603311Y-102617892D01*
X120606986Y-102619962D01*
X120610575Y-102622149D01*
X120614075Y-102624453D01*
X120617487Y-102626874D01*
X120620812Y-102629413D01*
X120624048Y-102632069D01*
X120627197Y-102634841D01*
X120630258Y-102637731D01*
X120633233Y-102640737D01*
X120636117Y-102643860D01*
X120638916Y-102647099D01*
X120641627Y-102650455D01*
X120644249Y-102653928D01*
X120646785Y-102657515D01*
X120649233Y-102661221D01*
X120653798Y-102669033D01*
X120658080Y-102677414D01*
X120662080Y-102686366D01*
X120665793Y-102695890D01*
X120669221Y-102705986D01*
X120672360Y-102716655D01*
X120675207Y-102727897D01*
X120677763Y-102739714D01*
X120680024Y-102752106D01*
X120681990Y-102765073D01*
X120683658Y-102778617D01*
X120685027Y-102792738D01*
X120686095Y-102807437D01*
X120686860Y-102822714D01*
X120687320Y-102838571D01*
X120687474Y-102855008D01*
X120687156Y-102879660D01*
X120686207Y-102904271D01*
X120684626Y-102928836D01*
X120682417Y-102953353D01*
X120679580Y-102977817D01*
X120676118Y-103002226D01*
X120672032Y-103026575D01*
X120667324Y-103050862D01*
X120662378Y-103075035D01*
X120657156Y-103098632D01*
X120651662Y-103121662D01*
X120645902Y-103144135D01*
X120639881Y-103166060D01*
X120633603Y-103187445D01*
X120627073Y-103208299D01*
X120620295Y-103228631D01*
X120613228Y-103247998D01*
X120606248Y-103266368D01*
X120599351Y-103283735D01*
X120592535Y-103300089D01*
X120585798Y-103315424D01*
X120579137Y-103329732D01*
X120572550Y-103343006D01*
X120566035Y-103355237D01*
X120933972Y-103413627D01*
X120939692Y-103403592D01*
X120945567Y-103391883D01*
X120951596Y-103378501D01*
X120957781Y-103363446D01*
X120964123Y-103346718D01*
X120970624Y-103328319D01*
X120977283Y-103308247D01*
X120984103Y-103286504D01*
X120990675Y-103263588D01*
X120997015Y-103239594D01*
X121003131Y-103214532D01*
X121009031Y-103188413D01*
X121014722Y-103161249D01*
X121020210Y-103133051D01*
X121025505Y-103103831D01*
X121030613Y-103073598D01*
X121035312Y-103042872D01*
X121039395Y-103011749D01*
X121042855Y-102980229D01*
X121045694Y-102948316D01*
X121047907Y-102916011D01*
X121049492Y-102883316D01*
X121050444Y-102850233D01*
X121050763Y-102816766D01*
X121050488Y-102789319D01*
X121049663Y-102762388D01*
X121048291Y-102735973D01*
X121046371Y-102710077D01*
X121043905Y-102684703D01*
X121040893Y-102659852D01*
X121037337Y-102635526D01*
X121033238Y-102611727D01*
X121030135Y-102596169D01*
X121028596Y-102588457D01*
X121023413Y-102565719D01*
X121017690Y-102543513D01*
X121011427Y-102521844D01*
X121004626Y-102500712D01*
X120997288Y-102480119D01*
X120989413Y-102460068D01*
X120981002Y-102440560D01*
X120972113Y-102421624D01*
X120962797Y-102403286D01*
X120953054Y-102385544D01*
X120942880Y-102368395D01*
X120932276Y-102351836D01*
X120921238Y-102335866D01*
X120909766Y-102320482D01*
X120897858Y-102305682D01*
X120885513Y-102291463D01*
X120872728Y-102277823D01*
X120859502Y-102264760D01*
X120845833Y-102252272D01*
X120831720Y-102240355D01*
X120817161Y-102229009D01*
X120802155Y-102218230D01*
X120786700Y-102208016D01*
X120770841Y-102198394D01*
X120754629Y-102189389D01*
X120738064Y-102181005D01*
X120721151Y-102173237D01*
X120703888Y-102166089D01*
X120686280Y-102159561D01*
X120668329Y-102153652D01*
X120650036Y-102148364D01*
X120631402Y-102143697D01*
X120612432Y-102139651D01*
X120593125Y-102136226D01*
X120573484Y-102133423D01*
X120553513Y-102131243D01*
X120533212Y-102129685D01*
X120512582Y-102128750D01*
X120491627Y-102128438D01*
X120477815Y-102128569D01*
X120464187Y-102128965D01*
X120450746Y-102129626D01*
X120437495Y-102130554D01*
X120424437Y-102131750D01*
X120411574Y-102133217D01*
X120398908Y-102134954D01*
X120386442Y-102136965D01*
X120374179Y-102139251D01*
X120362121Y-102141811D01*
X120350271Y-102144649D01*
X120338631Y-102147767D01*
X120327203Y-102151165D01*
X120315991Y-102154845D01*
X120304996Y-102158808D01*
X120294222Y-102163056D01*
X120283537Y-102167574D01*
X120273014Y-102172345D01*
X120262652Y-102177373D01*
X120252449Y-102182654D01*
X120242403Y-102188189D01*
X120232512Y-102193979D01*
X120222775Y-102200023D01*
X120213190Y-102206322D01*
X120203756Y-102212876D01*
X120194471Y-102219684D01*
X120185331Y-102226748D01*
X120176337Y-102234067D01*
X120167486Y-102241640D01*
X120158778Y-102249470D01*
X120150208Y-102257553D01*
X120141778Y-102265893D01*
X120125015Y-102283064D01*
X120108597Y-102301128D01*
X120092522Y-102320092D01*
X120076789Y-102339965D01*
X120061395Y-102360752D01*
X120046339Y-102382461D01*
X120031621Y-102405099D01*
X120017237Y-102428674D01*
X120001780Y-102455173D01*
X119986730Y-102481899D01*
X119972091Y-102508846D01*
X119957860Y-102536011D01*
X119944045Y-102563389D01*
X119930644Y-102590974D01*
X119917661Y-102618762D01*
X119905098Y-102646748D01*
X119892118Y-102674707D01*
X119879505Y-102701298D01*
X119867241Y-102726536D01*
X119855308Y-102750429D01*
X119843689Y-102772989D01*
X119832364Y-102794228D01*
X119821317Y-102814156D01*
X119810528Y-102832783D01*
X119805193Y-102841624D01*
X119799847Y-102850166D01*
X119794491Y-102858407D01*
X119789124Y-102866348D01*
X119783745Y-102873990D01*
X119778355Y-102881331D01*
X119772953Y-102888372D01*
X119767538Y-102895112D01*
X119762110Y-102901552D01*
X119756668Y-102907691D01*
X119751212Y-102913529D01*
X119745742Y-102919066D01*
X119740257Y-102924303D01*
X119734756Y-102929237D01*
X119729240Y-102933871D01*
X119723708Y-102938203D01*
X119718214Y-102942254D01*
X119712607Y-102946048D01*
X119706888Y-102949582D01*
X119701059Y-102952857D01*
X119695122Y-102955873D01*
X119689076Y-102958629D01*
X119682923Y-102961124D01*
X119676665Y-102963358D01*
X119670302Y-102965331D01*
X119663836Y-102967043D01*
X119657268Y-102968492D01*
X119650599Y-102969678D01*
X119643831Y-102970602D01*
X119636963Y-102971261D01*
X119629999Y-102971659D01*
X119622939Y-102971791D01*
X119617127Y-102971680D01*
X119611403Y-102971347D01*
X119605765Y-102970792D01*
X119600216Y-102970018D01*
X119594752Y-102969023D01*
X119589375Y-102967812D01*
X119584083Y-102966382D01*
X119578876Y-102964736D01*
X119573755Y-102962875D01*
X119568719Y-102960798D01*
X119563766Y-102958508D01*
X119558898Y-102956005D01*
X119554114Y-102953290D01*
X119549412Y-102950364D01*
X119544794Y-102947228D01*
X119540259Y-102943882D01*
X119535833Y-102940316D01*
X119531546Y-102936514D01*
X119527398Y-102932478D01*
X119523386Y-102928209D01*
X119519510Y-102923702D01*
X119515769Y-102918961D01*
X119512161Y-102913986D01*
X119508684Y-102908774D01*
X119505339Y-102903329D01*
X119502123Y-102897648D01*
X119499035Y-102891731D01*
X119496075Y-102885579D01*
X119493240Y-102879191D01*
X119490531Y-102872568D01*
X119487944Y-102865708D01*
X119485480Y-102858613D01*
X119483043Y-102851378D01*
X119480777Y-102843890D01*
X119478677Y-102836150D01*
X119476741Y-102828157D01*
X119473360Y-102811410D01*
X119470620Y-102793646D01*
X119468510Y-102774863D01*
X119467019Y-102755059D01*
X119466132Y-102734227D01*
X119465840Y-102712369D01*
X119466399Y-102681517D01*
X119468118Y-102650741D01*
X119470994Y-102620072D01*
X119475019Y-102589545D01*
X119480191Y-102559191D01*
X119486503Y-102529042D01*
X119493951Y-102499131D01*
X119502530Y-102469491D01*
X119507268Y-102454887D01*
X119512074Y-102440766D01*
X119516944Y-102427126D01*
X119521877Y-102413969D01*
X119526871Y-102401294D01*
X119531924Y-102389102D01*
X119537032Y-102377393D01*
X119542196Y-102366168D01*
X119547411Y-102355426D01*
X119552679Y-102345168D01*
X119557992Y-102335393D01*
X119563352Y-102326103D01*
X119568756Y-102317297D01*
X119574201Y-102308976D01*
X119579687Y-102301141D01*
X119585209Y-102293790D01*
X119232260Y-102219891D01*
X119224392Y-102233764D01*
X119216262Y-102250288D01*
X119207868Y-102269459D01*
X119199214Y-102291273D01*
X119190296Y-102315728D01*
X119181118Y-102342819D01*
X119171679Y-102372541D01*
X119161979Y-102404893D01*
X119152767Y-102439822D01*
X119144786Y-102477269D01*
X119142859Y-102488672D01*
X119138036Y-102517203D01*
X119132516Y-102559598D01*
X119128224Y-102604422D01*
X119125160Y-102651648D01*
X119123322Y-102701247D01*
X119122710Y-102753190D01*
X119122710Y-102753205D01*
X118009593Y-102753205D01*
X118011143Y-102506695D01*
X118026263Y-102219425D01*
X118032731Y-102076143D01*
X118035656Y-101996648D01*
X119142859Y-101996648D01*
X119506661Y-101996644D01*
X119506661Y-101493317D01*
X121030083Y-101493317D01*
X121030083Y-101242165D01*
X122800000Y-101242165D01*
X122800000Y-105251740D01*
X123838179Y-106153496D01*
X123838179Y-102146504D01*
X122800000Y-101242165D01*
X121030083Y-101242165D01*
X121030083Y-101015828D01*
X119506661Y-101015828D01*
X119506662Y-100513016D01*
X119142859Y-100513016D01*
X119142859Y-101996648D01*
X118035656Y-101996648D01*
X118038014Y-101932572D01*
X118037479Y-101874337D01*
X118035459Y-101817144D01*
X118031961Y-101761003D01*
X118026991Y-101705924D01*
X118020557Y-101651915D01*
X118012667Y-101598989D01*
X118008053Y-101573384D01*
X118008048Y-101573363D01*
X118003327Y-101547155D01*
X117992545Y-101496423D01*
X117965544Y-101393725D01*
X117932329Y-101295996D01*
X117893065Y-101203272D01*
X117847926Y-101115593D01*
X117797081Y-101032998D01*
X117740701Y-100955527D01*
X117678956Y-100883218D01*
X117612017Y-100816109D01*
X117540052Y-100754241D01*
X117463234Y-100697652D01*
X117381732Y-100646381D01*
X117295716Y-100600467D01*
X117205357Y-100559950D01*
X117110826Y-100524866D01*
X117012291Y-100495257D01*
X116909924Y-100471162D01*
X116856043Y-100460767D01*
X116801049Y-100451750D01*
X116744963Y-100444113D01*
X116687809Y-100437859D01*
X116629609Y-100432990D01*
X116570388Y-100429510D01*
X116510166Y-100427418D01*
X116448968Y-100426720D01*
X116365407Y-100428117D01*
X116284093Y-100432293D01*
X116205053Y-100439229D01*
X116128313Y-100448902D01*
X116090813Y-100454760D01*
X116053898Y-100461293D01*
X116017572Y-100468502D01*
X115981835Y-100476383D01*
X115946695Y-100484932D01*
X115912152Y-100494148D01*
X115878210Y-100504028D01*
X115844872Y-100514569D01*
X115811506Y-100526011D01*
X115778735Y-100538168D01*
X115746560Y-100551040D01*
X115714989Y-100564623D01*
X115684022Y-100578913D01*
X115653664Y-100593906D01*
X115623921Y-100609599D01*
X115594792Y-100625988D01*
X115566285Y-100643069D01*
X115538403Y-100660840D01*
X115511148Y-100679296D01*
X115484526Y-100698434D01*
X115458540Y-100718251D01*
X115433194Y-100738742D01*
X115408491Y-100759905D01*
X115384435Y-100781735D01*
X115338048Y-100827915D01*
X115294644Y-100877180D01*
X115254226Y-100929530D01*
X115216795Y-100984965D01*
X115182351Y-101043488D01*
X115150896Y-101105098D01*
X115122431Y-101169798D01*
X115096957Y-101237586D01*
X115074477Y-101308466D01*
X115054989Y-101382436D01*
X115038495Y-101459499D01*
X115024999Y-101539655D01*
X115014500Y-101622905D01*
X115006998Y-101709251D01*
X115002497Y-101798691D01*
X115000996Y-101891229D01*
X115000987Y-101891229D01*
X112730334Y-101891229D01*
X112730334Y-100218976D01*
X111692671Y-99315156D01*
X96495666Y-99315156D01*
X96495666Y-98109026D01*
X115031486Y-98109026D01*
X115031487Y-100045342D01*
X118008048Y-100045342D01*
X118008048Y-99542535D01*
X119122710Y-99542535D01*
X119122771Y-99542527D01*
X119123444Y-99639070D01*
X119125428Y-99727103D01*
X119128668Y-99806563D01*
X119130742Y-99843059D01*
X119133110Y-99877389D01*
X119137469Y-99941881D01*
X119140523Y-100002431D01*
X119142321Y-100059113D01*
X119142910Y-100112000D01*
X119142910Y-100274266D01*
X121030135Y-100274266D01*
X121030135Y-99801942D01*
X120362475Y-99801942D01*
X120362205Y-99740313D01*
X120361362Y-99685015D01*
X120359902Y-99635986D01*
X120358924Y-99613805D01*
X120357775Y-99593171D01*
X120358569Y-99586649D01*
X120359697Y-99580252D01*
X120361157Y-99573980D01*
X120362949Y-99567832D01*
X120365073Y-99561805D01*
X120367527Y-99555901D01*
X120370307Y-99550116D01*
X120373416Y-99544449D01*
X120376853Y-99538900D01*
X120380614Y-99533467D01*
X120384699Y-99528150D01*
X120389110Y-99522946D01*
X120393843Y-99517857D01*
X120398897Y-99512877D01*
X120404272Y-99508009D01*
X120409966Y-99503251D01*
X120416463Y-99498266D01*
X120423197Y-99493348D01*
X120437380Y-99483717D01*
X120452511Y-99474365D01*
X120468587Y-99465295D01*
X120485603Y-99456513D01*
X120503555Y-99448024D01*
X120522442Y-99439832D01*
X120542258Y-99431943D01*
X120583896Y-99416215D01*
X120626871Y-99400727D01*
X120671205Y-99385344D01*
X120716923Y-99369931D01*
X120740202Y-99362268D01*
X120763207Y-99354332D01*
X120785943Y-99346128D01*
X120808414Y-99337659D01*
X120830624Y-99328928D01*
X120852576Y-99319939D01*
X120874274Y-99310696D01*
X120895724Y-99301203D01*
X120923877Y-99288628D01*
X120948061Y-99277694D01*
X120968168Y-99268436D01*
X120984093Y-99260892D01*
X120990137Y-99257841D01*
X120996102Y-99254642D01*
X121001986Y-99251301D01*
X121007785Y-99247815D01*
X121013498Y-99244187D01*
X121019120Y-99240420D01*
X121024649Y-99236514D01*
X121030083Y-99232472D01*
X121030083Y-98712090D01*
X120995977Y-98731313D01*
X120978959Y-98741156D01*
X120961873Y-98751370D01*
X120927508Y-98771415D01*
X120910311Y-98781205D01*
X120893143Y-98790639D01*
X120869794Y-98803868D01*
X120846157Y-98816793D01*
X120822223Y-98829412D01*
X120797984Y-98841721D01*
X120773432Y-98853716D01*
X120748557Y-98865395D01*
X120723351Y-98876753D01*
X120697806Y-98887788D01*
X120647206Y-98909192D01*
X120597480Y-98930730D01*
X120548696Y-98952371D01*
X120500920Y-98974087D01*
X120477648Y-98985284D01*
X120455084Y-98996715D01*
X120433228Y-99008390D01*
X120412077Y-99020317D01*
X120391632Y-99032505D01*
X120371892Y-99044964D01*
X120352856Y-99057703D01*
X120334523Y-99070730D01*
X120329347Y-99074527D01*
X120324276Y-99078394D01*
X120319309Y-99082328D01*
X120314446Y-99086323D01*
X120309688Y-99090383D01*
X120305033Y-99094502D01*
X120300483Y-99098677D01*
X120296038Y-99102907D01*
X120291697Y-99107189D01*
X120287461Y-99111521D01*
X120283329Y-99115900D01*
X120279302Y-99120325D01*
X120275380Y-99124792D01*
X120271563Y-99129300D01*
X120267850Y-99133846D01*
X120264243Y-99138429D01*
X120260645Y-99130931D01*
X120256968Y-99123500D01*
X120253221Y-99116141D01*
X120249413Y-99108857D01*
X120245553Y-99101652D01*
X120241650Y-99094530D01*
X120237889Y-99087872D01*
X120233752Y-99080549D01*
X120224960Y-99066625D01*
X120215729Y-99053083D01*
X120206057Y-99039920D01*
X120195945Y-99027136D01*
X120185392Y-99014732D01*
X120174397Y-99002708D01*
X120162957Y-98991063D01*
X120151076Y-98979797D01*
X120138749Y-98968910D01*
X120125977Y-98958401D01*
X120112760Y-98948272D01*
X120099096Y-98938520D01*
X120084986Y-98929148D01*
X120070428Y-98920153D01*
X120055421Y-98911537D01*
X120039965Y-98903298D01*
X120024121Y-98895504D01*
X120007740Y-98888219D01*
X119990824Y-98881443D01*
X119973372Y-98875174D01*
X119955384Y-98869413D01*
X119936860Y-98864157D01*
X119917800Y-98859406D01*
X119898205Y-98855160D01*
X119878073Y-98851416D01*
X119857406Y-98848174D01*
X119836204Y-98845434D01*
X119814464Y-98843194D01*
X119792191Y-98841454D01*
X119769381Y-98840212D01*
X119746036Y-98839467D01*
X119722155Y-98839219D01*
X119700128Y-98839456D01*
X119678581Y-98840168D01*
X119657514Y-98841358D01*
X119636925Y-98843027D01*
X119616816Y-98845177D01*
X119597185Y-98847813D01*
X119578032Y-98850934D01*
X119559357Y-98854542D01*
X119541158Y-98858641D01*
X119523436Y-98863232D01*
X119506189Y-98868317D01*
X119489419Y-98873898D01*
X119473123Y-98879978D01*
X119457302Y-98886559D01*
X119441956Y-98893642D01*
X119427082Y-98901231D01*
X119412735Y-98909132D01*
X119398756Y-98917368D01*
X119385149Y-98925934D01*
X119371918Y-98934829D01*
X119359065Y-98944051D01*
X119346594Y-98953600D01*
X119334509Y-98963472D01*
X119322813Y-98973667D01*
X119311508Y-98984180D01*
X119300599Y-98995012D01*
X119290088Y-99006161D01*
X119279980Y-99017625D01*
X119270276Y-99029402D01*
X119260982Y-99041490D01*
X119252098Y-99053888D01*
X119243630Y-99066594D01*
X119235425Y-99079536D01*
X119227535Y-99092645D01*
X119219962Y-99105923D01*
X119212703Y-99119369D01*
X119205756Y-99132984D01*
X119199120Y-99146767D01*
X119192794Y-99160720D01*
X119186777Y-99174843D01*
X119181067Y-99189135D01*
X119175662Y-99203599D01*
X119170562Y-99218231D01*
X119165765Y-99233036D01*
X119161270Y-99248011D01*
X119157075Y-99263160D01*
X119153179Y-99278478D01*
X119149580Y-99293969D01*
X119143295Y-99324934D01*
X119137842Y-99355937D01*
X119133225Y-99386975D01*
X119129444Y-99418041D01*
X119126500Y-99449135D01*
X119124395Y-99480251D01*
X119123131Y-99511387D01*
X119122710Y-99542535D01*
X118008048Y-99542535D01*
X118008049Y-98490918D01*
X119142859Y-98490918D01*
X120237889Y-98496106D01*
X120268078Y-98495805D01*
X120297804Y-98494902D01*
X120327065Y-98493396D01*
X120355861Y-98491286D01*
X120384190Y-98488572D01*
X120412051Y-98485252D01*
X120439443Y-98481327D01*
X120466366Y-98476794D01*
X120492820Y-98471654D01*
X120518800Y-98465905D01*
X120544309Y-98459548D01*
X120569345Y-98452580D01*
X120593907Y-98445002D01*
X120617993Y-98436812D01*
X120641603Y-98428010D01*
X120664736Y-98418595D01*
X120687309Y-98408492D01*
X120709239Y-98397629D01*
X120730526Y-98386005D01*
X120751172Y-98373622D01*
X120771176Y-98360479D01*
X120790537Y-98346577D01*
X120809258Y-98331917D01*
X120827338Y-98316498D01*
X120844778Y-98300322D01*
X120861579Y-98283388D01*
X120877739Y-98265696D01*
X120893260Y-98247249D01*
X120908142Y-98228045D01*
X120922385Y-98208084D01*
X120935991Y-98187369D01*
X120948959Y-98165898D01*
X120961311Y-98143495D01*
X120972862Y-98120191D01*
X120983613Y-98095983D01*
X120993562Y-98070871D01*
X121002712Y-98044852D01*
X121011062Y-98017924D01*
X121018614Y-97990086D01*
X121025368Y-97961334D01*
X121031325Y-97931668D01*
X121036486Y-97901085D01*
X121040851Y-97869583D01*
X121044420Y-97837161D01*
X121047195Y-97803816D01*
X121049176Y-97769547D01*
X121050365Y-97734352D01*
X121050761Y-97698228D01*
X121049926Y-97648179D01*
X121047421Y-97599856D01*
X121043248Y-97553259D01*
X121037406Y-97508387D01*
X121029896Y-97465239D01*
X121020719Y-97423818D01*
X121009875Y-97384122D01*
X120997364Y-97346149D01*
X120983187Y-97309902D01*
X120967344Y-97275380D01*
X120949836Y-97242583D01*
X120930664Y-97211511D01*
X120909827Y-97182163D01*
X120887327Y-97154540D01*
X120863165Y-97128641D01*
X120837337Y-97104466D01*
X120810032Y-97081985D01*
X120781431Y-97060959D01*
X120751534Y-97041384D01*
X120720342Y-97023263D01*
X120687854Y-97006593D01*
X120654074Y-96991375D01*
X120618998Y-96977608D01*
X120582628Y-96965292D01*
X120544965Y-96954426D01*
X120506009Y-96945011D01*
X120465759Y-96937045D01*
X120424217Y-96930528D01*
X120381382Y-96925460D01*
X120337255Y-96921841D01*
X120291836Y-96919670D01*
X120245125Y-96918946D01*
X119142867Y-96918946D01*
X119142867Y-97386101D01*
X120181563Y-97386101D01*
X120228536Y-97386650D01*
X120272858Y-97388301D01*
X120314523Y-97391062D01*
X120353527Y-97394939D01*
X120372030Y-97397299D01*
X120389865Y-97399941D01*
X120407033Y-97402865D01*
X120423532Y-97406073D01*
X120439363Y-97409566D01*
X120454524Y-97413344D01*
X120469016Y-97417409D01*
X120482836Y-97421761D01*
X120496070Y-97426295D01*
X120508802Y-97431114D01*
X120521032Y-97436219D01*
X120532759Y-97441608D01*
X120543984Y-97447282D01*
X120554705Y-97453238D01*
X120564925Y-97459477D01*
X120574641Y-97465997D01*
X120583854Y-97472798D01*
X120592564Y-97479880D01*
X120600770Y-97487240D01*
X120608473Y-97494881D01*
X120615672Y-97502799D01*
X120622368Y-97510994D01*
X120628560Y-97519465D01*
X120634247Y-97528214D01*
X120639414Y-97537236D01*
X120644253Y-97546533D01*
X120648763Y-97556103D01*
X120652943Y-97565948D01*
X120656793Y-97576071D01*
X120660312Y-97586471D01*
X120663499Y-97597149D01*
X120666354Y-97608108D01*
X120668876Y-97619347D01*
X120671063Y-97630869D01*
X120672916Y-97642674D01*
X120674434Y-97654762D01*
X120675616Y-97667137D01*
X120676461Y-97679798D01*
X120676968Y-97692746D01*
X120677138Y-97705983D01*
X120676979Y-97719024D01*
X120676504Y-97731803D01*
X120675711Y-97744319D01*
X120674600Y-97756571D01*
X120673171Y-97768558D01*
X120671422Y-97780280D01*
X120669355Y-97791735D01*
X120666968Y-97802924D01*
X120664260Y-97813844D01*
X120661232Y-97824496D01*
X120657883Y-97834878D01*
X120654212Y-97844989D01*
X120650220Y-97854831D01*
X120645906Y-97864398D01*
X120641268Y-97873695D01*
X120636307Y-97882717D01*
X120630820Y-97891575D01*
X120624813Y-97900165D01*
X120618289Y-97908484D01*
X120611246Y-97916532D01*
X120603691Y-97924307D01*
X120595620Y-97931806D01*
X120587038Y-97939028D01*
X120577944Y-97945970D01*
X120568340Y-97952632D01*
X120558228Y-97959011D01*
X120547610Y-97965105D01*
X120536486Y-97970912D01*
X120524856Y-97976431D01*
X120512726Y-97981660D01*
X120500094Y-97986596D01*
X120486962Y-97991239D01*
X120473223Y-97995597D01*
X120458769Y-97999678D01*
X120427718Y-98007000D01*
X120393809Y-98013186D01*
X120357049Y-98018213D01*
X120317440Y-98022066D01*
X120274985Y-98024724D01*
X120229690Y-98026168D01*
X120181555Y-98026379D01*
X119142859Y-98021180D01*
X119142859Y-98490918D01*
X118008049Y-98490918D01*
X118008049Y-97998441D01*
X117319720Y-97998441D01*
X117319720Y-99193715D01*
X116819491Y-99193715D01*
X116819491Y-98356043D01*
X116158549Y-98356042D01*
X116158549Y-99193715D01*
X115707931Y-99193715D01*
X115707931Y-98109026D01*
X115031486Y-98109026D01*
X96495666Y-98109026D01*
X96495666Y-91510987D01*
X111692671Y-91510987D01*
X111692671Y-95602208D01*
X112730334Y-96503445D01*
X112730334Y-96462102D01*
X115000996Y-96462102D01*
X115004641Y-96741166D01*
X115027891Y-97154576D01*
X115031492Y-97632584D01*
X118008053Y-97632584D01*
X118008053Y-96777341D01*
X117005530Y-96777341D01*
X116999832Y-96540662D01*
X117010682Y-96505002D01*
X117012212Y-96502087D01*
X117013877Y-96499201D01*
X117015674Y-96496342D01*
X117017598Y-96493508D01*
X117019646Y-96490698D01*
X117021816Y-96487913D01*
X117024104Y-96485149D01*
X117026506Y-96482406D01*
X117029019Y-96479683D01*
X117031640Y-96476979D01*
X117034364Y-96474291D01*
X117037191Y-96471620D01*
X117040115Y-96468963D01*
X117043134Y-96466320D01*
X117046243Y-96463691D01*
X117049441Y-96461072D01*
X117126961Y-96410943D01*
X117227731Y-96364434D01*
X117628739Y-96223359D01*
X117726581Y-96183605D01*
X117776391Y-96162960D01*
X117825918Y-96141140D01*
X117850370Y-96129634D01*
X117874504Y-96117647D01*
X117898239Y-96105118D01*
X117921492Y-96091984D01*
X117944181Y-96078184D01*
X117966224Y-96063654D01*
X117987539Y-96048333D01*
X118008044Y-96032159D01*
X118008044Y-95679200D01*
X119122691Y-95679200D01*
X119123642Y-95729572D01*
X119124830Y-95754433D01*
X119126495Y-95779077D01*
X119128636Y-95803505D01*
X119131253Y-95827717D01*
X119134347Y-95851713D01*
X119137918Y-95875493D01*
X119141966Y-95899058D01*
X119146490Y-95922407D01*
X119151492Y-95945541D01*
X119156972Y-95968460D01*
X119162929Y-95991164D01*
X119169365Y-96013653D01*
X119176278Y-96035928D01*
X119183670Y-96057988D01*
X119191538Y-96079672D01*
X119199878Y-96101021D01*
X119208691Y-96122039D01*
X119217978Y-96142723D01*
X119227739Y-96163073D01*
X119237975Y-96183093D01*
X119248687Y-96202780D01*
X119259876Y-96222131D01*
X119271540Y-96241151D01*
X119283683Y-96259836D01*
X119296304Y-96278188D01*
X119309404Y-96296207D01*
X119322983Y-96313892D01*
X119337043Y-96331244D01*
X119351582Y-96348261D01*
X119366604Y-96364945D01*
X119382097Y-96381239D01*
X119398048Y-96397085D01*
X119414459Y-96412481D01*
X119431327Y-96427427D01*
X119448654Y-96441922D01*
X119466438Y-96455961D01*
X119484681Y-96469547D01*
X119503381Y-96482676D01*
X119522538Y-96495348D01*
X119542153Y-96507562D01*
X119562225Y-96519315D01*
X119582753Y-96530607D01*
X119603737Y-96541436D01*
X119625178Y-96551801D01*
X119647075Y-96561701D01*
X119669428Y-96571133D01*
X119692333Y-96580044D01*
X119715677Y-96588374D01*
X119739463Y-96596126D01*
X119763695Y-96603300D01*
X119788373Y-96609896D01*
X119813502Y-96615914D01*
X119839082Y-96621357D01*
X119865117Y-96626224D01*
X119891610Y-96630516D01*
X119918563Y-96634233D01*
X119945978Y-96637377D01*
X119973857Y-96639948D01*
X120031022Y-96643372D01*
X120090075Y-96644513D01*
X120126364Y-96644069D01*
X120162052Y-96642736D01*
X120197139Y-96640519D01*
X120231623Y-96637417D01*
X120265503Y-96633432D01*
X120298778Y-96628567D01*
X120331447Y-96622824D01*
X120363510Y-96616202D01*
X120394965Y-96608705D01*
X120425813Y-96600334D01*
X120456049Y-96591091D01*
X120485675Y-96580978D01*
X120514690Y-96569997D01*
X120543092Y-96558148D01*
X120570881Y-96545434D01*
X120598055Y-96531857D01*
X120624744Y-96517343D01*
X120650657Y-96502026D01*
X120675798Y-96485904D01*
X120700167Y-96468977D01*
X120723764Y-96451243D01*
X120746594Y-96432702D01*
X120768655Y-96413353D01*
X120789951Y-96393195D01*
X120810482Y-96372226D01*
X120830251Y-96350447D01*
X120849257Y-96327855D01*
X120867504Y-96304449D01*
X120884992Y-96280231D01*
X120901723Y-96255197D01*
X120917698Y-96229347D01*
X120932919Y-96202679D01*
X120947196Y-96175237D01*
X120960552Y-96147058D01*
X120972984Y-96118140D01*
X120984493Y-96088482D01*
X120995081Y-96058081D01*
X121004746Y-96026936D01*
X121013489Y-95995044D01*
X121021310Y-95962401D01*
X121028211Y-95929007D01*
X121034190Y-95894860D01*
X121039249Y-95859956D01*
X121043387Y-95824296D01*
X121046605Y-95787876D01*
X121048902Y-95750693D01*
X121050282Y-95712745D01*
X121050742Y-95674031D01*
X121050488Y-95646980D01*
X121049725Y-95620609D01*
X121048448Y-95594927D01*
X121046653Y-95569943D01*
X121044335Y-95545664D01*
X121041490Y-95522099D01*
X121038113Y-95499258D01*
X121034201Y-95477147D01*
X121029930Y-95455915D01*
X121025478Y-95435297D01*
X121020844Y-95415307D01*
X121016029Y-95395957D01*
X121011030Y-95377261D01*
X121005848Y-95359230D01*
X121000483Y-95341879D01*
X120994931Y-95325219D01*
X120983444Y-95293657D01*
X120972390Y-95264194D01*
X120961754Y-95236822D01*
X120951521Y-95211530D01*
X120562916Y-95211530D01*
X120566270Y-95215642D01*
X120569637Y-95220029D01*
X120576414Y-95229622D01*
X120583237Y-95240301D01*
X120590095Y-95252057D01*
X120596981Y-95264885D01*
X120603882Y-95278775D01*
X120610790Y-95293724D01*
X120617695Y-95309720D01*
X120624472Y-95326475D01*
X120631004Y-95343714D01*
X120637296Y-95361449D01*
X120643348Y-95379694D01*
X120649166Y-95398462D01*
X120654750Y-95417765D01*
X120660106Y-95437616D01*
X120665236Y-95458031D01*
X120669766Y-95478679D01*
X120673721Y-95499223D01*
X120677093Y-95519664D01*
X120679871Y-95540000D01*
X120682047Y-95560231D01*
X120683612Y-95580358D01*
X120684559Y-95600380D01*
X120684876Y-95620297D01*
X120684563Y-95642231D01*
X120683627Y-95663708D01*
X120682070Y-95684729D01*
X120679894Y-95705293D01*
X120677101Y-95725401D01*
X120673692Y-95745051D01*
X120669674Y-95764245D01*
X120665044Y-95782982D01*
X120659807Y-95801261D01*
X120653965Y-95819083D01*
X120647519Y-95836447D01*
X120640473Y-95853353D01*
X120632828Y-95869802D01*
X120624587Y-95885792D01*
X120615752Y-95901324D01*
X120606326Y-95916398D01*
X120596366Y-95931109D01*
X120585931Y-95945347D01*
X120575020Y-95959112D01*
X120563632Y-95972408D01*
X120551765Y-95985231D01*
X120539416Y-95997588D01*
X120526588Y-96009478D01*
X120513277Y-96020902D01*
X120499482Y-96031863D01*
X120485203Y-96042361D01*
X120470438Y-96052398D01*
X120455186Y-96061975D01*
X120439446Y-96071094D01*
X120423216Y-96079756D01*
X120406496Y-96087963D01*
X120389286Y-96095715D01*
X120371639Y-96103109D01*
X120353618Y-96110022D01*
X120335224Y-96116458D01*
X120316455Y-96122415D01*
X120297312Y-96127895D01*
X120277797Y-96132897D01*
X120257908Y-96137422D01*
X120237646Y-96141470D01*
X120217012Y-96145040D01*
X120196006Y-96148134D01*
X120174628Y-96150752D01*
X120152878Y-96152892D01*
X120130758Y-96154557D01*
X120108266Y-96155746D01*
X120085404Y-96156459D01*
X120062172Y-96156697D01*
X120039602Y-96156427D01*
X120017473Y-96155619D01*
X119995782Y-96154272D01*
X119974530Y-96152388D01*
X119953718Y-96149965D01*
X119933344Y-96147005D01*
X119913408Y-96143509D01*
X119893910Y-96139477D01*
X119874850Y-96134909D01*
X119856228Y-96129806D01*
X119838041Y-96124167D01*
X119820294Y-96117994D01*
X119802982Y-96111288D01*
X119786107Y-96104047D01*
X119769668Y-96096274D01*
X119753665Y-96087968D01*
X119738018Y-96079208D01*
X119722857Y-96070072D01*
X119708181Y-96060559D01*
X119693989Y-96050670D01*
X119680278Y-96040404D01*
X119667049Y-96029760D01*
X119654299Y-96018738D01*
X119642027Y-96007337D01*
X119630232Y-95995558D01*
X119618912Y-95983399D01*
X119608067Y-95970860D01*
X119597695Y-95957941D01*
X119587795Y-95944641D01*
X119578365Y-95930958D01*
X119569405Y-95916896D01*
X119560912Y-95902451D01*
X119553014Y-95887803D01*
X119545628Y-95872921D01*
X119538754Y-95857808D01*
X119532391Y-95842463D01*
X119526540Y-95826892D01*
X119521199Y-95811093D01*
X119516369Y-95795068D01*
X119512048Y-95778820D01*
X119508238Y-95762349D01*
X119504936Y-95745658D01*
X119502144Y-95728748D01*
X119499861Y-95711621D01*
X119498084Y-95694277D01*
X119496816Y-95676720D01*
X119496056Y-95658950D01*
X119495802Y-95640969D01*
X119496120Y-95613270D01*
X119497068Y-95586632D01*
X119498637Y-95561067D01*
X119500815Y-95536587D01*
X119503595Y-95513205D01*
X119506966Y-95490933D01*
X119510918Y-95469784D01*
X119515442Y-95449769D01*
X119520529Y-95430607D01*
X119525763Y-95412420D01*
X119531156Y-95395188D01*
X119536720Y-95378888D01*
X119542467Y-95363506D01*
X119548408Y-95349017D01*
X119554556Y-95335403D01*
X119560923Y-95322644D01*
X119567316Y-95310848D01*
X119573514Y-95299720D01*
X119579495Y-95289263D01*
X119585235Y-95279481D01*
X119590715Y-95270379D01*
X119595910Y-95261961D01*
X119600800Y-95254230D01*
X119605362Y-95247193D01*
X119198670Y-95186734D01*
X119195825Y-95201054D01*
X119192736Y-95215584D01*
X119185872Y-95245313D01*
X119178172Y-95275982D01*
X119169730Y-95307656D01*
X119165198Y-95324109D01*
X119160798Y-95341275D01*
X119156521Y-95359158D01*
X119152359Y-95377766D01*
X119148301Y-95397107D01*
X119144337Y-95417186D01*
X119142859Y-95425351D01*
X119136659Y-95459584D01*
X119133347Y-95482399D01*
X119130493Y-95506525D01*
X119128093Y-95531969D01*
X119126141Y-95558735D01*
X119124632Y-95586835D01*
X119123560Y-95616275D01*
X119122922Y-95647062D01*
X119122710Y-95679204D01*
X119122691Y-95679200D01*
X118008044Y-95679200D01*
X118008044Y-95090100D01*
X117781712Y-95219624D01*
X117668017Y-95283150D01*
X117553290Y-95345383D01*
X117109908Y-95543305D01*
X117073405Y-95560718D01*
X117037916Y-95578650D01*
X117003453Y-95597076D01*
X116970025Y-95615972D01*
X116937643Y-95635312D01*
X116906317Y-95655071D01*
X116876057Y-95675225D01*
X116846873Y-95695749D01*
X116802433Y-95731919D01*
X116795230Y-95720275D01*
X116787838Y-95708764D01*
X116780258Y-95697389D01*
X116772495Y-95686155D01*
X116764551Y-95675066D01*
X116756428Y-95664129D01*
X116748130Y-95653345D01*
X116739659Y-95642720D01*
X116731018Y-95632259D01*
X116722210Y-95621965D01*
X116713238Y-95611844D01*
X116704103Y-95601899D01*
X116694810Y-95592135D01*
X116685361Y-95582556D01*
X116675760Y-95573168D01*
X116666007Y-95563973D01*
X116645934Y-95546091D01*
X116625035Y-95528823D01*
X116603324Y-95512166D01*
X116580812Y-95496115D01*
X116557517Y-95480666D01*
X116533453Y-95465814D01*
X116508632Y-95451554D01*
X116483071Y-95437882D01*
X116457264Y-95425317D01*
X116430648Y-95413549D01*
X116403226Y-95402577D01*
X116374997Y-95392406D01*
X116345961Y-95383038D01*
X116316120Y-95374473D01*
X116285474Y-95366715D01*
X116254023Y-95359764D01*
X116221770Y-95353624D01*
X116188714Y-95348296D01*
X116154854Y-95343783D01*
X116120194Y-95340085D01*
X116084742Y-95337207D01*
X116084730Y-95337207D01*
X116048467Y-95335147D01*
X116011404Y-95333910D01*
X115973542Y-95333497D01*
X115938772Y-95333921D01*
X115904704Y-95335179D01*
X115871322Y-95337244D01*
X115838607Y-95340092D01*
X115806547Y-95343698D01*
X115775124Y-95348037D01*
X115744322Y-95353084D01*
X115714126Y-95358815D01*
X115680094Y-95366722D01*
X115646895Y-95375791D01*
X115614527Y-95385998D01*
X115582992Y-95397322D01*
X115552292Y-95409738D01*
X115522427Y-95423224D01*
X115493400Y-95437756D01*
X115465211Y-95453313D01*
X115437861Y-95469869D01*
X115411352Y-95487402D01*
X115360862Y-95525307D01*
X115313749Y-95566842D01*
X115270024Y-95611823D01*
X115229697Y-95660065D01*
X115192777Y-95711381D01*
X115159274Y-95765588D01*
X115129199Y-95822500D01*
X115102560Y-95881931D01*
X115079369Y-95943698D01*
X115059634Y-96007614D01*
X115043366Y-96073495D01*
X115033383Y-96122048D01*
X115024752Y-96170673D01*
X115017466Y-96219337D01*
X115011520Y-96268007D01*
X115006906Y-96316651D01*
X115003618Y-96365236D01*
X115001651Y-96413731D01*
X115000996Y-96462102D01*
X112730334Y-96462102D01*
X112730334Y-95079243D01*
X119142859Y-95079243D01*
X119506662Y-95079240D01*
X119506661Y-94576428D01*
X121030083Y-94576428D01*
X121030083Y-94099454D01*
X119506661Y-94099454D01*
X119506661Y-93595612D01*
X119142859Y-93595612D01*
X119142859Y-95079243D01*
X112730334Y-95079243D01*
X112730334Y-92509305D01*
X115306913Y-92509305D01*
X115306922Y-92515572D01*
X115307012Y-92515504D01*
X115307120Y-92519685D01*
X115307299Y-92523857D01*
X115307553Y-92528025D01*
X115307886Y-92532201D01*
X115308303Y-92536387D01*
X115308811Y-92540593D01*
X115309412Y-92544826D01*
X115310112Y-92549092D01*
X115418115Y-93180061D01*
X115418632Y-93180062D01*
X115421014Y-93191733D01*
X115424025Y-93203191D01*
X115427649Y-93214413D01*
X115431870Y-93225377D01*
X115436674Y-93236062D01*
X115442044Y-93246445D01*
X115447966Y-93256505D01*
X115454424Y-93266220D01*
X115461402Y-93275568D01*
X115468885Y-93284527D01*
X115476859Y-93293075D01*
X115485307Y-93301192D01*
X115494214Y-93308852D01*
X115503564Y-93316036D01*
X115513342Y-93322723D01*
X115523535Y-93328889D01*
X115921444Y-93554716D01*
X115750396Y-93956757D01*
X116084742Y-94018768D01*
X116526059Y-93013146D01*
X118220528Y-93410020D01*
X118236548Y-92973870D01*
X117723587Y-92854054D01*
X119142859Y-92854054D01*
X119142859Y-93332062D01*
X121030083Y-93332062D01*
X121030083Y-93128457D01*
X122800000Y-93128457D01*
X122800000Y-97800000D01*
X123838178Y-98699693D01*
X123838179Y-94032796D01*
X122800000Y-93128457D01*
X121030083Y-93128457D01*
X121030083Y-92854054D01*
X119142859Y-92854054D01*
X117723587Y-92854054D01*
X116891409Y-92659676D01*
X117549767Y-92244199D01*
X118271171Y-92274689D01*
X118291320Y-91849908D01*
X117502736Y-91816319D01*
X117494788Y-91816042D01*
X117486839Y-91816049D01*
X117478898Y-91816345D01*
X117470969Y-91816935D01*
X117463060Y-91817821D01*
X117455178Y-91819009D01*
X117447328Y-91820502D01*
X117439518Y-91822304D01*
X117431752Y-91824420D01*
X117424039Y-91826853D01*
X117416385Y-91829609D01*
X117408797Y-91832691D01*
X117401280Y-91836102D01*
X117393843Y-91839848D01*
X117386490Y-91843932D01*
X117379229Y-91848359D01*
X116910008Y-92144982D01*
X117379746Y-91014820D01*
X117412815Y-91047379D01*
X117457036Y-91087171D01*
X117500695Y-91124715D01*
X117543894Y-91160202D01*
X117586731Y-91193825D01*
X117629306Y-91225776D01*
X117671721Y-91256246D01*
X117714074Y-91285427D01*
X117756464Y-91313512D01*
X117808315Y-91346038D01*
X117880459Y-91389888D01*
X117965078Y-91439735D01*
X118054354Y-91490256D01*
X118140468Y-91536124D01*
X118179894Y-91555649D01*
X118215601Y-91572015D01*
X118246606Y-91584555D01*
X118271934Y-91592603D01*
X118282164Y-91594734D01*
X118290608Y-91595495D01*
X118297144Y-91594799D01*
X118301649Y-91592563D01*
X118304506Y-91589484D01*
X118307024Y-91585879D01*
X118309228Y-91581738D01*
X118311138Y-91577047D01*
X118311299Y-91576530D01*
X119122253Y-91576530D01*
X119122710Y-91609689D01*
X119122712Y-91609689D01*
X119124005Y-91642182D01*
X119126005Y-91674220D01*
X119128713Y-91705802D01*
X119132129Y-91736928D01*
X119136253Y-91767598D01*
X119141088Y-91797813D01*
X119146633Y-91827568D01*
X119152889Y-91856868D01*
X119159858Y-91885709D01*
X119167539Y-91914095D01*
X119175935Y-91942022D01*
X119185045Y-91969490D01*
X119194871Y-91996500D01*
X119205413Y-92023051D01*
X119216671Y-92049144D01*
X119228648Y-92074777D01*
X119241314Y-92099844D01*
X119254850Y-92124239D01*
X119269255Y-92147964D01*
X119284527Y-92171020D01*
X119300665Y-92193406D01*
X119317670Y-92215123D01*
X119335538Y-92236174D01*
X119354270Y-92256554D01*
X119373865Y-92276272D01*
X119394321Y-92295322D01*
X119415637Y-92313708D01*
X119437813Y-92331430D01*
X119460847Y-92348487D01*
X119484738Y-92364883D01*
X119509485Y-92380616D01*
X119535088Y-92395688D01*
X119561517Y-92409889D01*
X119588954Y-92423222D01*
X119617396Y-92435687D01*
X119646843Y-92447285D01*
X119677294Y-92458017D01*
X119708747Y-92467885D01*
X119741202Y-92476887D01*
X119774659Y-92485027D01*
X119809113Y-92492305D01*
X119844567Y-92498722D01*
X119881019Y-92504279D01*
X119918468Y-92508976D01*
X119956912Y-92512816D01*
X119996350Y-92515800D01*
X120036783Y-92517924D01*
X120078207Y-92519196D01*
X120115323Y-92519404D01*
X120151817Y-92518773D01*
X120187689Y-92517302D01*
X120222943Y-92514991D01*
X120257575Y-92511838D01*
X120291585Y-92507845D01*
X120324976Y-92503010D01*
X120357745Y-92497333D01*
X120389893Y-92490813D01*
X120421421Y-92483449D01*
X120452328Y-92475241D01*
X120482615Y-92466189D01*
X120512281Y-92456292D01*
X120541326Y-92445549D01*
X120569751Y-92433960D01*
X120597556Y-92421525D01*
X120624749Y-92408401D01*
X120651135Y-92394536D01*
X120676714Y-92379930D01*
X120701487Y-92364582D01*
X120725458Y-92348491D01*
X120748625Y-92331657D01*
X120770992Y-92314079D01*
X120792562Y-92295756D01*
X120813334Y-92276690D01*
X120833310Y-92256878D01*
X120852493Y-92236321D01*
X120870883Y-92215015D01*
X120888483Y-92192963D01*
X120905293Y-92170164D01*
X120921316Y-92146616D01*
X120936553Y-92122319D01*
X120950917Y-92097324D01*
X120964324Y-92071683D01*
X120976771Y-92045398D01*
X120988258Y-92018467D01*
X120998784Y-91990894D01*
X121008347Y-91962678D01*
X121016945Y-91933820D01*
X121024579Y-91904321D01*
X121031246Y-91874182D01*
X121036945Y-91843403D01*
X121041676Y-91811986D01*
X121045437Y-91779930D01*
X121048227Y-91747237D01*
X121050044Y-91713909D01*
X121050888Y-91679944D01*
X121050757Y-91645345D01*
X121049660Y-91613383D01*
X121047830Y-91581897D01*
X121045265Y-91550885D01*
X121041961Y-91520346D01*
X121037918Y-91490280D01*
X121033131Y-91460686D01*
X121027598Y-91431564D01*
X121021316Y-91402913D01*
X121014283Y-91374732D01*
X121006497Y-91347022D01*
X120997952Y-91319780D01*
X120988648Y-91293007D01*
X120978583Y-91266703D01*
X120967752Y-91240865D01*
X120956155Y-91215495D01*
X120943787Y-91190591D01*
X120930702Y-91166350D01*
X120916747Y-91142759D01*
X120901924Y-91119822D01*
X120886232Y-91097532D01*
X120869673Y-91075892D01*
X120852249Y-91054901D01*
X120833959Y-91034559D01*
X120814807Y-91014863D01*
X120794792Y-90995815D01*
X120773915Y-90977412D01*
X120752179Y-90959656D01*
X120729583Y-90942544D01*
X120706129Y-90926076D01*
X120704428Y-90924969D01*
X124206116Y-90924969D01*
X124206117Y-93115018D01*
X129030112Y-93115021D01*
X129030112Y-94588315D01*
X129776320Y-94588315D01*
X129776320Y-89451676D01*
X129030112Y-89451676D01*
X129030112Y-90924968D01*
X124206116Y-90924969D01*
X120704428Y-90924969D01*
X120681819Y-90910252D01*
X120656651Y-90895071D01*
X120630629Y-90880532D01*
X120603596Y-90866928D01*
X120575603Y-90854136D01*
X120546649Y-90842157D01*
X120516735Y-90830993D01*
X120485862Y-90820645D01*
X120454028Y-90811115D01*
X120421233Y-90802405D01*
X120387478Y-90794515D01*
X120352764Y-90787449D01*
X120317087Y-90781207D01*
X120280451Y-90775791D01*
X120242854Y-90771203D01*
X120204296Y-90767444D01*
X120164778Y-90764516D01*
X120124299Y-90762420D01*
X120082859Y-90761159D01*
X120045852Y-90761037D01*
X120009475Y-90761720D01*
X119973727Y-90763211D01*
X119938605Y-90765513D01*
X119904114Y-90768627D01*
X119870250Y-90772557D01*
X119837013Y-90777305D01*
X119804404Y-90782874D01*
X119772423Y-90789266D01*
X119741068Y-90796484D01*
X119710340Y-90804530D01*
X119680239Y-90813407D01*
X119650764Y-90823118D01*
X119621915Y-90833665D01*
X119593691Y-90845051D01*
X119566094Y-90857278D01*
X119539112Y-90870277D01*
X119512943Y-90883978D01*
X119487588Y-90898381D01*
X119463044Y-90913485D01*
X119439307Y-90929293D01*
X119416382Y-90945804D01*
X119394260Y-90963020D01*
X119372945Y-90980941D01*
X119352433Y-90999567D01*
X119332724Y-91018900D01*
X119313814Y-91038940D01*
X119295705Y-91059687D01*
X119278394Y-91081143D01*
X119261878Y-91103307D01*
X119246158Y-91126181D01*
X119231230Y-91149766D01*
X119217188Y-91174104D01*
X119204114Y-91199029D01*
X119192012Y-91224541D01*
X119180880Y-91250639D01*
X119170717Y-91277326D01*
X119161522Y-91304599D01*
X119153296Y-91332461D01*
X119146037Y-91360910D01*
X119142859Y-91375574D01*
X119139744Y-91389948D01*
X119134417Y-91419573D01*
X119130056Y-91449787D01*
X119126660Y-91480589D01*
X119124228Y-91511981D01*
X119122759Y-91543961D01*
X119122253Y-91576530D01*
X118311299Y-91576530D01*
X118312777Y-91571793D01*
X118314168Y-91565964D01*
X118315331Y-91559547D01*
X118316289Y-91552529D01*
X118317064Y-91544896D01*
X118317679Y-91536637D01*
X118318513Y-91518185D01*
X118318968Y-91497071D01*
X118319220Y-91473190D01*
X118319907Y-91412651D01*
X118320724Y-91377186D01*
X118321403Y-91358174D01*
X118322319Y-91338315D01*
X118329553Y-91171855D01*
X118335389Y-91003598D01*
X118339857Y-90833460D01*
X118342989Y-90661355D01*
X118345517Y-90487876D01*
X118345719Y-90451100D01*
X119142859Y-90451100D01*
X121030081Y-90451096D01*
X121030081Y-90022183D01*
X120215144Y-90022183D01*
X119731970Y-90080575D01*
X120019291Y-89943116D01*
X121030083Y-89331784D01*
X121030083Y-88856877D01*
X119142859Y-88856877D01*
X119142859Y-89285275D01*
X119973816Y-89285275D01*
X120452340Y-89234635D01*
X120179491Y-89364342D01*
X119142859Y-90009782D01*
X119142859Y-90451100D01*
X118345719Y-90451100D01*
X118346476Y-90312881D01*
X118346068Y-90136421D01*
X118344489Y-89958554D01*
X118344236Y-89930694D01*
X118344270Y-89903980D01*
X118344988Y-89853960D01*
X118346232Y-89808436D01*
X118347588Y-89767350D01*
X118348533Y-89727005D01*
X118349034Y-89691141D01*
X118349002Y-89674828D01*
X118348718Y-89659562D01*
X118348135Y-89645318D01*
X118347208Y-89632073D01*
X118345888Y-89619800D01*
X118344131Y-89608477D01*
X118341886Y-89598078D01*
X118340568Y-89593218D01*
X118339112Y-89588579D01*
X118337508Y-89584160D01*
X118335756Y-89579956D01*
X118333846Y-89575965D01*
X118331775Y-89572184D01*
X118329534Y-89568609D01*
X118327121Y-89565238D01*
X118324527Y-89562067D01*
X118321746Y-89559094D01*
X118313872Y-89552563D01*
X118304822Y-89547368D01*
X118294505Y-89543462D01*
X118282829Y-89540798D01*
X118269703Y-89539329D01*
X118255035Y-89539007D01*
X118238734Y-89539786D01*
X118220709Y-89541618D01*
X118200867Y-89544457D01*
X118179116Y-89548254D01*
X118129526Y-89558538D01*
X118071205Y-89572094D01*
X118003420Y-89588544D01*
X117978100Y-89594743D01*
X117844261Y-89630638D01*
X117655591Y-89688636D01*
X117548147Y-89725173D01*
X117435935Y-89766335D01*
X117321938Y-89811821D01*
X117209136Y-89861332D01*
X117100509Y-89914567D01*
X116999037Y-89971226D01*
X116951917Y-90000746D01*
X116907701Y-90031009D01*
X116866766Y-90061978D01*
X116829482Y-90093615D01*
X116796222Y-90125884D01*
X116767359Y-90158745D01*
X116743266Y-90192162D01*
X116724314Y-90226098D01*
X116710877Y-90260514D01*
X116703325Y-90295374D01*
X116702036Y-90330639D01*
X116707377Y-90366273D01*
X116709476Y-90372472D01*
X116710976Y-90377171D01*
X117122837Y-90769913D01*
X116925433Y-91284093D01*
X116919322Y-91284181D01*
X116913130Y-91284441D01*
X116906876Y-91284868D01*
X116900577Y-91285455D01*
X116894252Y-91286197D01*
X116887918Y-91287088D01*
X116881596Y-91288122D01*
X116875302Y-91289292D01*
X115808183Y-91521836D01*
X115796143Y-91524900D01*
X115784297Y-91528650D01*
X115772680Y-91533074D01*
X115761320Y-91538162D01*
X115750255Y-91543900D01*
X115739516Y-91550281D01*
X115729136Y-91557291D01*
X115719147Y-91564920D01*
X115709584Y-91573156D01*
X115700477Y-91581989D01*
X115691861Y-91591408D01*
X115683769Y-91601401D01*
X115676232Y-91611957D01*
X115669285Y-91623065D01*
X115662958Y-91634714D01*
X115657288Y-91646893D01*
X115327592Y-92420491D01*
X115325019Y-92426014D01*
X115322615Y-92431606D01*
X115320379Y-92437264D01*
X115318312Y-92442985D01*
X115316415Y-92448766D01*
X115314688Y-92454605D01*
X115313133Y-92460499D01*
X115311749Y-92466445D01*
X115310537Y-92472441D01*
X115309498Y-92478484D01*
X115308634Y-92484571D01*
X115307941Y-92490699D01*
X115307423Y-92496866D01*
X115307080Y-92503070D01*
X115306913Y-92509305D01*
X112730334Y-92509305D01*
X112730334Y-92426694D01*
X112035240Y-91813294D01*
X114476481Y-91813294D01*
X114477051Y-91835792D01*
X114478744Y-91858000D01*
X114481531Y-91879891D01*
X114485386Y-91901437D01*
X114490280Y-91922610D01*
X114496186Y-91943382D01*
X114503076Y-91963726D01*
X114510924Y-91983613D01*
X114519701Y-92003016D01*
X114529380Y-92021907D01*
X114539933Y-92040258D01*
X114551334Y-92058040D01*
X114563552Y-92075227D01*
X114576563Y-92091790D01*
X114590337Y-92107702D01*
X114604847Y-92122934D01*
X114620068Y-92137459D01*
X114635969Y-92151249D01*
X114652524Y-92164276D01*
X114669706Y-92176511D01*
X114687486Y-92187929D01*
X114705837Y-92198499D01*
X114724732Y-92208195D01*
X114744142Y-92216989D01*
X114764041Y-92224853D01*
X114784401Y-92231758D01*
X114805195Y-92237678D01*
X114826395Y-92242584D01*
X114847971Y-92246448D01*
X114869899Y-92249242D01*
X114892150Y-92250939D01*
X114914697Y-92251511D01*
X114937244Y-92250939D01*
X114959495Y-92249242D01*
X114981422Y-92246448D01*
X115003000Y-92242584D01*
X115024199Y-92237678D01*
X115044992Y-92231758D01*
X115065352Y-92224853D01*
X115085252Y-92216989D01*
X115104662Y-92208195D01*
X115123556Y-92198499D01*
X115141908Y-92187929D01*
X115159688Y-92176512D01*
X115176869Y-92164276D01*
X115193424Y-92151249D01*
X115209326Y-92137459D01*
X115224544Y-92122934D01*
X115239056Y-92107702D01*
X115252832Y-92091790D01*
X115265842Y-92075227D01*
X115278061Y-92058040D01*
X115289461Y-92040258D01*
X115300014Y-92021907D01*
X115309692Y-92003016D01*
X115318470Y-91983613D01*
X115326317Y-91963726D01*
X115333208Y-91943382D01*
X115339114Y-91922611D01*
X115344008Y-91901438D01*
X115347863Y-91879891D01*
X115350651Y-91858000D01*
X115352343Y-91835792D01*
X115352913Y-91813294D01*
X115352343Y-91790697D01*
X115350650Y-91768399D01*
X115347863Y-91746427D01*
X115344008Y-91724809D01*
X115339114Y-91703573D01*
X115333208Y-91682745D01*
X115326317Y-91662353D01*
X115318469Y-91642425D01*
X115309692Y-91622987D01*
X115300014Y-91604067D01*
X115289461Y-91585695D01*
X115278061Y-91567896D01*
X115265842Y-91550697D01*
X115252832Y-91534126D01*
X115239056Y-91518211D01*
X115224545Y-91502979D01*
X115209326Y-91488458D01*
X115193424Y-91474675D01*
X115176869Y-91461656D01*
X115159688Y-91449431D01*
X115141908Y-91438026D01*
X115123555Y-91427469D01*
X115104662Y-91417787D01*
X115085251Y-91409008D01*
X115065352Y-91401159D01*
X115044992Y-91394267D01*
X115024199Y-91388361D01*
X115003000Y-91383466D01*
X114981421Y-91379612D01*
X114959495Y-91376825D01*
X114937244Y-91375132D01*
X114914697Y-91374562D01*
X114892150Y-91375132D01*
X114869899Y-91376825D01*
X114847971Y-91379612D01*
X114826394Y-91383466D01*
X114805195Y-91388360D01*
X114784401Y-91394267D01*
X114764040Y-91401158D01*
X114744142Y-91409008D01*
X114724732Y-91417787D01*
X114705837Y-91427468D01*
X114687486Y-91438025D01*
X114669706Y-91449430D01*
X114652524Y-91461655D01*
X114635969Y-91474673D01*
X114620068Y-91488456D01*
X114604847Y-91502978D01*
X114590337Y-91518210D01*
X114576563Y-91534125D01*
X114563552Y-91550695D01*
X114551333Y-91567894D01*
X114539934Y-91585694D01*
X114529380Y-91604067D01*
X114519701Y-91622986D01*
X114510925Y-91642423D01*
X114503077Y-91662351D01*
X114496186Y-91682743D01*
X114490280Y-91703572D01*
X114485386Y-91724809D01*
X114481532Y-91746427D01*
X114478743Y-91768399D01*
X114477051Y-91790697D01*
X114476481Y-91813294D01*
X112035240Y-91813294D01*
X111692671Y-91510987D01*
X96495666Y-91510987D01*
X96495666Y-88175790D01*
X111692671Y-88175790D01*
X112730334Y-89074963D01*
X112730334Y-87524152D01*
X112732096Y-87455769D01*
X112737325Y-87388252D01*
X112745930Y-87321687D01*
X112757824Y-87256158D01*
X112772916Y-87191752D01*
X112791118Y-87128555D01*
X112812342Y-87066651D01*
X112836498Y-87006127D01*
X112863496Y-86947069D01*
X112893250Y-86889559D01*
X112925668Y-86833686D01*
X112960663Y-86779534D01*
X112998145Y-86727191D01*
X113038026Y-86676741D01*
X113080217Y-86628268D01*
X113124628Y-86581860D01*
X113171170Y-86537601D01*
X113219755Y-86495577D01*
X113270294Y-86455875D01*
X113322698Y-86418578D01*
X113376878Y-86383775D01*
X113432744Y-86351547D01*
X113490207Y-86321982D01*
X113549182Y-86295167D01*
X113609576Y-86271186D01*
X113671300Y-86250125D01*
X113734265Y-86232069D01*
X113798386Y-86217104D01*
X113863570Y-86205316D01*
X113929730Y-86196789D01*
X113996775Y-86191610D01*
X114064619Y-86189866D01*
X114836148Y-86189866D01*
X113529768Y-85051950D01*
X112859525Y-85051949D01*
X112800052Y-85053487D01*
X112741279Y-85058048D01*
X112683285Y-85065555D01*
X112626150Y-85075932D01*
X112569953Y-85089100D01*
X112514772Y-85104983D01*
X112460688Y-85123503D01*
X112407779Y-85144583D01*
X112356124Y-85168146D01*
X112305804Y-85194114D01*
X112256894Y-85222411D01*
X112209479Y-85252959D01*
X112163634Y-85285680D01*
X112119440Y-85320499D01*
X112076975Y-85357336D01*
X112036319Y-85396115D01*
X111997638Y-85436575D01*
X111960885Y-85478870D01*
X111926139Y-85522921D01*
X111893479Y-85568651D01*
X111862982Y-85615980D01*
X111834728Y-85664832D01*
X111808792Y-85715127D01*
X111785255Y-85766788D01*
X111764194Y-85819736D01*
X111745688Y-85873892D01*
X111729814Y-85929180D01*
X111716651Y-85985519D01*
X111706277Y-86042833D01*
X111698770Y-86101043D01*
X111694209Y-86160071D01*
X111692671Y-86219838D01*
X111692671Y-88175790D01*
X96495666Y-88175790D01*
X96495666Y-85051945D01*
X117826664Y-85051945D01*
X119132527Y-86189858D01*
X121466755Y-86189858D01*
X121534596Y-86191621D01*
X121601633Y-86196849D01*
X121667779Y-86205455D01*
X121732943Y-86217348D01*
X121797040Y-86232440D01*
X121859979Y-86250643D01*
X121921672Y-86271866D01*
X121982030Y-86296022D01*
X122040966Y-86323021D01*
X122098390Y-86352774D01*
X122154214Y-86385193D01*
X122208348Y-86420188D01*
X122260706Y-86457670D01*
X122311198Y-86497551D01*
X122359735Y-86539742D01*
X122406229Y-86584152D01*
X122450591Y-86630695D01*
X122492735Y-86679280D01*
X122532567Y-86729819D01*
X122570003Y-86782224D01*
X122604954Y-86836403D01*
X122637329Y-86892269D01*
X122667042Y-86949734D01*
X122694003Y-87008707D01*
X122718123Y-87069101D01*
X122739316Y-87130825D01*
X122757491Y-87193792D01*
X122772560Y-87257912D01*
X122784435Y-87323096D01*
X122793026Y-87389255D01*
X122798246Y-87456301D01*
X122800005Y-87524144D01*
X122800005Y-89385529D01*
X123838185Y-90289868D01*
X123838186Y-86219834D01*
X123836641Y-86160360D01*
X123832064Y-86101587D01*
X123824531Y-86043593D01*
X123814122Y-85986457D01*
X123800915Y-85930260D01*
X123784989Y-85875079D01*
X123766422Y-85820995D01*
X123745294Y-85768086D01*
X123721683Y-85716431D01*
X123695668Y-85666110D01*
X123667328Y-85617201D01*
X123636741Y-85569786D01*
X123603986Y-85523942D01*
X123569142Y-85479747D01*
X123532288Y-85437282D01*
X123493502Y-85396626D01*
X123452852Y-85357749D01*
X123410403Y-85320827D01*
X123366235Y-85285936D01*
X123320423Y-85253153D01*
X123273046Y-85222555D01*
X123224182Y-85194217D01*
X123173908Y-85168215D01*
X123122301Y-85144626D01*
X123069440Y-85123527D01*
X123015403Y-85104994D01*
X122960267Y-85089103D01*
X122904108Y-85075930D01*
X122847006Y-85065551D01*
X122789037Y-85058043D01*
X122730281Y-85053483D01*
X122670813Y-85051945D01*
X117826664Y-85051945D01*
X96495666Y-85051945D01*
X96495666Y-26853954D01*
X214592331Y-26853955D01*
X214592331Y-156704407D01*
X117942420Y-156704407D01*
X96495666Y-156704408D01*
G37*
X96495666Y-156704408D02*
X96495666Y-111693726D01*
X111692671Y-111693726D01*
X111692672Y-111693726D01*
X111694193Y-111753585D01*
X111698705Y-111812681D01*
X111706135Y-111870938D01*
X111716408Y-111928281D01*
X111729448Y-111984632D01*
X111745182Y-112039918D01*
X111763535Y-112094061D01*
X111784432Y-112146987D01*
X111807799Y-112198619D01*
X111833560Y-112248881D01*
X111861643Y-112297698D01*
X111891971Y-112344994D01*
X111924471Y-112390692D01*
X111959067Y-112434719D01*
X111995687Y-112476996D01*
X112034254Y-112517449D01*
X112074908Y-112556217D01*
X112117371Y-112593023D01*
X112161568Y-112627790D01*
X112207422Y-112660445D01*
X112254859Y-112690915D01*
X112303803Y-112719124D01*
X112354177Y-112744999D01*
X112405910Y-112768466D01*
X112458923Y-112789449D01*
X112513139Y-112807876D01*
X112568486Y-112823672D01*
X112624887Y-112836761D01*
X112682266Y-112847071D01*
X112740550Y-112854527D01*
X112799662Y-112859055D01*
X112859526Y-112860580D01*
X117942420Y-112860581D01*
X116746112Y-111818129D01*
X116636560Y-111722665D01*
X120510218Y-111722665D01*
X121816615Y-112860577D01*
X122670826Y-112860577D01*
X122729662Y-112859094D01*
X122787781Y-112854694D01*
X122845109Y-112847448D01*
X122901572Y-112837429D01*
X122957096Y-112824709D01*
X123011607Y-112809361D01*
X123065031Y-112791458D01*
X123117295Y-112771071D01*
X123168323Y-112748274D01*
X123218042Y-112723137D01*
X123266379Y-112695735D01*
X123313259Y-112666140D01*
X123358608Y-112634421D01*
X123402352Y-112600655D01*
X123444418Y-112564912D01*
X123484730Y-112527264D01*
X123494530Y-112516934D01*
X123533305Y-112476277D01*
X123570126Y-112433812D01*
X123604919Y-112389617D01*
X123637608Y-112343772D01*
X123668117Y-112296356D01*
X123696370Y-112247448D01*
X123722291Y-112197126D01*
X123745806Y-112145472D01*
X123766838Y-112092563D01*
X123785311Y-112038479D01*
X123801149Y-111983298D01*
X123814278Y-111927101D01*
X123824621Y-111869966D01*
X123832103Y-111811971D01*
X123836648Y-111753199D01*
X123838179Y-111693726D01*
X123838179Y-109896420D01*
X122800000Y-108992081D01*
X122800000Y-110388379D01*
X122798257Y-110456222D01*
X122793087Y-110523268D01*
X122784575Y-110589428D01*
X122772806Y-110654612D01*
X122757865Y-110718732D01*
X122739836Y-110781699D01*
X122718807Y-110843424D01*
X122694860Y-110903817D01*
X122668083Y-110962791D01*
X122638559Y-111020255D01*
X122606375Y-111076122D01*
X122571615Y-111130301D01*
X122534365Y-111182705D01*
X122494710Y-111233244D01*
X122452734Y-111281829D01*
X122408522Y-111328372D01*
X122362164Y-111372783D01*
X122313739Y-111414973D01*
X122263336Y-111454854D01*
X122211038Y-111492337D01*
X122156932Y-111527331D01*
X122101102Y-111559749D01*
X122043634Y-111589502D01*
X121984612Y-111616501D01*
X121924123Y-111640657D01*
X121862251Y-111661880D01*
X121799081Y-111680083D01*
X121734699Y-111695175D01*
X121669189Y-111707068D01*
X121602638Y-111715674D01*
X121535129Y-111720902D01*
X121466750Y-111722665D01*
X120510218Y-111722665D01*
X116636560Y-111722665D01*
X116636555Y-111722661D01*
X114064619Y-111722661D01*
X113996236Y-111720916D01*
X113928719Y-111715737D01*
X113862154Y-111707211D01*
X113796625Y-111695423D01*
X113732220Y-111680458D01*
X113669022Y-111662402D01*
X113607119Y-111641342D01*
X113546594Y-111617360D01*
X113487535Y-111590545D01*
X113430026Y-111560981D01*
X113374154Y-111528754D01*
X113320003Y-111493950D01*
X113267659Y-111456653D01*
X113217208Y-111416950D01*
X113168736Y-111374927D01*
X113122328Y-111330669D01*
X113078069Y-111284260D01*
X113036045Y-111235788D01*
X112996341Y-111185337D01*
X112959046Y-111132993D01*
X112924241Y-111078842D01*
X112892014Y-111022970D01*
X112862450Y-110965461D01*
X112835635Y-110906401D01*
X112811654Y-110845877D01*
X112790593Y-110783973D01*
X112772537Y-110720776D01*
X112757572Y-110656370D01*
X112745784Y-110590841D01*
X112737257Y-110524275D01*
X112732079Y-110456758D01*
X112730334Y-110388375D01*
X112730334Y-108319253D01*
X112588544Y-108195752D01*
X115031486Y-108195752D01*
X115031486Y-109047379D01*
X116746113Y-109055695D01*
X116830148Y-109054238D01*
X116913750Y-109049701D01*
X116996628Y-109041835D01*
X117078490Y-109030394D01*
X117159046Y-109015129D01*
X117238005Y-108995792D01*
X117315076Y-108972136D01*
X117389969Y-108943912D01*
X117426507Y-108928010D01*
X117462391Y-108910873D01*
X117497585Y-108892471D01*
X117532053Y-108872770D01*
X117565758Y-108851744D01*
X117598663Y-108829357D01*
X117630733Y-108805581D01*
X117661931Y-108780385D01*
X117692221Y-108753736D01*
X117721566Y-108725605D01*
X117749929Y-108695960D01*
X117777276Y-108664771D01*
X117803568Y-108632006D01*
X117828771Y-108597633D01*
X117852847Y-108561624D01*
X117875760Y-108523945D01*
X117895613Y-108487869D01*
X117914186Y-108450326D01*
X117931468Y-108411345D01*
X117947452Y-108370952D01*
X117962129Y-108329174D01*
X117975490Y-108286038D01*
X117987527Y-108241570D01*
X117998232Y-108195798D01*
X118007486Y-108149329D01*
X118015584Y-108101502D01*
X118017154Y-108090333D01*
X119122691Y-108090333D01*
X119123642Y-108140524D01*
X119124830Y-108165313D01*
X119126495Y-108189896D01*
X119128636Y-108214274D01*
X119131254Y-108238444D01*
X119134347Y-108262407D01*
X119137917Y-108286161D01*
X119141965Y-108309706D01*
X119146490Y-108333042D01*
X119151492Y-108356167D01*
X119156972Y-108379080D01*
X119162929Y-108401781D01*
X119169365Y-108424270D01*
X119176278Y-108446546D01*
X119183670Y-108468606D01*
X119191538Y-108490385D01*
X119199878Y-108511821D01*
X119208691Y-108532911D01*
X119217978Y-108553656D01*
X119227739Y-108574059D01*
X119237975Y-108594119D01*
X119248687Y-108613839D01*
X119259875Y-108633218D01*
X119271540Y-108652256D01*
X119283682Y-108670955D01*
X119296304Y-108689317D01*
X119309404Y-108707341D01*
X119322983Y-108725029D01*
X119337043Y-108742381D01*
X119351583Y-108759399D01*
X119366603Y-108776082D01*
X119382098Y-108792272D01*
X119398048Y-108808017D01*
X119414459Y-108823315D01*
X119431327Y-108838167D01*
X119448654Y-108852571D01*
X119466438Y-108866526D01*
X119484681Y-108880032D01*
X119503381Y-108893087D01*
X119522537Y-108905692D01*
X119542153Y-108917845D01*
X119562224Y-108929546D01*
X119582752Y-108940793D01*
X119603737Y-108951587D01*
X119625178Y-108961926D01*
X119647075Y-108971809D01*
X119669428Y-108981236D01*
X119692333Y-108990157D01*
X119715677Y-108998519D01*
X119739463Y-109006321D01*
X119763695Y-109013560D01*
X119788374Y-109020234D01*
X119813502Y-109026340D01*
X119839082Y-109031876D01*
X119865117Y-109036839D01*
X119891610Y-109041227D01*
X119918563Y-109045038D01*
X119945978Y-109048269D01*
X119973857Y-109050917D01*
X120002204Y-109052983D01*
X120031022Y-109054461D01*
X120060311Y-109055349D01*
X120090075Y-109055646D01*
X120126364Y-109055201D01*
X120162052Y-109053869D01*
X120197139Y-109051652D01*
X120231623Y-109048550D01*
X120265503Y-109044565D01*
X120298778Y-109039700D01*
X120331447Y-109033956D01*
X120363509Y-109027334D01*
X120394965Y-109019838D01*
X120425812Y-109011467D01*
X120456049Y-109002224D01*
X120485676Y-108992111D01*
X120514690Y-108981130D01*
X120543092Y-108969281D01*
X120570881Y-108956567D01*
X120598055Y-108942990D01*
X120624744Y-108928477D01*
X120650657Y-108913159D01*
X120675798Y-108897038D01*
X120700167Y-108880111D01*
X120723764Y-108862377D01*
X120746594Y-108843836D01*
X120768655Y-108824486D01*
X120789951Y-108804328D01*
X120810482Y-108783359D01*
X120830251Y-108761579D01*
X120849257Y-108738987D01*
X120867504Y-108715582D01*
X120884992Y-108691363D01*
X120901723Y-108666328D01*
X120917698Y-108640479D01*
X120932919Y-108613812D01*
X120947197Y-108586363D01*
X120960552Y-108558167D01*
X120972985Y-108529224D01*
X120984494Y-108499532D01*
X120995081Y-108469092D01*
X121004746Y-108437903D01*
X121013489Y-108405963D01*
X121021310Y-108373273D01*
X121028211Y-108339831D01*
X121034190Y-108305637D01*
X121039249Y-108270692D01*
X121043387Y-108234991D01*
X121046605Y-108198536D01*
X121048902Y-108161329D01*
X121050074Y-108129086D01*
X124208716Y-108129086D01*
X129030127Y-108129091D01*
X129030127Y-109602383D01*
X129776335Y-109602383D01*
X129776335Y-104465226D01*
X129776320Y-104465226D01*
X129030127Y-104465225D01*
X129030127Y-105939038D01*
X124208717Y-105939038D01*
X124208716Y-108129086D01*
X121050074Y-108129086D01*
X121050282Y-108123365D01*
X121050742Y-108084645D01*
X121050488Y-108057457D01*
X121049725Y-108031070D01*
X121048448Y-108005462D01*
X121046653Y-107980610D01*
X121044335Y-107956488D01*
X121041490Y-107933074D01*
X121038113Y-107910345D01*
X121034201Y-107888276D01*
X121029929Y-107867044D01*
X121025478Y-107846424D01*
X121020844Y-107826419D01*
X121016029Y-107807036D01*
X121011030Y-107788280D01*
X121005848Y-107770156D01*
X121000482Y-107752672D01*
X120994930Y-107735829D01*
X120983444Y-107704346D01*
X120972390Y-107675062D01*
X120961754Y-107647869D01*
X120951521Y-107622659D01*
X120562916Y-107622659D01*
X120566269Y-107626770D01*
X120569637Y-107631156D01*
X120576414Y-107640744D01*
X120583237Y-107651407D01*
X120590095Y-107663131D01*
X120596981Y-107675901D01*
X120603882Y-107689702D01*
X120610790Y-107704516D01*
X120617695Y-107720330D01*
X120624471Y-107737266D01*
X120631005Y-107754638D01*
X120637296Y-107772466D01*
X120643348Y-107790769D01*
X120649166Y-107809570D01*
X120654751Y-107828888D01*
X120660106Y-107848743D01*
X120665236Y-107869157D01*
X120669766Y-107889804D01*
X120673722Y-107910349D01*
X120677093Y-107930790D01*
X120679871Y-107951125D01*
X120682047Y-107971356D01*
X120683613Y-107991484D01*
X120684559Y-108011506D01*
X120684876Y-108031422D01*
X120684563Y-108053350D01*
X120683627Y-108074811D01*
X120682070Y-108095808D01*
X120679894Y-108116341D01*
X120677101Y-108136415D01*
X120673692Y-108156032D01*
X120669674Y-108175193D01*
X120665044Y-108193900D01*
X120659807Y-108212157D01*
X120653965Y-108229965D01*
X120647519Y-108247327D01*
X120640473Y-108264246D01*
X120632827Y-108280722D01*
X120624587Y-108296760D01*
X120615752Y-108312361D01*
X120606326Y-108327527D01*
X120596366Y-108342237D01*
X120585931Y-108356476D01*
X120575020Y-108370242D01*
X120563632Y-108383536D01*
X120551764Y-108396360D01*
X120539416Y-108408717D01*
X120526588Y-108420607D01*
X120513277Y-108432031D01*
X120499482Y-108442992D01*
X120485203Y-108453490D01*
X120470438Y-108463527D01*
X120455186Y-108473104D01*
X120439446Y-108482223D01*
X120423216Y-108490885D01*
X120406497Y-108499092D01*
X120389285Y-108506844D01*
X120371639Y-108514144D01*
X120353618Y-108520990D01*
X120335224Y-108527378D01*
X120316455Y-108533308D01*
X120297312Y-108538776D01*
X120277797Y-108543781D01*
X120257908Y-108548318D01*
X120237646Y-108552389D01*
X120217013Y-108555988D01*
X120196006Y-108559115D01*
X120174629Y-108561768D01*
X120152878Y-108563943D01*
X120130758Y-108565638D01*
X120115323Y-108566471D01*
X120108267Y-108566852D01*
X120085404Y-108567582D01*
X120062172Y-108567826D01*
X120039602Y-108567556D01*
X120017472Y-108566748D01*
X119995781Y-108565401D01*
X119974530Y-108563516D01*
X119953718Y-108561094D01*
X119933344Y-108558135D01*
X119913408Y-108554638D01*
X119893910Y-108550606D01*
X119874850Y-108546038D01*
X119856228Y-108540935D01*
X119838042Y-108535296D01*
X119820294Y-108529123D01*
X119802982Y-108522417D01*
X119786107Y-108515176D01*
X119769668Y-108507403D01*
X119753665Y-108499097D01*
X119738018Y-108490337D01*
X119722857Y-108481201D01*
X119708181Y-108471688D01*
X119693989Y-108461799D01*
X119680278Y-108451533D01*
X119667049Y-108440889D01*
X119654298Y-108429867D01*
X119642027Y-108418466D01*
X119630232Y-108406687D01*
X119618913Y-108394528D01*
X119608067Y-108381990D01*
X119597694Y-108369070D01*
X119587796Y-108355770D01*
X119578365Y-108342088D01*
X119569405Y-108328025D01*
X119560912Y-108313580D01*
X119553014Y-108298932D01*
X119545628Y-108284050D01*
X119538754Y-108268937D01*
X119532391Y-108253593D01*
X119526540Y-108238021D01*
X119521199Y-108222222D01*
X119516369Y-108206197D01*
X119512048Y-108189949D01*
X119508238Y-108173478D01*
X119504936Y-108156787D01*
X119502145Y-108139877D01*
X119499860Y-108122750D01*
X119498084Y-108105407D01*
X119496816Y-108087849D01*
X119496056Y-108070079D01*
X119495802Y-108052098D01*
X119496120Y-108024398D01*
X119497068Y-107997759D01*
X119498637Y-107972193D01*
X119500815Y-107947714D01*
X119503595Y-107924330D01*
X119506965Y-107902059D01*
X119510918Y-107880909D01*
X119515442Y-107860894D01*
X119520529Y-107841733D01*
X119525763Y-107823545D01*
X119531156Y-107806313D01*
X119536720Y-107790015D01*
X119542467Y-107774631D01*
X119548408Y-107760142D01*
X119554556Y-107746528D01*
X119560923Y-107733769D01*
X119566070Y-107724104D01*
X119571335Y-107714503D01*
X119576717Y-107704968D01*
X119582216Y-107695500D01*
X119587830Y-107686100D01*
X119593560Y-107676769D01*
X119599404Y-107667508D01*
X119605362Y-107658318D01*
X119198670Y-107597336D01*
X119195825Y-107611682D01*
X119192736Y-107626273D01*
X119185873Y-107656179D01*
X119178172Y-107687024D01*
X119169730Y-107718777D01*
X119165198Y-107735047D01*
X119160798Y-107752082D01*
X119156521Y-107769886D01*
X119152359Y-107788469D01*
X119148301Y-107807835D01*
X119144337Y-107827992D01*
X119136660Y-107870705D01*
X119133347Y-107893520D01*
X119130493Y-107917645D01*
X119128093Y-107943087D01*
X119126140Y-107969856D01*
X119124632Y-107997956D01*
X119123560Y-108027397D01*
X119122922Y-108058186D01*
X119122710Y-108090329D01*
X119122691Y-108090333D01*
X118017154Y-108090333D01*
X118022500Y-108052317D01*
X118028212Y-108001773D01*
X118032696Y-107949869D01*
X118035928Y-107896607D01*
X118037885Y-107841985D01*
X118038542Y-107786004D01*
X118037210Y-107707819D01*
X118035547Y-107669679D01*
X118033219Y-107632179D01*
X118030228Y-107595321D01*
X118026575Y-107559108D01*
X118022260Y-107523542D01*
X118017284Y-107488627D01*
X118011649Y-107454366D01*
X118005354Y-107420760D01*
X117998401Y-107387814D01*
X117990791Y-107355530D01*
X117982524Y-107323910D01*
X117973602Y-107292958D01*
X117964025Y-107262676D01*
X117953794Y-107233067D01*
X117935426Y-107185566D01*
X117915280Y-107140054D01*
X117893409Y-107096500D01*
X117869869Y-107054872D01*
X117844716Y-107015140D01*
X117818005Y-106977270D01*
X117789790Y-106941233D01*
X117760128Y-106906994D01*
X117729074Y-106874525D01*
X117696684Y-106843792D01*
X117663012Y-106814764D01*
X117628114Y-106787411D01*
X117554862Y-106737598D01*
X117477371Y-106694101D01*
X117396084Y-106656668D01*
X117311444Y-106625045D01*
X117223894Y-106598980D01*
X117133877Y-106578222D01*
X117041836Y-106562515D01*
X116948213Y-106551609D01*
X116853453Y-106545250D01*
X116758000Y-106543187D01*
X115031491Y-106543187D01*
X115031491Y-107391713D01*
X116662400Y-107391713D01*
X116697046Y-107391903D01*
X116730718Y-107392480D01*
X116763392Y-107393454D01*
X116795043Y-107394836D01*
X116825651Y-107396634D01*
X116855189Y-107398860D01*
X116883633Y-107401523D01*
X116910963Y-107404633D01*
X116958768Y-107410849D01*
X116983985Y-107414973D01*
X117009766Y-107419882D01*
X117035874Y-107425656D01*
X117062074Y-107432372D01*
X117088131Y-107440112D01*
X117113809Y-107448955D01*
X117138873Y-107458981D01*
X117163088Y-107470269D01*
X117186217Y-107482898D01*
X117197301Y-107489741D01*
X117208026Y-107496950D01*
X117218362Y-107504533D01*
X117228279Y-107512502D01*
X117237749Y-107520866D01*
X117246741Y-107529635D01*
X117255227Y-107538820D01*
X117263177Y-107548429D01*
X117270561Y-107558473D01*
X117277350Y-107568963D01*
X117285027Y-107582593D01*
X117292163Y-107596994D01*
X117304780Y-107627879D01*
X117315133Y-107661148D01*
X117323155Y-107696333D01*
X117328775Y-107732968D01*
X117331929Y-107770582D01*
X117332546Y-107808707D01*
X117330559Y-107846877D01*
X117325900Y-107884622D01*
X117318501Y-107921473D01*
X117313752Y-107939418D01*
X117308293Y-107956964D01*
X117302115Y-107974053D01*
X117295209Y-107990625D01*
X117287568Y-108006624D01*
X117279181Y-108021989D01*
X117270042Y-108036663D01*
X117260140Y-108050587D01*
X117249469Y-108063702D01*
X117238019Y-108075949D01*
X117225783Y-108087273D01*
X117212750Y-108097611D01*
X117197003Y-108108377D01*
X117180544Y-108118324D01*
X117163446Y-108127490D01*
X117145782Y-108135911D01*
X117127624Y-108143622D01*
X117109046Y-108150664D01*
X117090120Y-108157069D01*
X117070918Y-108162878D01*
X117051515Y-108168123D01*
X117031981Y-108172843D01*
X117012390Y-108177075D01*
X116992815Y-108180854D01*
X116954003Y-108187203D01*
X116916127Y-108192181D01*
X116887981Y-108195097D01*
X116858762Y-108197569D01*
X116828494Y-108199605D01*
X116797206Y-108201216D01*
X116764924Y-108202408D01*
X116731677Y-108203189D01*
X116697492Y-108203568D01*
X116662396Y-108203553D01*
X115031486Y-108195752D01*
X112588544Y-108195752D01*
X111692671Y-107415433D01*
X111692671Y-111693726D01*
X96495666Y-111693726D01*
X96495666Y-106477321D01*
X119122254Y-106477321D01*
X119122710Y-106510583D01*
X119122712Y-106510587D01*
X119124005Y-106542977D01*
X119126005Y-106574913D01*
X119128713Y-106606398D01*
X119132129Y-106637430D01*
X119136254Y-106668010D01*
X119141088Y-106698138D01*
X119146633Y-106727815D01*
X119152889Y-106757040D01*
X119159858Y-106785815D01*
X119167540Y-106814139D01*
X119175935Y-106842013D01*
X119185045Y-106869438D01*
X119194871Y-106896412D01*
X119205414Y-106922937D01*
X119216671Y-106949013D01*
X119228648Y-106974641D01*
X119241314Y-106999714D01*
X119254849Y-107024126D01*
X119269255Y-107047877D01*
X119284527Y-107070963D01*
X119300665Y-107093384D01*
X119317670Y-107115135D01*
X119335537Y-107136218D01*
X119354269Y-107156630D01*
X119373865Y-107176369D01*
X119394321Y-107195433D01*
X119415637Y-107213822D01*
X119437813Y-107231530D01*
X119460847Y-107248560D01*
X119484738Y-107264908D01*
X119509485Y-107280573D01*
X119535088Y-107295552D01*
X119561518Y-107309758D01*
X119588954Y-107323106D01*
X119617397Y-107335596D01*
X119646843Y-107347226D01*
X119677294Y-107357997D01*
X119708747Y-107367907D01*
X119741202Y-107376957D01*
X119774658Y-107385145D01*
X119809113Y-107392471D01*
X119844567Y-107398936D01*
X119881019Y-107404537D01*
X119918468Y-107409274D01*
X119956912Y-107413147D01*
X119996350Y-107416155D01*
X120036783Y-107418298D01*
X120078207Y-107419576D01*
X120115323Y-107419685D01*
X120151817Y-107418968D01*
X120187689Y-107417425D01*
X120222943Y-107415054D01*
X120257576Y-107411856D01*
X120291585Y-107407830D01*
X120324976Y-107402975D01*
X120357745Y-107397292D01*
X120389893Y-107390778D01*
X120421422Y-107383434D01*
X120452328Y-107375259D01*
X120482615Y-107366253D01*
X120512281Y-107356415D01*
X120541326Y-107345744D01*
X120569751Y-107334241D01*
X120597556Y-107321904D01*
X120624749Y-107308780D01*
X120651135Y-107294915D01*
X120676714Y-107280309D01*
X120701487Y-107264958D01*
X120725457Y-107248862D01*
X120748625Y-107232019D01*
X120770992Y-107214427D01*
X120792562Y-107196086D01*
X120813334Y-107176993D01*
X120833310Y-107157147D01*
X120852493Y-107136547D01*
X120870883Y-107115192D01*
X120888483Y-107093078D01*
X120905293Y-107070206D01*
X120921316Y-107046574D01*
X120936553Y-107022179D01*
X120950917Y-106997191D01*
X120964324Y-106971567D01*
X120976771Y-106945307D01*
X120988258Y-106918406D01*
X120998784Y-106890868D01*
X121008347Y-106862686D01*
X121016945Y-106833862D01*
X121024579Y-106804392D01*
X121031246Y-106774275D01*
X121036945Y-106743509D01*
X121041676Y-106712094D01*
X121045437Y-106680026D01*
X121048227Y-106647305D01*
X121050044Y-106613929D01*
X121050888Y-106579896D01*
X121050757Y-106545205D01*
X121049660Y-106513244D01*
X121047830Y-106481758D01*
X121045265Y-106450747D01*
X121041961Y-106420210D01*
X121037918Y-106390150D01*
X121033130Y-106360565D01*
X121030083Y-106344532D01*
X121027598Y-106331458D01*
X121021316Y-106302825D01*
X121014283Y-106274670D01*
X121006496Y-106246993D01*
X120997952Y-106219793D01*
X120988648Y-106193071D01*
X120978583Y-106166827D01*
X120967752Y-106141063D01*
X120956155Y-106115776D01*
X120943787Y-106090970D01*
X120930702Y-106066630D01*
X120916747Y-106042955D01*
X120901924Y-106019945D01*
X120886232Y-105997596D01*
X120869673Y-105975911D01*
X120852249Y-105954887D01*
X120833959Y-105934525D01*
X120814807Y-105914823D01*
X120794792Y-105895782D01*
X120773915Y-105877399D01*
X120752179Y-105859675D01*
X120729583Y-105842609D01*
X120706129Y-105826200D01*
X120681818Y-105810448D01*
X120656651Y-105795352D01*
X120630629Y-105780911D01*
X120603596Y-105767217D01*
X120575603Y-105754358D01*
X120546649Y-105742332D01*
X120516735Y-105731140D01*
X120485862Y-105720781D01*
X120454027Y-105711253D01*
X120421233Y-105702556D01*
X120387478Y-105694689D01*
X120352764Y-105687651D01*
X120317087Y-105681442D01*
X120280451Y-105676060D01*
X120242854Y-105671505D01*
X120204296Y-105667776D01*
X120164779Y-105664873D01*
X120124299Y-105662793D01*
X120082859Y-105661538D01*
X120045853Y-105661326D01*
X120009475Y-105661942D01*
X119973727Y-105663387D01*
X119938605Y-105665660D01*
X119904114Y-105668763D01*
X119870250Y-105672695D01*
X119837013Y-105677456D01*
X119804404Y-105683047D01*
X119772423Y-105689468D01*
X119741068Y-105696718D01*
X119710340Y-105704798D01*
X119680239Y-105713709D01*
X119650764Y-105723450D01*
X119621916Y-105734021D01*
X119593691Y-105745424D01*
X119566094Y-105757657D01*
X119539111Y-105770565D01*
X119512943Y-105784197D01*
X119487588Y-105798553D01*
X119463043Y-105813629D01*
X119439308Y-105829425D01*
X119416381Y-105845939D01*
X119394260Y-105863168D01*
X119372945Y-105881111D01*
X119352433Y-105899767D01*
X119332725Y-105919133D01*
X119313815Y-105939206D01*
X119295705Y-105959988D01*
X119278394Y-105981474D01*
X119261878Y-106003663D01*
X119246158Y-106026555D01*
X119231230Y-106050145D01*
X119217187Y-106074390D01*
X119204115Y-106099246D01*
X119192012Y-106124711D01*
X119180880Y-106150784D01*
X119170717Y-106177464D01*
X119161522Y-106204748D01*
X119153296Y-106232637D01*
X119146037Y-106261128D01*
X119139744Y-106290220D01*
X119134417Y-106319912D01*
X119130056Y-106350202D01*
X119126660Y-106381089D01*
X119124228Y-106412572D01*
X119122759Y-106444651D01*
X119122254Y-106477321D01*
X96495666Y-106477321D01*
X96495666Y-99315156D01*
X111692671Y-99315156D01*
X111692671Y-104040448D01*
X112730334Y-104944268D01*
X112730334Y-103529370D01*
X115031485Y-103529370D01*
X115031485Y-104319505D01*
X115841021Y-104325746D01*
X116041719Y-104323791D01*
X116242569Y-104317805D01*
X116443983Y-104306477D01*
X116646374Y-104288495D01*
X116557019Y-104332966D01*
X116463124Y-104383118D01*
X116264288Y-104497669D01*
X116055000Y-104626560D01*
X115840394Y-104764201D01*
X115415769Y-105043381D01*
X115216017Y-105173743D01*
X115031486Y-105290501D01*
X115031486Y-106067715D01*
X117934147Y-106067712D01*
X118008047Y-106067712D01*
X118008047Y-105351998D01*
X119142859Y-105351998D01*
X121030083Y-105352006D01*
X121030083Y-104922574D01*
X120215145Y-104922574D01*
X119732487Y-104980965D01*
X120019291Y-104844022D01*
X121030083Y-104231656D01*
X121030083Y-103756749D01*
X119641026Y-103756750D01*
X119142859Y-103756749D01*
X119142859Y-104185662D01*
X119973816Y-104185662D01*
X120453890Y-104134503D01*
X120179490Y-104264729D01*
X119142859Y-104909650D01*
X119142859Y-105351998D01*
X118008047Y-105351998D01*
X118008047Y-105276548D01*
X117211973Y-105269348D01*
X117016862Y-105271442D01*
X116821286Y-105278042D01*
X116624231Y-105290623D01*
X116424681Y-105310658D01*
X116514700Y-105266127D01*
X116608362Y-105216957D01*
X116804510Y-105106953D01*
X117008926Y-104985138D01*
X117217411Y-104856007D01*
X117629789Y-104593771D01*
X117825283Y-104469653D01*
X118008047Y-104356194D01*
X118008047Y-103529370D01*
X115031485Y-103529370D01*
X112730334Y-103529370D01*
X112730334Y-101891229D01*
X115000987Y-101891229D01*
X115008101Y-102168704D01*
X115018321Y-102444621D01*
X115027496Y-102720957D01*
X115030396Y-102859900D01*
X115031477Y-102999688D01*
X118008044Y-102999688D01*
X118009593Y-102753205D01*
X119122710Y-102753205D01*
X119123217Y-102790382D01*
X119124736Y-102826652D01*
X119127260Y-102862031D01*
X119130783Y-102896533D01*
X119135300Y-102930172D01*
X119140803Y-102962961D01*
X119147289Y-102994920D01*
X119154749Y-103026059D01*
X119158957Y-103041302D01*
X119163427Y-103056293D01*
X119168157Y-103071031D01*
X119173145Y-103085512D01*
X119178389Y-103099734D01*
X119183887Y-103113695D01*
X119189637Y-103127395D01*
X119195638Y-103140827D01*
X119201887Y-103153992D01*
X119208382Y-103166888D01*
X119215122Y-103179509D01*
X119222104Y-103191855D01*
X119229327Y-103203926D01*
X119236788Y-103215717D01*
X119244486Y-103227226D01*
X119252419Y-103238450D01*
X119260401Y-103249360D01*
X119268700Y-103260003D01*
X119277310Y-103270370D01*
X119286221Y-103280459D01*
X119295429Y-103290263D01*
X119304924Y-103299773D01*
X119314701Y-103308986D01*
X119324752Y-103317893D01*
X119335070Y-103326490D01*
X119345648Y-103334771D01*
X119356478Y-103342729D01*
X119367554Y-103350358D01*
X119378868Y-103357651D01*
X119390413Y-103364604D01*
X119402182Y-103371209D01*
X119414168Y-103377461D01*
X119426424Y-103383340D01*
X119438940Y-103388853D01*
X119451714Y-103393997D01*
X119464746Y-103398771D01*
X119478036Y-103403173D01*
X119491582Y-103407201D01*
X119505384Y-103410854D01*
X119519442Y-103414130D01*
X119533755Y-103417029D01*
X119548322Y-103419544D01*
X119563142Y-103421678D01*
X119578216Y-103423428D01*
X119593541Y-103424793D01*
X119609119Y-103425769D01*
X119624947Y-103426356D01*
X119641026Y-103426553D01*
X119659779Y-103426309D01*
X119678194Y-103425579D01*
X119696276Y-103424364D01*
X119714026Y-103422669D01*
X119731446Y-103420493D01*
X119748538Y-103417841D01*
X119765306Y-103414713D01*
X119781752Y-103411114D01*
X119797877Y-103407044D01*
X119813685Y-103402505D01*
X119829177Y-103397500D01*
X119844356Y-103392032D01*
X119859225Y-103386103D01*
X119873786Y-103379715D01*
X119888040Y-103372870D01*
X119901991Y-103365571D01*
X119915537Y-103357815D01*
X119928867Y-103349727D01*
X119941974Y-103341311D01*
X119954854Y-103332573D01*
X119967501Y-103323517D01*
X119979908Y-103314148D01*
X119992070Y-103304472D01*
X120003983Y-103294492D01*
X120015638Y-103284215D01*
X120027032Y-103273645D01*
X120038159Y-103262785D01*
X120049012Y-103251645D01*
X120059586Y-103240224D01*
X120069875Y-103228531D01*
X120079874Y-103216567D01*
X120089577Y-103204343D01*
X120108727Y-103178944D01*
X120127276Y-103152932D01*
X120145206Y-103126309D01*
X120162501Y-103099082D01*
X120179142Y-103071251D01*
X120195112Y-103042825D01*
X120210393Y-103013807D01*
X120224967Y-102984200D01*
X120257154Y-102917316D01*
X120286685Y-102857277D01*
X120313392Y-102804242D01*
X120337107Y-102758374D01*
X120342634Y-102748007D01*
X120348133Y-102738020D01*
X120353607Y-102728410D01*
X120359059Y-102719176D01*
X120364489Y-102710321D01*
X120369900Y-102701839D01*
X120375294Y-102693732D01*
X120380673Y-102685998D01*
X120386039Y-102678637D01*
X120391395Y-102671648D01*
X120396741Y-102665027D01*
X120402080Y-102658778D01*
X120407414Y-102652895D01*
X120412745Y-102647381D01*
X120418076Y-102642234D01*
X120423407Y-102637452D01*
X120428811Y-102632998D01*
X120434364Y-102628833D01*
X120440062Y-102624958D01*
X120445908Y-102621372D01*
X120451898Y-102618073D01*
X120458035Y-102615064D01*
X120464316Y-102612343D01*
X120470741Y-102609909D01*
X120477310Y-102607763D01*
X120484023Y-102605904D01*
X120490878Y-102604331D01*
X120497875Y-102603046D01*
X120505014Y-102602046D01*
X120512295Y-102601333D01*
X120519716Y-102600905D01*
X120527277Y-102600762D01*
X120537554Y-102601001D01*
X120547474Y-102601714D01*
X120557038Y-102602902D01*
X120566248Y-102604564D01*
X120570720Y-102605573D01*
X120575103Y-102606700D01*
X120579398Y-102607945D01*
X120583604Y-102609309D01*
X120587722Y-102610790D01*
X120591751Y-102612389D01*
X120595692Y-102614105D01*
X120599545Y-102615940D01*
X120603311Y-102617892D01*
X120606986Y-102619962D01*
X120610575Y-102622149D01*
X120614075Y-102624453D01*
X120617487Y-102626874D01*
X120620812Y-102629413D01*
X120624048Y-102632069D01*
X120627197Y-102634841D01*
X120630258Y-102637731D01*
X120633233Y-102640737D01*
X120636117Y-102643860D01*
X120638916Y-102647099D01*
X120641627Y-102650455D01*
X120644249Y-102653928D01*
X120646785Y-102657515D01*
X120649233Y-102661221D01*
X120653798Y-102669033D01*
X120658080Y-102677414D01*
X120662080Y-102686366D01*
X120665793Y-102695890D01*
X120669221Y-102705986D01*
X120672360Y-102716655D01*
X120675207Y-102727897D01*
X120677763Y-102739714D01*
X120680024Y-102752106D01*
X120681990Y-102765073D01*
X120683658Y-102778617D01*
X120685027Y-102792738D01*
X120686095Y-102807437D01*
X120686860Y-102822714D01*
X120687320Y-102838571D01*
X120687474Y-102855008D01*
X120687156Y-102879660D01*
X120686207Y-102904271D01*
X120684626Y-102928836D01*
X120682417Y-102953353D01*
X120679580Y-102977817D01*
X120676118Y-103002226D01*
X120672032Y-103026575D01*
X120667324Y-103050862D01*
X120662378Y-103075035D01*
X120657156Y-103098632D01*
X120651662Y-103121662D01*
X120645902Y-103144135D01*
X120639881Y-103166060D01*
X120633603Y-103187445D01*
X120627073Y-103208299D01*
X120620295Y-103228631D01*
X120613228Y-103247998D01*
X120606248Y-103266368D01*
X120599351Y-103283735D01*
X120592535Y-103300089D01*
X120585798Y-103315424D01*
X120579137Y-103329732D01*
X120572550Y-103343006D01*
X120566035Y-103355237D01*
X120933972Y-103413627D01*
X120939692Y-103403592D01*
X120945567Y-103391883D01*
X120951596Y-103378501D01*
X120957781Y-103363446D01*
X120964123Y-103346718D01*
X120970624Y-103328319D01*
X120977283Y-103308247D01*
X120984103Y-103286504D01*
X120990675Y-103263588D01*
X120997015Y-103239594D01*
X121003131Y-103214532D01*
X121009031Y-103188413D01*
X121014722Y-103161249D01*
X121020210Y-103133051D01*
X121025505Y-103103831D01*
X121030613Y-103073598D01*
X121035312Y-103042872D01*
X121039395Y-103011749D01*
X121042855Y-102980229D01*
X121045694Y-102948316D01*
X121047907Y-102916011D01*
X121049492Y-102883316D01*
X121050444Y-102850233D01*
X121050763Y-102816766D01*
X121050488Y-102789319D01*
X121049663Y-102762388D01*
X121048291Y-102735973D01*
X121046371Y-102710077D01*
X121043905Y-102684703D01*
X121040893Y-102659852D01*
X121037337Y-102635526D01*
X121033238Y-102611727D01*
X121030135Y-102596169D01*
X121028596Y-102588457D01*
X121023413Y-102565719D01*
X121017690Y-102543513D01*
X121011427Y-102521844D01*
X121004626Y-102500712D01*
X120997288Y-102480119D01*
X120989413Y-102460068D01*
X120981002Y-102440560D01*
X120972113Y-102421624D01*
X120962797Y-102403286D01*
X120953054Y-102385544D01*
X120942880Y-102368395D01*
X120932276Y-102351836D01*
X120921238Y-102335866D01*
X120909766Y-102320482D01*
X120897858Y-102305682D01*
X120885513Y-102291463D01*
X120872728Y-102277823D01*
X120859502Y-102264760D01*
X120845833Y-102252272D01*
X120831720Y-102240355D01*
X120817161Y-102229009D01*
X120802155Y-102218230D01*
X120786700Y-102208016D01*
X120770841Y-102198394D01*
X120754629Y-102189389D01*
X120738064Y-102181005D01*
X120721151Y-102173237D01*
X120703888Y-102166089D01*
X120686280Y-102159561D01*
X120668329Y-102153652D01*
X120650036Y-102148364D01*
X120631402Y-102143697D01*
X120612432Y-102139651D01*
X120593125Y-102136226D01*
X120573484Y-102133423D01*
X120553513Y-102131243D01*
X120533212Y-102129685D01*
X120512582Y-102128750D01*
X120491627Y-102128438D01*
X120477815Y-102128569D01*
X120464187Y-102128965D01*
X120450746Y-102129626D01*
X120437495Y-102130554D01*
X120424437Y-102131750D01*
X120411574Y-102133217D01*
X120398908Y-102134954D01*
X120386442Y-102136965D01*
X120374179Y-102139251D01*
X120362121Y-102141811D01*
X120350271Y-102144649D01*
X120338631Y-102147767D01*
X120327203Y-102151165D01*
X120315991Y-102154845D01*
X120304996Y-102158808D01*
X120294222Y-102163056D01*
X120283537Y-102167574D01*
X120273014Y-102172345D01*
X120262652Y-102177373D01*
X120252449Y-102182654D01*
X120242403Y-102188189D01*
X120232512Y-102193979D01*
X120222775Y-102200023D01*
X120213190Y-102206322D01*
X120203756Y-102212876D01*
X120194471Y-102219684D01*
X120185331Y-102226748D01*
X120176337Y-102234067D01*
X120167486Y-102241640D01*
X120158778Y-102249470D01*
X120150208Y-102257553D01*
X120141778Y-102265893D01*
X120125015Y-102283064D01*
X120108597Y-102301128D01*
X120092522Y-102320092D01*
X120076789Y-102339965D01*
X120061395Y-102360752D01*
X120046339Y-102382461D01*
X120031621Y-102405099D01*
X120017237Y-102428674D01*
X120001780Y-102455173D01*
X119986730Y-102481899D01*
X119972091Y-102508846D01*
X119957860Y-102536011D01*
X119944045Y-102563389D01*
X119930644Y-102590974D01*
X119917661Y-102618762D01*
X119905098Y-102646748D01*
X119892118Y-102674707D01*
X119879505Y-102701298D01*
X119867241Y-102726536D01*
X119855308Y-102750429D01*
X119843689Y-102772989D01*
X119832364Y-102794228D01*
X119821317Y-102814156D01*
X119810528Y-102832783D01*
X119805193Y-102841624D01*
X119799847Y-102850166D01*
X119794491Y-102858407D01*
X119789124Y-102866348D01*
X119783745Y-102873990D01*
X119778355Y-102881331D01*
X119772953Y-102888372D01*
X119767538Y-102895112D01*
X119762110Y-102901552D01*
X119756668Y-102907691D01*
X119751212Y-102913529D01*
X119745742Y-102919066D01*
X119740257Y-102924303D01*
X119734756Y-102929237D01*
X119729240Y-102933871D01*
X119723708Y-102938203D01*
X119718214Y-102942254D01*
X119712607Y-102946048D01*
X119706888Y-102949582D01*
X119701059Y-102952857D01*
X119695122Y-102955873D01*
X119689076Y-102958629D01*
X119682923Y-102961124D01*
X119676665Y-102963358D01*
X119670302Y-102965331D01*
X119663836Y-102967043D01*
X119657268Y-102968492D01*
X119650599Y-102969678D01*
X119643831Y-102970602D01*
X119636963Y-102971261D01*
X119629999Y-102971659D01*
X119622939Y-102971791D01*
X119617127Y-102971680D01*
X119611403Y-102971347D01*
X119605765Y-102970792D01*
X119600216Y-102970018D01*
X119594752Y-102969023D01*
X119589375Y-102967812D01*
X119584083Y-102966382D01*
X119578876Y-102964736D01*
X119573755Y-102962875D01*
X119568719Y-102960798D01*
X119563766Y-102958508D01*
X119558898Y-102956005D01*
X119554114Y-102953290D01*
X119549412Y-102950364D01*
X119544794Y-102947228D01*
X119540259Y-102943882D01*
X119535833Y-102940316D01*
X119531546Y-102936514D01*
X119527398Y-102932478D01*
X119523386Y-102928209D01*
X119519510Y-102923702D01*
X119515769Y-102918961D01*
X119512161Y-102913986D01*
X119508684Y-102908774D01*
X119505339Y-102903329D01*
X119502123Y-102897648D01*
X119499035Y-102891731D01*
X119496075Y-102885579D01*
X119493240Y-102879191D01*
X119490531Y-102872568D01*
X119487944Y-102865708D01*
X119485480Y-102858613D01*
X119483043Y-102851378D01*
X119480777Y-102843890D01*
X119478677Y-102836150D01*
X119476741Y-102828157D01*
X119473360Y-102811410D01*
X119470620Y-102793646D01*
X119468510Y-102774863D01*
X119467019Y-102755059D01*
X119466132Y-102734227D01*
X119465840Y-102712369D01*
X119466399Y-102681517D01*
X119468118Y-102650741D01*
X119470994Y-102620072D01*
X119475019Y-102589545D01*
X119480191Y-102559191D01*
X119486503Y-102529042D01*
X119493951Y-102499131D01*
X119502530Y-102469491D01*
X119507268Y-102454887D01*
X119512074Y-102440766D01*
X119516944Y-102427126D01*
X119521877Y-102413969D01*
X119526871Y-102401294D01*
X119531924Y-102389102D01*
X119537032Y-102377393D01*
X119542196Y-102366168D01*
X119547411Y-102355426D01*
X119552679Y-102345168D01*
X119557992Y-102335393D01*
X119563352Y-102326103D01*
X119568756Y-102317297D01*
X119574201Y-102308976D01*
X119579687Y-102301141D01*
X119585209Y-102293790D01*
X119232260Y-102219891D01*
X119224392Y-102233764D01*
X119216262Y-102250288D01*
X119207868Y-102269459D01*
X119199214Y-102291273D01*
X119190296Y-102315728D01*
X119181118Y-102342819D01*
X119171679Y-102372541D01*
X119161979Y-102404893D01*
X119152767Y-102439822D01*
X119144786Y-102477269D01*
X119142859Y-102488672D01*
X119138036Y-102517203D01*
X119132516Y-102559598D01*
X119128224Y-102604422D01*
X119125160Y-102651648D01*
X119123322Y-102701247D01*
X119122710Y-102753190D01*
X119122710Y-102753205D01*
X118009593Y-102753205D01*
X118011143Y-102506695D01*
X118026263Y-102219425D01*
X118032731Y-102076143D01*
X118035656Y-101996648D01*
X119142859Y-101996648D01*
X119506661Y-101996644D01*
X119506661Y-101493317D01*
X121030083Y-101493317D01*
X121030083Y-101242165D01*
X122800000Y-101242165D01*
X122800000Y-105251740D01*
X123838179Y-106153496D01*
X123838179Y-102146504D01*
X122800000Y-101242165D01*
X121030083Y-101242165D01*
X121030083Y-101015828D01*
X119506661Y-101015828D01*
X119506662Y-100513016D01*
X119142859Y-100513016D01*
X119142859Y-101996648D01*
X118035656Y-101996648D01*
X118038014Y-101932572D01*
X118037479Y-101874337D01*
X118035459Y-101817144D01*
X118031961Y-101761003D01*
X118026991Y-101705924D01*
X118020557Y-101651915D01*
X118012667Y-101598989D01*
X118008053Y-101573384D01*
X118008048Y-101573363D01*
X118003327Y-101547155D01*
X117992545Y-101496423D01*
X117965544Y-101393725D01*
X117932329Y-101295996D01*
X117893065Y-101203272D01*
X117847926Y-101115593D01*
X117797081Y-101032998D01*
X117740701Y-100955527D01*
X117678956Y-100883218D01*
X117612017Y-100816109D01*
X117540052Y-100754241D01*
X117463234Y-100697652D01*
X117381732Y-100646381D01*
X117295716Y-100600467D01*
X117205357Y-100559950D01*
X117110826Y-100524866D01*
X117012291Y-100495257D01*
X116909924Y-100471162D01*
X116856043Y-100460767D01*
X116801049Y-100451750D01*
X116744963Y-100444113D01*
X116687809Y-100437859D01*
X116629609Y-100432990D01*
X116570388Y-100429510D01*
X116510166Y-100427418D01*
X116448968Y-100426720D01*
X116365407Y-100428117D01*
X116284093Y-100432293D01*
X116205053Y-100439229D01*
X116128313Y-100448902D01*
X116090813Y-100454760D01*
X116053898Y-100461293D01*
X116017572Y-100468502D01*
X115981835Y-100476383D01*
X115946695Y-100484932D01*
X115912152Y-100494148D01*
X115878210Y-100504028D01*
X115844872Y-100514569D01*
X115811506Y-100526011D01*
X115778735Y-100538168D01*
X115746560Y-100551040D01*
X115714989Y-100564623D01*
X115684022Y-100578913D01*
X115653664Y-100593906D01*
X115623921Y-100609599D01*
X115594792Y-100625988D01*
X115566285Y-100643069D01*
X115538403Y-100660840D01*
X115511148Y-100679296D01*
X115484526Y-100698434D01*
X115458540Y-100718251D01*
X115433194Y-100738742D01*
X115408491Y-100759905D01*
X115384435Y-100781735D01*
X115338048Y-100827915D01*
X115294644Y-100877180D01*
X115254226Y-100929530D01*
X115216795Y-100984965D01*
X115182351Y-101043488D01*
X115150896Y-101105098D01*
X115122431Y-101169798D01*
X115096957Y-101237586D01*
X115074477Y-101308466D01*
X115054989Y-101382436D01*
X115038495Y-101459499D01*
X115024999Y-101539655D01*
X115014500Y-101622905D01*
X115006998Y-101709251D01*
X115002497Y-101798691D01*
X115000996Y-101891229D01*
X115000987Y-101891229D01*
X112730334Y-101891229D01*
X112730334Y-100218976D01*
X111692671Y-99315156D01*
X96495666Y-99315156D01*
X96495666Y-98109026D01*
X115031486Y-98109026D01*
X115031487Y-100045342D01*
X118008048Y-100045342D01*
X118008048Y-99542535D01*
X119122710Y-99542535D01*
X119122771Y-99542527D01*
X119123444Y-99639070D01*
X119125428Y-99727103D01*
X119128668Y-99806563D01*
X119130742Y-99843059D01*
X119133110Y-99877389D01*
X119137469Y-99941881D01*
X119140523Y-100002431D01*
X119142321Y-100059113D01*
X119142910Y-100112000D01*
X119142910Y-100274266D01*
X121030135Y-100274266D01*
X121030135Y-99801942D01*
X120362475Y-99801942D01*
X120362205Y-99740313D01*
X120361362Y-99685015D01*
X120359902Y-99635986D01*
X120358924Y-99613805D01*
X120357775Y-99593171D01*
X120358569Y-99586649D01*
X120359697Y-99580252D01*
X120361157Y-99573980D01*
X120362949Y-99567832D01*
X120365073Y-99561805D01*
X120367527Y-99555901D01*
X120370307Y-99550116D01*
X120373416Y-99544449D01*
X120376853Y-99538900D01*
X120380614Y-99533467D01*
X120384699Y-99528150D01*
X120389110Y-99522946D01*
X120393843Y-99517857D01*
X120398897Y-99512877D01*
X120404272Y-99508009D01*
X120409966Y-99503251D01*
X120416463Y-99498266D01*
X120423197Y-99493348D01*
X120437380Y-99483717D01*
X120452511Y-99474365D01*
X120468587Y-99465295D01*
X120485603Y-99456513D01*
X120503555Y-99448024D01*
X120522442Y-99439832D01*
X120542258Y-99431943D01*
X120583896Y-99416215D01*
X120626871Y-99400727D01*
X120671205Y-99385344D01*
X120716923Y-99369931D01*
X120740202Y-99362268D01*
X120763207Y-99354332D01*
X120785943Y-99346128D01*
X120808414Y-99337659D01*
X120830624Y-99328928D01*
X120852576Y-99319939D01*
X120874274Y-99310696D01*
X120895724Y-99301203D01*
X120923877Y-99288628D01*
X120948061Y-99277694D01*
X120968168Y-99268436D01*
X120984093Y-99260892D01*
X120990137Y-99257841D01*
X120996102Y-99254642D01*
X121001986Y-99251301D01*
X121007785Y-99247815D01*
X121013498Y-99244187D01*
X121019120Y-99240420D01*
X121024649Y-99236514D01*
X121030083Y-99232472D01*
X121030083Y-98712090D01*
X120995977Y-98731313D01*
X120978959Y-98741156D01*
X120961873Y-98751370D01*
X120927508Y-98771415D01*
X120910311Y-98781205D01*
X120893143Y-98790639D01*
X120869794Y-98803868D01*
X120846157Y-98816793D01*
X120822223Y-98829412D01*
X120797984Y-98841721D01*
X120773432Y-98853716D01*
X120748557Y-98865395D01*
X120723351Y-98876753D01*
X120697806Y-98887788D01*
X120647206Y-98909192D01*
X120597480Y-98930730D01*
X120548696Y-98952371D01*
X120500920Y-98974087D01*
X120477648Y-98985284D01*
X120455084Y-98996715D01*
X120433228Y-99008390D01*
X120412077Y-99020317D01*
X120391632Y-99032505D01*
X120371892Y-99044964D01*
X120352856Y-99057703D01*
X120334523Y-99070730D01*
X120329347Y-99074527D01*
X120324276Y-99078394D01*
X120319309Y-99082328D01*
X120314446Y-99086323D01*
X120309688Y-99090383D01*
X120305033Y-99094502D01*
X120300483Y-99098677D01*
X120296038Y-99102907D01*
X120291697Y-99107189D01*
X120287461Y-99111521D01*
X120283329Y-99115900D01*
X120279302Y-99120325D01*
X120275380Y-99124792D01*
X120271563Y-99129300D01*
X120267850Y-99133846D01*
X120264243Y-99138429D01*
X120260645Y-99130931D01*
X120256968Y-99123500D01*
X120253221Y-99116141D01*
X120249413Y-99108857D01*
X120245553Y-99101652D01*
X120241650Y-99094530D01*
X120237889Y-99087872D01*
X120233752Y-99080549D01*
X120224960Y-99066625D01*
X120215729Y-99053083D01*
X120206057Y-99039920D01*
X120195945Y-99027136D01*
X120185392Y-99014732D01*
X120174397Y-99002708D01*
X120162957Y-98991063D01*
X120151076Y-98979797D01*
X120138749Y-98968910D01*
X120125977Y-98958401D01*
X120112760Y-98948272D01*
X120099096Y-98938520D01*
X120084986Y-98929148D01*
X120070428Y-98920153D01*
X120055421Y-98911537D01*
X120039965Y-98903298D01*
X120024121Y-98895504D01*
X120007740Y-98888219D01*
X119990824Y-98881443D01*
X119973372Y-98875174D01*
X119955384Y-98869413D01*
X119936860Y-98864157D01*
X119917800Y-98859406D01*
X119898205Y-98855160D01*
X119878073Y-98851416D01*
X119857406Y-98848174D01*
X119836204Y-98845434D01*
X119814464Y-98843194D01*
X119792191Y-98841454D01*
X119769381Y-98840212D01*
X119746036Y-98839467D01*
X119722155Y-98839219D01*
X119700128Y-98839456D01*
X119678581Y-98840168D01*
X119657514Y-98841358D01*
X119636925Y-98843027D01*
X119616816Y-98845177D01*
X119597185Y-98847813D01*
X119578032Y-98850934D01*
X119559357Y-98854542D01*
X119541158Y-98858641D01*
X119523436Y-98863232D01*
X119506189Y-98868317D01*
X119489419Y-98873898D01*
X119473123Y-98879978D01*
X119457302Y-98886559D01*
X119441956Y-98893642D01*
X119427082Y-98901231D01*
X119412735Y-98909132D01*
X119398756Y-98917368D01*
X119385149Y-98925934D01*
X119371918Y-98934829D01*
X119359065Y-98944051D01*
X119346594Y-98953600D01*
X119334509Y-98963472D01*
X119322813Y-98973667D01*
X119311508Y-98984180D01*
X119300599Y-98995012D01*
X119290088Y-99006161D01*
X119279980Y-99017625D01*
X119270276Y-99029402D01*
X119260982Y-99041490D01*
X119252098Y-99053888D01*
X119243630Y-99066594D01*
X119235425Y-99079536D01*
X119227535Y-99092645D01*
X119219962Y-99105923D01*
X119212703Y-99119369D01*
X119205756Y-99132984D01*
X119199120Y-99146767D01*
X119192794Y-99160720D01*
X119186777Y-99174843D01*
X119181067Y-99189135D01*
X119175662Y-99203599D01*
X119170562Y-99218231D01*
X119165765Y-99233036D01*
X119161270Y-99248011D01*
X119157075Y-99263160D01*
X119153179Y-99278478D01*
X119149580Y-99293969D01*
X119143295Y-99324934D01*
X119137842Y-99355937D01*
X119133225Y-99386975D01*
X119129444Y-99418041D01*
X119126500Y-99449135D01*
X119124395Y-99480251D01*
X119123131Y-99511387D01*
X119122710Y-99542535D01*
X118008048Y-99542535D01*
X118008049Y-98490918D01*
X119142859Y-98490918D01*
X120237889Y-98496106D01*
X120268078Y-98495805D01*
X120297804Y-98494902D01*
X120327065Y-98493396D01*
X120355861Y-98491286D01*
X120384190Y-98488572D01*
X120412051Y-98485252D01*
X120439443Y-98481327D01*
X120466366Y-98476794D01*
X120492820Y-98471654D01*
X120518800Y-98465905D01*
X120544309Y-98459548D01*
X120569345Y-98452580D01*
X120593907Y-98445002D01*
X120617993Y-98436812D01*
X120641603Y-98428010D01*
X120664736Y-98418595D01*
X120687309Y-98408492D01*
X120709239Y-98397629D01*
X120730526Y-98386005D01*
X120751172Y-98373622D01*
X120771176Y-98360479D01*
X120790537Y-98346577D01*
X120809258Y-98331917D01*
X120827338Y-98316498D01*
X120844778Y-98300322D01*
X120861579Y-98283388D01*
X120877739Y-98265696D01*
X120893260Y-98247249D01*
X120908142Y-98228045D01*
X120922385Y-98208084D01*
X120935991Y-98187369D01*
X120948959Y-98165898D01*
X120961311Y-98143495D01*
X120972862Y-98120191D01*
X120983613Y-98095983D01*
X120993562Y-98070871D01*
X121002712Y-98044852D01*
X121011062Y-98017924D01*
X121018614Y-97990086D01*
X121025368Y-97961334D01*
X121031325Y-97931668D01*
X121036486Y-97901085D01*
X121040851Y-97869583D01*
X121044420Y-97837161D01*
X121047195Y-97803816D01*
X121049176Y-97769547D01*
X121050365Y-97734352D01*
X121050761Y-97698228D01*
X121049926Y-97648179D01*
X121047421Y-97599856D01*
X121043248Y-97553259D01*
X121037406Y-97508387D01*
X121029896Y-97465239D01*
X121020719Y-97423818D01*
X121009875Y-97384122D01*
X120997364Y-97346149D01*
X120983187Y-97309902D01*
X120967344Y-97275380D01*
X120949836Y-97242583D01*
X120930664Y-97211511D01*
X120909827Y-97182163D01*
X120887327Y-97154540D01*
X120863165Y-97128641D01*
X120837337Y-97104466D01*
X120810032Y-97081985D01*
X120781431Y-97060959D01*
X120751534Y-97041384D01*
X120720342Y-97023263D01*
X120687854Y-97006593D01*
X120654074Y-96991375D01*
X120618998Y-96977608D01*
X120582628Y-96965292D01*
X120544965Y-96954426D01*
X120506009Y-96945011D01*
X120465759Y-96937045D01*
X120424217Y-96930528D01*
X120381382Y-96925460D01*
X120337255Y-96921841D01*
X120291836Y-96919670D01*
X120245125Y-96918946D01*
X119142867Y-96918946D01*
X119142867Y-97386101D01*
X120181563Y-97386101D01*
X120228536Y-97386650D01*
X120272858Y-97388301D01*
X120314523Y-97391062D01*
X120353527Y-97394939D01*
X120372030Y-97397299D01*
X120389865Y-97399941D01*
X120407033Y-97402865D01*
X120423532Y-97406073D01*
X120439363Y-97409566D01*
X120454524Y-97413344D01*
X120469016Y-97417409D01*
X120482836Y-97421761D01*
X120496070Y-97426295D01*
X120508802Y-97431114D01*
X120521032Y-97436219D01*
X120532759Y-97441608D01*
X120543984Y-97447282D01*
X120554705Y-97453238D01*
X120564925Y-97459477D01*
X120574641Y-97465997D01*
X120583854Y-97472798D01*
X120592564Y-97479880D01*
X120600770Y-97487240D01*
X120608473Y-97494881D01*
X120615672Y-97502799D01*
X120622368Y-97510994D01*
X120628560Y-97519465D01*
X120634247Y-97528214D01*
X120639414Y-97537236D01*
X120644253Y-97546533D01*
X120648763Y-97556103D01*
X120652943Y-97565948D01*
X120656793Y-97576071D01*
X120660312Y-97586471D01*
X120663499Y-97597149D01*
X120666354Y-97608108D01*
X120668876Y-97619347D01*
X120671063Y-97630869D01*
X120672916Y-97642674D01*
X120674434Y-97654762D01*
X120675616Y-97667137D01*
X120676461Y-97679798D01*
X120676968Y-97692746D01*
X120677138Y-97705983D01*
X120676979Y-97719024D01*
X120676504Y-97731803D01*
X120675711Y-97744319D01*
X120674600Y-97756571D01*
X120673171Y-97768558D01*
X120671422Y-97780280D01*
X120669355Y-97791735D01*
X120666968Y-97802924D01*
X120664260Y-97813844D01*
X120661232Y-97824496D01*
X120657883Y-97834878D01*
X120654212Y-97844989D01*
X120650220Y-97854831D01*
X120645906Y-97864398D01*
X120641268Y-97873695D01*
X120636307Y-97882717D01*
X120630820Y-97891575D01*
X120624813Y-97900165D01*
X120618289Y-97908484D01*
X120611246Y-97916532D01*
X120603691Y-97924307D01*
X120595620Y-97931806D01*
X120587038Y-97939028D01*
X120577944Y-97945970D01*
X120568340Y-97952632D01*
X120558228Y-97959011D01*
X120547610Y-97965105D01*
X120536486Y-97970912D01*
X120524856Y-97976431D01*
X120512726Y-97981660D01*
X120500094Y-97986596D01*
X120486962Y-97991239D01*
X120473223Y-97995597D01*
X120458769Y-97999678D01*
X120427718Y-98007000D01*
X120393809Y-98013186D01*
X120357049Y-98018213D01*
X120317440Y-98022066D01*
X120274985Y-98024724D01*
X120229690Y-98026168D01*
X120181555Y-98026379D01*
X119142859Y-98021180D01*
X119142859Y-98490918D01*
X118008049Y-98490918D01*
X118008049Y-97998441D01*
X117319720Y-97998441D01*
X117319720Y-99193715D01*
X116819491Y-99193715D01*
X116819491Y-98356043D01*
X116158549Y-98356042D01*
X116158549Y-99193715D01*
X115707931Y-99193715D01*
X115707931Y-98109026D01*
X115031486Y-98109026D01*
X96495666Y-98109026D01*
X96495666Y-91510987D01*
X111692671Y-91510987D01*
X111692671Y-95602208D01*
X112730334Y-96503445D01*
X112730334Y-96462102D01*
X115000996Y-96462102D01*
X115004641Y-96741166D01*
X115027891Y-97154576D01*
X115031492Y-97632584D01*
X118008053Y-97632584D01*
X118008053Y-96777341D01*
X117005530Y-96777341D01*
X116999832Y-96540662D01*
X117010682Y-96505002D01*
X117012212Y-96502087D01*
X117013877Y-96499201D01*
X117015674Y-96496342D01*
X117017598Y-96493508D01*
X117019646Y-96490698D01*
X117021816Y-96487913D01*
X117024104Y-96485149D01*
X117026506Y-96482406D01*
X117029019Y-96479683D01*
X117031640Y-96476979D01*
X117034364Y-96474291D01*
X117037191Y-96471620D01*
X117040115Y-96468963D01*
X117043134Y-96466320D01*
X117046243Y-96463691D01*
X117049441Y-96461072D01*
X117126961Y-96410943D01*
X117227731Y-96364434D01*
X117628739Y-96223359D01*
X117726581Y-96183605D01*
X117776391Y-96162960D01*
X117825918Y-96141140D01*
X117850370Y-96129634D01*
X117874504Y-96117647D01*
X117898239Y-96105118D01*
X117921492Y-96091984D01*
X117944181Y-96078184D01*
X117966224Y-96063654D01*
X117987539Y-96048333D01*
X118008044Y-96032159D01*
X118008044Y-95679200D01*
X119122691Y-95679200D01*
X119123642Y-95729572D01*
X119124830Y-95754433D01*
X119126495Y-95779077D01*
X119128636Y-95803505D01*
X119131253Y-95827717D01*
X119134347Y-95851713D01*
X119137918Y-95875493D01*
X119141966Y-95899058D01*
X119146490Y-95922407D01*
X119151492Y-95945541D01*
X119156972Y-95968460D01*
X119162929Y-95991164D01*
X119169365Y-96013653D01*
X119176278Y-96035928D01*
X119183670Y-96057988D01*
X119191538Y-96079672D01*
X119199878Y-96101021D01*
X119208691Y-96122039D01*
X119217978Y-96142723D01*
X119227739Y-96163073D01*
X119237975Y-96183093D01*
X119248687Y-96202780D01*
X119259876Y-96222131D01*
X119271540Y-96241151D01*
X119283683Y-96259836D01*
X119296304Y-96278188D01*
X119309404Y-96296207D01*
X119322983Y-96313892D01*
X119337043Y-96331244D01*
X119351582Y-96348261D01*
X119366604Y-96364945D01*
X119382097Y-96381239D01*
X119398048Y-96397085D01*
X119414459Y-96412481D01*
X119431327Y-96427427D01*
X119448654Y-96441922D01*
X119466438Y-96455961D01*
X119484681Y-96469547D01*
X119503381Y-96482676D01*
X119522538Y-96495348D01*
X119542153Y-96507562D01*
X119562225Y-96519315D01*
X119582753Y-96530607D01*
X119603737Y-96541436D01*
X119625178Y-96551801D01*
X119647075Y-96561701D01*
X119669428Y-96571133D01*
X119692333Y-96580044D01*
X119715677Y-96588374D01*
X119739463Y-96596126D01*
X119763695Y-96603300D01*
X119788373Y-96609896D01*
X119813502Y-96615914D01*
X119839082Y-96621357D01*
X119865117Y-96626224D01*
X119891610Y-96630516D01*
X119918563Y-96634233D01*
X119945978Y-96637377D01*
X119973857Y-96639948D01*
X120031022Y-96643372D01*
X120090075Y-96644513D01*
X120126364Y-96644069D01*
X120162052Y-96642736D01*
X120197139Y-96640519D01*
X120231623Y-96637417D01*
X120265503Y-96633432D01*
X120298778Y-96628567D01*
X120331447Y-96622824D01*
X120363510Y-96616202D01*
X120394965Y-96608705D01*
X120425813Y-96600334D01*
X120456049Y-96591091D01*
X120485675Y-96580978D01*
X120514690Y-96569997D01*
X120543092Y-96558148D01*
X120570881Y-96545434D01*
X120598055Y-96531857D01*
X120624744Y-96517343D01*
X120650657Y-96502026D01*
X120675798Y-96485904D01*
X120700167Y-96468977D01*
X120723764Y-96451243D01*
X120746594Y-96432702D01*
X120768655Y-96413353D01*
X120789951Y-96393195D01*
X120810482Y-96372226D01*
X120830251Y-96350447D01*
X120849257Y-96327855D01*
X120867504Y-96304449D01*
X120884992Y-96280231D01*
X120901723Y-96255197D01*
X120917698Y-96229347D01*
X120932919Y-96202679D01*
X120947196Y-96175237D01*
X120960552Y-96147058D01*
X120972984Y-96118140D01*
X120984493Y-96088482D01*
X120995081Y-96058081D01*
X121004746Y-96026936D01*
X121013489Y-95995044D01*
X121021310Y-95962401D01*
X121028211Y-95929007D01*
X121034190Y-95894860D01*
X121039249Y-95859956D01*
X121043387Y-95824296D01*
X121046605Y-95787876D01*
X121048902Y-95750693D01*
X121050282Y-95712745D01*
X121050742Y-95674031D01*
X121050488Y-95646980D01*
X121049725Y-95620609D01*
X121048448Y-95594927D01*
X121046653Y-95569943D01*
X121044335Y-95545664D01*
X121041490Y-95522099D01*
X121038113Y-95499258D01*
X121034201Y-95477147D01*
X121029930Y-95455915D01*
X121025478Y-95435297D01*
X121020844Y-95415307D01*
X121016029Y-95395957D01*
X121011030Y-95377261D01*
X121005848Y-95359230D01*
X121000483Y-95341879D01*
X120994931Y-95325219D01*
X120983444Y-95293657D01*
X120972390Y-95264194D01*
X120961754Y-95236822D01*
X120951521Y-95211530D01*
X120562916Y-95211530D01*
X120566270Y-95215642D01*
X120569637Y-95220029D01*
X120576414Y-95229622D01*
X120583237Y-95240301D01*
X120590095Y-95252057D01*
X120596981Y-95264885D01*
X120603882Y-95278775D01*
X120610790Y-95293724D01*
X120617695Y-95309720D01*
X120624472Y-95326475D01*
X120631004Y-95343714D01*
X120637296Y-95361449D01*
X120643348Y-95379694D01*
X120649166Y-95398462D01*
X120654750Y-95417765D01*
X120660106Y-95437616D01*
X120665236Y-95458031D01*
X120669766Y-95478679D01*
X120673721Y-95499223D01*
X120677093Y-95519664D01*
X120679871Y-95540000D01*
X120682047Y-95560231D01*
X120683612Y-95580358D01*
X120684559Y-95600380D01*
X120684876Y-95620297D01*
X120684563Y-95642231D01*
X120683627Y-95663708D01*
X120682070Y-95684729D01*
X120679894Y-95705293D01*
X120677101Y-95725401D01*
X120673692Y-95745051D01*
X120669674Y-95764245D01*
X120665044Y-95782982D01*
X120659807Y-95801261D01*
X120653965Y-95819083D01*
X120647519Y-95836447D01*
X120640473Y-95853353D01*
X120632828Y-95869802D01*
X120624587Y-95885792D01*
X120615752Y-95901324D01*
X120606326Y-95916398D01*
X120596366Y-95931109D01*
X120585931Y-95945347D01*
X120575020Y-95959112D01*
X120563632Y-95972408D01*
X120551765Y-95985231D01*
X120539416Y-95997588D01*
X120526588Y-96009478D01*
X120513277Y-96020902D01*
X120499482Y-96031863D01*
X120485203Y-96042361D01*
X120470438Y-96052398D01*
X120455186Y-96061975D01*
X120439446Y-96071094D01*
X120423216Y-96079756D01*
X120406496Y-96087963D01*
X120389286Y-96095715D01*
X120371639Y-96103109D01*
X120353618Y-96110022D01*
X120335224Y-96116458D01*
X120316455Y-96122415D01*
X120297312Y-96127895D01*
X120277797Y-96132897D01*
X120257908Y-96137422D01*
X120237646Y-96141470D01*
X120217012Y-96145040D01*
X120196006Y-96148134D01*
X120174628Y-96150752D01*
X120152878Y-96152892D01*
X120130758Y-96154557D01*
X120108266Y-96155746D01*
X120085404Y-96156459D01*
X120062172Y-96156697D01*
X120039602Y-96156427D01*
X120017473Y-96155619D01*
X119995782Y-96154272D01*
X119974530Y-96152388D01*
X119953718Y-96149965D01*
X119933344Y-96147005D01*
X119913408Y-96143509D01*
X119893910Y-96139477D01*
X119874850Y-96134909D01*
X119856228Y-96129806D01*
X119838041Y-96124167D01*
X119820294Y-96117994D01*
X119802982Y-96111288D01*
X119786107Y-96104047D01*
X119769668Y-96096274D01*
X119753665Y-96087968D01*
X119738018Y-96079208D01*
X119722857Y-96070072D01*
X119708181Y-96060559D01*
X119693989Y-96050670D01*
X119680278Y-96040404D01*
X119667049Y-96029760D01*
X119654299Y-96018738D01*
X119642027Y-96007337D01*
X119630232Y-95995558D01*
X119618912Y-95983399D01*
X119608067Y-95970860D01*
X119597695Y-95957941D01*
X119587795Y-95944641D01*
X119578365Y-95930958D01*
X119569405Y-95916896D01*
X119560912Y-95902451D01*
X119553014Y-95887803D01*
X119545628Y-95872921D01*
X119538754Y-95857808D01*
X119532391Y-95842463D01*
X119526540Y-95826892D01*
X119521199Y-95811093D01*
X119516369Y-95795068D01*
X119512048Y-95778820D01*
X119508238Y-95762349D01*
X119504936Y-95745658D01*
X119502144Y-95728748D01*
X119499861Y-95711621D01*
X119498084Y-95694277D01*
X119496816Y-95676720D01*
X119496056Y-95658950D01*
X119495802Y-95640969D01*
X119496120Y-95613270D01*
X119497068Y-95586632D01*
X119498637Y-95561067D01*
X119500815Y-95536587D01*
X119503595Y-95513205D01*
X119506966Y-95490933D01*
X119510918Y-95469784D01*
X119515442Y-95449769D01*
X119520529Y-95430607D01*
X119525763Y-95412420D01*
X119531156Y-95395188D01*
X119536720Y-95378888D01*
X119542467Y-95363506D01*
X119548408Y-95349017D01*
X119554556Y-95335403D01*
X119560923Y-95322644D01*
X119567316Y-95310848D01*
X119573514Y-95299720D01*
X119579495Y-95289263D01*
X119585235Y-95279481D01*
X119590715Y-95270379D01*
X119595910Y-95261961D01*
X119600800Y-95254230D01*
X119605362Y-95247193D01*
X119198670Y-95186734D01*
X119195825Y-95201054D01*
X119192736Y-95215584D01*
X119185872Y-95245313D01*
X119178172Y-95275982D01*
X119169730Y-95307656D01*
X119165198Y-95324109D01*
X119160798Y-95341275D01*
X119156521Y-95359158D01*
X119152359Y-95377766D01*
X119148301Y-95397107D01*
X119144337Y-95417186D01*
X119142859Y-95425351D01*
X119136659Y-95459584D01*
X119133347Y-95482399D01*
X119130493Y-95506525D01*
X119128093Y-95531969D01*
X119126141Y-95558735D01*
X119124632Y-95586835D01*
X119123560Y-95616275D01*
X119122922Y-95647062D01*
X119122710Y-95679204D01*
X119122691Y-95679200D01*
X118008044Y-95679200D01*
X118008044Y-95090100D01*
X117781712Y-95219624D01*
X117668017Y-95283150D01*
X117553290Y-95345383D01*
X117109908Y-95543305D01*
X117073405Y-95560718D01*
X117037916Y-95578650D01*
X117003453Y-95597076D01*
X116970025Y-95615972D01*
X116937643Y-95635312D01*
X116906317Y-95655071D01*
X116876057Y-95675225D01*
X116846873Y-95695749D01*
X116802433Y-95731919D01*
X116795230Y-95720275D01*
X116787838Y-95708764D01*
X116780258Y-95697389D01*
X116772495Y-95686155D01*
X116764551Y-95675066D01*
X116756428Y-95664129D01*
X116748130Y-95653345D01*
X116739659Y-95642720D01*
X116731018Y-95632259D01*
X116722210Y-95621965D01*
X116713238Y-95611844D01*
X116704103Y-95601899D01*
X116694810Y-95592135D01*
X116685361Y-95582556D01*
X116675760Y-95573168D01*
X116666007Y-95563973D01*
X116645934Y-95546091D01*
X116625035Y-95528823D01*
X116603324Y-95512166D01*
X116580812Y-95496115D01*
X116557517Y-95480666D01*
X116533453Y-95465814D01*
X116508632Y-95451554D01*
X116483071Y-95437882D01*
X116457264Y-95425317D01*
X116430648Y-95413549D01*
X116403226Y-95402577D01*
X116374997Y-95392406D01*
X116345961Y-95383038D01*
X116316120Y-95374473D01*
X116285474Y-95366715D01*
X116254023Y-95359764D01*
X116221770Y-95353624D01*
X116188714Y-95348296D01*
X116154854Y-95343783D01*
X116120194Y-95340085D01*
X116084742Y-95337207D01*
X116084730Y-95337207D01*
X116048467Y-95335147D01*
X116011404Y-95333910D01*
X115973542Y-95333497D01*
X115938772Y-95333921D01*
X115904704Y-95335179D01*
X115871322Y-95337244D01*
X115838607Y-95340092D01*
X115806547Y-95343698D01*
X115775124Y-95348037D01*
X115744322Y-95353084D01*
X115714126Y-95358815D01*
X115680094Y-95366722D01*
X115646895Y-95375791D01*
X115614527Y-95385998D01*
X115582992Y-95397322D01*
X115552292Y-95409738D01*
X115522427Y-95423224D01*
X115493400Y-95437756D01*
X115465211Y-95453313D01*
X115437861Y-95469869D01*
X115411352Y-95487402D01*
X115360862Y-95525307D01*
X115313749Y-95566842D01*
X115270024Y-95611823D01*
X115229697Y-95660065D01*
X115192777Y-95711381D01*
X115159274Y-95765588D01*
X115129199Y-95822500D01*
X115102560Y-95881931D01*
X115079369Y-95943698D01*
X115059634Y-96007614D01*
X115043366Y-96073495D01*
X115033383Y-96122048D01*
X115024752Y-96170673D01*
X115017466Y-96219337D01*
X115011520Y-96268007D01*
X115006906Y-96316651D01*
X115003618Y-96365236D01*
X115001651Y-96413731D01*
X115000996Y-96462102D01*
X112730334Y-96462102D01*
X112730334Y-95079243D01*
X119142859Y-95079243D01*
X119506662Y-95079240D01*
X119506661Y-94576428D01*
X121030083Y-94576428D01*
X121030083Y-94099454D01*
X119506661Y-94099454D01*
X119506661Y-93595612D01*
X119142859Y-93595612D01*
X119142859Y-95079243D01*
X112730334Y-95079243D01*
X112730334Y-92509305D01*
X115306913Y-92509305D01*
X115306922Y-92515572D01*
X115307012Y-92515504D01*
X115307120Y-92519685D01*
X115307299Y-92523857D01*
X115307553Y-92528025D01*
X115307886Y-92532201D01*
X115308303Y-92536387D01*
X115308811Y-92540593D01*
X115309412Y-92544826D01*
X115310112Y-92549092D01*
X115418115Y-93180061D01*
X115418632Y-93180062D01*
X115421014Y-93191733D01*
X115424025Y-93203191D01*
X115427649Y-93214413D01*
X115431870Y-93225377D01*
X115436674Y-93236062D01*
X115442044Y-93246445D01*
X115447966Y-93256505D01*
X115454424Y-93266220D01*
X115461402Y-93275568D01*
X115468885Y-93284527D01*
X115476859Y-93293075D01*
X115485307Y-93301192D01*
X115494214Y-93308852D01*
X115503564Y-93316036D01*
X115513342Y-93322723D01*
X115523535Y-93328889D01*
X115921444Y-93554716D01*
X115750396Y-93956757D01*
X116084742Y-94018768D01*
X116526059Y-93013146D01*
X118220528Y-93410020D01*
X118236548Y-92973870D01*
X117723587Y-92854054D01*
X119142859Y-92854054D01*
X119142859Y-93332062D01*
X121030083Y-93332062D01*
X121030083Y-93128457D01*
X122800000Y-93128457D01*
X122800000Y-97800000D01*
X123838178Y-98699693D01*
X123838179Y-94032796D01*
X122800000Y-93128457D01*
X121030083Y-93128457D01*
X121030083Y-92854054D01*
X119142859Y-92854054D01*
X117723587Y-92854054D01*
X116891409Y-92659676D01*
X117549767Y-92244199D01*
X118271171Y-92274689D01*
X118291320Y-91849908D01*
X117502736Y-91816319D01*
X117494788Y-91816042D01*
X117486839Y-91816049D01*
X117478898Y-91816345D01*
X117470969Y-91816935D01*
X117463060Y-91817821D01*
X117455178Y-91819009D01*
X117447328Y-91820502D01*
X117439518Y-91822304D01*
X117431752Y-91824420D01*
X117424039Y-91826853D01*
X117416385Y-91829609D01*
X117408797Y-91832691D01*
X117401280Y-91836102D01*
X117393843Y-91839848D01*
X117386490Y-91843932D01*
X117379229Y-91848359D01*
X116910008Y-92144982D01*
X117379746Y-91014820D01*
X117412815Y-91047379D01*
X117457036Y-91087171D01*
X117500695Y-91124715D01*
X117543894Y-91160202D01*
X117586731Y-91193825D01*
X117629306Y-91225776D01*
X117671721Y-91256246D01*
X117714074Y-91285427D01*
X117756464Y-91313512D01*
X117808315Y-91346038D01*
X117880459Y-91389888D01*
X117965078Y-91439735D01*
X118054354Y-91490256D01*
X118140468Y-91536124D01*
X118179894Y-91555649D01*
X118215601Y-91572015D01*
X118246606Y-91584555D01*
X118271934Y-91592603D01*
X118282164Y-91594734D01*
X118290608Y-91595495D01*
X118297144Y-91594799D01*
X118301649Y-91592563D01*
X118304506Y-91589484D01*
X118307024Y-91585879D01*
X118309228Y-91581738D01*
X118311138Y-91577047D01*
X118311299Y-91576530D01*
X119122253Y-91576530D01*
X119122710Y-91609689D01*
X119122712Y-91609689D01*
X119124005Y-91642182D01*
X119126005Y-91674220D01*
X119128713Y-91705802D01*
X119132129Y-91736928D01*
X119136253Y-91767598D01*
X119141088Y-91797813D01*
X119146633Y-91827568D01*
X119152889Y-91856868D01*
X119159858Y-91885709D01*
X119167539Y-91914095D01*
X119175935Y-91942022D01*
X119185045Y-91969490D01*
X119194871Y-91996500D01*
X119205413Y-92023051D01*
X119216671Y-92049144D01*
X119228648Y-92074777D01*
X119241314Y-92099844D01*
X119254850Y-92124239D01*
X119269255Y-92147964D01*
X119284527Y-92171020D01*
X119300665Y-92193406D01*
X119317670Y-92215123D01*
X119335538Y-92236174D01*
X119354270Y-92256554D01*
X119373865Y-92276272D01*
X119394321Y-92295322D01*
X119415637Y-92313708D01*
X119437813Y-92331430D01*
X119460847Y-92348487D01*
X119484738Y-92364883D01*
X119509485Y-92380616D01*
X119535088Y-92395688D01*
X119561517Y-92409889D01*
X119588954Y-92423222D01*
X119617396Y-92435687D01*
X119646843Y-92447285D01*
X119677294Y-92458017D01*
X119708747Y-92467885D01*
X119741202Y-92476887D01*
X119774659Y-92485027D01*
X119809113Y-92492305D01*
X119844567Y-92498722D01*
X119881019Y-92504279D01*
X119918468Y-92508976D01*
X119956912Y-92512816D01*
X119996350Y-92515800D01*
X120036783Y-92517924D01*
X120078207Y-92519196D01*
X120115323Y-92519404D01*
X120151817Y-92518773D01*
X120187689Y-92517302D01*
X120222943Y-92514991D01*
X120257575Y-92511838D01*
X120291585Y-92507845D01*
X120324976Y-92503010D01*
X120357745Y-92497333D01*
X120389893Y-92490813D01*
X120421421Y-92483449D01*
X120452328Y-92475241D01*
X120482615Y-92466189D01*
X120512281Y-92456292D01*
X120541326Y-92445549D01*
X120569751Y-92433960D01*
X120597556Y-92421525D01*
X120624749Y-92408401D01*
X120651135Y-92394536D01*
X120676714Y-92379930D01*
X120701487Y-92364582D01*
X120725458Y-92348491D01*
X120748625Y-92331657D01*
X120770992Y-92314079D01*
X120792562Y-92295756D01*
X120813334Y-92276690D01*
X120833310Y-92256878D01*
X120852493Y-92236321D01*
X120870883Y-92215015D01*
X120888483Y-92192963D01*
X120905293Y-92170164D01*
X120921316Y-92146616D01*
X120936553Y-92122319D01*
X120950917Y-92097324D01*
X120964324Y-92071683D01*
X120976771Y-92045398D01*
X120988258Y-92018467D01*
X120998784Y-91990894D01*
X121008347Y-91962678D01*
X121016945Y-91933820D01*
X121024579Y-91904321D01*
X121031246Y-91874182D01*
X121036945Y-91843403D01*
X121041676Y-91811986D01*
X121045437Y-91779930D01*
X121048227Y-91747237D01*
X121050044Y-91713909D01*
X121050888Y-91679944D01*
X121050757Y-91645345D01*
X121049660Y-91613383D01*
X121047830Y-91581897D01*
X121045265Y-91550885D01*
X121041961Y-91520346D01*
X121037918Y-91490280D01*
X121033131Y-91460686D01*
X121027598Y-91431564D01*
X121021316Y-91402913D01*
X121014283Y-91374732D01*
X121006497Y-91347022D01*
X120997952Y-91319780D01*
X120988648Y-91293007D01*
X120978583Y-91266703D01*
X120967752Y-91240865D01*
X120956155Y-91215495D01*
X120943787Y-91190591D01*
X120930702Y-91166350D01*
X120916747Y-91142759D01*
X120901924Y-91119822D01*
X120886232Y-91097532D01*
X120869673Y-91075892D01*
X120852249Y-91054901D01*
X120833959Y-91034559D01*
X120814807Y-91014863D01*
X120794792Y-90995815D01*
X120773915Y-90977412D01*
X120752179Y-90959656D01*
X120729583Y-90942544D01*
X120706129Y-90926076D01*
X120704428Y-90924969D01*
X124206116Y-90924969D01*
X124206117Y-93115018D01*
X129030112Y-93115021D01*
X129030112Y-94588315D01*
X129776320Y-94588315D01*
X129776320Y-89451676D01*
X129030112Y-89451676D01*
X129030112Y-90924968D01*
X124206116Y-90924969D01*
X120704428Y-90924969D01*
X120681819Y-90910252D01*
X120656651Y-90895071D01*
X120630629Y-90880532D01*
X120603596Y-90866928D01*
X120575603Y-90854136D01*
X120546649Y-90842157D01*
X120516735Y-90830993D01*
X120485862Y-90820645D01*
X120454028Y-90811115D01*
X120421233Y-90802405D01*
X120387478Y-90794515D01*
X120352764Y-90787449D01*
X120317087Y-90781207D01*
X120280451Y-90775791D01*
X120242854Y-90771203D01*
X120204296Y-90767444D01*
X120164778Y-90764516D01*
X120124299Y-90762420D01*
X120082859Y-90761159D01*
X120045852Y-90761037D01*
X120009475Y-90761720D01*
X119973727Y-90763211D01*
X119938605Y-90765513D01*
X119904114Y-90768627D01*
X119870250Y-90772557D01*
X119837013Y-90777305D01*
X119804404Y-90782874D01*
X119772423Y-90789266D01*
X119741068Y-90796484D01*
X119710340Y-90804530D01*
X119680239Y-90813407D01*
X119650764Y-90823118D01*
X119621915Y-90833665D01*
X119593691Y-90845051D01*
X119566094Y-90857278D01*
X119539112Y-90870277D01*
X119512943Y-90883978D01*
X119487588Y-90898381D01*
X119463044Y-90913485D01*
X119439307Y-90929293D01*
X119416382Y-90945804D01*
X119394260Y-90963020D01*
X119372945Y-90980941D01*
X119352433Y-90999567D01*
X119332724Y-91018900D01*
X119313814Y-91038940D01*
X119295705Y-91059687D01*
X119278394Y-91081143D01*
X119261878Y-91103307D01*
X119246158Y-91126181D01*
X119231230Y-91149766D01*
X119217188Y-91174104D01*
X119204114Y-91199029D01*
X119192012Y-91224541D01*
X119180880Y-91250639D01*
X119170717Y-91277326D01*
X119161522Y-91304599D01*
X119153296Y-91332461D01*
X119146037Y-91360910D01*
X119142859Y-91375574D01*
X119139744Y-91389948D01*
X119134417Y-91419573D01*
X119130056Y-91449787D01*
X119126660Y-91480589D01*
X119124228Y-91511981D01*
X119122759Y-91543961D01*
X119122253Y-91576530D01*
X118311299Y-91576530D01*
X118312777Y-91571793D01*
X118314168Y-91565964D01*
X118315331Y-91559547D01*
X118316289Y-91552529D01*
X118317064Y-91544896D01*
X118317679Y-91536637D01*
X118318513Y-91518185D01*
X118318968Y-91497071D01*
X118319220Y-91473190D01*
X118319907Y-91412651D01*
X118320724Y-91377186D01*
X118321403Y-91358174D01*
X118322319Y-91338315D01*
X118329553Y-91171855D01*
X118335389Y-91003598D01*
X118339857Y-90833460D01*
X118342989Y-90661355D01*
X118345517Y-90487876D01*
X118345719Y-90451100D01*
X119142859Y-90451100D01*
X121030081Y-90451096D01*
X121030081Y-90022183D01*
X120215144Y-90022183D01*
X119731970Y-90080575D01*
X120019291Y-89943116D01*
X121030083Y-89331784D01*
X121030083Y-88856877D01*
X119142859Y-88856877D01*
X119142859Y-89285275D01*
X119973816Y-89285275D01*
X120452340Y-89234635D01*
X120179491Y-89364342D01*
X119142859Y-90009782D01*
X119142859Y-90451100D01*
X118345719Y-90451100D01*
X118346476Y-90312881D01*
X118346068Y-90136421D01*
X118344489Y-89958554D01*
X118344236Y-89930694D01*
X118344270Y-89903980D01*
X118344988Y-89853960D01*
X118346232Y-89808436D01*
X118347588Y-89767350D01*
X118348533Y-89727005D01*
X118349034Y-89691141D01*
X118349002Y-89674828D01*
X118348718Y-89659562D01*
X118348135Y-89645318D01*
X118347208Y-89632073D01*
X118345888Y-89619800D01*
X118344131Y-89608477D01*
X118341886Y-89598078D01*
X118340568Y-89593218D01*
X118339112Y-89588579D01*
X118337508Y-89584160D01*
X118335756Y-89579956D01*
X118333846Y-89575965D01*
X118331775Y-89572184D01*
X118329534Y-89568609D01*
X118327121Y-89565238D01*
X118324527Y-89562067D01*
X118321746Y-89559094D01*
X118313872Y-89552563D01*
X118304822Y-89547368D01*
X118294505Y-89543462D01*
X118282829Y-89540798D01*
X118269703Y-89539329D01*
X118255035Y-89539007D01*
X118238734Y-89539786D01*
X118220709Y-89541618D01*
X118200867Y-89544457D01*
X118179116Y-89548254D01*
X118129526Y-89558538D01*
X118071205Y-89572094D01*
X118003420Y-89588544D01*
X117978100Y-89594743D01*
X117844261Y-89630638D01*
X117655591Y-89688636D01*
X117548147Y-89725173D01*
X117435935Y-89766335D01*
X117321938Y-89811821D01*
X117209136Y-89861332D01*
X117100509Y-89914567D01*
X116999037Y-89971226D01*
X116951917Y-90000746D01*
X116907701Y-90031009D01*
X116866766Y-90061978D01*
X116829482Y-90093615D01*
X116796222Y-90125884D01*
X116767359Y-90158745D01*
X116743266Y-90192162D01*
X116724314Y-90226098D01*
X116710877Y-90260514D01*
X116703325Y-90295374D01*
X116702036Y-90330639D01*
X116707377Y-90366273D01*
X116709476Y-90372472D01*
X116710976Y-90377171D01*
X117122837Y-90769913D01*
X116925433Y-91284093D01*
X116919322Y-91284181D01*
X116913130Y-91284441D01*
X116906876Y-91284868D01*
X116900577Y-91285455D01*
X116894252Y-91286197D01*
X116887918Y-91287088D01*
X116881596Y-91288122D01*
X116875302Y-91289292D01*
X115808183Y-91521836D01*
X115796143Y-91524900D01*
X115784297Y-91528650D01*
X115772680Y-91533074D01*
X115761320Y-91538162D01*
X115750255Y-91543900D01*
X115739516Y-91550281D01*
X115729136Y-91557291D01*
X115719147Y-91564920D01*
X115709584Y-91573156D01*
X115700477Y-91581989D01*
X115691861Y-91591408D01*
X115683769Y-91601401D01*
X115676232Y-91611957D01*
X115669285Y-91623065D01*
X115662958Y-91634714D01*
X115657288Y-91646893D01*
X115327592Y-92420491D01*
X115325019Y-92426014D01*
X115322615Y-92431606D01*
X115320379Y-92437264D01*
X115318312Y-92442985D01*
X115316415Y-92448766D01*
X115314688Y-92454605D01*
X115313133Y-92460499D01*
X115311749Y-92466445D01*
X115310537Y-92472441D01*
X115309498Y-92478484D01*
X115308634Y-92484571D01*
X115307941Y-92490699D01*
X115307423Y-92496866D01*
X115307080Y-92503070D01*
X115306913Y-92509305D01*
X112730334Y-92509305D01*
X112730334Y-92426694D01*
X112035240Y-91813294D01*
X114476481Y-91813294D01*
X114477051Y-91835792D01*
X114478744Y-91858000D01*
X114481531Y-91879891D01*
X114485386Y-91901437D01*
X114490280Y-91922610D01*
X114496186Y-91943382D01*
X114503076Y-91963726D01*
X114510924Y-91983613D01*
X114519701Y-92003016D01*
X114529380Y-92021907D01*
X114539933Y-92040258D01*
X114551334Y-92058040D01*
X114563552Y-92075227D01*
X114576563Y-92091790D01*
X114590337Y-92107702D01*
X114604847Y-92122934D01*
X114620068Y-92137459D01*
X114635969Y-92151249D01*
X114652524Y-92164276D01*
X114669706Y-92176511D01*
X114687486Y-92187929D01*
X114705837Y-92198499D01*
X114724732Y-92208195D01*
X114744142Y-92216989D01*
X114764041Y-92224853D01*
X114784401Y-92231758D01*
X114805195Y-92237678D01*
X114826395Y-92242584D01*
X114847971Y-92246448D01*
X114869899Y-92249242D01*
X114892150Y-92250939D01*
X114914697Y-92251511D01*
X114937244Y-92250939D01*
X114959495Y-92249242D01*
X114981422Y-92246448D01*
X115003000Y-92242584D01*
X115024199Y-92237678D01*
X115044992Y-92231758D01*
X115065352Y-92224853D01*
X115085252Y-92216989D01*
X115104662Y-92208195D01*
X115123556Y-92198499D01*
X115141908Y-92187929D01*
X115159688Y-92176512D01*
X115176869Y-92164276D01*
X115193424Y-92151249D01*
X115209326Y-92137459D01*
X115224544Y-92122934D01*
X115239056Y-92107702D01*
X115252832Y-92091790D01*
X115265842Y-92075227D01*
X115278061Y-92058040D01*
X115289461Y-92040258D01*
X115300014Y-92021907D01*
X115309692Y-92003016D01*
X115318470Y-91983613D01*
X115326317Y-91963726D01*
X115333208Y-91943382D01*
X115339114Y-91922611D01*
X115344008Y-91901438D01*
X115347863Y-91879891D01*
X115350651Y-91858000D01*
X115352343Y-91835792D01*
X115352913Y-91813294D01*
X115352343Y-91790697D01*
X115350650Y-91768399D01*
X115347863Y-91746427D01*
X115344008Y-91724809D01*
X115339114Y-91703573D01*
X115333208Y-91682745D01*
X115326317Y-91662353D01*
X115318469Y-91642425D01*
X115309692Y-91622987D01*
X115300014Y-91604067D01*
X115289461Y-91585695D01*
X115278061Y-91567896D01*
X115265842Y-91550697D01*
X115252832Y-91534126D01*
X115239056Y-91518211D01*
X115224545Y-91502979D01*
X115209326Y-91488458D01*
X115193424Y-91474675D01*
X115176869Y-91461656D01*
X115159688Y-91449431D01*
X115141908Y-91438026D01*
X115123555Y-91427469D01*
X115104662Y-91417787D01*
X115085251Y-91409008D01*
X115065352Y-91401159D01*
X115044992Y-91394267D01*
X115024199Y-91388361D01*
X115003000Y-91383466D01*
X114981421Y-91379612D01*
X114959495Y-91376825D01*
X114937244Y-91375132D01*
X114914697Y-91374562D01*
X114892150Y-91375132D01*
X114869899Y-91376825D01*
X114847971Y-91379612D01*
X114826394Y-91383466D01*
X114805195Y-91388360D01*
X114784401Y-91394267D01*
X114764040Y-91401158D01*
X114744142Y-91409008D01*
X114724732Y-91417787D01*
X114705837Y-91427468D01*
X114687486Y-91438025D01*
X114669706Y-91449430D01*
X114652524Y-91461655D01*
X114635969Y-91474673D01*
X114620068Y-91488456D01*
X114604847Y-91502978D01*
X114590337Y-91518210D01*
X114576563Y-91534125D01*
X114563552Y-91550695D01*
X114551333Y-91567894D01*
X114539934Y-91585694D01*
X114529380Y-91604067D01*
X114519701Y-91622986D01*
X114510925Y-91642423D01*
X114503077Y-91662351D01*
X114496186Y-91682743D01*
X114490280Y-91703572D01*
X114485386Y-91724809D01*
X114481532Y-91746427D01*
X114478743Y-91768399D01*
X114477051Y-91790697D01*
X114476481Y-91813294D01*
X112035240Y-91813294D01*
X111692671Y-91510987D01*
X96495666Y-91510987D01*
X96495666Y-88175790D01*
X111692671Y-88175790D01*
X112730334Y-89074963D01*
X112730334Y-87524152D01*
X112732096Y-87455769D01*
X112737325Y-87388252D01*
X112745930Y-87321687D01*
X112757824Y-87256158D01*
X112772916Y-87191752D01*
X112791118Y-87128555D01*
X112812342Y-87066651D01*
X112836498Y-87006127D01*
X112863496Y-86947069D01*
X112893250Y-86889559D01*
X112925668Y-86833686D01*
X112960663Y-86779534D01*
X112998145Y-86727191D01*
X113038026Y-86676741D01*
X113080217Y-86628268D01*
X113124628Y-86581860D01*
X113171170Y-86537601D01*
X113219755Y-86495577D01*
X113270294Y-86455875D01*
X113322698Y-86418578D01*
X113376878Y-86383775D01*
X113432744Y-86351547D01*
X113490207Y-86321982D01*
X113549182Y-86295167D01*
X113609576Y-86271186D01*
X113671300Y-86250125D01*
X113734265Y-86232069D01*
X113798386Y-86217104D01*
X113863570Y-86205316D01*
X113929730Y-86196789D01*
X113996775Y-86191610D01*
X114064619Y-86189866D01*
X114836148Y-86189866D01*
X113529768Y-85051950D01*
X112859525Y-85051949D01*
X112800052Y-85053487D01*
X112741279Y-85058048D01*
X112683285Y-85065555D01*
X112626150Y-85075932D01*
X112569953Y-85089100D01*
X112514772Y-85104983D01*
X112460688Y-85123503D01*
X112407779Y-85144583D01*
X112356124Y-85168146D01*
X112305804Y-85194114D01*
X112256894Y-85222411D01*
X112209479Y-85252959D01*
X112163634Y-85285680D01*
X112119440Y-85320499D01*
X112076975Y-85357336D01*
X112036319Y-85396115D01*
X111997638Y-85436575D01*
X111960885Y-85478870D01*
X111926139Y-85522921D01*
X111893479Y-85568651D01*
X111862982Y-85615980D01*
X111834728Y-85664832D01*
X111808792Y-85715127D01*
X111785255Y-85766788D01*
X111764194Y-85819736D01*
X111745688Y-85873892D01*
X111729814Y-85929180D01*
X111716651Y-85985519D01*
X111706277Y-86042833D01*
X111698770Y-86101043D01*
X111694209Y-86160071D01*
X111692671Y-86219838D01*
X111692671Y-88175790D01*
X96495666Y-88175790D01*
X96495666Y-85051945D01*
X117826664Y-85051945D01*
X119132527Y-86189858D01*
X121466755Y-86189858D01*
X121534596Y-86191621D01*
X121601633Y-86196849D01*
X121667779Y-86205455D01*
X121732943Y-86217348D01*
X121797040Y-86232440D01*
X121859979Y-86250643D01*
X121921672Y-86271866D01*
X121982030Y-86296022D01*
X122040966Y-86323021D01*
X122098390Y-86352774D01*
X122154214Y-86385193D01*
X122208348Y-86420188D01*
X122260706Y-86457670D01*
X122311198Y-86497551D01*
X122359735Y-86539742D01*
X122406229Y-86584152D01*
X122450591Y-86630695D01*
X122492735Y-86679280D01*
X122532567Y-86729819D01*
X122570003Y-86782224D01*
X122604954Y-86836403D01*
X122637329Y-86892269D01*
X122667042Y-86949734D01*
X122694003Y-87008707D01*
X122718123Y-87069101D01*
X122739316Y-87130825D01*
X122757491Y-87193792D01*
X122772560Y-87257912D01*
X122784435Y-87323096D01*
X122793026Y-87389255D01*
X122798246Y-87456301D01*
X122800005Y-87524144D01*
X122800005Y-89385529D01*
X123838185Y-90289868D01*
X123838186Y-86219834D01*
X123836641Y-86160360D01*
X123832064Y-86101587D01*
X123824531Y-86043593D01*
X123814122Y-85986457D01*
X123800915Y-85930260D01*
X123784989Y-85875079D01*
X123766422Y-85820995D01*
X123745294Y-85768086D01*
X123721683Y-85716431D01*
X123695668Y-85666110D01*
X123667328Y-85617201D01*
X123636741Y-85569786D01*
X123603986Y-85523942D01*
X123569142Y-85479747D01*
X123532288Y-85437282D01*
X123493502Y-85396626D01*
X123452852Y-85357749D01*
X123410403Y-85320827D01*
X123366235Y-85285936D01*
X123320423Y-85253153D01*
X123273046Y-85222555D01*
X123224182Y-85194217D01*
X123173908Y-85168215D01*
X123122301Y-85144626D01*
X123069440Y-85123527D01*
X123015403Y-85104994D01*
X122960267Y-85089103D01*
X122904108Y-85075930D01*
X122847006Y-85065551D01*
X122789037Y-85058043D01*
X122730281Y-85053483D01*
X122670813Y-85051945D01*
X117826664Y-85051945D01*
X96495666Y-85051945D01*
X96495666Y-26853954D01*
X214592331Y-26853955D01*
X214592331Y-156704407D01*
X117942420Y-156704407D01*
X96495666Y-156704408D01*
D11*
%TO.N,GND*%
X170000000Y-119250000D03*
X170750000Y-116000000D03*
X168750000Y-117500000D03*
%TD*%
M02*
