%TF.GenerationSoftware,KiCad,Pcbnew,(6.0.7-1)-1*%
%TF.CreationDate,2022-12-29T08:39:09+01:00*%
%TF.ProjectId,cover_test,636f7665-725f-4746-9573-742e6b696361,rev?*%
%TF.SameCoordinates,Original*%
%TF.FileFunction,Legend,Top*%
%TF.FilePolarity,Positive*%
%FSLAX46Y46*%
G04 Gerber Fmt 4.6, Leading zero omitted, Abs format (unit mm)*
G04 Created by KiCad (PCBNEW (6.0.7-1)-1) date 2022-12-29 08:39:09*
%MOMM*%
%LPD*%
G01*
G04 APERTURE LIST*
%ADD10C,0.200000*%
G04 APERTURE END LIST*
D10*
G36*
X112765050Y-96587430D02*
G01*
X112765050Y-100310913D01*
X111727363Y-99329216D01*
X111727364Y-95605732D01*
X112765050Y-96587430D01*
G37*
X112765050Y-96587430D02*
X112765050Y-100310913D01*
X111727363Y-99329216D01*
X111727364Y-95605732D01*
X112765050Y-96587430D01*
G36*
X112765052Y-104977142D02*
G01*
X112765052Y-108356744D01*
X111727365Y-107465711D01*
X111727365Y-104086109D01*
X112765052Y-104977142D01*
G37*
X112765052Y-104977142D02*
X112765052Y-108356744D01*
X111727365Y-107465711D01*
X111727365Y-104086109D01*
X112765052Y-104977142D01*
G36*
X112765052Y-89065964D02*
G01*
X112765052Y-92445570D01*
X111727365Y-91554535D01*
X111727365Y-88174931D01*
X112765052Y-89065964D01*
G37*
X112765052Y-89065964D02*
X112765052Y-92445570D01*
X111727365Y-91554535D01*
X111727365Y-88174931D01*
X112765052Y-89065964D01*
G36*
X119272579Y-86233799D02*
G01*
X114920986Y-86233799D01*
X113514100Y-85095799D01*
X117865691Y-85095799D01*
X119272579Y-86233799D01*
G37*
X119272579Y-86233799D02*
X114920986Y-86233799D01*
X113514100Y-85095799D01*
X117865691Y-85095799D01*
X119272579Y-86233799D01*
G36*
X121851341Y-112904202D02*
G01*
X117953887Y-112904202D01*
X116693825Y-111766201D01*
X120591277Y-111766201D01*
X121851341Y-112904202D01*
G37*
X121851341Y-112904202D02*
X117953887Y-112904202D01*
X116693825Y-111766201D01*
X120591277Y-111766201D01*
X121851341Y-112904202D01*
G36*
X123872631Y-98746897D02*
G01*
X123872631Y-102446229D01*
X122834944Y-101470901D01*
X122834944Y-97771569D01*
X123872631Y-98746897D01*
G37*
X123872631Y-98746897D02*
X123872631Y-102446229D01*
X122834944Y-101470901D01*
X122834944Y-97771569D01*
X123872631Y-98746897D01*
G36*
X123872634Y-90377190D02*
G01*
X123872634Y-94140321D01*
X122834947Y-93148171D01*
X122834947Y-89385041D01*
X123872634Y-90377190D01*
G37*
X123872634Y-90377190D02*
X123872634Y-94140321D01*
X122834947Y-93148171D01*
X122834947Y-89385041D01*
X123872634Y-90377190D01*
G36*
X123872638Y-106238397D02*
G01*
X123872637Y-109970823D01*
X122834951Y-108986767D01*
X122834951Y-105254342D01*
X123872638Y-106238397D01*
G37*
X123872638Y-106238397D02*
X123872637Y-109970823D01*
X122834951Y-108986767D01*
X122834951Y-105254342D01*
X123872638Y-106238397D01*
M02*
