%TF.GenerationSoftware,KiCad,Pcbnew,(6.0.7-1)-1*%
%TF.CreationDate,2022-12-29T08:39:09+01:00*%
%TF.ProjectId,cover_test,636f7665-725f-4746-9573-742e6b696361,rev?*%
%TF.SameCoordinates,Original*%
%TF.FileFunction,Profile,NP*%
%FSLAX46Y46*%
G04 Gerber Fmt 4.6, Leading zero omitted, Abs format (unit mm)*
G04 Created by KiCad (PCBNEW (6.0.7-1)-1) date 2022-12-29 08:39:09*
%MOMM*%
%LPD*%
G01*
G04 APERTURE LIST*
%TA.AperFunction,Profile*%
%ADD10C,0.200000*%
%TD*%
%TA.AperFunction,Profile*%
%ADD11C,0.100000*%
%TD*%
G04 APERTURE END LIST*
D10*
X169599379Y-79483490D02*
X169547239Y-79503490D01*
X102222699Y-76415560D02*
X102277799Y-76424300D01*
X167774339Y-110471500D02*
X167810968Y-110429400D01*
X169451540Y-124121800D02*
X169653819Y-124067600D01*
X168944169Y-76400970D02*
X168999999Y-76399990D01*
X100424299Y-111222200D02*
X100434999Y-111167300D01*
X171526719Y-74145891D02*
X171355159Y-74025770D01*
X101558999Y-109962000D02*
X101612899Y-109947500D01*
D11*
X136040602Y-124303647D02*
X136040601Y-119553647D01*
D10*
X100561899Y-77298600D02*
X100587299Y-77248841D01*
X169222689Y-113084400D02*
X169167249Y-113091200D01*
X100929399Y-112689000D02*
X100888499Y-112650900D01*
X168832759Y-76408750D02*
X168888399Y-76403881D01*
X169751158Y-76587280D02*
X169799999Y-76614350D01*
X100849099Y-110388500D02*
X100888499Y-110349001D01*
X102222698Y-113084400D02*
X102167299Y-113091200D01*
X170294429Y-112440400D02*
X170260819Y-112485000D01*
X100516499Y-110900600D02*
X100538299Y-110849200D01*
X100929399Y-79189030D02*
X100888499Y-79150940D01*
X100415599Y-78222670D02*
X100408799Y-78167240D01*
X168505579Y-76478300D02*
X168558988Y-76461980D01*
X101400599Y-112983500D02*
X101349199Y-112961700D01*
X96999999Y-79000000D02*
X96999999Y-118300000D01*
X170028469Y-112725700D02*
X169985059Y-112760800D01*
X167538329Y-77349210D02*
X167561939Y-77298600D01*
X171856739Y-122896300D02*
X172014789Y-122758900D01*
X170356889Y-112347900D02*
X170326459Y-112394699D01*
X102387099Y-79552460D02*
X102332699Y-79565030D01*
X101349199Y-112961700D02*
X101298599Y-112938100D01*
X171179519Y-73911698D02*
X170999999Y-73803848D01*
X98271899Y-75306029D02*
X98145900Y-75473280D01*
X168832759Y-79591230D02*
X168777329Y-79584430D01*
X100496499Y-78547230D02*
X100478299Y-78494420D01*
X101014899Y-112760800D02*
X100971499Y-112725700D01*
X101248899Y-76587280D02*
X101298599Y-76561920D01*
X97361799Y-120352100D02*
X97436899Y-120547600D01*
X168722169Y-113075700D02*
X168667339Y-113065000D01*
X100461999Y-111941001D02*
X100447499Y-111887101D01*
X97178199Y-77548460D02*
X97131099Y-77752521D01*
X169894709Y-79326450D02*
X169847889Y-79356870D01*
X170150959Y-79111450D02*
X170111469Y-79150940D01*
X169494428Y-76478300D02*
X169547239Y-76496490D01*
X168014949Y-110239200D02*
X168059560Y-110205600D01*
X98683999Y-74832050D02*
X98541100Y-74985210D01*
X169985059Y-79260800D02*
X169940459Y-79294420D01*
X103483499Y-77400620D02*
X103503499Y-77452760D01*
X101248899Y-110087300D02*
X101298599Y-110061900D01*
X173392775Y-120930200D02*
X173481276Y-120740400D01*
X167971539Y-76774320D02*
X168014949Y-76739180D01*
X103028499Y-79225659D02*
X102985099Y-79260800D01*
X169650789Y-76538310D02*
X169701399Y-76561920D01*
X169111619Y-76403880D02*
X169167249Y-76408750D01*
X100614399Y-78799990D02*
X100587299Y-78751140D01*
X102940499Y-76705570D02*
X102985099Y-76739180D01*
X168105299Y-112826500D02*
X168059560Y-112794400D01*
X168400629Y-110016501D02*
X168452769Y-109996500D01*
X102167299Y-76408750D02*
X102222699Y-76415560D01*
X102494399Y-76478300D02*
X102547199Y-76496490D01*
X168999999Y-113100000D02*
X168944169Y-113099000D01*
X168505579Y-109978300D02*
X168558989Y-109962000D01*
X100516499Y-112099400D02*
X100496499Y-112047200D01*
X167415569Y-111277299D02*
X167424319Y-111222200D01*
X101667299Y-79565030D02*
X101612899Y-79552460D01*
X169387079Y-76447530D02*
X169441019Y-76461980D01*
X169441019Y-79538010D02*
X169387079Y-79552460D01*
X170225679Y-76971530D02*
X170260819Y-77014940D01*
X170189039Y-110429400D02*
X170225679Y-110471500D01*
X102111599Y-109903900D02*
X102167299Y-109908800D01*
X100752398Y-123863100D02*
X100947899Y-123938200D01*
X172316039Y-74832049D02*
X172167950Y-74683960D01*
X103111499Y-79150940D02*
X103070599Y-79189030D01*
X168298609Y-112938100D02*
X168248859Y-112912700D01*
X100774299Y-110471500D02*
X100810999Y-110429400D01*
X172458879Y-122314800D02*
X172596269Y-122156700D01*
X100849099Y-112611500D02*
X100810999Y-112570600D01*
X100415599Y-77777310D02*
X100424299Y-77722150D01*
X167999999Y-124300000D02*
X168209399Y-124296300D01*
X103537999Y-78441010D02*
X103521699Y-78494420D01*
X169847889Y-110143100D02*
X169894710Y-110173500D01*
X101944199Y-76400970D02*
X101999999Y-76399990D01*
X99305999Y-123028100D02*
X99473299Y-123154100D01*
X101832799Y-79591230D02*
X101777299Y-79584430D01*
X173088302Y-121479500D02*
X173196151Y-121300000D01*
X170552469Y-111887100D02*
X170538019Y-111941001D01*
X103584399Y-78222670D02*
X103575699Y-78277830D01*
X97911700Y-75820480D02*
X97803799Y-76000000D01*
X101505599Y-113021700D02*
X101452799Y-113003500D01*
X100403899Y-77888380D02*
X100408799Y-77832750D01*
X167888549Y-79150940D02*
X167849059Y-79111450D01*
X103412699Y-77248840D02*
X103438099Y-77298600D01*
X100424299Y-78277830D02*
X100415599Y-78222670D01*
X103537999Y-77558981D02*
X103552499Y-77612920D01*
X101298599Y-79438060D02*
X101248898Y-79412700D01*
X168999999Y-109900000D02*
X169055849Y-109901000D01*
X101145898Y-73293655D02*
X100947899Y-73361832D01*
X100424299Y-77722150D02*
X100434999Y-77667330D01*
X103385699Y-78799990D02*
X103356898Y-78847870D01*
X167774340Y-79028460D02*
X167739198Y-78985050D01*
X101999999Y-79599990D02*
X101944199Y-79599010D01*
X97003699Y-78790600D02*
X96999999Y-79000000D01*
X103584399Y-77777310D02*
X103591199Y-77832750D01*
X101199999Y-76614350D02*
X101248899Y-76587280D01*
X102799999Y-79385640D02*
X102751199Y-79412700D01*
X100403899Y-78111600D02*
X100400999Y-78055831D01*
X170565050Y-78332660D02*
X170552469Y-78387070D01*
X167929400Y-112689000D02*
X167888549Y-112650900D01*
X100415599Y-111722700D02*
X100408799Y-111667200D01*
X173088301Y-75820480D02*
X172974229Y-75644840D01*
X170070619Y-79189030D02*
X170028469Y-79225660D01*
X168200009Y-110114300D02*
X168248859Y-110087300D01*
X170260819Y-78985050D02*
X170225679Y-79028460D01*
X103385699Y-110700000D02*
X103412699Y-110748800D01*
X98145899Y-121826700D02*
X98271899Y-121994001D01*
X167461989Y-78441010D02*
X167447539Y-78387070D01*
X102599399Y-76516489D02*
X102650799Y-76538310D01*
X168209399Y-73003647D02*
X136250000Y-73000000D01*
X103326498Y-112394700D02*
X103294399Y-112440400D01*
X172974229Y-121655200D02*
X173088302Y-121479500D01*
X103028499Y-112725700D02*
X102985099Y-112760800D01*
X102751199Y-110087300D02*
X102799999Y-110114300D01*
X170225679Y-112528500D02*
X170189039Y-112570600D01*
X97518699Y-76559570D02*
X97436899Y-76752350D01*
X102372799Y-124267100D02*
X102581498Y-124285400D01*
X103438099Y-110798600D02*
X103461699Y-110849200D01*
X103294399Y-112440400D02*
X103260799Y-112485000D01*
X167643129Y-77152110D02*
X167673549Y-77105290D01*
X102701399Y-112938100D02*
X102650799Y-112961700D01*
X170565049Y-77667330D02*
X170575699Y-77722150D01*
X100774299Y-79028460D02*
X100739199Y-78985050D01*
X100643099Y-78847870D02*
X100614399Y-78799990D01*
X173868895Y-77752521D02*
X173821776Y-77548460D01*
X103564998Y-111832700D02*
X103552499Y-111887100D01*
X168418549Y-73014603D02*
X168209399Y-73003647D01*
X102701399Y-79438060D02*
X102650799Y-79461671D01*
X100559599Y-73518723D02*
X100369799Y-73607224D01*
X103111499Y-76849040D02*
X103150899Y-76888530D01*
X101452799Y-76496490D02*
X101505599Y-76478300D01*
X167810968Y-110429400D02*
X167849059Y-110388500D01*
X101152099Y-79356870D02*
X101105299Y-79326450D01*
X167538329Y-110849200D02*
X167561939Y-110798600D01*
X171856739Y-74403730D02*
X171693969Y-74271930D01*
X102650799Y-110038300D02*
X102701399Y-110061900D01*
X102372799Y-73032867D02*
X102164999Y-73058379D01*
X99820499Y-123388300D02*
X99999999Y-123496100D01*
X102847899Y-110143100D02*
X102894699Y-110173500D01*
X103260799Y-78985049D02*
X103225699Y-79028459D01*
X103111499Y-110349000D02*
X103150899Y-110388500D01*
X101558999Y-76461980D02*
X101612899Y-76447530D01*
X173967132Y-78372820D02*
X173941619Y-78164950D01*
X97803799Y-76000000D02*
X97702299Y-76183170D01*
X169940459Y-79294420D02*
X169894709Y-79326450D01*
D11*
X109000000Y-78000000D02*
G75*
G03*
X110000000Y-79000000I1000000J0D01*
G01*
D10*
X167673549Y-77105290D02*
X167705579Y-77059540D01*
X100888499Y-79150940D02*
X100849099Y-79111450D01*
X169599379Y-76516490D02*
X169650789Y-76538310D01*
X103294399Y-77059540D02*
X103326499Y-77105289D01*
X97003699Y-118509400D02*
X97014599Y-118718500D01*
X102440998Y-76461980D02*
X102494399Y-76478300D01*
X167888549Y-76849040D02*
X167929399Y-76810960D01*
X170461689Y-112150800D02*
X170438079Y-112201400D01*
X100369799Y-123692800D02*
X100559599Y-123781300D01*
X173563109Y-120547600D02*
X173638167Y-120352100D01*
X170412719Y-77248841D02*
X170438079Y-77298600D01*
X169041899Y-73091140D02*
X168835049Y-73058380D01*
X170150959Y-112611500D02*
X170111469Y-112650900D01*
X102650799Y-79461671D02*
X102599399Y-79483490D01*
X98145900Y-75473280D02*
X98025799Y-75644840D01*
X102547200Y-109996500D02*
X102599399Y-110016501D01*
X170596119Y-77888380D02*
X170599029Y-77944150D01*
X101612899Y-79552460D02*
X101558999Y-79538010D01*
X99644899Y-123274200D02*
X99820499Y-123388300D01*
X167888549Y-110349000D02*
X167929400Y-110311000D01*
X167400989Y-77944150D02*
X167403899Y-77888381D01*
X103591200Y-78167240D02*
X103584399Y-78222670D01*
X100478299Y-78494420D02*
X100462000Y-78441010D01*
X103521699Y-111005600D02*
X103537999Y-111059000D01*
X102055799Y-109901000D02*
X102111599Y-109903900D01*
X168999999Y-76399990D02*
X169055849Y-76400970D01*
X100183199Y-123597700D02*
X100369799Y-123692800D01*
X167415569Y-77777310D02*
X167424319Y-77722150D01*
X168612929Y-109947500D02*
X168667339Y-109935000D01*
X102985099Y-112760800D02*
X102940499Y-112794400D01*
X101105299Y-79326450D02*
X101059499Y-79294420D01*
X103356899Y-110652100D02*
X103385699Y-110700000D01*
X101199999Y-112885600D02*
X101152099Y-112856900D01*
X172014789Y-122758900D02*
X172167949Y-122616000D01*
X170356889Y-78847870D02*
X170326459Y-78894700D01*
X172167950Y-74683960D02*
X172014789Y-74541120D01*
X170630229Y-123692800D02*
X170816829Y-123597700D01*
X102940499Y-110205600D02*
X102985099Y-110239200D01*
X169111618Y-79596100D02*
X169055849Y-79599010D01*
X170599029Y-78055831D02*
X170596118Y-78111600D01*
X169277849Y-113075700D02*
X169222689Y-113084400D01*
X100434999Y-78332660D02*
X100424299Y-78277830D01*
X100401000Y-111444200D02*
X100403899Y-111388400D01*
X170070619Y-112689000D02*
X170028469Y-112725700D01*
X168999999Y-79599990D02*
X168944169Y-79599010D01*
X170521699Y-78494420D02*
X170503509Y-78547230D01*
X102222699Y-79584431D02*
X102167299Y-79591230D01*
X168835049Y-124241600D02*
X169041899Y-124208800D01*
X103070599Y-79189030D02*
X103028499Y-79225659D01*
X167447539Y-111887100D02*
X167434969Y-111832700D01*
X100739199Y-77014940D02*
X100774299Y-76971530D01*
X167424319Y-77722150D02*
X167434969Y-77667330D01*
D11*
X136250000Y-77750000D02*
X136250000Y-73000000D01*
D10*
X170111469Y-112650900D02*
X170070619Y-112689000D01*
X167403899Y-111611600D02*
X167400989Y-111555800D01*
X100774299Y-76971530D02*
X100810999Y-76929380D01*
X103438099Y-77298600D02*
X103461699Y-77349210D01*
X170552469Y-78387070D02*
X170538019Y-78441011D01*
X101958099Y-73091140D02*
X101752498Y-73131104D01*
X100415599Y-111277300D02*
X100424299Y-111222200D01*
X102751198Y-76587280D02*
X102799999Y-76614350D01*
X168722170Y-109924300D02*
X168777329Y-109915600D01*
X169985059Y-110239200D02*
X170028469Y-110274300D01*
X136040602Y-124303647D02*
X167999999Y-124300000D01*
X173196151Y-76000000D02*
X173088301Y-75820480D01*
X168722169Y-76424300D02*
X168777329Y-76415560D01*
X168667339Y-109935000D02*
X168722170Y-109924300D01*
X168298609Y-76561920D02*
X168349229Y-76538310D01*
X99473299Y-123154100D02*
X99644899Y-123274200D01*
X170150959Y-110388500D02*
X170189039Y-110429400D01*
X100810999Y-110429400D02*
X100849099Y-110388500D01*
X170503509Y-110952800D02*
X170521699Y-111005600D01*
X167849059Y-110388500D02*
X167888549Y-110349000D01*
X167705579Y-78940439D02*
X167673549Y-78894700D01*
X103591199Y-111667200D02*
X103584399Y-111722700D01*
X103150899Y-76888530D02*
X103188999Y-76929380D01*
X169854110Y-124006300D02*
X170052119Y-123938200D01*
X168105299Y-76673540D02*
X168152129Y-76643110D01*
X102581499Y-73014603D02*
X102372799Y-73032867D01*
X101944199Y-109901000D02*
X101999999Y-109900000D01*
X103564999Y-78332660D02*
X103552499Y-78387070D01*
X168627180Y-124267100D02*
X168835049Y-124241600D01*
X100496499Y-77452760D02*
X100516499Y-77400620D01*
X167478319Y-111994401D02*
X167461989Y-111941000D01*
X102547200Y-113003500D02*
X102494399Y-113021700D01*
X101105299Y-76673540D02*
X101152099Y-76643110D01*
X103598999Y-111555800D02*
X103596099Y-111611600D01*
X167705579Y-77059540D02*
X167739199Y-77014940D01*
X167739199Y-112485000D02*
X167705579Y-112440400D01*
X170591249Y-78167240D02*
X170584439Y-78222670D01*
X170111469Y-110349000D02*
X170150959Y-110388500D01*
X103521699Y-78494420D02*
X103503499Y-78547230D01*
X173638167Y-76947880D02*
X173563109Y-76752350D01*
X98025799Y-75644840D02*
X97911700Y-75820480D01*
X97091199Y-119341900D02*
X97131099Y-119547499D01*
X101014898Y-76739180D02*
X101059498Y-76705570D01*
X102894699Y-79326450D02*
X102847899Y-79356870D01*
X167810969Y-79070599D02*
X167774340Y-79028460D01*
X169701399Y-110061900D02*
X169751159Y-110087300D01*
X103260799Y-112485000D02*
X103225699Y-112528500D01*
X168452769Y-109996500D02*
X168505579Y-109978300D01*
X101145898Y-124006300D02*
X101346199Y-124067600D01*
X168105299Y-79326450D02*
X168059560Y-79294420D01*
X167810969Y-112570601D02*
X167774339Y-112528500D01*
X101059499Y-112794400D02*
X101014899Y-112760800D01*
X100643099Y-110652100D02*
X100673499Y-110605300D01*
X169055849Y-76400970D02*
X169111619Y-76403880D01*
X97702299Y-76183170D02*
X97607199Y-76369770D01*
X100971499Y-79225660D02*
X100929399Y-79189030D01*
X101248899Y-112912700D02*
X101199999Y-112885600D01*
X102894699Y-110173500D02*
X102940499Y-110205600D01*
X101452799Y-79503490D02*
X101400599Y-79483490D01*
X170189039Y-112570600D02*
X170150959Y-112611500D01*
X101558999Y-79538010D02*
X101505599Y-79521680D01*
X173767577Y-119953800D02*
X173821776Y-119751500D01*
X101400599Y-110016500D02*
X101452799Y-109996500D01*
X168777329Y-109915600D02*
X168832759Y-109908800D01*
X97911699Y-121479500D02*
X98025799Y-121655200D01*
X103225699Y-79028459D02*
X103188999Y-79070600D01*
X167929400Y-110311000D02*
X167971539Y-110274300D01*
X101999999Y-109900000D02*
X102055799Y-109901000D01*
X103461699Y-110849200D02*
X103483499Y-110900600D01*
X171693969Y-123028100D02*
X171856739Y-122896300D01*
X169894710Y-76673540D02*
X169940459Y-76705570D01*
X170538019Y-111941001D02*
X170521699Y-111994400D01*
X169847889Y-112856900D02*
X169799999Y-112885600D01*
X170584439Y-111277300D02*
X170591249Y-111332700D01*
X167538329Y-78650770D02*
X167516509Y-78599370D01*
X170385649Y-110700000D02*
X170412719Y-110748799D01*
X168209399Y-124296300D02*
X168418549Y-124285400D01*
X170385649Y-77200000D02*
X170412719Y-77248841D01*
X170999999Y-73803848D02*
X170816829Y-73702301D01*
X100587299Y-77248841D02*
X100614399Y-77200000D01*
X168888399Y-79596100D02*
X168832759Y-79591230D01*
X173297698Y-76183170D02*
X173196151Y-76000000D01*
X100752399Y-73436890D02*
X100559599Y-73518723D01*
X170630229Y-73607224D02*
X170440428Y-73518723D01*
X101612899Y-76447530D02*
X101667299Y-76434950D01*
X103412699Y-78751141D02*
X103385699Y-78799990D01*
X173999999Y-79000000D02*
X173996352Y-78790600D01*
X100403899Y-111388400D02*
X100408799Y-111332701D01*
X170575699Y-78277830D02*
X170565050Y-78332660D01*
X169799999Y-76614350D02*
X169847889Y-76643110D01*
X103412699Y-110748800D02*
X103438099Y-110798600D01*
X101888399Y-113096100D02*
X101832799Y-113091200D01*
X169167249Y-109908800D02*
X169222689Y-109915600D01*
X169894709Y-112826500D02*
X169847889Y-112856900D01*
X170521699Y-111994400D02*
X170503509Y-112047200D01*
X167516509Y-77400620D02*
X167538329Y-77349210D01*
X171355159Y-74025770D02*
X171179519Y-73911698D01*
X169701399Y-79438060D02*
X169650790Y-79461670D01*
X101199999Y-79385640D02*
X101152099Y-79356870D01*
X168059560Y-110205600D02*
X168105299Y-110173500D01*
X101777299Y-79584430D02*
X101722199Y-79575679D01*
X169332669Y-113065000D02*
X169277849Y-113075700D01*
X167400009Y-111500000D02*
X167400989Y-111444200D01*
X100739199Y-112485000D02*
X100705599Y-112440400D01*
X100538299Y-110849200D02*
X100561899Y-110798600D01*
X100496499Y-110952800D02*
X100516499Y-110900600D01*
X100400999Y-111555801D02*
X100399999Y-111500000D01*
X170575699Y-111222200D02*
X170584439Y-111277300D01*
X97058399Y-78164950D02*
X97032899Y-78372820D01*
X168832759Y-109908800D02*
X168888399Y-109903900D01*
X170260819Y-112485000D02*
X170225679Y-112528500D01*
X100888499Y-76849040D02*
X100929399Y-76810960D01*
X103326499Y-78894700D02*
X103294399Y-78940440D01*
X169701399Y-76561920D02*
X169751158Y-76587280D01*
X172596269Y-122156700D02*
X172728069Y-121994000D01*
X102790599Y-124296300D02*
X102999999Y-124300000D01*
X103326499Y-77105289D02*
X103356899Y-77152110D01*
X169547239Y-109996500D02*
X169599379Y-110016500D01*
X102387099Y-109947500D02*
X102440999Y-109962000D01*
X103552499Y-111112900D02*
X103564999Y-111167301D01*
X103596099Y-111611600D02*
X103591199Y-111667200D01*
X170294429Y-110559500D02*
X170326459Y-110605301D01*
X103028499Y-110274300D02*
X103070599Y-110311000D01*
X101505599Y-76478300D02*
X101558999Y-76461980D01*
X97293699Y-120154100D02*
X97361799Y-120352100D01*
X172596269Y-75143261D02*
X172458879Y-74985210D01*
X102167299Y-109908800D02*
X102222699Y-109915601D01*
X103575699Y-111777800D02*
X103564998Y-111832700D01*
X170189039Y-79070600D02*
X170150959Y-79111450D01*
X100478298Y-77505570D02*
X100496499Y-77452760D01*
X173706344Y-77145889D02*
X173638167Y-76947880D01*
X169167249Y-79591230D02*
X169111618Y-79596100D01*
X101958099Y-124208800D02*
X102164999Y-124241600D01*
X97518699Y-120740400D02*
X97607200Y-120930200D01*
X101777300Y-76415560D02*
X101832799Y-76408750D01*
X103600000Y-78000000D02*
X103598999Y-78055830D01*
X173767577Y-77346180D02*
X173706344Y-77145889D01*
X103575699Y-111222200D02*
X103584399Y-111277300D01*
X167403899Y-78111600D02*
X167400989Y-78055830D01*
X101558999Y-113038000D02*
X101505599Y-113021700D01*
X167496509Y-77452760D02*
X167516509Y-77400620D01*
X167643129Y-110652100D02*
X167673549Y-110605300D01*
X102164999Y-73058379D02*
X101958099Y-73091140D01*
X103483499Y-112099400D02*
X103461699Y-112150800D01*
X171693969Y-74271930D02*
X171526719Y-74145891D01*
X170028469Y-110274300D02*
X170070619Y-110311000D01*
X169940459Y-110205600D02*
X169985059Y-110239200D01*
X102940499Y-112794400D02*
X102894699Y-112826500D01*
X169854110Y-73293655D02*
X169653819Y-73232422D01*
X103461699Y-77349210D02*
X103483499Y-77400620D01*
X101752499Y-124168900D02*
X101958099Y-124208800D01*
X170440428Y-123781300D02*
X170630229Y-123692800D01*
X169799999Y-79385640D02*
X169751159Y-79412700D01*
X168612929Y-113052500D02*
X168558989Y-113038000D01*
X167739198Y-78985050D02*
X167705579Y-78940439D01*
X103412699Y-112251099D02*
X103385699Y-112300000D01*
X103188999Y-112570600D02*
X103150899Y-112611500D01*
X172458879Y-74985210D02*
X172316039Y-74832049D01*
X167496509Y-110952800D02*
X167516509Y-110900600D01*
X170521699Y-111005600D02*
X170538019Y-111058999D01*
X168722170Y-79575680D02*
X168667339Y-79565030D01*
X167516509Y-112099400D02*
X167496509Y-112047200D01*
X169277849Y-79575680D02*
X169222689Y-79584430D01*
X102277799Y-113075700D02*
X102222698Y-113084400D01*
X170189039Y-76929380D02*
X170225679Y-76971530D01*
X97131099Y-119547499D02*
X97178199Y-119751500D01*
X103596099Y-77888381D02*
X103598999Y-77944149D01*
X170575699Y-77722150D02*
X170584439Y-77777310D01*
X168944169Y-109901000D02*
X168999999Y-109900000D01*
X102494399Y-113021700D02*
X102440999Y-113038000D01*
X170461689Y-110849200D02*
X170483509Y-110900600D01*
X102547199Y-79503490D02*
X102494398Y-79521680D01*
X168452769Y-79503490D02*
X168400629Y-79483490D01*
X167400009Y-78000000D02*
X167400989Y-77944150D01*
X101832799Y-109908800D02*
X101888399Y-109903900D01*
X100929399Y-110311000D02*
X100971499Y-110274300D01*
X100434999Y-77667330D02*
X100447499Y-77612919D01*
X170247649Y-123863100D02*
X170440428Y-123781300D01*
X169332669Y-79565030D02*
X169277849Y-79575680D01*
X167614359Y-78799990D02*
X167587298Y-78751140D01*
X167408769Y-78167240D02*
X167403899Y-78111600D01*
X168452769Y-76496490D02*
X168505579Y-76478300D01*
X103000000Y-73000000D02*
X102790599Y-73003647D01*
X100849099Y-76888529D02*
X100888499Y-76849040D01*
X102581498Y-124285400D02*
X102790599Y-124296300D01*
X102222699Y-109915601D02*
X102277799Y-109924300D01*
X101722199Y-113075700D02*
X101667299Y-113065000D01*
X169547239Y-79503490D02*
X169494429Y-79521680D01*
X102790599Y-73003647D02*
X102581499Y-73014603D01*
X170326459Y-112394699D02*
X170294429Y-112440400D01*
X169547239Y-113003500D02*
X169494428Y-113021700D01*
X168888399Y-113096100D02*
X168832759Y-113091200D01*
X168777329Y-79584430D02*
X168722170Y-79575680D01*
X167478319Y-77505570D02*
X167496509Y-77452760D01*
X170591249Y-77832750D02*
X170596119Y-77888380D01*
X103503499Y-77452760D02*
X103521699Y-77505570D01*
X172728069Y-121994000D02*
X172854109Y-121826700D01*
X167447539Y-77612920D02*
X167461989Y-77558980D01*
X170816829Y-73702301D02*
X170630229Y-73607224D01*
X168059559Y-76705570D02*
X168105299Y-76673540D01*
X98985199Y-74541120D02*
X98831999Y-74683960D01*
X103503499Y-110952800D02*
X103521699Y-111005600D01*
X99820499Y-73911698D02*
X99644899Y-74025769D01*
X168452769Y-113003500D02*
X168400629Y-112983499D01*
X170356889Y-110652100D02*
X170385649Y-110700000D01*
X173563109Y-76752350D02*
X173481276Y-76559571D01*
X101999999Y-76399990D02*
X102055799Y-76400970D01*
X168667339Y-79565030D02*
X168612929Y-79552460D01*
X97607199Y-76369770D02*
X97518699Y-76559570D01*
X172854109Y-121826700D02*
X172974229Y-121655200D01*
X101722199Y-76424300D02*
X101777300Y-76415560D01*
X170070619Y-76810960D02*
X170111469Y-76849040D01*
X170538019Y-111058999D02*
X170552469Y-111112900D01*
X103438099Y-112201400D02*
X103412699Y-112251099D01*
X168888399Y-76403881D02*
X168944169Y-76400970D01*
X167705579Y-110559500D02*
X167739199Y-110514900D01*
X173392775Y-76369770D02*
X173297698Y-76183170D01*
X173706344Y-120154100D02*
X173767577Y-119953800D01*
X102547199Y-76496490D02*
X102599399Y-76516489D01*
X103260799Y-110514900D02*
X103294399Y-110559500D01*
X169167249Y-76408750D02*
X169222689Y-76415560D01*
X101667299Y-113065000D02*
X101612899Y-113052500D01*
X167929400Y-79189030D02*
X167888549Y-79150940D01*
X103537999Y-111059000D02*
X103552499Y-111112900D01*
X103596099Y-111388400D02*
X103598999Y-111444200D01*
X101152099Y-76643110D02*
X101199999Y-76614350D01*
X169799999Y-112885600D02*
X169751159Y-112912700D01*
X170028469Y-79225660D02*
X169985059Y-79260800D01*
X103326499Y-110605301D02*
X103356899Y-110652100D01*
X100408799Y-111667200D02*
X100403899Y-111611600D01*
X168014949Y-112760800D02*
X167971539Y-112725700D01*
X100587299Y-110748799D02*
X100614399Y-110700000D01*
X167587298Y-112251100D02*
X167561939Y-112201400D01*
X170385649Y-78799990D02*
X170356889Y-78847870D01*
X167447539Y-78387070D02*
X167434969Y-78332660D01*
X170356889Y-77152110D02*
X170385649Y-77200000D01*
X170538019Y-77558980D02*
X170552469Y-77612920D01*
X169847889Y-79356870D02*
X169799999Y-79385640D01*
X167434969Y-111167300D02*
X167447539Y-111112900D01*
X167849060Y-76888530D02*
X167888549Y-76849040D01*
X167643129Y-112347900D02*
X167614359Y-112300000D01*
X167461989Y-77558980D02*
X167478319Y-77505570D01*
X167888549Y-112650900D02*
X167849059Y-112611500D01*
X168059560Y-112794400D02*
X168014949Y-112760800D01*
X102277799Y-76424300D02*
X102332699Y-76434950D01*
X169653819Y-73232422D02*
X169451539Y-73178223D01*
X100849099Y-79111450D02*
X100810999Y-79070600D01*
X170326459Y-110605301D02*
X170356889Y-110652100D01*
X101349199Y-110038300D02*
X101400599Y-110016500D01*
X169650789Y-112961700D02*
X169599379Y-112983500D01*
X102387099Y-113052500D02*
X102332699Y-113065000D01*
X100705599Y-110559500D02*
X100739199Y-110514900D01*
X102985099Y-79260800D02*
X102940499Y-79294420D01*
X97232399Y-119953800D02*
X97293699Y-120154100D01*
X167774339Y-76971530D02*
X167810969Y-76929380D01*
X100739199Y-78985050D02*
X100705599Y-78940440D01*
X170599029Y-77944150D02*
X170600009Y-78000000D01*
X168558989Y-79538010D02*
X168505579Y-79521681D01*
X168349229Y-112961700D02*
X168298609Y-112938100D01*
X170260819Y-110514900D02*
X170294429Y-110559500D01*
X168152129Y-79356870D02*
X168105299Y-79326450D01*
X168558988Y-76461980D02*
X168612929Y-76447530D01*
X101452799Y-113003500D02*
X101400599Y-112983500D01*
X169985059Y-76739180D02*
X170028469Y-76774320D01*
X167739199Y-77014940D02*
X167774339Y-76971530D01*
X100888499Y-112650900D02*
X100849099Y-112611500D01*
X170438079Y-110798600D02*
X170461689Y-110849200D01*
X103070599Y-76810960D02*
X103111499Y-76849040D01*
X102940499Y-79294420D02*
X102894699Y-79326450D01*
X102167299Y-113091200D02*
X102111599Y-113096100D01*
X168059560Y-79294420D02*
X168014949Y-79260801D01*
X167643130Y-78847870D02*
X167614359Y-78799990D01*
X167434969Y-77667330D02*
X167447539Y-77612920D01*
X169894710Y-110173500D02*
X169940459Y-110205600D01*
X168558989Y-109962000D02*
X168612929Y-109947500D01*
X168349229Y-110038300D02*
X168400629Y-110016501D01*
X173821776Y-77548460D02*
X173767577Y-77346180D01*
X168200009Y-76614350D02*
X168248859Y-76587280D01*
X168400629Y-79483490D02*
X168349229Y-79461670D01*
D11*
X134790601Y-118303647D02*
X109790601Y-118303647D01*
D10*
X167614359Y-77200000D02*
X167643129Y-77152110D01*
X101199999Y-110114300D02*
X101248899Y-110087300D01*
X170294429Y-78940440D02*
X170260819Y-78985050D01*
X169751159Y-110087300D02*
X169799999Y-110114300D01*
X100705599Y-78940440D02*
X100673499Y-78894700D01*
X97058399Y-119135000D02*
X97091199Y-119341900D01*
X170999999Y-123496100D02*
X171179519Y-123388300D01*
D11*
X136040601Y-119553647D02*
X136040602Y-119303647D01*
X135040601Y-118303647D02*
X134790601Y-118303647D01*
D10*
X170600009Y-78000000D02*
X170599029Y-78055831D01*
X173941619Y-78164950D02*
X173908859Y-77958100D01*
X169441019Y-109962000D02*
X169494429Y-109978300D01*
X102440999Y-109962000D02*
X102494399Y-109978300D01*
X100369799Y-73607224D02*
X100183199Y-73702301D01*
X102894699Y-112826500D02*
X102847899Y-112856900D01*
X168418549Y-124285400D02*
X168627180Y-124267100D01*
X167434969Y-78332660D02*
X167424319Y-78277830D01*
X102440999Y-113038000D02*
X102387099Y-113052500D01*
X100434999Y-111167300D02*
X100447499Y-111112901D01*
X169247478Y-73131104D02*
X169041899Y-73091140D01*
X169222689Y-109915600D02*
X169277849Y-109924300D01*
X101349199Y-76538310D02*
X101400599Y-76516490D01*
X102847899Y-76643110D02*
X102894699Y-76673540D01*
X97293699Y-77145890D02*
X97232399Y-77346180D01*
X173908858Y-119341900D02*
X173941619Y-119135000D01*
X100516499Y-77400620D02*
X100538299Y-77349210D01*
X170260819Y-77014940D02*
X170294429Y-77059540D01*
X101014899Y-110239200D02*
X101059499Y-110205600D01*
X100673499Y-78894700D02*
X100643099Y-78847870D01*
X103598999Y-77944149D02*
X103600000Y-78000000D01*
X99999999Y-73803848D02*
X99820499Y-73911698D01*
X168105299Y-110173500D02*
X168152129Y-110143100D01*
X103600000Y-111500000D02*
X103598999Y-111555800D01*
X173985396Y-118718500D02*
X173996352Y-118509400D01*
X97014599Y-118718500D02*
X97032899Y-118927200D01*
X167447539Y-111112900D02*
X167461989Y-111059000D01*
X98831999Y-122616001D02*
X98985199Y-122758900D01*
X102332699Y-113065000D02*
X102277799Y-113075700D01*
X103598999Y-78055830D02*
X103596099Y-78111600D01*
X100434999Y-111832700D02*
X100424299Y-111777800D01*
X169167249Y-113091200D02*
X169111619Y-113096100D01*
X102751199Y-79412700D02*
X102701399Y-79438060D01*
X101888399Y-76403880D02*
X101944199Y-76400970D01*
X167461989Y-111059000D02*
X167478318Y-111005600D01*
X168248859Y-79412701D02*
X168200009Y-79385640D01*
X169547239Y-76496490D02*
X169599379Y-76516490D01*
X167587298Y-78751140D02*
X167561940Y-78701390D01*
X99305999Y-74271930D02*
X99143299Y-74403730D01*
X100408799Y-111332701D02*
X100415599Y-111277300D01*
X167408769Y-77832750D02*
X167415569Y-77777310D01*
X173297698Y-121116800D02*
X173392775Y-120930200D01*
D11*
X108790601Y-119303647D02*
X108790601Y-124303647D01*
D10*
X101059498Y-76705570D02*
X101105299Y-76673540D01*
X170225679Y-79028460D02*
X170189039Y-79070600D01*
X168248859Y-110087300D02*
X168298609Y-110061900D01*
X100614399Y-112300000D02*
X100587299Y-112251100D01*
X100673499Y-77105290D02*
X100705599Y-77059540D01*
X167415569Y-111722700D02*
X167408769Y-111667200D01*
X167614359Y-112300000D02*
X167587298Y-112251100D01*
X170591249Y-111667200D02*
X170584439Y-111722700D01*
X100400999Y-77944150D02*
X100403899Y-77888380D01*
X170600009Y-111500000D02*
X170599029Y-111555801D01*
X167403899Y-77888381D02*
X167408769Y-77832750D01*
X100399999Y-111500000D02*
X100401000Y-111444200D01*
X102847899Y-79356870D02*
X102799999Y-79385640D01*
X102277799Y-79575680D02*
X102222699Y-79584431D01*
X170052119Y-123938200D02*
X170247649Y-123863100D01*
X102332699Y-109935000D02*
X102387099Y-109947500D01*
X101722199Y-109924299D02*
X101777299Y-109915600D01*
X100705599Y-112440400D02*
X100673499Y-112394700D01*
X168627179Y-73032867D02*
X168418549Y-73014603D01*
X167516509Y-110900600D02*
X167538329Y-110849200D01*
X167496509Y-78547230D02*
X167478318Y-78494420D01*
X168200009Y-112885600D02*
X168152129Y-112856900D01*
X169041899Y-124208800D02*
X169247479Y-124168900D01*
X168349229Y-76538310D02*
X168400629Y-76516489D01*
X97091199Y-77958100D02*
X97058399Y-78164950D01*
X101059499Y-110205600D02*
X101105299Y-110173500D01*
X169277849Y-76424300D02*
X169332669Y-76434950D01*
X169650790Y-79461670D02*
X169599379Y-79483490D01*
D11*
X110000000Y-79000000D02*
X135000000Y-79000000D01*
D10*
X168505579Y-113021700D02*
X168452769Y-113003500D01*
X100587299Y-112251100D02*
X100561899Y-112201400D01*
X100587299Y-78751140D02*
X100561899Y-78701390D01*
X167774339Y-112528500D02*
X167739199Y-112485000D01*
X102599399Y-110016501D02*
X102650799Y-110038300D01*
X97032899Y-78372820D02*
X97014600Y-78581450D01*
X103294399Y-78940440D02*
X103260799Y-78985049D01*
X169451539Y-73178223D02*
X169247478Y-73131104D01*
X169751159Y-112912700D02*
X169701399Y-112938100D01*
X103225699Y-110471500D02*
X103260799Y-110514900D01*
X102494399Y-109978300D02*
X102547200Y-109996500D01*
X103591199Y-111332700D02*
X103596099Y-111388400D01*
X102332699Y-79565030D02*
X102277799Y-79575680D01*
X173967132Y-118927200D02*
X173985396Y-118718500D01*
X101505599Y-109978300D02*
X101558999Y-109962000D01*
X168835049Y-73058380D02*
X168627179Y-73032867D01*
X170028469Y-76774320D02*
X170070619Y-76810960D01*
X98683999Y-122467900D02*
X98831999Y-122616001D01*
X172316039Y-122467900D02*
X172458879Y-122314800D01*
X97803799Y-121300000D02*
X97911699Y-121479500D01*
X169387079Y-79552460D02*
X169332669Y-79565030D01*
X167810969Y-76929380D02*
X167849060Y-76888530D01*
X168400629Y-76516489D02*
X168452769Y-76496490D01*
X100971499Y-112725700D02*
X100929399Y-112689000D01*
X170070619Y-110311000D02*
X170111469Y-110349000D01*
X167478318Y-111005600D02*
X167496509Y-110952800D01*
X101346199Y-73232423D02*
X101145898Y-73293655D01*
X173996352Y-78790600D02*
X173985396Y-78581450D01*
X168612929Y-79552460D02*
X168558989Y-79538010D01*
X169055849Y-113099000D02*
X168999999Y-113100000D01*
X97607200Y-120930200D02*
X97702299Y-121116801D01*
X169332669Y-109935000D02*
X169387079Y-109947500D01*
X97014600Y-78581450D02*
X97003699Y-78790600D01*
X170599029Y-111555801D02*
X170596119Y-111611600D01*
X169847889Y-76643110D02*
X169894710Y-76673540D01*
X97702299Y-121116801D02*
X97803799Y-121300000D01*
X167400989Y-111555800D02*
X167400009Y-111500000D01*
X103356899Y-77152110D02*
X103385699Y-77200000D01*
X97436899Y-76752350D02*
X97361799Y-76947880D01*
X109000000Y-73000000D02*
X103000000Y-73000000D01*
X168200009Y-79385640D02*
X168152129Y-79356870D01*
X170483509Y-110900600D02*
X170503509Y-110952800D01*
X169387079Y-113052500D02*
X169332669Y-113065000D01*
X168014949Y-76739180D02*
X168059559Y-76705570D01*
X169247479Y-124168900D02*
X169451540Y-124121800D01*
X102985099Y-76739180D02*
X103028499Y-76774320D01*
X171355159Y-123274200D02*
X171526719Y-123154100D01*
D11*
X136250000Y-78000000D02*
X136250000Y-77750000D01*
D10*
X103188999Y-110429400D02*
X103225699Y-110471500D01*
X97361799Y-76947880D02*
X97293699Y-77145890D01*
X101752498Y-73131104D02*
X101548499Y-73178223D01*
X101548499Y-124121799D02*
X101752499Y-124168900D01*
X101400599Y-79483490D02*
X101349199Y-79461670D01*
X102650799Y-76538310D02*
X102701399Y-76561920D01*
X103028499Y-76774320D02*
X103070599Y-76810960D01*
X167849059Y-112611500D02*
X167810969Y-112570601D01*
X170461689Y-77349210D02*
X170483509Y-77400620D01*
X169332669Y-76434950D02*
X169387079Y-76447530D01*
X101105299Y-110173500D02*
X101152099Y-110143100D01*
D11*
X109000000Y-73000000D02*
X109000000Y-78000000D01*
D10*
X167929399Y-76810960D02*
X167971539Y-76774320D01*
X173985396Y-78581450D02*
X173967132Y-78372820D01*
X101944199Y-79599010D02*
X101888399Y-79596100D01*
X103575699Y-78277830D02*
X103564999Y-78332660D01*
X103564999Y-111167301D02*
X103575699Y-111222200D01*
X173996352Y-118509400D02*
X173999999Y-118300000D01*
X167461989Y-111941000D02*
X167447539Y-111887100D01*
X102111598Y-76403880D02*
X102167299Y-76408750D01*
X100399999Y-78000000D02*
X100400999Y-77944150D01*
X101667298Y-109935000D02*
X101722199Y-109924299D01*
X169799999Y-110114300D02*
X169847889Y-110143100D01*
X100538299Y-112150800D02*
X100516499Y-112099400D01*
X101152099Y-112856900D02*
X101105299Y-112826500D01*
X100643099Y-77152111D02*
X100673499Y-77105290D01*
X173481276Y-120740400D02*
X173563109Y-120547600D01*
X103521699Y-77505570D02*
X103537999Y-77558981D01*
X170052119Y-73361832D02*
X169854110Y-73293655D01*
X103483499Y-78599370D02*
X103461699Y-78650770D01*
X100400999Y-78055831D02*
X100399999Y-78000000D01*
X101777299Y-109915600D02*
X101832799Y-109908800D01*
X103070599Y-112689000D02*
X103028499Y-112725700D01*
X97232399Y-77346180D02*
X97178199Y-77548460D01*
X170565049Y-111167300D02*
X170575699Y-111222200D01*
X167400989Y-78055830D02*
X167400009Y-78000000D01*
X170483510Y-78599370D02*
X170461689Y-78650770D01*
X167561939Y-112201400D02*
X167538329Y-112150800D01*
X170503509Y-77452760D02*
X170521699Y-77505571D01*
X103503499Y-112047200D02*
X103483499Y-112099400D01*
X170565049Y-111832700D02*
X170552469Y-111887100D01*
X170575699Y-111777800D02*
X170565049Y-111832700D01*
X100614399Y-77200000D02*
X100643099Y-77152111D01*
X102277799Y-109924300D02*
X102332699Y-109935000D01*
X170440428Y-73518723D02*
X170247649Y-73436890D01*
X102055799Y-79599010D02*
X101999999Y-79599990D01*
X167705579Y-112440400D02*
X167673549Y-112394700D01*
X101298599Y-112938100D02*
X101248899Y-112912700D01*
X102847899Y-112856900D02*
X102799999Y-112885600D01*
X167424319Y-78277830D02*
X167415569Y-78222670D01*
X170111469Y-79150940D02*
X170070619Y-79189030D01*
X168558989Y-113038000D02*
X168505579Y-113021700D01*
X170150959Y-76888530D02*
X170189039Y-76929380D01*
X103591199Y-77832750D02*
X103596099Y-77888381D01*
X100673499Y-110605300D02*
X100705599Y-110559500D01*
X170521699Y-77505571D02*
X170538019Y-77558980D01*
X170483509Y-112099400D02*
X170461689Y-112150800D01*
X169599379Y-110016500D02*
X169650789Y-110038300D01*
X167415569Y-78222670D02*
X167408769Y-78167240D01*
X173999999Y-118300000D02*
X173999999Y-79000000D01*
X102999999Y-124300000D02*
X108790601Y-124303647D01*
X167587299Y-77248840D02*
X167614359Y-77200000D01*
X102164999Y-124241600D02*
X102372799Y-124267100D01*
X101548499Y-73178223D02*
X101346199Y-73232423D01*
X167478318Y-78494420D02*
X167461989Y-78441010D01*
X168505579Y-79521681D02*
X168452769Y-79503490D01*
X103385699Y-77200000D02*
X103412699Y-77248840D01*
X169650789Y-110038300D02*
X169701399Y-110061900D01*
X169055849Y-109901000D02*
X169111618Y-109903900D01*
X173196151Y-121300000D02*
X173297698Y-121116800D01*
X98025799Y-121655200D02*
X98145899Y-121826700D01*
X168349229Y-79461670D02*
X168298609Y-79438060D01*
X172974229Y-75644840D02*
X172854108Y-75473280D01*
X103438100Y-78701390D02*
X103412699Y-78751141D01*
X100561899Y-110798600D02*
X100587299Y-110748799D01*
X170412719Y-110748799D02*
X170438079Y-110798600D01*
X167516509Y-78599370D02*
X167496509Y-78547230D01*
X100971499Y-76774320D02*
X101014898Y-76739180D01*
X170816829Y-123597700D02*
X170999999Y-123496100D01*
X169111619Y-113096100D02*
X169055849Y-113099000D01*
X167587299Y-110748800D02*
X167614359Y-110700000D01*
X100810999Y-112570600D02*
X100774299Y-112528499D01*
X99999999Y-123496100D02*
X100183199Y-123597700D01*
X170596119Y-111611600D02*
X170591249Y-111667200D01*
X100947899Y-123938200D02*
X101145898Y-124006300D01*
X100424299Y-111777800D02*
X100415599Y-111722700D01*
X169701399Y-112938100D02*
X169650789Y-112961700D01*
X167673549Y-110605300D02*
X167705579Y-110559500D01*
X102494398Y-79521680D02*
X102440999Y-79538010D01*
X99473300Y-74145890D02*
X99305999Y-74271930D01*
X169055849Y-79599010D02*
X168999999Y-79599990D01*
X169441019Y-76461980D02*
X169494428Y-76478300D01*
X103575699Y-77722150D02*
X103584399Y-77777310D01*
X168667339Y-113065000D02*
X168612929Y-113052500D01*
X170503509Y-112047200D02*
X170483509Y-112099400D01*
X100559599Y-123781300D02*
X100752398Y-123863100D01*
X98541100Y-122314800D02*
X98683999Y-122467900D01*
X168944169Y-79599010D02*
X168888399Y-79596100D01*
X167424319Y-111222200D02*
X167434969Y-111167300D01*
X103188999Y-79070600D02*
X103150899Y-79111450D01*
X99143299Y-122896300D02*
X99305999Y-123028100D01*
X101152099Y-110143100D02*
X101199999Y-110114300D01*
X103552499Y-78387070D02*
X103537999Y-78441010D01*
X100447499Y-111887101D02*
X100434999Y-111832700D01*
X103150899Y-79111450D02*
X103111499Y-79150940D01*
X173638167Y-120352100D02*
X173706344Y-120154100D01*
X101999999Y-113100000D02*
X101944199Y-113099000D01*
X170326459Y-77105289D02*
X170356889Y-77152110D01*
X167849059Y-79111450D02*
X167810969Y-79070599D01*
X103356898Y-78847870D02*
X103326499Y-78894700D01*
X170552469Y-77612920D02*
X170565049Y-77667330D01*
X173481276Y-76559571D02*
X173392775Y-76369770D01*
X100929399Y-76810960D02*
X100971499Y-76774320D01*
X102111599Y-113096100D02*
X102055799Y-113099000D01*
X173868895Y-119547499D02*
X173908858Y-119341900D01*
X98403699Y-122156700D02*
X98541100Y-122314800D01*
X101349199Y-79461670D02*
X101298599Y-79438060D01*
X100614399Y-110700000D02*
X100643099Y-110652100D01*
X103598999Y-111444200D02*
X103600000Y-111500000D01*
X172854108Y-75473280D02*
X172728069Y-75306030D01*
X170591249Y-111332700D02*
X170596118Y-111388400D01*
X170412719Y-112251100D02*
X170385649Y-112300000D01*
X102894699Y-76673540D02*
X102940499Y-76705570D01*
X102799999Y-76614350D02*
X102847899Y-76643110D01*
X172014789Y-74541120D02*
X171856739Y-74403730D01*
X167408769Y-111667200D02*
X167403899Y-111611600D01*
X101248898Y-79412700D02*
X101199999Y-79385640D01*
X102332699Y-76434950D02*
X102387099Y-76447530D01*
X169751159Y-79412700D02*
X169701399Y-79438060D01*
X167971539Y-110274300D02*
X168014949Y-110239200D01*
X101667299Y-76434950D02*
X101722199Y-76424300D01*
X167538329Y-112150800D02*
X167516509Y-112099400D01*
X169222689Y-79584430D02*
X169167249Y-79591230D01*
X167614359Y-110700000D02*
X167643129Y-110652100D01*
X101452799Y-109996500D02*
X101505599Y-109978300D01*
X173941619Y-119135000D02*
X173967132Y-118927200D01*
X100810999Y-76929380D02*
X100849099Y-76888529D01*
X103225699Y-112528500D02*
X103188999Y-112570600D01*
X103584399Y-111722700D02*
X103575699Y-111777800D01*
X100705599Y-77059540D02*
X100739199Y-77014940D01*
X102701399Y-110061900D02*
X102751199Y-110087300D01*
X97032899Y-118927200D02*
X97058399Y-119135000D01*
X97131099Y-77752521D02*
X97091199Y-77958100D01*
X102799999Y-110114300D02*
X102847899Y-110143100D01*
X98985199Y-122758900D02*
X99143299Y-122896300D01*
X102111599Y-79596100D02*
X102055799Y-79599010D01*
X170599030Y-111444200D02*
X170600009Y-111500000D01*
X100739199Y-110514900D02*
X100774299Y-110471500D01*
X101059499Y-79294420D02*
X101014899Y-79260800D01*
X102650799Y-112961700D02*
X102599400Y-112983500D01*
X168832759Y-113091200D02*
X168777329Y-113084400D01*
X168248859Y-76587280D02*
X168298609Y-76561920D01*
X101505599Y-79521680D02*
X101452799Y-79503490D01*
X170247649Y-73436890D02*
X170052119Y-73361832D01*
X100447499Y-111112901D02*
X100462000Y-111059000D01*
X103537999Y-111941000D02*
X103521699Y-111994400D01*
X170412719Y-78751140D02*
X170385649Y-78799990D01*
X168667339Y-76434949D02*
X168722169Y-76424300D01*
X102440999Y-79538010D02*
X102387099Y-79552460D01*
X103503499Y-78547230D02*
X103483499Y-78599370D01*
X101298599Y-110061900D02*
X101349199Y-110038300D01*
X101105299Y-112826500D02*
X101059499Y-112794400D01*
X171526719Y-123154100D02*
X171693969Y-123028100D01*
X169599379Y-112983500D02*
X169547239Y-113003500D01*
X101777299Y-113084400D02*
X101722199Y-113075700D01*
X102055799Y-76400970D02*
X102111598Y-76403880D01*
X170438079Y-112201400D02*
X170412719Y-112251100D01*
X167673549Y-78894700D02*
X167643130Y-78847870D01*
X100538299Y-78650770D02*
X100516498Y-78599370D01*
X170438079Y-78701390D02*
X170412719Y-78751140D01*
X100496499Y-112047200D02*
X100478299Y-111994400D01*
X169277849Y-109924300D02*
X169332669Y-109935000D01*
X100447499Y-77612919D02*
X100461999Y-77558980D01*
X173908859Y-77958100D02*
X173868895Y-77752521D01*
X170584439Y-78222670D02*
X170575699Y-78277830D01*
X170596118Y-78111600D02*
X170591249Y-78167240D01*
X169494429Y-79521680D02*
X169441019Y-79538010D01*
X168014949Y-79260801D02*
X167971539Y-79225659D01*
X100478299Y-111994400D02*
X100461999Y-111941001D01*
X100888499Y-110349001D02*
X100929399Y-110311000D01*
X168612929Y-76447530D02*
X168667339Y-76434949D01*
X99644899Y-74025769D02*
X99473300Y-74145890D01*
X100643099Y-112347899D02*
X100614399Y-112300000D01*
X168152129Y-112856900D02*
X168105299Y-112826500D01*
X167971539Y-112725700D02*
X167929400Y-112689000D01*
X101014899Y-79260800D02*
X100971499Y-79225660D01*
X100408799Y-77832750D02*
X100415599Y-77777310D01*
X103584399Y-111277300D02*
X103591199Y-111332700D01*
X100462000Y-111059000D02*
X100478299Y-111005600D01*
X100774299Y-112528499D02*
X100739199Y-112485000D01*
X103564999Y-77667330D02*
X103575699Y-77722150D01*
X169441019Y-113038000D02*
X169387079Y-113052500D01*
X103356899Y-112347900D02*
X103326498Y-112394700D01*
X167496509Y-112047200D02*
X167478319Y-111994401D01*
X103225699Y-76971530D02*
X103260799Y-77014940D01*
X102599400Y-112983500D02*
X102547200Y-113003500D01*
X100183199Y-73702301D02*
X99999999Y-73803848D01*
X100947899Y-73361832D02*
X100752399Y-73436890D01*
X167424319Y-111777800D02*
X167415569Y-111722700D01*
X167434969Y-111832700D02*
X167424319Y-111777800D01*
X98541100Y-74985210D02*
X98403699Y-75143260D01*
X170538019Y-78441011D02*
X170521699Y-78494420D01*
X103552499Y-77612920D02*
X103564999Y-77667330D01*
X103461699Y-112150800D02*
X103438099Y-112201400D01*
X97178199Y-119751500D02*
X97232399Y-119953800D01*
X169387079Y-109947500D02*
X169441019Y-109962000D01*
X103150899Y-110388500D02*
X103188999Y-110429400D01*
X103070599Y-110311000D02*
X103111499Y-110349000D01*
X102055799Y-113099000D02*
X101999999Y-113100000D01*
X103111499Y-112650900D02*
X103070599Y-112689000D01*
X103552499Y-111887100D02*
X103537999Y-111941000D01*
X100403899Y-111611600D02*
X100400999Y-111555801D01*
X100810999Y-79070600D02*
X100774299Y-79028460D01*
X98831999Y-74683960D02*
X98683999Y-74832050D01*
X100561899Y-78701390D02*
X100538299Y-78650770D01*
X102701399Y-76561920D02*
X102751198Y-76587280D01*
X172728069Y-75306030D02*
X172596269Y-75143261D01*
X102599399Y-79483490D02*
X102547199Y-79503490D01*
X103461699Y-78650770D02*
X103438100Y-78701390D01*
X167673549Y-112394700D02*
X167643129Y-112347900D01*
X167561940Y-78701390D02*
X167538329Y-78650770D01*
X169940459Y-112794400D02*
X169894709Y-112826500D01*
X100561899Y-112201400D02*
X100538299Y-112150800D01*
X170385649Y-112300000D02*
X170356889Y-112347900D01*
X167403899Y-111388400D02*
X167408770Y-111332700D01*
X169111618Y-109903900D02*
X169167249Y-109908800D01*
X168944169Y-113099000D02*
X168888399Y-113096100D01*
X102985099Y-110239200D02*
X103028499Y-110274300D01*
X168248859Y-112912700D02*
X168200009Y-112885600D01*
X101346199Y-124067600D02*
X101548499Y-124121799D01*
X170584439Y-77777310D02*
X170591249Y-77832750D01*
X170461689Y-78650770D02*
X170438079Y-78701390D01*
X168777329Y-76415560D02*
X168832759Y-76408750D01*
X169940459Y-76705570D02*
X169985059Y-76739180D01*
X100673499Y-112394700D02*
X100643099Y-112347899D01*
X101400599Y-76516490D02*
X101452799Y-76496490D01*
X99143299Y-74403730D02*
X98985199Y-74541120D01*
X167561939Y-77298600D02*
X167587299Y-77248840D01*
X100538299Y-77349210D02*
X100561899Y-77298600D01*
X103260799Y-77014940D02*
X103294399Y-77059540D01*
X170483509Y-77400620D02*
X170503509Y-77452760D01*
X96999999Y-118300000D02*
X97003699Y-118509400D01*
X170503509Y-78547230D02*
X170483510Y-78599370D01*
X103188999Y-76929380D02*
X103225699Y-76971530D01*
X169985059Y-112760800D02*
X169940459Y-112794400D01*
D11*
X109790601Y-118303601D02*
G75*
G03*
X108790601Y-119303647I-1J-999999D01*
G01*
D10*
X101298599Y-76561920D02*
X101349199Y-76538310D01*
X169222689Y-76415560D02*
X169277849Y-76424300D01*
X102167299Y-79591230D02*
X102111599Y-79596100D01*
X168298609Y-110061900D02*
X168349229Y-110038300D01*
X102799999Y-112885600D02*
X102751199Y-112912700D01*
X100516498Y-78599370D02*
X100496499Y-78547230D01*
X170584439Y-111722700D02*
X170575699Y-111777800D01*
X100462000Y-78441010D02*
X100447499Y-78387070D01*
X168400629Y-112983499D02*
X168349229Y-112961700D01*
X167971539Y-79225659D02*
X167929400Y-79189030D01*
X173821776Y-119751500D02*
X173868895Y-119547499D01*
X168152129Y-110143100D02*
X168200009Y-110114300D01*
X100408799Y-78167240D02*
X100403899Y-78111600D01*
X98271899Y-121994001D02*
X98403699Y-122156700D01*
X101722199Y-79575679D02*
X101667299Y-79565030D01*
X169494428Y-113021700D02*
X169441019Y-113038000D01*
X170596118Y-111388400D02*
X170599030Y-111444200D01*
X100971499Y-110274300D02*
X101014899Y-110239200D01*
X167561939Y-110798600D02*
X167587299Y-110748800D01*
X169494429Y-109978300D02*
X169547239Y-109996500D01*
X167408770Y-111332700D02*
X167415569Y-111277299D01*
X167400989Y-111444200D02*
X167403899Y-111388400D01*
X170225679Y-110471500D02*
X170260819Y-110514900D01*
X101612899Y-113052500D02*
X101558999Y-113038000D01*
X102387099Y-76447530D02*
X102440998Y-76461980D01*
X100447499Y-78387070D02*
X100434999Y-78332660D01*
X170294429Y-77059540D02*
X170326459Y-77105289D01*
X170326459Y-78894700D02*
X170294429Y-78940440D01*
X101832799Y-76408750D02*
X101888399Y-76403880D01*
D11*
X136040553Y-119303647D02*
G75*
G03*
X135040601Y-118303647I-999953J47D01*
G01*
D10*
X167739199Y-110514900D02*
X167774339Y-110471500D01*
X100478299Y-111005600D02*
X100496499Y-110952800D01*
X103521699Y-111994400D02*
X103503499Y-112047200D01*
X103150899Y-112611500D02*
X103111499Y-112650900D01*
D11*
X135000000Y-79000000D02*
X135250000Y-79000000D01*
D10*
X97436899Y-120547600D02*
X97518699Y-120740400D01*
X101888399Y-79596100D02*
X101832799Y-79591230D01*
X102751199Y-112912700D02*
X102701399Y-112938100D01*
X168777329Y-113084400D02*
X168722169Y-113075700D01*
X170111469Y-76849040D02*
X170150959Y-76888530D01*
X170552469Y-111112900D02*
X170565049Y-111167300D01*
X98403699Y-75143260D02*
X98271899Y-75306029D01*
X168298609Y-79438060D02*
X168248859Y-79412701D01*
X103294399Y-110559500D02*
X103326499Y-110605301D01*
X101832799Y-113091200D02*
X101777299Y-113084400D01*
X171179519Y-123388300D02*
X171355159Y-123274200D01*
X103385699Y-112300000D02*
X103356899Y-112347900D01*
X168888399Y-109903900D02*
X168944169Y-109901000D01*
X169653819Y-124067600D02*
X169854110Y-124006300D01*
X100461999Y-77558980D02*
X100478298Y-77505570D01*
X170438079Y-77298600D02*
X170461689Y-77349210D01*
X101612899Y-109947500D02*
X101667298Y-109935000D01*
X103483499Y-110900600D02*
X103503499Y-110952800D01*
X101944199Y-113099000D02*
X101888399Y-113096100D01*
X101888399Y-109903900D02*
X101944199Y-109901000D01*
D11*
X135250000Y-79000000D02*
G75*
G03*
X136250000Y-78000000I0J1000000D01*
G01*
D10*
X168152129Y-76643110D02*
X168200009Y-76614350D01*
X172167949Y-122616000D02*
X172316039Y-122467900D01*
X103596099Y-78111600D02*
X103591200Y-78167240D01*
M02*
