%TF.GenerationSoftware,KiCad,Pcbnew,(6.0.7-1)-1*%
%TF.CreationDate,2022-12-29T08:39:09+01:00*%
%TF.ProjectId,cover_test,636f7665-725f-4746-9573-742e6b696361,rev?*%
%TF.SameCoordinates,Original*%
%TF.FileFunction,Soldermask,Top*%
%TF.FilePolarity,Negative*%
%FSLAX46Y46*%
G04 Gerber Fmt 4.6, Leading zero omitted, Abs format (unit mm)*
G04 Created by KiCad (PCBNEW (6.0.7-1)-1) date 2022-12-29 08:39:09*
%MOMM*%
%LPD*%
G01*
G04 APERTURE LIST*
%ADD10C,0.200000*%
G04 APERTURE END LIST*
D10*
G36*
X121577907Y-86068666D02*
G01*
X121653350Y-86074551D01*
X121727806Y-86084236D01*
X121801172Y-86097621D01*
X121873344Y-86114604D01*
X121944220Y-86135085D01*
X122013695Y-86158962D01*
X122081666Y-86186134D01*
X122148030Y-86216502D01*
X122212683Y-86249963D01*
X122275522Y-86286420D01*
X122336444Y-86325768D01*
X122395343Y-86367906D01*
X122452119Y-86412736D01*
X122506665Y-86460157D01*
X122558882Y-86510066D01*
X122608791Y-86562283D01*
X122656212Y-86616829D01*
X122701043Y-86673605D01*
X122743181Y-86732507D01*
X122782529Y-86793434D01*
X122818985Y-86856281D01*
X122852447Y-86920949D01*
X122882815Y-86987331D01*
X122909988Y-87055329D01*
X122933865Y-87124836D01*
X122954345Y-87195754D01*
X122971328Y-87267976D01*
X122984712Y-87341403D01*
X122994397Y-87415932D01*
X123000282Y-87491459D01*
X123002266Y-87567882D01*
X123002266Y-110432119D01*
X123000294Y-110508737D01*
X122994441Y-110584434D01*
X122984807Y-110659107D01*
X122971489Y-110732658D01*
X122954584Y-110804989D01*
X122934191Y-110875998D01*
X122910408Y-110945587D01*
X122883331Y-111013654D01*
X122853060Y-111080101D01*
X122819691Y-111144829D01*
X122783323Y-111207736D01*
X122744054Y-111268723D01*
X122701980Y-111327692D01*
X122657201Y-111384542D01*
X122609814Y-111439173D01*
X122559917Y-111491485D01*
X122507805Y-111541286D01*
X122453359Y-111588588D01*
X122396680Y-111633295D01*
X122337866Y-111675307D01*
X122277013Y-111714526D01*
X122214223Y-111750853D01*
X122149596Y-111784188D01*
X122083229Y-111814433D01*
X122015222Y-111841491D01*
X121945675Y-111865261D01*
X121874684Y-111885645D01*
X121802353Y-111902544D01*
X121728778Y-111915861D01*
X121654059Y-111925493D01*
X121578294Y-111931346D01*
X121501583Y-111933319D01*
X114099451Y-111933319D01*
X114022631Y-111931351D01*
X113946749Y-111925515D01*
X113871907Y-111915908D01*
X113798203Y-111902627D01*
X113725742Y-111885772D01*
X113654624Y-111865441D01*
X113584950Y-111841732D01*
X113516821Y-111814741D01*
X113450338Y-111784570D01*
X113385604Y-111751314D01*
X113322718Y-111715072D01*
X113261783Y-111675944D01*
X113202899Y-111634026D01*
X113146167Y-111589417D01*
X113091690Y-111542215D01*
X113039567Y-111492519D01*
X112989675Y-111440312D01*
X112942304Y-111385782D01*
X112897551Y-111329028D01*
X112855511Y-111270144D01*
X112816280Y-111209226D01*
X112779955Y-111146368D01*
X112746633Y-111081666D01*
X112716410Y-111015217D01*
X112689382Y-110947113D01*
X112665645Y-110877453D01*
X112645296Y-110806329D01*
X112628430Y-110733839D01*
X112615145Y-110660078D01*
X112605536Y-110585140D01*
X112599700Y-110509123D01*
X112597734Y-110432119D01*
X112597734Y-87567882D01*
X112599713Y-87491080D01*
X112605582Y-87415247D01*
X112615240Y-87340480D01*
X112628587Y-87266876D01*
X112645520Y-87194527D01*
X112665939Y-87123530D01*
X112689742Y-87053983D01*
X112716828Y-86985980D01*
X112747096Y-86919616D01*
X112780445Y-86854988D01*
X112816775Y-86792191D01*
X112855981Y-86731322D01*
X112897965Y-86672476D01*
X112942625Y-86615749D01*
X112989859Y-86561236D01*
X113039567Y-86509032D01*
X113091984Y-86459043D01*
X113146716Y-86411587D01*
X113203663Y-86366761D01*
X113262724Y-86324660D01*
X113323796Y-86285378D01*
X113386780Y-86249013D01*
X113451573Y-86215658D01*
X113518075Y-86185408D01*
X113586184Y-86158360D01*
X113655801Y-86134610D01*
X113726820Y-86114251D01*
X113799144Y-86097381D01*
X113872670Y-86084093D01*
X113947298Y-86074484D01*
X114022925Y-86068649D01*
X114099451Y-86066682D01*
X121501582Y-86066682D01*
X121577907Y-86068666D01*
G37*
X121577907Y-86068666D02*
X121653350Y-86074551D01*
X121727806Y-86084236D01*
X121801172Y-86097621D01*
X121873344Y-86114604D01*
X121944220Y-86135085D01*
X122013695Y-86158962D01*
X122081666Y-86186134D01*
X122148030Y-86216502D01*
X122212683Y-86249963D01*
X122275522Y-86286420D01*
X122336444Y-86325768D01*
X122395343Y-86367906D01*
X122452119Y-86412736D01*
X122506665Y-86460157D01*
X122558882Y-86510066D01*
X122608791Y-86562283D01*
X122656212Y-86616829D01*
X122701043Y-86673605D01*
X122743181Y-86732507D01*
X122782529Y-86793434D01*
X122818985Y-86856281D01*
X122852447Y-86920949D01*
X122882815Y-86987331D01*
X122909988Y-87055329D01*
X122933865Y-87124836D01*
X122954345Y-87195754D01*
X122971328Y-87267976D01*
X122984712Y-87341403D01*
X122994397Y-87415932D01*
X123000282Y-87491459D01*
X123002266Y-87567882D01*
X123002266Y-110432119D01*
X123000294Y-110508737D01*
X122994441Y-110584434D01*
X122984807Y-110659107D01*
X122971489Y-110732658D01*
X122954584Y-110804989D01*
X122934191Y-110875998D01*
X122910408Y-110945587D01*
X122883331Y-111013654D01*
X122853060Y-111080101D01*
X122819691Y-111144829D01*
X122783323Y-111207736D01*
X122744054Y-111268723D01*
X122701980Y-111327692D01*
X122657201Y-111384542D01*
X122609814Y-111439173D01*
X122559917Y-111491485D01*
X122507805Y-111541286D01*
X122453359Y-111588588D01*
X122396680Y-111633295D01*
X122337866Y-111675307D01*
X122277013Y-111714526D01*
X122214223Y-111750853D01*
X122149596Y-111784188D01*
X122083229Y-111814433D01*
X122015222Y-111841491D01*
X121945675Y-111865261D01*
X121874684Y-111885645D01*
X121802353Y-111902544D01*
X121728778Y-111915861D01*
X121654059Y-111925493D01*
X121578294Y-111931346D01*
X121501583Y-111933319D01*
X114099451Y-111933319D01*
X114022631Y-111931351D01*
X113946749Y-111925515D01*
X113871907Y-111915908D01*
X113798203Y-111902627D01*
X113725742Y-111885772D01*
X113654624Y-111865441D01*
X113584950Y-111841732D01*
X113516821Y-111814741D01*
X113450338Y-111784570D01*
X113385604Y-111751314D01*
X113322718Y-111715072D01*
X113261783Y-111675944D01*
X113202899Y-111634026D01*
X113146167Y-111589417D01*
X113091690Y-111542215D01*
X113039567Y-111492519D01*
X112989675Y-111440312D01*
X112942304Y-111385782D01*
X112897551Y-111329028D01*
X112855511Y-111270144D01*
X112816280Y-111209226D01*
X112779955Y-111146368D01*
X112746633Y-111081666D01*
X112716410Y-111015217D01*
X112689382Y-110947113D01*
X112665645Y-110877453D01*
X112645296Y-110806329D01*
X112628430Y-110733839D01*
X112615145Y-110660078D01*
X112605536Y-110585140D01*
X112599700Y-110509123D01*
X112597734Y-110432119D01*
X112597734Y-87567882D01*
X112599713Y-87491080D01*
X112605582Y-87415247D01*
X112615240Y-87340480D01*
X112628587Y-87266876D01*
X112645520Y-87194527D01*
X112665939Y-87123530D01*
X112689742Y-87053983D01*
X112716828Y-86985980D01*
X112747096Y-86919616D01*
X112780445Y-86854988D01*
X112816775Y-86792191D01*
X112855981Y-86731322D01*
X112897965Y-86672476D01*
X112942625Y-86615749D01*
X112989859Y-86561236D01*
X113039567Y-86509032D01*
X113091984Y-86459043D01*
X113146716Y-86411587D01*
X113203663Y-86366761D01*
X113262724Y-86324660D01*
X113323796Y-86285378D01*
X113386780Y-86249013D01*
X113451573Y-86215658D01*
X113518075Y-86185408D01*
X113586184Y-86158360D01*
X113655801Y-86134610D01*
X113726820Y-86114251D01*
X113799144Y-86097381D01*
X113872670Y-86084093D01*
X113947298Y-86074484D01*
X114022925Y-86068649D01*
X114099451Y-86066682D01*
X121501582Y-86066682D01*
X121577907Y-86068666D01*
G36*
X112815781Y-113271279D02*
G01*
X112738186Y-113265315D01*
X112661671Y-113255497D01*
X112586337Y-113241924D01*
X112512282Y-113224692D01*
X112439607Y-113203905D01*
X112368412Y-113179659D01*
X112298795Y-113152053D01*
X112230859Y-113121187D01*
X112164701Y-113087158D01*
X112100422Y-113050069D01*
X112038121Y-113010017D01*
X111977898Y-112967100D01*
X111919855Y-112921418D01*
X111864090Y-112873068D01*
X111810702Y-112822153D01*
X111759499Y-112768570D01*
X111710914Y-112712635D01*
X111665040Y-112654447D01*
X111621972Y-112594102D01*
X111581805Y-112531701D01*
X111544634Y-112467338D01*
X111510554Y-112401114D01*
X111479659Y-112333125D01*
X111452044Y-112263470D01*
X111427803Y-112192248D01*
X111407032Y-112119555D01*
X111389825Y-112045490D01*
X111376277Y-111970150D01*
X111366482Y-111893634D01*
X111360536Y-111816040D01*
X111358533Y-111737466D01*
X111727503Y-111737466D01*
X111729023Y-111797325D01*
X111733536Y-111856421D01*
X111740965Y-111914677D01*
X111751238Y-111972019D01*
X111764278Y-112028371D01*
X111780011Y-112083657D01*
X111798364Y-112137799D01*
X111819261Y-112190724D01*
X111842627Y-112242357D01*
X111868389Y-112292619D01*
X111896472Y-112341435D01*
X111926800Y-112388730D01*
X111959300Y-112434429D01*
X111993897Y-112478456D01*
X112030517Y-112520734D01*
X112069084Y-112561188D01*
X112109739Y-112599956D01*
X112152202Y-112636761D01*
X112196399Y-112671528D01*
X112242253Y-112704185D01*
X112289690Y-112734654D01*
X112338634Y-112762864D01*
X112389009Y-112788738D01*
X112440740Y-112812204D01*
X112493752Y-112833187D01*
X112547969Y-112851614D01*
X112603316Y-112867409D01*
X112659717Y-112880498D01*
X112717098Y-112890810D01*
X112775381Y-112898266D01*
X112834493Y-112902794D01*
X112894357Y-112904320D01*
X122705644Y-112904319D01*
X122764480Y-112902836D01*
X122822598Y-112898436D01*
X122879926Y-112891189D01*
X122936389Y-112881170D01*
X122991913Y-112868452D01*
X123046424Y-112853103D01*
X123099848Y-112835200D01*
X123152111Y-112814813D01*
X123203140Y-112792015D01*
X123252859Y-112766879D01*
X123301196Y-112739477D01*
X123348076Y-112709882D01*
X123393425Y-112678164D01*
X123437168Y-112644397D01*
X123479235Y-112608653D01*
X123519548Y-112571007D01*
X123529366Y-112560672D01*
X123568139Y-112520014D01*
X123604961Y-112477550D01*
X123639754Y-112433356D01*
X123672443Y-112387512D01*
X123702951Y-112340095D01*
X123731204Y-112291187D01*
X123757126Y-112240866D01*
X123780641Y-112189211D01*
X123801672Y-112136302D01*
X123820144Y-112082218D01*
X123835984Y-112027039D01*
X123849113Y-111970841D01*
X123859456Y-111913706D01*
X123866937Y-111855712D01*
X123871482Y-111796939D01*
X123873014Y-111737465D01*
X123873014Y-86263568D01*
X123871470Y-86204095D01*
X123866893Y-86145322D01*
X123859360Y-86087329D01*
X123848951Y-86030193D01*
X123835744Y-85973997D01*
X123819819Y-85918816D01*
X123801252Y-85864731D01*
X123780124Y-85811823D01*
X123756513Y-85760168D01*
X123730498Y-85709847D01*
X123702158Y-85660940D01*
X123671571Y-85613524D01*
X123638816Y-85567679D01*
X123603972Y-85523486D01*
X123567118Y-85481020D01*
X123528332Y-85440365D01*
X123487682Y-85401486D01*
X123445233Y-85364564D01*
X123401065Y-85329673D01*
X123355253Y-85296890D01*
X123307876Y-85266292D01*
X123259012Y-85237954D01*
X123208738Y-85211951D01*
X123157132Y-85188363D01*
X123104271Y-85167265D01*
X123050234Y-85148730D01*
X122995097Y-85132840D01*
X122938938Y-85119667D01*
X122881836Y-85109287D01*
X122823868Y-85101780D01*
X122765111Y-85097220D01*
X122705644Y-85095682D01*
X112894357Y-85095681D01*
X112834883Y-85097219D01*
X112776110Y-85101781D01*
X112718116Y-85109287D01*
X112660981Y-85119663D01*
X112604784Y-85132831D01*
X112549604Y-85148714D01*
X112495519Y-85167235D01*
X112442610Y-85188313D01*
X112390956Y-85211876D01*
X112340635Y-85237844D01*
X112291727Y-85266141D01*
X112244312Y-85296690D01*
X112198466Y-85329410D01*
X112154272Y-85364229D01*
X112111807Y-85401066D01*
X112071151Y-85439845D01*
X112032469Y-85480305D01*
X111995715Y-85522600D01*
X111960970Y-85566652D01*
X111928309Y-85612381D01*
X111897812Y-85659711D01*
X111869557Y-85708563D01*
X111843622Y-85758857D01*
X111820085Y-85810518D01*
X111799025Y-85863467D01*
X111780518Y-85917622D01*
X111764645Y-85972911D01*
X111751482Y-86029249D01*
X111741108Y-86086564D01*
X111733602Y-86144774D01*
X111729041Y-86203802D01*
X111727503Y-86263568D01*
X111727503Y-111737466D01*
X111358533Y-111737466D01*
X111358533Y-86263570D01*
X111360555Y-86184990D01*
X111366552Y-86107378D01*
X111376420Y-86030838D01*
X111390058Y-85955469D01*
X111407361Y-85881376D01*
X111428228Y-85808658D01*
X111452553Y-85737414D01*
X111480237Y-85667750D01*
X111511174Y-85599765D01*
X111545261Y-85533560D01*
X111582397Y-85469239D01*
X111622477Y-85406899D01*
X111665399Y-85346644D01*
X111711060Y-85288574D01*
X111759356Y-85232793D01*
X111810185Y-85179400D01*
X111863677Y-85128284D01*
X111919544Y-85079749D01*
X111977685Y-85033897D01*
X112037999Y-84990825D01*
X112100384Y-84950630D01*
X112164739Y-84913414D01*
X112230963Y-84879272D01*
X112298955Y-84848306D01*
X112368612Y-84820614D01*
X112439835Y-84796293D01*
X112512521Y-84775444D01*
X112586570Y-84758164D01*
X112661878Y-84744552D01*
X112738347Y-84734707D01*
X112815873Y-84728727D01*
X112894357Y-84726713D01*
X122705645Y-84726712D01*
X122784029Y-84728734D01*
X122861472Y-84734731D01*
X122937868Y-84744600D01*
X123013116Y-84758243D01*
X123087113Y-84775557D01*
X123159757Y-84796441D01*
X123230946Y-84820793D01*
X123300578Y-84848514D01*
X123368551Y-84879504D01*
X123434761Y-84913656D01*
X123499107Y-84950875D01*
X123561488Y-84991058D01*
X123621800Y-85034101D01*
X123679940Y-85079907D01*
X123735808Y-85128373D01*
X123789300Y-85179398D01*
X123840227Y-85232798D01*
X123888608Y-85288596D01*
X123934341Y-85346691D01*
X123977324Y-85406976D01*
X124017456Y-85469350D01*
X124054632Y-85533708D01*
X124088752Y-85599944D01*
X124119715Y-85667958D01*
X124147417Y-85737645D01*
X124171757Y-85808901D01*
X124192632Y-85881622D01*
X124209941Y-85955703D01*
X124223580Y-86031044D01*
X124233450Y-86107536D01*
X124239445Y-86185079D01*
X124241468Y-86263568D01*
X124241468Y-111737466D01*
X124239452Y-111815949D01*
X124233472Y-111893475D01*
X124223628Y-111969944D01*
X124210021Y-112045252D01*
X124192752Y-112119300D01*
X124171920Y-112191987D01*
X124147627Y-112263209D01*
X124119973Y-112332866D01*
X124089058Y-112400858D01*
X124054985Y-112467082D01*
X124017851Y-112531437D01*
X123977759Y-112593824D01*
X123934808Y-112654138D01*
X123889101Y-112712278D01*
X123840736Y-112768145D01*
X123789815Y-112821636D01*
X123777930Y-112832490D01*
X123724793Y-112882185D01*
X123669355Y-112929387D01*
X123611718Y-112973997D01*
X123551973Y-113015915D01*
X123490218Y-113055042D01*
X123426548Y-113091284D01*
X123361059Y-113124540D01*
X123293848Y-113154711D01*
X123225009Y-113181701D01*
X123154640Y-113205410D01*
X123082836Y-113225742D01*
X123009692Y-113242597D01*
X122935305Y-113255877D01*
X122859771Y-113265486D01*
X122783185Y-113271322D01*
X122705644Y-113273289D01*
X112894357Y-113273288D01*
X112815781Y-113271279D01*
G37*
X112815781Y-113271279D02*
X112738186Y-113265315D01*
X112661671Y-113255497D01*
X112586337Y-113241924D01*
X112512282Y-113224692D01*
X112439607Y-113203905D01*
X112368412Y-113179659D01*
X112298795Y-113152053D01*
X112230859Y-113121187D01*
X112164701Y-113087158D01*
X112100422Y-113050069D01*
X112038121Y-113010017D01*
X111977898Y-112967100D01*
X111919855Y-112921418D01*
X111864090Y-112873068D01*
X111810702Y-112822153D01*
X111759499Y-112768570D01*
X111710914Y-112712635D01*
X111665040Y-112654447D01*
X111621972Y-112594102D01*
X111581805Y-112531701D01*
X111544634Y-112467338D01*
X111510554Y-112401114D01*
X111479659Y-112333125D01*
X111452044Y-112263470D01*
X111427803Y-112192248D01*
X111407032Y-112119555D01*
X111389825Y-112045490D01*
X111376277Y-111970150D01*
X111366482Y-111893634D01*
X111360536Y-111816040D01*
X111358533Y-111737466D01*
X111727503Y-111737466D01*
X111729023Y-111797325D01*
X111733536Y-111856421D01*
X111740965Y-111914677D01*
X111751238Y-111972019D01*
X111764278Y-112028371D01*
X111780011Y-112083657D01*
X111798364Y-112137799D01*
X111819261Y-112190724D01*
X111842627Y-112242357D01*
X111868389Y-112292619D01*
X111896472Y-112341435D01*
X111926800Y-112388730D01*
X111959300Y-112434429D01*
X111993897Y-112478456D01*
X112030517Y-112520734D01*
X112069084Y-112561188D01*
X112109739Y-112599956D01*
X112152202Y-112636761D01*
X112196399Y-112671528D01*
X112242253Y-112704185D01*
X112289690Y-112734654D01*
X112338634Y-112762864D01*
X112389009Y-112788738D01*
X112440740Y-112812204D01*
X112493752Y-112833187D01*
X112547969Y-112851614D01*
X112603316Y-112867409D01*
X112659717Y-112880498D01*
X112717098Y-112890810D01*
X112775381Y-112898266D01*
X112834493Y-112902794D01*
X112894357Y-112904320D01*
X122705644Y-112904319D01*
X122764480Y-112902836D01*
X122822598Y-112898436D01*
X122879926Y-112891189D01*
X122936389Y-112881170D01*
X122991913Y-112868452D01*
X123046424Y-112853103D01*
X123099848Y-112835200D01*
X123152111Y-112814813D01*
X123203140Y-112792015D01*
X123252859Y-112766879D01*
X123301196Y-112739477D01*
X123348076Y-112709882D01*
X123393425Y-112678164D01*
X123437168Y-112644397D01*
X123479235Y-112608653D01*
X123519548Y-112571007D01*
X123529366Y-112560672D01*
X123568139Y-112520014D01*
X123604961Y-112477550D01*
X123639754Y-112433356D01*
X123672443Y-112387512D01*
X123702951Y-112340095D01*
X123731204Y-112291187D01*
X123757126Y-112240866D01*
X123780641Y-112189211D01*
X123801672Y-112136302D01*
X123820144Y-112082218D01*
X123835984Y-112027039D01*
X123849113Y-111970841D01*
X123859456Y-111913706D01*
X123866937Y-111855712D01*
X123871482Y-111796939D01*
X123873014Y-111737465D01*
X123873014Y-86263568D01*
X123871470Y-86204095D01*
X123866893Y-86145322D01*
X123859360Y-86087329D01*
X123848951Y-86030193D01*
X123835744Y-85973997D01*
X123819819Y-85918816D01*
X123801252Y-85864731D01*
X123780124Y-85811823D01*
X123756513Y-85760168D01*
X123730498Y-85709847D01*
X123702158Y-85660940D01*
X123671571Y-85613524D01*
X123638816Y-85567679D01*
X123603972Y-85523486D01*
X123567118Y-85481020D01*
X123528332Y-85440365D01*
X123487682Y-85401486D01*
X123445233Y-85364564D01*
X123401065Y-85329673D01*
X123355253Y-85296890D01*
X123307876Y-85266292D01*
X123259012Y-85237954D01*
X123208738Y-85211951D01*
X123157132Y-85188363D01*
X123104271Y-85167265D01*
X123050234Y-85148730D01*
X122995097Y-85132840D01*
X122938938Y-85119667D01*
X122881836Y-85109287D01*
X122823868Y-85101780D01*
X122765111Y-85097220D01*
X122705644Y-85095682D01*
X112894357Y-85095681D01*
X112834883Y-85097219D01*
X112776110Y-85101781D01*
X112718116Y-85109287D01*
X112660981Y-85119663D01*
X112604784Y-85132831D01*
X112549604Y-85148714D01*
X112495519Y-85167235D01*
X112442610Y-85188313D01*
X112390956Y-85211876D01*
X112340635Y-85237844D01*
X112291727Y-85266141D01*
X112244312Y-85296690D01*
X112198466Y-85329410D01*
X112154272Y-85364229D01*
X112111807Y-85401066D01*
X112071151Y-85439845D01*
X112032469Y-85480305D01*
X111995715Y-85522600D01*
X111960970Y-85566652D01*
X111928309Y-85612381D01*
X111897812Y-85659711D01*
X111869557Y-85708563D01*
X111843622Y-85758857D01*
X111820085Y-85810518D01*
X111799025Y-85863467D01*
X111780518Y-85917622D01*
X111764645Y-85972911D01*
X111751482Y-86029249D01*
X111741108Y-86086564D01*
X111733602Y-86144774D01*
X111729041Y-86203802D01*
X111727503Y-86263568D01*
X111727503Y-111737466D01*
X111358533Y-111737466D01*
X111358533Y-86263570D01*
X111360555Y-86184990D01*
X111366552Y-86107378D01*
X111376420Y-86030838D01*
X111390058Y-85955469D01*
X111407361Y-85881376D01*
X111428228Y-85808658D01*
X111452553Y-85737414D01*
X111480237Y-85667750D01*
X111511174Y-85599765D01*
X111545261Y-85533560D01*
X111582397Y-85469239D01*
X111622477Y-85406899D01*
X111665399Y-85346644D01*
X111711060Y-85288574D01*
X111759356Y-85232793D01*
X111810185Y-85179400D01*
X111863677Y-85128284D01*
X111919544Y-85079749D01*
X111977685Y-85033897D01*
X112037999Y-84990825D01*
X112100384Y-84950630D01*
X112164739Y-84913414D01*
X112230963Y-84879272D01*
X112298955Y-84848306D01*
X112368612Y-84820614D01*
X112439835Y-84796293D01*
X112512521Y-84775444D01*
X112586570Y-84758164D01*
X112661878Y-84744552D01*
X112738347Y-84734707D01*
X112815873Y-84728727D01*
X112894357Y-84726713D01*
X122705645Y-84726712D01*
X122784029Y-84728734D01*
X122861472Y-84734731D01*
X122937868Y-84744600D01*
X123013116Y-84758243D01*
X123087113Y-84775557D01*
X123159757Y-84796441D01*
X123230946Y-84820793D01*
X123300578Y-84848514D01*
X123368551Y-84879504D01*
X123434761Y-84913656D01*
X123499107Y-84950875D01*
X123561488Y-84991058D01*
X123621800Y-85034101D01*
X123679940Y-85079907D01*
X123735808Y-85128373D01*
X123789300Y-85179398D01*
X123840227Y-85232798D01*
X123888608Y-85288596D01*
X123934341Y-85346691D01*
X123977324Y-85406976D01*
X124017456Y-85469350D01*
X124054632Y-85533708D01*
X124088752Y-85599944D01*
X124119715Y-85667958D01*
X124147417Y-85737645D01*
X124171757Y-85808901D01*
X124192632Y-85881622D01*
X124209941Y-85955703D01*
X124223580Y-86031044D01*
X124233450Y-86107536D01*
X124239445Y-86185079D01*
X124241468Y-86263568D01*
X124241468Y-111737466D01*
X124239452Y-111815949D01*
X124233472Y-111893475D01*
X124223628Y-111969944D01*
X124210021Y-112045252D01*
X124192752Y-112119300D01*
X124171920Y-112191987D01*
X124147627Y-112263209D01*
X124119973Y-112332866D01*
X124089058Y-112400858D01*
X124054985Y-112467082D01*
X124017851Y-112531437D01*
X123977759Y-112593824D01*
X123934808Y-112654138D01*
X123889101Y-112712278D01*
X123840736Y-112768145D01*
X123789815Y-112821636D01*
X123777930Y-112832490D01*
X123724793Y-112882185D01*
X123669355Y-112929387D01*
X123611718Y-112973997D01*
X123551973Y-113015915D01*
X123490218Y-113055042D01*
X123426548Y-113091284D01*
X123361059Y-113124540D01*
X123293848Y-113154711D01*
X123225009Y-113181701D01*
X123154640Y-113205410D01*
X123082836Y-113225742D01*
X123009692Y-113242597D01*
X122935305Y-113255877D01*
X122859771Y-113265486D01*
X122783185Y-113271322D01*
X122705644Y-113273289D01*
X112894357Y-113273288D01*
X112815781Y-113271279D01*
M02*
