  0
SECTION
  2
BLOCKS
  0
ENDSEC
  0
SECTION
  2
ENTITIES
  0
LINE
  8
0
 10
71.2094
 20
0.00364685
 11
71.4185
 21
0.0146027
  0
LINE
  8
0
 10
71.4185
 20
0.0146027
 11
71.6272
 21
0.0328674
  0
LINE
  8
0
 10
71.6272
 20
0.0328674
 11
71.835
 21
0.0583801
  0
LINE
  8
0
 10
71.835
 20
0.0583801
 11
72.0419
 21
0.0911407
  0
LINE
  8
0
 10
72.0419
 20
0.0911407
 11
72.2475
 21
0.131104
  0
LINE
  8
0
 10
72.2475
 20
0.131104
 11
72.4515
 21
0.178223
  0
LINE
  8
0
 10
72.4515
 20
0.178223
 11
72.6538
 21
0.232422
  0
LINE
  8
0
 10
72.6538
 20
0.232422
 11
72.8541
 21
0.293655
  0
LINE
  8
0
 10
72.8541
 20
0.293655
 11
73.0521
 21
0.361832
  0
LINE
  8
0
 10
73.0521
 20
0.361832
 11
73.2476
 21
0.43689
  0
LINE
  8
0
 10
73.2476
 20
0.43689
 11
73.4404
 21
0.518723
  0
LINE
  8
0
 10
73.4404
 20
0.518723
 11
73.6302
 21
0.607224
  0
LINE
  8
0
 10
73.6302
 20
0.607224
 11
73.8168
 21
0.702301
  0
LINE
  8
0
 10
73.8168
 20
0.702301
 11
74
 21
0.803848
  0
LINE
  8
0
 10
74
 20
0.803848
 11
74.1795
 21
0.911697
  0
LINE
  8
0
 10
74.1795
 20
0.911697
 11
74.3551
 21
1.02577
  0
LINE
  8
0
 10
74.3551
 20
1.02577
 11
74.5267
 21
1.14589
  0
LINE
  8
0
 10
74.5267
 20
1.14589
 11
74.694
 21
1.27193
  0
LINE
  8
0
 10
74.694
 20
1.27193
 11
74.8567
 21
1.40373
  0
LINE
  8
0
 10
74.8567
 20
1.40373
 11
75.0148
 21
1.54112
  0
LINE
  8
0
 10
75.0148
 20
1.54112
 11
75.168
 21
1.68396
  0
LINE
  8
0
 10
75.168
 20
1.68396
 11
75.316
 21
1.83205
  0
LINE
  8
0
 10
75.316
 20
1.83205
 11
75.4589
 21
1.98521
  0
LINE
  8
0
 10
75.4589
 20
1.98521
 11
75.5963
 21
2.14326
  0
LINE
  8
0
 10
75.5963
 20
2.14326
 11
75.7281
 21
2.30603
  0
LINE
  8
0
 10
75.7281
 20
2.30603
 11
75.8541
 21
2.47328
  0
LINE
  8
0
 10
75.8541
 20
2.47328
 11
75.9742
 21
2.64484
  0
LINE
  8
0
 10
75.9742
 20
2.64484
 11
76.0883
 21
2.82048
  0
LINE
  8
0
 10
76.0883
 20
2.82048
 11
76.1962
 21
3
  0
LINE
  8
0
 10
76.1962
 20
3
 11
76.2977
 21
3.18317
  0
LINE
  8
0
 10
76.2977
 20
3.18317
 11
76.3928
 21
3.36977
  0
LINE
  8
0
 10
76.3928
 20
3.36977
 11
76.4813
 21
3.55957
  0
LINE
  8
0
 10
76.4813
 20
3.55957
 11
76.5631
 21
3.75235
  0
LINE
  8
0
 10
76.5631
 20
3.75235
 11
76.6382
 21
3.94788
  0
LINE
  8
0
 10
76.6382
 20
3.94788
 11
76.7063
 21
4.14589
  0
LINE
  8
0
 10
76.7063
 20
4.14589
 11
76.7676
 21
4.34618
  0
LINE
  8
0
 10
76.7676
 20
4.34618
 11
76.8218
 21
4.54846
  0
LINE
  8
0
 10
76.8218
 20
4.54846
 11
76.8689
 21
4.75252
  0
LINE
  8
0
 10
76.8689
 20
4.75252
 11
76.9088
 21
4.9581
  0
LINE
  8
0
 10
76.9088
 20
4.9581
 11
76.9416
 21
5.16495
  0
LINE
  8
0
 10
76.9416
 20
5.16495
 11
76.9671
 21
5.37282
  0
LINE
  8
0
 10
76.9671
 20
5.37282
 11
76.9854
 21
5.58145
  0
LINE
  8
0
 10
76.9854
 20
5.58145
 11
76.9963
 21
5.7906
  0
LINE
  8
0
 10
76.9963
 20
5.7906
 11
77
 21
6
  0
LINE
  8
0
 10
77
 20
6
 11
77
 21
45.3
  0
LINE
  8
0
 10
77
 20
45.3
 11
76.9963
 21
45.5094
  0
LINE
  8
0
 10
76.9963
 20
45.5094
 11
76.9854
 21
45.7185
  0
LINE
  8
0
 10
76.9854
 20
45.7185
 11
76.9671
 21
45.9272
  0
LINE
  8
0
 10
76.9671
 20
45.9272
 11
76.9416
 21
46.135
  0
LINE
  8
0
 10
76.9416
 20
46.135
 11
76.9088
 21
46.3419
  0
LINE
  8
0
 10
76.9088
 20
46.3419
 11
76.8689
 21
46.5475
  0
LINE
  8
0
 10
76.8689
 20
46.5475
 11
76.8218
 21
46.7515
  0
LINE
  8
0
 10
76.8218
 20
46.7515
 11
76.7676
 21
46.9538
  0
LINE
  8
0
 10
76.7676
 20
46.9538
 11
76.7063
 21
47.1541
  0
LINE
  8
0
 10
76.7063
 20
47.1541
 11
76.6382
 21
47.3521
  0
LINE
  8
0
 10
76.6382
 20
47.3521
 11
76.5631
 21
47.5476
  0
LINE
  8
0
 10
76.5631
 20
47.5476
 11
76.4813
 21
47.7404
  0
LINE
  8
0
 10
76.4813
 20
47.7404
 11
76.3928
 21
47.9302
  0
LINE
  8
0
 10
76.3928
 20
47.9302
 11
76.2977
 21
48.1168
  0
LINE
  8
0
 10
76.2977
 20
48.1168
 11
76.1962
 21
48.3
  0
LINE
  8
0
 10
76.1962
 20
48.3
 11
76.0883
 21
48.4795
  0
LINE
  8
0
 10
76.0883
 20
48.4795
 11
75.9742
 21
48.6552
  0
LINE
  8
0
 10
75.9742
 20
48.6552
 11
75.8541
 21
48.8267
  0
LINE
  8
0
 10
75.8541
 20
48.8267
 11
75.7281
 21
48.994
  0
LINE
  8
0
 10
75.7281
 20
48.994
 11
75.5963
 21
49.1567
  0
LINE
  8
0
 10
75.5963
 20
49.1567
 11
75.4589
 21
49.3148
  0
LINE
  8
0
 10
75.4589
 20
49.3148
 11
75.316
 21
49.4679
  0
LINE
  8
0
 10
75.316
 20
49.4679
 11
75.168
 21
49.616
  0
LINE
  8
0
 10
75.168
 20
49.616
 11
75.0148
 21
49.7589
  0
LINE
  8
0
 10
75.0148
 20
49.7589
 11
74.8567
 21
49.8963
  0
LINE
  8
0
 10
74.8567
 20
49.8963
 11
74.694
 21
50.0281
  0
LINE
  8
0
 10
74.694
 20
50.0281
 11
74.5267
 21
50.1541
  0
LINE
  8
0
 10
74.5267
 20
50.1541
 11
74.3551
 21
50.2742
  0
LINE
  8
0
 10
74.3551
 20
50.2742
 11
74.1795
 21
50.3883
  0
LINE
  8
0
 10
74.1795
 20
50.3883
 11
74
 21
50.4961
  0
LINE
  8
0
 10
74
 20
50.4961
 11
73.8168
 21
50.5977
  0
LINE
  8
0
 10
73.8168
 20
50.5977
 11
73.6302
 21
50.6928
  0
LINE
  8
0
 10
73.6302
 20
50.6928
 11
73.4404
 21
50.7813
  0
LINE
  8
0
 10
73.4404
 20
50.7813
 11
73.2476
 21
50.8631
  0
LINE
  8
0
 10
73.2476
 20
50.8631
 11
73.0521
 21
50.9382
  0
LINE
  8
0
 10
73.0521
 20
50.9382
 11
72.8541
 21
51.0063
  0
LINE
  8
0
 10
72.8541
 20
51.0063
 11
72.6538
 21
51.0676
  0
LINE
  8
0
 10
72.6538
 20
51.0676
 11
72.4515
 21
51.1218
  0
LINE
  8
0
 10
72.4515
 20
51.1218
 11
72.2475
 21
51.1689
  0
LINE
  8
0
 10
72.2475
 20
51.1689
 11
72.0419
 21
51.2088
  0
LINE
  8
0
 10
72.0419
 20
51.2088
 11
71.835
 21
51.2416
  0
LINE
  8
0
 10
71.835
 20
51.2416
 11
71.6272
 21
51.2671
  0
LINE
  8
0
 10
71.6272
 20
51.2671
 11
71.4185
 21
51.2854
  0
LINE
  8
0
 10
71.4185
 20
51.2854
 11
71.2094
 21
51.2963
  0
LINE
  8
0
 10
71.2094
 20
51.2963
 11
71
 21
51.3
  0
LINE
  8
0
 10
71
 20
51.3
 11
6
 21
51.3
  0
LINE
  8
0
 10
6
 20
51.3
 11
5.7906
 21
51.2963
  0
LINE
  8
0
 10
5.7906
 20
51.2963
 11
5.58145
 21
51.2854
  0
LINE
  8
0
 10
5.58145
 20
51.2854
 11
5.37282
 21
51.2671
  0
LINE
  8
0
 10
5.37282
 20
51.2671
 11
5.16495
 21
51.2416
  0
LINE
  8
0
 10
5.16495
 20
51.2416
 11
4.9581
 21
51.2088
  0
LINE
  8
0
 10
4.9581
 20
51.2088
 11
4.75252
 21
51.1689
  0
LINE
  8
0
 10
4.75252
 20
51.1689
 11
4.54846
 21
51.1218
  0
LINE
  8
0
 10
4.54846
 20
51.1218
 11
4.34618
 21
51.0676
  0
LINE
  8
0
 10
4.34618
 20
51.0676
 11
4.14589
 21
51.0063
  0
LINE
  8
0
 10
4.14589
 20
51.0063
 11
3.94788
 21
50.9382
  0
LINE
  8
0
 10
3.94788
 20
50.9382
 11
3.75235
 21
50.8631
  0
LINE
  8
0
 10
3.75235
 20
50.8631
 11
3.55957
 21
50.7813
  0
LINE
  8
0
 10
3.55957
 20
50.7813
 11
3.36977
 21
50.6928
  0
LINE
  8
0
 10
3.36977
 20
50.6928
 11
3.18317
 21
50.5977
  0
LINE
  8
0
 10
3.18317
 20
50.5977
 11
3
 21
50.4961
  0
LINE
  8
0
 10
3
 20
50.4961
 11
2.82048
 21
50.3883
  0
LINE
  8
0
 10
2.82048
 20
50.3883
 11
2.64484
 21
50.2742
  0
LINE
  8
0
 10
2.64484
 20
50.2742
 11
2.47328
 21
50.1541
  0
LINE
  8
0
 10
2.47328
 20
50.1541
 11
2.30603
 21
50.0281
  0
LINE
  8
0
 10
2.30603
 20
50.0281
 11
2.14326
 21
49.8963
  0
LINE
  8
0
 10
2.14326
 20
49.8963
 11
1.98521
 21
49.7589
  0
LINE
  8
0
 10
1.98521
 20
49.7589
 11
1.83205
 21
49.616
  0
LINE
  8
0
 10
1.83205
 20
49.616
 11
1.68396
 21
49.4679
  0
LINE
  8
0
 10
1.68396
 20
49.4679
 11
1.54112
 21
49.3148
  0
LINE
  8
0
 10
1.54112
 20
49.3148
 11
1.40373
 21
49.1567
  0
LINE
  8
0
 10
1.40373
 20
49.1567
 11
1.27193
 21
48.994
  0
LINE
  8
0
 10
1.27193
 20
48.994
 11
1.14589
 21
48.8267
  0
LINE
  8
0
 10
1.14589
 20
48.8267
 11
1.02577
 21
48.6552
  0
LINE
  8
0
 10
1.02577
 20
48.6552
 11
0.911697
 21
48.4795
  0
LINE
  8
0
 10
0.911697
 20
48.4795
 11
0.803848
 21
48.3
  0
LINE
  8
0
 10
0.803848
 20
48.3
 11
0.702301
 21
48.1168
  0
LINE
  8
0
 10
0.702301
 20
48.1168
 11
0.607224
 21
47.9302
  0
LINE
  8
0
 10
0.607224
 20
47.9302
 11
0.518723
 21
47.7404
  0
LINE
  8
0
 10
0.518723
 20
47.7404
 11
0.43689
 21
47.5476
  0
LINE
  8
0
 10
0.43689
 20
47.5476
 11
0.361832
 21
47.3521
  0
LINE
  8
0
 10
0.361832
 20
47.3521
 11
0.293655
 21
47.1541
  0
LINE
  8
0
 10
0.293655
 20
47.1541
 11
0.232422
 21
46.9538
  0
LINE
  8
0
 10
0.232422
 20
46.9538
 11
0.178223
 21
46.7515
  0
LINE
  8
0
 10
0.178223
 20
46.7515
 11
0.131104
 21
46.5475
  0
LINE
  8
0
 10
0.131104
 20
46.5475
 11
0.0911407
 21
46.3419
  0
LINE
  8
0
 10
0.0911407
 20
46.3419
 11
0.0583801
 21
46.135
  0
LINE
  8
0
 10
0.0583801
 20
46.135
 11
0.0328674
 21
45.9272
  0
LINE
  8
0
 10
0.0328674
 20
45.9272
 11
0.0146027
 21
45.7185
  0
LINE
  8
0
 10
0.0146027
 20
45.7185
 11
0.00364685
 21
45.5094
  0
LINE
  8
0
 10
0.00364685
 20
45.5094
 11
0
 21
45.3
  0
LINE
  8
0
 10
0
 20
45.3
 11
0
 21
6
  0
LINE
  8
0
 10
0
 20
6
 11
0.00364685
 21
5.7906
  0
LINE
  8
0
 10
0.00364685
 20
5.7906
 11
0.0146027
 21
5.58145
  0
LINE
  8
0
 10
0.0146027
 20
5.58145
 11
0.0328674
 21
5.37282
  0
LINE
  8
0
 10
0.0328674
 20
5.37282
 11
0.0583801
 21
5.16495
  0
LINE
  8
0
 10
0.0583801
 20
5.16495
 11
0.0911407
 21
4.9581
  0
LINE
  8
0
 10
0.0911407
 20
4.9581
 11
0.131104
 21
4.75252
  0
LINE
  8
0
 10
0.131104
 20
4.75252
 11
0.178223
 21
4.54846
  0
LINE
  8
0
 10
0.178223
 20
4.54846
 11
0.232422
 21
4.34618
  0
LINE
  8
0
 10
0.232422
 20
4.34618
 11
0.293655
 21
4.14589
  0
LINE
  8
0
 10
0.293655
 20
4.14589
 11
0.361832
 21
3.94788
  0
LINE
  8
0
 10
0.361832
 20
3.94788
 11
0.43689
 21
3.75235
  0
LINE
  8
0
 10
0.43689
 20
3.75235
 11
0.518723
 21
3.55957
  0
LINE
  8
0
 10
0.518723
 20
3.55957
 11
0.607224
 21
3.36977
  0
LINE
  8
0
 10
0.607224
 20
3.36977
 11
0.702301
 21
3.18317
  0
LINE
  8
0
 10
0.702301
 20
3.18317
 11
0.803848
 21
3
  0
LINE
  8
0
 10
0.803848
 20
3
 11
0.911697
 21
2.82048
  0
LINE
  8
0
 10
0.911697
 20
2.82048
 11
1.02577
 21
2.64484
  0
LINE
  8
0
 10
1.02577
 20
2.64484
 11
1.14589
 21
2.47328
  0
LINE
  8
0
 10
1.14589
 20
2.47328
 11
1.27193
 21
2.30603
  0
LINE
  8
0
 10
1.27193
 20
2.30603
 11
1.40373
 21
2.14326
  0
LINE
  8
0
 10
1.40373
 20
2.14326
 11
1.54112
 21
1.98521
  0
LINE
  8
0
 10
1.54112
 20
1.98521
 11
1.68396
 21
1.83205
  0
LINE
  8
0
 10
1.68396
 20
1.83205
 11
1.83205
 21
1.68396
  0
LINE
  8
0
 10
1.83205
 20
1.68396
 11
1.98521
 21
1.54112
  0
LINE
  8
0
 10
1.98521
 20
1.54112
 11
2.14326
 21
1.40373
  0
LINE
  8
0
 10
2.14326
 20
1.40373
 11
2.30603
 21
1.27193
  0
LINE
  8
0
 10
2.30603
 20
1.27193
 11
2.47328
 21
1.14589
  0
LINE
  8
0
 10
2.47328
 20
1.14589
 11
2.64484
 21
1.02577
  0
LINE
  8
0
 10
2.64484
 20
1.02577
 11
2.82048
 21
0.911697
  0
LINE
  8
0
 10
2.82048
 20
0.911697
 11
3
 21
0.803848
  0
LINE
  8
0
 10
3
 20
0.803848
 11
3.18317
 21
0.702301
  0
LINE
  8
0
 10
3.18317
 20
0.702301
 11
3.36977
 21
0.607224
  0
LINE
  8
0
 10
3.36977
 20
0.607224
 11
3.55957
 21
0.518723
  0
LINE
  8
0
 10
3.55957
 20
0.518723
 11
3.75235
 21
0.43689
  0
LINE
  8
0
 10
3.75235
 20
0.43689
 11
3.94788
 21
0.361832
  0
LINE
  8
0
 10
3.94788
 20
0.361832
 11
4.14589
 21
0.293655
  0
LINE
  8
0
 10
4.14589
 20
0.293655
 11
4.34618
 21
0.232422
  0
LINE
  8
0
 10
4.34618
 20
0.232422
 11
4.54846
 21
0.178223
  0
LINE
  8
0
 10
4.54846
 20
0.178223
 11
4.75252
 21
0.131104
  0
LINE
  8
0
 10
4.75252
 20
0.131104
 11
4.9581
 21
0.0911407
  0
LINE
  8
0
 10
4.9581
 20
0.0911407
 11
5.16495
 21
0.0583801
  0
LINE
  8
0
 10
5.16495
 20
0.0583801
 11
5.37282
 21
0.0328674
  0
LINE
  8
0
 10
5.37282
 20
0.0328674
 11
5.58145
 21
0.0146027
  0
LINE
  8
0
 10
5.58145
 20
0.0146027
 11
5.7906
 21
0.00364685
  0
LINE
  8
0
 10
5.7906
 20
0.00364685
 11
6
 21
0
  0
LINE
  8
0
 10
6
 20
0
 11
71
 21
0
  0
LINE
  8
0
 10
71
 20
0
 11
71.2094
 21
0.00364685
  0
LINE
  8
0
 10
4.94415
 20
36.901
 11
4.88838
 21
36.9039
  0
LINE
  8
0
 10
4.88838
 20
36.9039
 11
4.83275
 21
36.9088
  0
LINE
  8
0
 10
4.83275
 20
36.9088
 11
4.77731
 21
36.9156
  0
LINE
  8
0
 10
4.77731
 20
36.9156
 11
4.72215
 21
36.9243
  0
LINE
  8
0
 10
4.72215
 20
36.9243
 11
4.66733
 21
36.935
  0
LINE
  8
0
 10
4.66733
 20
36.935
 11
4.61292
 21
36.9475
  0
LINE
  8
0
 10
4.61292
 20
36.9475
 11
4.55898
 21
36.962
  0
LINE
  8
0
 10
4.55898
 20
36.962
 11
4.50557
 21
36.9783
  0
LINE
  8
0
 10
4.50557
 20
36.9783
 11
4.45276
 21
36.9965
  0
LINE
  8
0
 10
4.45276
 20
36.9965
 11
4.40062
 21
37.0165
  0
LINE
  8
0
 10
4.40062
 20
37.0165
 11
4.34921
 21
37.0383
  0
LINE
  8
0
 10
4.34921
 20
37.0383
 11
4.2986
 21
37.0619
  0
LINE
  8
0
 10
4.2986
 20
37.0619
 11
4.24884
 21
37.0873
  0
LINE
  8
0
 10
4.24884
 20
37.0873
 11
4.2
 21
37.1143
  0
LINE
  8
0
 10
4.2
 20
37.1143
 11
4.15211
 21
37.1431
  0
LINE
  8
0
 10
4.15211
 20
37.1431
 11
4.10529
 21
37.1735
  0
LINE
  8
0
 10
4.10529
 20
37.1735
 11
4.05954
 21
37.2056
  0
LINE
  8
0
 10
4.05954
 20
37.2056
 11
4.01494
 21
37.2392
  0
LINE
  8
0
 10
4.01494
 20
37.2392
 11
3.97153
 21
37.2743
  0
LINE
  8
0
 10
3.97153
 20
37.2743
 11
3.92938
 21
37.311
  0
LINE
  8
0
 10
3.92938
 20
37.311
 11
3.88853
 21
37.349
  0
LINE
  8
0
 10
3.88853
 20
37.349
 11
3.84904
 21
37.3885
  0
LINE
  8
0
 10
3.84904
 20
37.3885
 11
3.81096
 21
37.4294
  0
LINE
  8
0
 10
3.81096
 20
37.4294
 11
3.77432
 21
37.4715
  0
LINE
  8
0
 10
3.77432
 20
37.4715
 11
3.73918
 21
37.5149
  0
LINE
  8
0
 10
3.73918
 20
37.5149
 11
3.70557
 21
37.5595
  0
LINE
  8
0
 10
3.70557
 20
37.5595
 11
3.67354
 21
37.6053
  0
LINE
  8
0
 10
3.67354
 20
37.6053
 11
3.64311
 21
37.6521
  0
LINE
  8
0
 10
3.64311
 20
37.6521
 11
3.61435
 21
37.7
  0
LINE
  8
0
 10
3.61435
 20
37.7
 11
3.58728
 21
37.7488
  0
LINE
  8
0
 10
3.58728
 20
37.7488
 11
3.56192
 21
37.7986
  0
LINE
  8
0
 10
3.56192
 20
37.7986
 11
3.53831
 21
37.8492
  0
LINE
  8
0
 10
3.53831
 20
37.8492
 11
3.51649
 21
37.9006
  0
LINE
  8
0
 10
3.51649
 20
37.9006
 11
3.49649
 21
37.9528
  0
LINE
  8
0
 10
3.49649
 20
37.9528
 11
3.4783
 21
38.0056
  0
LINE
  8
0
 10
3.4783
 20
38.0056
 11
3.46198
 21
38.059
  0
LINE
  8
0
 10
3.46198
 20
38.059
 11
3.44753
 21
38.1129
  0
LINE
  8
0
 10
3.44753
 20
38.1129
 11
3.43495
 21
38.1673
  0
LINE
  8
0
 10
3.43495
 20
38.1673
 11
3.4243
 21
38.2222
  0
LINE
  8
0
 10
3.4243
 20
38.2222
 11
3.41556
 21
38.2773
  0
LINE
  8
0
 10
3.41556
 20
38.2773
 11
3.40875
 21
38.3327
  0
LINE
  8
0
 10
3.40875
 20
38.3327
 11
3.40388
 21
38.3884
  0
LINE
  8
0
 10
3.40388
 20
38.3884
 11
3.40097
 21
38.4442
  0
LINE
  8
0
 10
3.40097
 20
38.4442
 11
3.39999
 21
38.5
  0
LINE
  8
0
 10
3.39999
 20
38.5
 11
3.40097
 21
38.5558
  0
LINE
  8
0
 10
3.40097
 20
38.5558
 11
3.40388
 21
38.6116
  0
LINE
  8
0
 10
3.40388
 20
38.6116
 11
3.40875
 21
38.6672
  0
LINE
  8
0
 10
3.40875
 20
38.6672
 11
3.41556
 21
38.7227
  0
LINE
  8
0
 10
3.41556
 20
38.7227
 11
3.4243
 21
38.7778
  0
LINE
  8
0
 10
3.4243
 20
38.7778
 11
3.43495
 21
38.8327
  0
LINE
  8
0
 10
3.43495
 20
38.8327
 11
3.44753
 21
38.8871
  0
LINE
  8
0
 10
3.44753
 20
38.8871
 11
3.46198
 21
38.941
  0
LINE
  8
0
 10
3.46198
 20
38.941
 11
3.4783
 21
38.9944
  0
LINE
  8
0
 10
3.4783
 20
38.9944
 11
3.49649
 21
39.0472
  0
LINE
  8
0
 10
3.49649
 20
39.0472
 11
3.51649
 21
39.0994
  0
LINE
  8
0
 10
3.51649
 20
39.0994
 11
3.53831
 21
39.1508
  0
LINE
  8
0
 10
3.53831
 20
39.1508
 11
3.56192
 21
39.2014
  0
LINE
  8
0
 10
3.56192
 20
39.2014
 11
3.58728
 21
39.2511
  0
LINE
  8
0
 10
3.58728
 20
39.2511
 11
3.61435
 21
39.3
  0
LINE
  8
0
 10
3.61435
 20
39.3
 11
3.64311
 21
39.3479
  0
LINE
  8
0
 10
3.64311
 20
39.3479
 11
3.67354
 21
39.3947
  0
LINE
  8
0
 10
3.67354
 20
39.3947
 11
3.70557
 21
39.4404
  0
LINE
  8
0
 10
3.70557
 20
39.4404
 11
3.73918
 21
39.485
  0
LINE
  8
0
 10
3.73918
 20
39.485
 11
3.77432
 21
39.5285
  0
LINE
  8
0
 10
3.77432
 20
39.5285
 11
3.81096
 21
39.5706
  0
LINE
  8
0
 10
3.81096
 20
39.5706
 11
3.84904
 21
39.6115
  0
LINE
  8
0
 10
3.84904
 20
39.6115
 11
3.88853
 21
39.6509
  0
LINE
  8
0
 10
3.88853
 20
39.6509
 11
3.92938
 21
39.689
  0
LINE
  8
0
 10
3.92938
 20
39.689
 11
3.97153
 21
39.7257
  0
LINE
  8
0
 10
3.97153
 20
39.7257
 11
4.01494
 21
39.7608
  0
LINE
  8
0
 10
4.01494
 20
39.7608
 11
4.05954
 21
39.7944
  0
LINE
  8
0
 10
4.05954
 20
39.7944
 11
4.10529
 21
39.8265
  0
LINE
  8
0
 10
4.10529
 20
39.8265
 11
4.15211
 21
39.8569
  0
LINE
  8
0
 10
4.15211
 20
39.8569
 11
4.2
 21
39.8856
  0
LINE
  8
0
 10
4.2
 20
39.8856
 11
4.24884
 21
39.9127
  0
LINE
  8
0
 10
4.24884
 20
39.9127
 11
4.2986
 21
39.9381
  0
LINE
  8
0
 10
4.2986
 20
39.9381
 11
4.34921
 21
39.9617
  0
LINE
  8
0
 10
4.34921
 20
39.9617
 11
4.40062
 21
39.9835
  0
LINE
  8
0
 10
4.40062
 20
39.9835
 11
4.45276
 21
40.0035
  0
LINE
  8
0
 10
4.45276
 20
40.0035
 11
4.50557
 21
40.0217
  0
LINE
  8
0
 10
4.50557
 20
40.0217
 11
4.55898
 21
40.038
  0
LINE
  8
0
 10
4.55898
 20
40.038
 11
4.61292
 21
40.0525
  0
LINE
  8
0
 10
4.61292
 20
40.0525
 11
4.66733
 21
40.065
  0
LINE
  8
0
 10
4.66733
 20
40.065
 11
4.72215
 21
40.0757
  0
LINE
  8
0
 10
4.72215
 20
40.0757
 11
4.77731
 21
40.0844
  0
LINE
  8
0
 10
4.77731
 20
40.0844
 11
4.83275
 21
40.0912
  0
LINE
  8
0
 10
4.83275
 20
40.0912
 11
4.88838
 21
40.0961
  0
LINE
  8
0
 10
4.88838
 20
40.0961
 11
4.94415
 21
40.099
  0
LINE
  8
0
 10
4.94415
 20
40.099
 11
5
 21
40.1
  0
LINE
  8
0
 10
5
 20
40.1
 11
5.05583
 21
40.099
  0
LINE
  8
0
 10
5.05583
 20
40.099
 11
5.1116
 21
40.0961
  0
LINE
  8
0
 10
5.1116
 20
40.0961
 11
5.16724
 21
40.0912
  0
LINE
  8
0
 10
5.16724
 20
40.0912
 11
5.22267
 21
40.0844
  0
LINE
  8
0
 10
5.22267
 20
40.0844
 11
5.27783
 21
40.0757
  0
LINE
  8
0
 10
5.27783
 20
40.0757
 11
5.33266
 21
40.065
  0
LINE
  8
0
 10
5.33266
 20
40.065
 11
5.38707
 21
40.0525
  0
LINE
  8
0
 10
5.38707
 20
40.0525
 11
5.44101
 21
40.038
  0
LINE
  8
0
 10
5.44101
 20
40.038
 11
5.49442
 21
40.0217
  0
LINE
  8
0
 10
5.49442
 20
40.0217
 11
5.54723
 21
40.0035
  0
LINE
  8
0
 10
5.54723
 20
40.0035
 11
5.59937
 21
39.9835
  0
LINE
  8
0
 10
5.59937
 20
39.9835
 11
5.65077
 21
39.9617
  0
LINE
  8
0
 10
5.65077
 20
39.9617
 11
5.70139
 21
39.9381
  0
LINE
  8
0
 10
5.70139
 20
39.9381
 11
5.75114
 21
39.9127
  0
LINE
  8
0
 10
5.75114
 20
39.9127
 11
5.79999
 21
39.8856
  0
LINE
  8
0
 10
5.79999
 20
39.8856
 11
5.84787
 21
39.8569
  0
LINE
  8
0
 10
5.84787
 20
39.8569
 11
5.8947
 21
39.8265
  0
LINE
  8
0
 10
5.8947
 20
39.8265
 11
5.94044
 21
39.7944
  0
LINE
  8
0
 10
5.94044
 20
39.7944
 11
5.98505
 21
39.7608
  0
LINE
  8
0
 10
5.98505
 20
39.7608
 11
6.02846
 21
39.7257
  0
LINE
  8
0
 10
6.02846
 20
39.7257
 11
6.0706
 21
39.689
  0
LINE
  8
0
 10
6.0706
 20
39.689
 11
6.11145
 21
39.6509
  0
LINE
  8
0
 10
6.11145
 20
39.6509
 11
6.15094
 21
39.6115
  0
LINE
  8
0
 10
6.15094
 20
39.6115
 11
6.18903
 21
39.5706
  0
LINE
  8
0
 10
6.18903
 20
39.5706
 11
6.22566
 21
39.5285
  0
LINE
  8
0
 10
6.22566
 20
39.5285
 11
6.2608
 21
39.485
  0
LINE
  8
0
 10
6.2608
 20
39.485
 11
6.29442
 21
39.4404
  0
LINE
  8
0
 10
6.29442
 20
39.4404
 11
6.32645
 21
39.3947
  0
LINE
  8
0
 10
6.32645
 20
39.3947
 11
6.35687
 21
39.3479
  0
LINE
  8
0
 10
6.35687
 20
39.3479
 11
6.38564
 21
39.3
  0
LINE
  8
0
 10
6.38564
 20
39.3
 11
6.4127
 21
39.2511
  0
LINE
  8
0
 10
6.4127
 20
39.2511
 11
6.43806
 21
39.2014
  0
LINE
  8
0
 10
6.43806
 20
39.2014
 11
6.46167
 21
39.1508
  0
LINE
  8
0
 10
6.46167
 20
39.1508
 11
6.48349
 21
39.0994
  0
LINE
  8
0
 10
6.48349
 20
39.0994
 11
6.50349
 21
39.0472
  0
LINE
  8
0
 10
6.50349
 20
39.0472
 11
6.52168
 21
38.9944
  0
LINE
  8
0
 10
6.52168
 20
38.9944
 11
6.53801
 21
38.941
  0
LINE
  8
0
 10
6.53801
 20
38.941
 11
6.55246
 21
38.8871
  0
LINE
  8
0
 10
6.55246
 20
38.8871
 11
6.56503
 21
38.8327
  0
LINE
  8
0
 10
6.56503
 20
38.8327
 11
6.57568
 21
38.7778
  0
LINE
  8
0
 10
6.57568
 20
38.7778
 11
6.58443
 21
38.7227
  0
LINE
  8
0
 10
6.58443
 20
38.7227
 11
6.59123
 21
38.6672
  0
LINE
  8
0
 10
6.59123
 20
38.6672
 11
6.5961
 21
38.6116
  0
LINE
  8
0
 10
6.5961
 20
38.6116
 11
6.59901
 21
38.5558
  0
LINE
  8
0
 10
6.59901
 20
38.5558
 11
6.59999
 21
38.5
  0
LINE
  8
0
 10
6.59999
 20
38.5
 11
6.59901
 21
38.4442
  0
LINE
  8
0
 10
6.59901
 20
38.4442
 11
6.5961
 21
38.3884
  0
LINE
  8
0
 10
6.5961
 20
38.3884
 11
6.59123
 21
38.3327
  0
LINE
  8
0
 10
6.59123
 20
38.3327
 11
6.58443
 21
38.2773
  0
LINE
  8
0
 10
6.58443
 20
38.2773
 11
6.57568
 21
38.2222
  0
LINE
  8
0
 10
6.57568
 20
38.2222
 11
6.56503
 21
38.1673
  0
LINE
  8
0
 10
6.56503
 20
38.1673
 11
6.55246
 21
38.1129
  0
LINE
  8
0
 10
6.55246
 20
38.1129
 11
6.53801
 21
38.059
  0
LINE
  8
0
 10
6.53801
 20
38.059
 11
6.52168
 21
38.0056
  0
LINE
  8
0
 10
6.52168
 20
38.0056
 11
6.50349
 21
37.9528
  0
LINE
  8
0
 10
6.50349
 20
37.9528
 11
6.48349
 21
37.9006
  0
LINE
  8
0
 10
6.48349
 20
37.9006
 11
6.46167
 21
37.8492
  0
LINE
  8
0
 10
6.46167
 20
37.8492
 11
6.43806
 21
37.7986
  0
LINE
  8
0
 10
6.43806
 20
37.7986
 11
6.4127
 21
37.7488
  0
LINE
  8
0
 10
6.4127
 20
37.7488
 11
6.38564
 21
37.7
  0
LINE
  8
0
 10
6.38564
 20
37.7
 11
6.35687
 21
37.6521
  0
LINE
  8
0
 10
6.35687
 20
37.6521
 11
6.32645
 21
37.6053
  0
LINE
  8
0
 10
6.32645
 20
37.6053
 11
6.29442
 21
37.5595
  0
LINE
  8
0
 10
6.29442
 20
37.5595
 11
6.2608
 21
37.5149
  0
LINE
  8
0
 10
6.2608
 20
37.5149
 11
6.22566
 21
37.4715
  0
LINE
  8
0
 10
6.22566
 20
37.4715
 11
6.18903
 21
37.4294
  0
LINE
  8
0
 10
6.18903
 20
37.4294
 11
6.15094
 21
37.3885
  0
LINE
  8
0
 10
6.15094
 20
37.3885
 11
6.11145
 21
37.349
  0
LINE
  8
0
 10
6.11145
 20
37.349
 11
6.0706
 21
37.311
  0
LINE
  8
0
 10
6.0706
 20
37.311
 11
6.02846
 21
37.2743
  0
LINE
  8
0
 10
6.02846
 20
37.2743
 11
5.98505
 21
37.2392
  0
LINE
  8
0
 10
5.98505
 20
37.2392
 11
5.94044
 21
37.2056
  0
LINE
  8
0
 10
5.94044
 20
37.2056
 11
5.8947
 21
37.1735
  0
LINE
  8
0
 10
5.8947
 20
37.1735
 11
5.84787
 21
37.1431
  0
LINE
  8
0
 10
5.84787
 20
37.1431
 11
5.79999
 21
37.1143
  0
LINE
  8
0
 10
5.79999
 20
37.1143
 11
5.75114
 21
37.0873
  0
LINE
  8
0
 10
5.75114
 20
37.0873
 11
5.70139
 21
37.0619
  0
LINE
  8
0
 10
5.70139
 20
37.0619
 11
5.65077
 21
37.0383
  0
LINE
  8
0
 10
5.65077
 20
37.0383
 11
5.59937
 21
37.0165
  0
LINE
  8
0
 10
5.59937
 20
37.0165
 11
5.54723
 21
36.9965
  0
LINE
  8
0
 10
5.54723
 20
36.9965
 11
5.49442
 21
36.9783
  0
LINE
  8
0
 10
5.49442
 20
36.9783
 11
5.44101
 21
36.962
  0
LINE
  8
0
 10
5.44101
 20
36.962
 11
5.38707
 21
36.9475
  0
LINE
  8
0
 10
5.38707
 20
36.9475
 11
5.33266
 21
36.935
  0
LINE
  8
0
 10
5.33266
 20
36.935
 11
5.27783
 21
36.9243
  0
LINE
  8
0
 10
5.27783
 20
36.9243
 11
5.22267
 21
36.9156
  0
LINE
  8
0
 10
5.22267
 20
36.9156
 11
5.16724
 21
36.9088
  0
LINE
  8
0
 10
5.16724
 20
36.9088
 11
5.1116
 21
36.9039
  0
LINE
  8
0
 10
5.1116
 20
36.9039
 11
5.05583
 21
36.901
  0
LINE
  8
0
 10
5.05583
 20
36.901
 11
5
 21
36.9
  0
LINE
  8
0
 10
5
 20
36.9
 11
4.94415
 21
36.901
  0
LINE
  8
0
 10
71.9442
 20
36.901
 11
71.8884
 21
36.9039
  0
LINE
  8
0
 10
71.8884
 20
36.9039
 11
71.8327
 21
36.9088
  0
LINE
  8
0
 10
71.8327
 20
36.9088
 11
71.7773
 21
36.9156
  0
LINE
  8
0
 10
71.7773
 20
36.9156
 11
71.7222
 21
36.9243
  0
LINE
  8
0
 10
71.7222
 20
36.9243
 11
71.6673
 21
36.935
  0
LINE
  8
0
 10
71.6673
 20
36.935
 11
71.6129
 21
36.9475
  0
LINE
  8
0
 10
71.6129
 20
36.9475
 11
71.559
 21
36.962
  0
LINE
  8
0
 10
71.559
 20
36.962
 11
71.5056
 21
36.9783
  0
LINE
  8
0
 10
71.5056
 20
36.9783
 11
71.4528
 21
36.9965
  0
LINE
  8
0
 10
71.4528
 20
36.9965
 11
71.4006
 21
37.0165
  0
LINE
  8
0
 10
71.4006
 20
37.0165
 11
71.3492
 21
37.0383
  0
LINE
  8
0
 10
71.3492
 20
37.0383
 11
71.2986
 21
37.0619
  0
LINE
  8
0
 10
71.2986
 20
37.0619
 11
71.2488
 21
37.0873
  0
LINE
  8
0
 10
71.2488
 20
37.0873
 11
71.2
 21
37.1143
  0
LINE
  8
0
 10
71.2
 20
37.1143
 11
71.1521
 21
37.1431
  0
LINE
  8
0
 10
71.1521
 20
37.1431
 11
71.1053
 21
37.1735
  0
LINE
  8
0
 10
71.1053
 20
37.1735
 11
71.0595
 21
37.2056
  0
LINE
  8
0
 10
71.0595
 20
37.2056
 11
71.0149
 21
37.2392
  0
LINE
  8
0
 10
71.0149
 20
37.2392
 11
70.9715
 21
37.2743
  0
LINE
  8
0
 10
70.9715
 20
37.2743
 11
70.9294
 21
37.311
  0
LINE
  8
0
 10
70.9294
 20
37.311
 11
70.8885
 21
37.349
  0
LINE
  8
0
 10
70.8885
 20
37.349
 11
70.8491
 21
37.3885
  0
LINE
  8
0
 10
70.8491
 20
37.3885
 11
70.811
 21
37.4294
  0
LINE
  8
0
 10
70.811
 20
37.4294
 11
70.7743
 21
37.4715
  0
LINE
  8
0
 10
70.7743
 20
37.4715
 11
70.7392
 21
37.5149
  0
LINE
  8
0
 10
70.7392
 20
37.5149
 11
70.7056
 21
37.5595
  0
LINE
  8
0
 10
70.7056
 20
37.5595
 11
70.6735
 21
37.6053
  0
LINE
  8
0
 10
70.6735
 20
37.6053
 11
70.6431
 21
37.6521
  0
LINE
  8
0
 10
70.6431
 20
37.6521
 11
70.6143
 21
37.7
  0
LINE
  8
0
 10
70.6143
 20
37.7
 11
70.5873
 21
37.7488
  0
LINE
  8
0
 10
70.5873
 20
37.7488
 11
70.5619
 21
37.7986
  0
LINE
  8
0
 10
70.5619
 20
37.7986
 11
70.5383
 21
37.8492
  0
LINE
  8
0
 10
70.5383
 20
37.8492
 11
70.5165
 21
37.9006
  0
LINE
  8
0
 10
70.5165
 20
37.9006
 11
70.4965
 21
37.9528
  0
LINE
  8
0
 10
70.4965
 20
37.9528
 11
70.4783
 21
38.0056
  0
LINE
  8
0
 10
70.4783
 20
38.0056
 11
70.462
 21
38.059
  0
LINE
  8
0
 10
70.462
 20
38.059
 11
70.4475
 21
38.1129
  0
LINE
  8
0
 10
70.4475
 20
38.1129
 11
70.435
 21
38.1673
  0
LINE
  8
0
 10
70.435
 20
38.1673
 11
70.4243
 21
38.2222
  0
LINE
  8
0
 10
70.4243
 20
38.2222
 11
70.4156
 21
38.2773
  0
LINE
  8
0
 10
70.4156
 20
38.2773
 11
70.4088
 21
38.3327
  0
LINE
  8
0
 10
70.4088
 20
38.3327
 11
70.4039
 21
38.3884
  0
LINE
  8
0
 10
70.4039
 20
38.3884
 11
70.401
 21
38.4442
  0
LINE
  8
0
 10
70.401
 20
38.4442
 11
70.4
 21
38.5
  0
LINE
  8
0
 10
70.4
 20
38.5
 11
70.401
 21
38.5558
  0
LINE
  8
0
 10
70.401
 20
38.5558
 11
70.4039
 21
38.6116
  0
LINE
  8
0
 10
70.4039
 20
38.6116
 11
70.4088
 21
38.6672
  0
LINE
  8
0
 10
70.4088
 20
38.6672
 11
70.4156
 21
38.7227
  0
LINE
  8
0
 10
70.4156
 20
38.7227
 11
70.4243
 21
38.7778
  0
LINE
  8
0
 10
70.4243
 20
38.7778
 11
70.435
 21
38.8327
  0
LINE
  8
0
 10
70.435
 20
38.8327
 11
70.4475
 21
38.8871
  0
LINE
  8
0
 10
70.4475
 20
38.8871
 11
70.462
 21
38.941
  0
LINE
  8
0
 10
70.462
 20
38.941
 11
70.4783
 21
38.9944
  0
LINE
  8
0
 10
70.4783
 20
38.9944
 11
70.4965
 21
39.0472
  0
LINE
  8
0
 10
70.4965
 20
39.0472
 11
70.5165
 21
39.0994
  0
LINE
  8
0
 10
70.5165
 20
39.0994
 11
70.5383
 21
39.1508
  0
LINE
  8
0
 10
70.5383
 20
39.1508
 11
70.5619
 21
39.2014
  0
LINE
  8
0
 10
70.5619
 20
39.2014
 11
70.5873
 21
39.2511
  0
LINE
  8
0
 10
70.5873
 20
39.2511
 11
70.6143
 21
39.3
  0
LINE
  8
0
 10
70.6143
 20
39.3
 11
70.6431
 21
39.3479
  0
LINE
  8
0
 10
70.6431
 20
39.3479
 11
70.6735
 21
39.3947
  0
LINE
  8
0
 10
70.6735
 20
39.3947
 11
70.7056
 21
39.4404
  0
LINE
  8
0
 10
70.7056
 20
39.4404
 11
70.7392
 21
39.485
  0
LINE
  8
0
 10
70.7392
 20
39.485
 11
70.7743
 21
39.5285
  0
LINE
  8
0
 10
70.7743
 20
39.5285
 11
70.811
 21
39.5706
  0
LINE
  8
0
 10
70.811
 20
39.5706
 11
70.8491
 21
39.6115
  0
LINE
  8
0
 10
70.8491
 20
39.6115
 11
70.8885
 21
39.6509
  0
LINE
  8
0
 10
70.8885
 20
39.6509
 11
70.9294
 21
39.689
  0
LINE
  8
0
 10
70.9294
 20
39.689
 11
70.9715
 21
39.7257
  0
LINE
  8
0
 10
70.9715
 20
39.7257
 11
71.0149
 21
39.7608
  0
LINE
  8
0
 10
71.0149
 20
39.7608
 11
71.0595
 21
39.7944
  0
LINE
  8
0
 10
71.0595
 20
39.7944
 11
71.1053
 21
39.8265
  0
LINE
  8
0
 10
71.1053
 20
39.8265
 11
71.1521
 21
39.8569
  0
LINE
  8
0
 10
71.1521
 20
39.8569
 11
71.2
 21
39.8856
  0
LINE
  8
0
 10
71.2
 20
39.8856
 11
71.2488
 21
39.9127
  0
LINE
  8
0
 10
71.2488
 20
39.9127
 11
71.2986
 21
39.9381
  0
LINE
  8
0
 10
71.2986
 20
39.9381
 11
71.3492
 21
39.9617
  0
LINE
  8
0
 10
71.3492
 20
39.9617
 11
71.4006
 21
39.9835
  0
LINE
  8
0
 10
71.4006
 20
39.9835
 11
71.4528
 21
40.0035
  0
LINE
  8
0
 10
71.4528
 20
40.0035
 11
71.5056
 21
40.0217
  0
LINE
  8
0
 10
71.5056
 20
40.0217
 11
71.559
 21
40.038
  0
LINE
  8
0
 10
71.559
 20
40.038
 11
71.6129
 21
40.0525
  0
LINE
  8
0
 10
71.6129
 20
40.0525
 11
71.6673
 21
40.065
  0
LINE
  8
0
 10
71.6673
 20
40.065
 11
71.7222
 21
40.0757
  0
LINE
  8
0
 10
71.7222
 20
40.0757
 11
71.7773
 21
40.0844
  0
LINE
  8
0
 10
71.7773
 20
40.0844
 11
71.8327
 21
40.0912
  0
LINE
  8
0
 10
71.8327
 20
40.0912
 11
71.8884
 21
40.0961
  0
LINE
  8
0
 10
71.8884
 20
40.0961
 11
71.9442
 21
40.099
  0
LINE
  8
0
 10
71.9442
 20
40.099
 11
72
 21
40.1
  0
LINE
  8
0
 10
72
 20
40.1
 11
72.0558
 21
40.099
  0
LINE
  8
0
 10
72.0558
 20
40.099
 11
72.1116
 21
40.0961
  0
LINE
  8
0
 10
72.1116
 20
40.0961
 11
72.1672
 21
40.0912
  0
LINE
  8
0
 10
72.1672
 20
40.0912
 11
72.2227
 21
40.0844
  0
LINE
  8
0
 10
72.2227
 20
40.0844
 11
72.2778
 21
40.0757
  0
LINE
  8
0
 10
72.2778
 20
40.0757
 11
72.3327
 21
40.065
  0
LINE
  8
0
 10
72.3327
 20
40.065
 11
72.3871
 21
40.0525
  0
LINE
  8
0
 10
72.3871
 20
40.0525
 11
72.441
 21
40.038
  0
LINE
  8
0
 10
72.441
 20
40.038
 11
72.4944
 21
40.0217
  0
LINE
  8
0
 10
72.4944
 20
40.0217
 11
72.5472
 21
40.0035
  0
LINE
  8
0
 10
72.5472
 20
40.0035
 11
72.5994
 21
39.9835
  0
LINE
  8
0
 10
72.5994
 20
39.9835
 11
72.6508
 21
39.9617
  0
LINE
  8
0
 10
72.6508
 20
39.9617
 11
72.7014
 21
39.9381
  0
LINE
  8
0
 10
72.7014
 20
39.9381
 11
72.7511
 21
39.9127
  0
LINE
  8
0
 10
72.7511
 20
39.9127
 11
72.8
 21
39.8856
  0
LINE
  8
0
 10
72.8
 20
39.8856
 11
72.8479
 21
39.8569
  0
LINE
  8
0
 10
72.8479
 20
39.8569
 11
72.8947
 21
39.8265
  0
LINE
  8
0
 10
72.8947
 20
39.8265
 11
72.9405
 21
39.7944
  0
LINE
  8
0
 10
72.9405
 20
39.7944
 11
72.9851
 21
39.7608
  0
LINE
  8
0
 10
72.9851
 20
39.7608
 11
73.0285
 21
39.7257
  0
LINE
  8
0
 10
73.0285
 20
39.7257
 11
73.0706
 21
39.689
  0
LINE
  8
0
 10
73.0706
 20
39.689
 11
73.1115
 21
39.6509
  0
LINE
  8
0
 10
73.1115
 20
39.6509
 11
73.1509
 21
39.6115
  0
LINE
  8
0
 10
73.1509
 20
39.6115
 11
73.189
 21
39.5706
  0
LINE
  8
0
 10
73.189
 20
39.5706
 11
73.2257
 21
39.5285
  0
LINE
  8
0
 10
73.2257
 20
39.5285
 11
73.2608
 21
39.485
  0
LINE
  8
0
 10
73.2608
 20
39.485
 11
73.2944
 21
39.4404
  0
LINE
  8
0
 10
73.2944
 20
39.4404
 11
73.3265
 21
39.3947
  0
LINE
  8
0
 10
73.3265
 20
39.3947
 11
73.3569
 21
39.3479
  0
LINE
  8
0
 10
73.3569
 20
39.3479
 11
73.3856
 21
39.3
  0
LINE
  8
0
 10
73.3856
 20
39.3
 11
73.4127
 21
39.2511
  0
LINE
  8
0
 10
73.4127
 20
39.2511
 11
73.4381
 21
39.2014
  0
LINE
  8
0
 10
73.4381
 20
39.2014
 11
73.4617
 21
39.1508
  0
LINE
  8
0
 10
73.4617
 20
39.1508
 11
73.4835
 21
39.0994
  0
LINE
  8
0
 10
73.4835
 20
39.0994
 11
73.5035
 21
39.0472
  0
LINE
  8
0
 10
73.5035
 20
39.0472
 11
73.5217
 21
38.9944
  0
LINE
  8
0
 10
73.5217
 20
38.9944
 11
73.538
 21
38.941
  0
LINE
  8
0
 10
73.538
 20
38.941
 11
73.5525
 21
38.8871
  0
LINE
  8
0
 10
73.5525
 20
38.8871
 11
73.565
 21
38.8327
  0
LINE
  8
0
 10
73.565
 20
38.8327
 11
73.5757
 21
38.7778
  0
LINE
  8
0
 10
73.5757
 20
38.7778
 11
73.5844
 21
38.7227
  0
LINE
  8
0
 10
73.5844
 20
38.7227
 11
73.5912
 21
38.6672
  0
LINE
  8
0
 10
73.5912
 20
38.6672
 11
73.5961
 21
38.6116
  0
LINE
  8
0
 10
73.5961
 20
38.6116
 11
73.599
 21
38.5558
  0
LINE
  8
0
 10
73.599
 20
38.5558
 11
73.6
 21
38.5
  0
LINE
  8
0
 10
73.6
 20
38.5
 11
73.599
 21
38.4442
  0
LINE
  8
0
 10
73.599
 20
38.4442
 11
73.5961
 21
38.3884
  0
LINE
  8
0
 10
73.5961
 20
38.3884
 11
73.5912
 21
38.3327
  0
LINE
  8
0
 10
73.5912
 20
38.3327
 11
73.5844
 21
38.2773
  0
LINE
  8
0
 10
73.5844
 20
38.2773
 11
73.5757
 21
38.2222
  0
LINE
  8
0
 10
73.5757
 20
38.2222
 11
73.565
 21
38.1673
  0
LINE
  8
0
 10
73.565
 20
38.1673
 11
73.5525
 21
38.1129
  0
LINE
  8
0
 10
73.5525
 20
38.1129
 11
73.538
 21
38.059
  0
LINE
  8
0
 10
73.538
 20
38.059
 11
73.5217
 21
38.0056
  0
LINE
  8
0
 10
73.5217
 20
38.0056
 11
73.5035
 21
37.9528
  0
LINE
  8
0
 10
73.5035
 20
37.9528
 11
73.4835
 21
37.9006
  0
LINE
  8
0
 10
73.4835
 20
37.9006
 11
73.4617
 21
37.8492
  0
LINE
  8
0
 10
73.4617
 20
37.8492
 11
73.4381
 21
37.7986
  0
LINE
  8
0
 10
73.4381
 20
37.7986
 11
73.4127
 21
37.7488
  0
LINE
  8
0
 10
73.4127
 20
37.7488
 11
73.3856
 21
37.7
  0
LINE
  8
0
 10
73.3856
 20
37.7
 11
73.3569
 21
37.6521
  0
LINE
  8
0
 10
73.3569
 20
37.6521
 11
73.3265
 21
37.6053
  0
LINE
  8
0
 10
73.3265
 20
37.6053
 11
73.2944
 21
37.5595
  0
LINE
  8
0
 10
73.2944
 20
37.5595
 11
73.2608
 21
37.5149
  0
LINE
  8
0
 10
73.2608
 20
37.5149
 11
73.2257
 21
37.4715
  0
LINE
  8
0
 10
73.2257
 20
37.4715
 11
73.189
 21
37.4294
  0
LINE
  8
0
 10
73.189
 20
37.4294
 11
73.1509
 21
37.3885
  0
LINE
  8
0
 10
73.1509
 20
37.3885
 11
73.1115
 21
37.349
  0
LINE
  8
0
 10
73.1115
 20
37.349
 11
73.0706
 21
37.311
  0
LINE
  8
0
 10
73.0706
 20
37.311
 11
73.0285
 21
37.2743
  0
LINE
  8
0
 10
73.0285
 20
37.2743
 11
72.9851
 21
37.2392
  0
LINE
  8
0
 10
72.9851
 20
37.2392
 11
72.9405
 21
37.2056
  0
LINE
  8
0
 10
72.9405
 20
37.2056
 11
72.8947
 21
37.1735
  0
LINE
  8
0
 10
72.8947
 20
37.1735
 11
72.8479
 21
37.1431
  0
LINE
  8
0
 10
72.8479
 20
37.1431
 11
72.8
 21
37.1143
  0
LINE
  8
0
 10
72.8
 20
37.1143
 11
72.7511
 21
37.0873
  0
LINE
  8
0
 10
72.7511
 20
37.0873
 11
72.7014
 21
37.0619
  0
LINE
  8
0
 10
72.7014
 20
37.0619
 11
72.6508
 21
37.0383
  0
LINE
  8
0
 10
72.6508
 20
37.0383
 11
72.5994
 21
37.0165
  0
LINE
  8
0
 10
72.5994
 20
37.0165
 11
72.5472
 21
36.9965
  0
LINE
  8
0
 10
72.5472
 20
36.9965
 11
72.4944
 21
36.9783
  0
LINE
  8
0
 10
72.4944
 20
36.9783
 11
72.441
 21
36.962
  0
LINE
  8
0
 10
72.441
 20
36.962
 11
72.3871
 21
36.9475
  0
LINE
  8
0
 10
72.3871
 20
36.9475
 11
72.3327
 21
36.935
  0
LINE
  8
0
 10
72.3327
 20
36.935
 11
72.2778
 21
36.9243
  0
LINE
  8
0
 10
72.2778
 20
36.9243
 11
72.2227
 21
36.9156
  0
LINE
  8
0
 10
72.2227
 20
36.9156
 11
72.1672
 21
36.9088
  0
LINE
  8
0
 10
72.1672
 20
36.9088
 11
72.1116
 21
36.9039
  0
LINE
  8
0
 10
72.1116
 20
36.9039
 11
72.0558
 21
36.901
  0
LINE
  8
0
 10
72.0558
 20
36.901
 11
72
 21
36.9
  0
LINE
  8
0
 10
72
 20
36.9
 11
71.9442
 21
36.901
  0
LINE
  8
0
 10
4.94415
 20
3.40097
 11
4.88838
 21
3.40388
  0
LINE
  8
0
 10
4.88838
 20
3.40388
 11
4.83275
 21
3.40875
  0
LINE
  8
0
 10
4.83275
 20
3.40875
 11
4.77731
 21
3.41556
  0
LINE
  8
0
 10
4.77731
 20
3.41556
 11
4.72215
 21
3.4243
  0
LINE
  8
0
 10
4.72215
 20
3.4243
 11
4.66733
 21
3.43495
  0
LINE
  8
0
 10
4.66733
 20
3.43495
 11
4.61292
 21
3.44753
  0
LINE
  8
0
 10
4.61292
 20
3.44753
 11
4.55898
 21
3.46198
  0
LINE
  8
0
 10
4.55898
 20
3.46198
 11
4.50557
 21
3.4783
  0
LINE
  8
0
 10
4.50557
 20
3.4783
 11
4.45276
 21
3.49649
  0
LINE
  8
0
 10
4.45276
 20
3.49649
 11
4.40062
 21
3.51649
  0
LINE
  8
0
 10
4.40062
 20
3.51649
 11
4.34921
 21
3.53831
  0
LINE
  8
0
 10
4.34921
 20
3.53831
 11
4.2986
 21
3.56192
  0
LINE
  8
0
 10
4.2986
 20
3.56192
 11
4.24884
 21
3.58728
  0
LINE
  8
0
 10
4.24884
 20
3.58728
 11
4.2
 21
3.61435
  0
LINE
  8
0
 10
4.2
 20
3.61435
 11
4.15211
 21
3.64311
  0
LINE
  8
0
 10
4.15211
 20
3.64311
 11
4.10529
 21
3.67354
  0
LINE
  8
0
 10
4.10529
 20
3.67354
 11
4.05954
 21
3.70557
  0
LINE
  8
0
 10
4.05954
 20
3.70557
 11
4.01494
 21
3.73918
  0
LINE
  8
0
 10
4.01494
 20
3.73918
 11
3.97153
 21
3.77432
  0
LINE
  8
0
 10
3.97153
 20
3.77432
 11
3.92938
 21
3.81096
  0
LINE
  8
0
 10
3.92938
 20
3.81096
 11
3.88853
 21
3.84904
  0
LINE
  8
0
 10
3.88853
 20
3.84904
 11
3.84904
 21
3.88853
  0
LINE
  8
0
 10
3.84904
 20
3.88853
 11
3.81096
 21
3.92938
  0
LINE
  8
0
 10
3.81096
 20
3.92938
 11
3.77432
 21
3.97153
  0
LINE
  8
0
 10
3.77432
 20
3.97153
 11
3.73918
 21
4.01494
  0
LINE
  8
0
 10
3.73918
 20
4.01494
 11
3.70557
 21
4.05954
  0
LINE
  8
0
 10
3.70557
 20
4.05954
 11
3.67354
 21
4.10529
  0
LINE
  8
0
 10
3.67354
 20
4.10529
 11
3.64311
 21
4.15211
  0
LINE
  8
0
 10
3.64311
 20
4.15211
 11
3.61435
 21
4.2
  0
LINE
  8
0
 10
3.61435
 20
4.2
 11
3.58728
 21
4.24884
  0
LINE
  8
0
 10
3.58728
 20
4.24884
 11
3.56192
 21
4.2986
  0
LINE
  8
0
 10
3.56192
 20
4.2986
 11
3.53831
 21
4.34921
  0
LINE
  8
0
 10
3.53831
 20
4.34921
 11
3.51649
 21
4.40062
  0
LINE
  8
0
 10
3.51649
 20
4.40062
 11
3.49649
 21
4.45276
  0
LINE
  8
0
 10
3.49649
 20
4.45276
 11
3.4783
 21
4.50557
  0
LINE
  8
0
 10
3.4783
 20
4.50557
 11
3.46198
 21
4.55898
  0
LINE
  8
0
 10
3.46198
 20
4.55898
 11
3.44753
 21
4.61292
  0
LINE
  8
0
 10
3.44753
 20
4.61292
 11
3.43495
 21
4.66733
  0
LINE
  8
0
 10
3.43495
 20
4.66733
 11
3.4243
 21
4.72215
  0
LINE
  8
0
 10
3.4243
 20
4.72215
 11
3.41556
 21
4.77731
  0
LINE
  8
0
 10
3.41556
 20
4.77731
 11
3.40875
 21
4.83275
  0
LINE
  8
0
 10
3.40875
 20
4.83275
 11
3.40388
 21
4.88838
  0
LINE
  8
0
 10
3.40388
 20
4.88838
 11
3.40097
 21
4.94415
  0
LINE
  8
0
 10
3.40097
 20
4.94415
 11
3.39999
 21
5
  0
LINE
  8
0
 10
3.39999
 20
5
 11
3.40097
 21
5.05583
  0
LINE
  8
0
 10
3.40097
 20
5.05583
 11
3.40388
 21
5.1116
  0
LINE
  8
0
 10
3.40388
 20
5.1116
 11
3.40875
 21
5.16724
  0
LINE
  8
0
 10
3.40875
 20
5.16724
 11
3.41556
 21
5.22267
  0
LINE
  8
0
 10
3.41556
 20
5.22267
 11
3.4243
 21
5.27783
  0
LINE
  8
0
 10
3.4243
 20
5.27783
 11
3.43495
 21
5.33266
  0
LINE
  8
0
 10
3.43495
 20
5.33266
 11
3.44753
 21
5.38707
  0
LINE
  8
0
 10
3.44753
 20
5.38707
 11
3.46198
 21
5.44101
  0
LINE
  8
0
 10
3.46198
 20
5.44101
 11
3.4783
 21
5.49442
  0
LINE
  8
0
 10
3.4783
 20
5.49442
 11
3.49649
 21
5.54723
  0
LINE
  8
0
 10
3.49649
 20
5.54723
 11
3.51649
 21
5.59937
  0
LINE
  8
0
 10
3.51649
 20
5.59937
 11
3.53831
 21
5.65077
  0
LINE
  8
0
 10
3.53831
 20
5.65077
 11
3.56192
 21
5.70139
  0
LINE
  8
0
 10
3.56192
 20
5.70139
 11
3.58728
 21
5.75114
  0
LINE
  8
0
 10
3.58728
 20
5.75114
 11
3.61435
 21
5.79999
  0
LINE
  8
0
 10
3.61435
 20
5.79999
 11
3.64311
 21
5.84787
  0
LINE
  8
0
 10
3.64311
 20
5.84787
 11
3.67354
 21
5.8947
  0
LINE
  8
0
 10
3.67354
 20
5.8947
 11
3.70557
 21
5.94044
  0
LINE
  8
0
 10
3.70557
 20
5.94044
 11
3.73918
 21
5.98505
  0
LINE
  8
0
 10
3.73918
 20
5.98505
 11
3.77432
 21
6.02846
  0
LINE
  8
0
 10
3.77432
 20
6.02846
 11
3.81096
 21
6.0706
  0
LINE
  8
0
 10
3.81096
 20
6.0706
 11
3.84904
 21
6.11145
  0
LINE
  8
0
 10
3.84904
 20
6.11145
 11
3.88853
 21
6.15094
  0
LINE
  8
0
 10
3.88853
 20
6.15094
 11
3.92938
 21
6.18903
  0
LINE
  8
0
 10
3.92938
 20
6.18903
 11
3.97153
 21
6.22566
  0
LINE
  8
0
 10
3.97153
 20
6.22566
 11
4.01494
 21
6.2608
  0
LINE
  8
0
 10
4.01494
 20
6.2608
 11
4.05954
 21
6.29442
  0
LINE
  8
0
 10
4.05954
 20
6.29442
 11
4.10529
 21
6.32645
  0
LINE
  8
0
 10
4.10529
 20
6.32645
 11
4.15211
 21
6.35687
  0
LINE
  8
0
 10
4.15211
 20
6.35687
 11
4.2
 21
6.38564
  0
LINE
  8
0
 10
4.2
 20
6.38564
 11
4.24884
 21
6.4127
  0
LINE
  8
0
 10
4.24884
 20
6.4127
 11
4.2986
 21
6.43806
  0
LINE
  8
0
 10
4.2986
 20
6.43806
 11
4.34921
 21
6.46167
  0
LINE
  8
0
 10
4.34921
 20
6.46167
 11
4.40062
 21
6.48349
  0
LINE
  8
0
 10
4.40062
 20
6.48349
 11
4.45276
 21
6.50349
  0
LINE
  8
0
 10
4.45276
 20
6.50349
 11
4.50557
 21
6.52168
  0
LINE
  8
0
 10
4.50557
 20
6.52168
 11
4.55898
 21
6.53801
  0
LINE
  8
0
 10
4.55898
 20
6.53801
 11
4.61292
 21
6.55246
  0
LINE
  8
0
 10
4.61292
 20
6.55246
 11
4.66733
 21
6.56503
  0
LINE
  8
0
 10
4.66733
 20
6.56503
 11
4.72215
 21
6.57568
  0
LINE
  8
0
 10
4.72215
 20
6.57568
 11
4.77731
 21
6.58443
  0
LINE
  8
0
 10
4.77731
 20
6.58443
 11
4.83275
 21
6.59123
  0
LINE
  8
0
 10
4.83275
 20
6.59123
 11
4.88838
 21
6.5961
  0
LINE
  8
0
 10
4.88838
 20
6.5961
 11
4.94415
 21
6.59901
  0
LINE
  8
0
 10
4.94415
 20
6.59901
 11
5
 21
6.59999
  0
LINE
  8
0
 10
5
 20
6.59999
 11
5.05583
 21
6.59901
  0
LINE
  8
0
 10
5.05583
 20
6.59901
 11
5.1116
 21
6.5961
  0
LINE
  8
0
 10
5.1116
 20
6.5961
 11
5.16724
 21
6.59123
  0
LINE
  8
0
 10
5.16724
 20
6.59123
 11
5.22267
 21
6.58443
  0
LINE
  8
0
 10
5.22267
 20
6.58443
 11
5.27783
 21
6.57568
  0
LINE
  8
0
 10
5.27783
 20
6.57568
 11
5.33266
 21
6.56503
  0
LINE
  8
0
 10
5.33266
 20
6.56503
 11
5.38707
 21
6.55246
  0
LINE
  8
0
 10
5.38707
 20
6.55246
 11
5.44101
 21
6.53801
  0
LINE
  8
0
 10
5.44101
 20
6.53801
 11
5.49442
 21
6.52168
  0
LINE
  8
0
 10
5.49442
 20
6.52168
 11
5.54723
 21
6.50349
  0
LINE
  8
0
 10
5.54723
 20
6.50349
 11
5.59937
 21
6.48349
  0
LINE
  8
0
 10
5.59937
 20
6.48349
 11
5.65077
 21
6.46167
  0
LINE
  8
0
 10
5.65077
 20
6.46167
 11
5.70139
 21
6.43806
  0
LINE
  8
0
 10
5.70139
 20
6.43806
 11
5.75114
 21
6.4127
  0
LINE
  8
0
 10
5.75114
 20
6.4127
 11
5.79999
 21
6.38564
  0
LINE
  8
0
 10
5.79999
 20
6.38564
 11
5.84787
 21
6.35687
  0
LINE
  8
0
 10
5.84787
 20
6.35687
 11
5.8947
 21
6.32645
  0
LINE
  8
0
 10
5.8947
 20
6.32645
 11
5.94044
 21
6.29442
  0
LINE
  8
0
 10
5.94044
 20
6.29442
 11
5.98505
 21
6.2608
  0
LINE
  8
0
 10
5.98505
 20
6.2608
 11
6.02846
 21
6.22566
  0
LINE
  8
0
 10
6.02846
 20
6.22566
 11
6.0706
 21
6.18903
  0
LINE
  8
0
 10
6.0706
 20
6.18903
 11
6.11145
 21
6.15094
  0
LINE
  8
0
 10
6.11145
 20
6.15094
 11
6.15094
 21
6.11145
  0
LINE
  8
0
 10
6.15094
 20
6.11145
 11
6.18903
 21
6.0706
  0
LINE
  8
0
 10
6.18903
 20
6.0706
 11
6.22566
 21
6.02846
  0
LINE
  8
0
 10
6.22566
 20
6.02846
 11
6.2608
 21
5.98505
  0
LINE
  8
0
 10
6.2608
 20
5.98505
 11
6.29442
 21
5.94044
  0
LINE
  8
0
 10
6.29442
 20
5.94044
 11
6.32645
 21
5.8947
  0
LINE
  8
0
 10
6.32645
 20
5.8947
 11
6.35687
 21
5.84787
  0
LINE
  8
0
 10
6.35687
 20
5.84787
 11
6.38564
 21
5.79999
  0
LINE
  8
0
 10
6.38564
 20
5.79999
 11
6.4127
 21
5.75114
  0
LINE
  8
0
 10
6.4127
 20
5.75114
 11
6.43806
 21
5.70139
  0
LINE
  8
0
 10
6.43806
 20
5.70139
 11
6.46167
 21
5.65077
  0
LINE
  8
0
 10
6.46167
 20
5.65077
 11
6.48349
 21
5.59937
  0
LINE
  8
0
 10
6.48349
 20
5.59937
 11
6.50349
 21
5.54723
  0
LINE
  8
0
 10
6.50349
 20
5.54723
 11
6.52168
 21
5.49442
  0
LINE
  8
0
 10
6.52168
 20
5.49442
 11
6.53801
 21
5.44101
  0
LINE
  8
0
 10
6.53801
 20
5.44101
 11
6.55246
 21
5.38707
  0
LINE
  8
0
 10
6.55246
 20
5.38707
 11
6.56503
 21
5.33266
  0
LINE
  8
0
 10
6.56503
 20
5.33266
 11
6.57568
 21
5.27783
  0
LINE
  8
0
 10
6.57568
 20
5.27783
 11
6.58443
 21
5.22267
  0
LINE
  8
0
 10
6.58443
 20
5.22267
 11
6.59123
 21
5.16724
  0
LINE
  8
0
 10
6.59123
 20
5.16724
 11
6.5961
 21
5.1116
  0
LINE
  8
0
 10
6.5961
 20
5.1116
 11
6.59901
 21
5.05583
  0
LINE
  8
0
 10
6.59901
 20
5.05583
 11
6.59999
 21
5
  0
LINE
  8
0
 10
6.59999
 20
5
 11
6.59901
 21
4.94415
  0
LINE
  8
0
 10
6.59901
 20
4.94415
 11
6.5961
 21
4.88838
  0
LINE
  8
0
 10
6.5961
 20
4.88838
 11
6.59123
 21
4.83275
  0
LINE
  8
0
 10
6.59123
 20
4.83275
 11
6.58443
 21
4.77731
  0
LINE
  8
0
 10
6.58443
 20
4.77731
 11
6.57568
 21
4.72215
  0
LINE
  8
0
 10
6.57568
 20
4.72215
 11
6.56503
 21
4.66733
  0
LINE
  8
0
 10
6.56503
 20
4.66733
 11
6.55246
 21
4.61292
  0
LINE
  8
0
 10
6.55246
 20
4.61292
 11
6.53801
 21
4.55898
  0
LINE
  8
0
 10
6.53801
 20
4.55898
 11
6.52168
 21
4.50557
  0
LINE
  8
0
 10
6.52168
 20
4.50557
 11
6.50349
 21
4.45276
  0
LINE
  8
0
 10
6.50349
 20
4.45276
 11
6.48349
 21
4.40062
  0
LINE
  8
0
 10
6.48349
 20
4.40062
 11
6.46167
 21
4.34921
  0
LINE
  8
0
 10
6.46167
 20
4.34921
 11
6.43806
 21
4.2986
  0
LINE
  8
0
 10
6.43806
 20
4.2986
 11
6.4127
 21
4.24884
  0
LINE
  8
0
 10
6.4127
 20
4.24884
 11
6.38564
 21
4.2
  0
LINE
  8
0
 10
6.38564
 20
4.2
 11
6.35687
 21
4.15211
  0
LINE
  8
0
 10
6.35687
 20
4.15211
 11
6.32645
 21
4.10529
  0
LINE
  8
0
 10
6.32645
 20
4.10529
 11
6.29442
 21
4.05954
  0
LINE
  8
0
 10
6.29442
 20
4.05954
 11
6.2608
 21
4.01494
  0
LINE
  8
0
 10
6.2608
 20
4.01494
 11
6.22566
 21
3.97153
  0
LINE
  8
0
 10
6.22566
 20
3.97153
 11
6.18903
 21
3.92938
  0
LINE
  8
0
 10
6.18903
 20
3.92938
 11
6.15094
 21
3.88853
  0
LINE
  8
0
 10
6.15094
 20
3.88853
 11
6.11145
 21
3.84904
  0
LINE
  8
0
 10
6.11145
 20
3.84904
 11
6.0706
 21
3.81096
  0
LINE
  8
0
 10
6.0706
 20
3.81096
 11
6.02846
 21
3.77432
  0
LINE
  8
0
 10
6.02846
 20
3.77432
 11
5.98505
 21
3.73918
  0
LINE
  8
0
 10
5.98505
 20
3.73918
 11
5.94044
 21
3.70557
  0
LINE
  8
0
 10
5.94044
 20
3.70557
 11
5.8947
 21
3.67354
  0
LINE
  8
0
 10
5.8947
 20
3.67354
 11
5.84787
 21
3.64311
  0
LINE
  8
0
 10
5.84787
 20
3.64311
 11
5.79999
 21
3.61435
  0
LINE
  8
0
 10
5.79999
 20
3.61435
 11
5.75114
 21
3.58728
  0
LINE
  8
0
 10
5.75114
 20
3.58728
 11
5.70139
 21
3.56192
  0
LINE
  8
0
 10
5.70139
 20
3.56192
 11
5.65077
 21
3.53831
  0
LINE
  8
0
 10
5.65077
 20
3.53831
 11
5.59937
 21
3.51649
  0
LINE
  8
0
 10
5.59937
 20
3.51649
 11
5.54723
 21
3.49649
  0
LINE
  8
0
 10
5.54723
 20
3.49649
 11
5.49442
 21
3.4783
  0
LINE
  8
0
 10
5.49442
 20
3.4783
 11
5.44101
 21
3.46198
  0
LINE
  8
0
 10
5.44101
 20
3.46198
 11
5.38707
 21
3.44753
  0
LINE
  8
0
 10
5.38707
 20
3.44753
 11
5.33266
 21
3.43495
  0
LINE
  8
0
 10
5.33266
 20
3.43495
 11
5.27783
 21
3.4243
  0
LINE
  8
0
 10
5.27783
 20
3.4243
 11
5.22267
 21
3.41556
  0
LINE
  8
0
 10
5.22267
 20
3.41556
 11
5.16724
 21
3.40875
  0
LINE
  8
0
 10
5.16724
 20
3.40875
 11
5.1116
 21
3.40388
  0
LINE
  8
0
 10
5.1116
 20
3.40388
 11
5.05583
 21
3.40097
  0
LINE
  8
0
 10
5.05583
 20
3.40097
 11
5
 21
3.39999
  0
LINE
  8
0
 10
5
 20
3.39999
 11
4.94415
 21
3.40097
  0
LINE
  8
0
 10
71.9442
 20
3.40097
 11
71.8884
 21
3.40388
  0
LINE
  8
0
 10
71.8884
 20
3.40388
 11
71.8327
 21
3.40875
  0
LINE
  8
0
 10
71.8327
 20
3.40875
 11
71.7773
 21
3.41556
  0
LINE
  8
0
 10
71.7773
 20
3.41556
 11
71.7222
 21
3.4243
  0
LINE
  8
0
 10
71.7222
 20
3.4243
 11
71.6673
 21
3.43495
  0
LINE
  8
0
 10
71.6673
 20
3.43495
 11
71.6129
 21
3.44753
  0
LINE
  8
0
 10
71.6129
 20
3.44753
 11
71.559
 21
3.46198
  0
LINE
  8
0
 10
71.559
 20
3.46198
 11
71.5056
 21
3.4783
  0
LINE
  8
0
 10
71.5056
 20
3.4783
 11
71.4528
 21
3.49649
  0
LINE
  8
0
 10
71.4528
 20
3.49649
 11
71.4006
 21
3.51649
  0
LINE
  8
0
 10
71.4006
 20
3.51649
 11
71.3492
 21
3.53831
  0
LINE
  8
0
 10
71.3492
 20
3.53831
 11
71.2986
 21
3.56192
  0
LINE
  8
0
 10
71.2986
 20
3.56192
 11
71.2488
 21
3.58728
  0
LINE
  8
0
 10
71.2488
 20
3.58728
 11
71.2
 21
3.61435
  0
LINE
  8
0
 10
71.2
 20
3.61435
 11
71.1521
 21
3.64311
  0
LINE
  8
0
 10
71.1521
 20
3.64311
 11
71.1053
 21
3.67354
  0
LINE
  8
0
 10
71.1053
 20
3.67354
 11
71.0595
 21
3.70557
  0
LINE
  8
0
 10
71.0595
 20
3.70557
 11
71.0149
 21
3.73918
  0
LINE
  8
0
 10
71.0149
 20
3.73918
 11
70.9715
 21
3.77432
  0
LINE
  8
0
 10
70.9715
 20
3.77432
 11
70.9294
 21
3.81096
  0
LINE
  8
0
 10
70.9294
 20
3.81096
 11
70.8885
 21
3.84904
  0
LINE
  8
0
 10
70.8885
 20
3.84904
 11
70.8491
 21
3.88853
  0
LINE
  8
0
 10
70.8491
 20
3.88853
 11
70.811
 21
3.92938
  0
LINE
  8
0
 10
70.811
 20
3.92938
 11
70.7743
 21
3.97153
  0
LINE
  8
0
 10
70.7743
 20
3.97153
 11
70.7392
 21
4.01494
  0
LINE
  8
0
 10
70.7392
 20
4.01494
 11
70.7056
 21
4.05954
  0
LINE
  8
0
 10
70.7056
 20
4.05954
 11
70.6735
 21
4.10529
  0
LINE
  8
0
 10
70.6735
 20
4.10529
 11
70.6431
 21
4.15211
  0
LINE
  8
0
 10
70.6431
 20
4.15211
 11
70.6143
 21
4.2
  0
LINE
  8
0
 10
70.6143
 20
4.2
 11
70.5873
 21
4.24884
  0
LINE
  8
0
 10
70.5873
 20
4.24884
 11
70.5619
 21
4.2986
  0
LINE
  8
0
 10
70.5619
 20
4.2986
 11
70.5383
 21
4.34921
  0
LINE
  8
0
 10
70.5383
 20
4.34921
 11
70.5165
 21
4.40062
  0
LINE
  8
0
 10
70.5165
 20
4.40062
 11
70.4965
 21
4.45276
  0
LINE
  8
0
 10
70.4965
 20
4.45276
 11
70.4783
 21
4.50557
  0
LINE
  8
0
 10
70.4783
 20
4.50557
 11
70.462
 21
4.55898
  0
LINE
  8
0
 10
70.462
 20
4.55898
 11
70.4475
 21
4.61292
  0
LINE
  8
0
 10
70.4475
 20
4.61292
 11
70.435
 21
4.66733
  0
LINE
  8
0
 10
70.435
 20
4.66733
 11
70.4243
 21
4.72215
  0
LINE
  8
0
 10
70.4243
 20
4.72215
 11
70.4156
 21
4.77731
  0
LINE
  8
0
 10
70.4156
 20
4.77731
 11
70.4088
 21
4.83275
  0
LINE
  8
0
 10
70.4088
 20
4.83275
 11
70.4039
 21
4.88838
  0
LINE
  8
0
 10
70.4039
 20
4.88838
 11
70.401
 21
4.94415
  0
LINE
  8
0
 10
70.401
 20
4.94415
 11
70.4
 21
5
  0
LINE
  8
0
 10
70.4
 20
5
 11
70.401
 21
5.05583
  0
LINE
  8
0
 10
70.401
 20
5.05583
 11
70.4039
 21
5.1116
  0
LINE
  8
0
 10
70.4039
 20
5.1116
 11
70.4088
 21
5.16724
  0
LINE
  8
0
 10
70.4088
 20
5.16724
 11
70.4156
 21
5.22267
  0
LINE
  8
0
 10
70.4156
 20
5.22267
 11
70.4243
 21
5.27783
  0
LINE
  8
0
 10
70.4243
 20
5.27783
 11
70.435
 21
5.33266
  0
LINE
  8
0
 10
70.435
 20
5.33266
 11
70.4475
 21
5.38707
  0
LINE
  8
0
 10
70.4475
 20
5.38707
 11
70.462
 21
5.44101
  0
LINE
  8
0
 10
70.462
 20
5.44101
 11
70.4783
 21
5.49442
  0
LINE
  8
0
 10
70.4783
 20
5.49442
 11
70.4965
 21
5.54723
  0
LINE
  8
0
 10
70.4965
 20
5.54723
 11
70.5165
 21
5.59937
  0
LINE
  8
0
 10
70.5165
 20
5.59937
 11
70.5383
 21
5.65077
  0
LINE
  8
0
 10
70.5383
 20
5.65077
 11
70.5619
 21
5.70139
  0
LINE
  8
0
 10
70.5619
 20
5.70139
 11
70.5873
 21
5.75114
  0
LINE
  8
0
 10
70.5873
 20
5.75114
 11
70.6143
 21
5.79999
  0
LINE
  8
0
 10
70.6143
 20
5.79999
 11
70.6431
 21
5.84787
  0
LINE
  8
0
 10
70.6431
 20
5.84787
 11
70.6735
 21
5.8947
  0
LINE
  8
0
 10
70.6735
 20
5.8947
 11
70.7056
 21
5.94044
  0
LINE
  8
0
 10
70.7056
 20
5.94044
 11
70.7392
 21
5.98505
  0
LINE
  8
0
 10
70.7392
 20
5.98505
 11
70.7743
 21
6.02846
  0
LINE
  8
0
 10
70.7743
 20
6.02846
 11
70.811
 21
6.0706
  0
LINE
  8
0
 10
70.811
 20
6.0706
 11
70.8491
 21
6.11145
  0
LINE
  8
0
 10
70.8491
 20
6.11145
 11
70.8885
 21
6.15094
  0
LINE
  8
0
 10
70.8885
 20
6.15094
 11
70.9294
 21
6.18903
  0
LINE
  8
0
 10
70.9294
 20
6.18903
 11
70.9715
 21
6.22566
  0
LINE
  8
0
 10
70.9715
 20
6.22566
 11
71.0149
 21
6.2608
  0
LINE
  8
0
 10
71.0149
 20
6.2608
 11
71.0595
 21
6.29442
  0
LINE
  8
0
 10
71.0595
 20
6.29442
 11
71.1053
 21
6.32645
  0
LINE
  8
0
 10
71.1053
 20
6.32645
 11
71.1521
 21
6.35687
  0
LINE
  8
0
 10
71.1521
 20
6.35687
 11
71.2
 21
6.38564
  0
LINE
  8
0
 10
71.2
 20
6.38564
 11
71.2488
 21
6.4127
  0
LINE
  8
0
 10
71.2488
 20
6.4127
 11
71.2986
 21
6.43806
  0
LINE
  8
0
 10
71.2986
 20
6.43806
 11
71.3492
 21
6.46167
  0
LINE
  8
0
 10
71.3492
 20
6.46167
 11
71.4006
 21
6.48349
  0
LINE
  8
0
 10
71.4006
 20
6.48349
 11
71.4528
 21
6.50349
  0
LINE
  8
0
 10
71.4528
 20
6.50349
 11
71.5056
 21
6.52168
  0
LINE
  8
0
 10
71.5056
 20
6.52168
 11
71.559
 21
6.53801
  0
LINE
  8
0
 10
71.559
 20
6.53801
 11
71.6129
 21
6.55246
  0
LINE
  8
0
 10
71.6129
 20
6.55246
 11
71.6673
 21
6.56503
  0
LINE
  8
0
 10
71.6673
 20
6.56503
 11
71.7222
 21
6.57568
  0
LINE
  8
0
 10
71.7222
 20
6.57568
 11
71.7773
 21
6.58443
  0
LINE
  8
0
 10
71.7773
 20
6.58443
 11
71.8327
 21
6.59123
  0
LINE
  8
0
 10
71.8327
 20
6.59123
 11
71.8884
 21
6.5961
  0
LINE
  8
0
 10
71.8884
 20
6.5961
 11
71.9442
 21
6.59901
  0
LINE
  8
0
 10
71.9442
 20
6.59901
 11
72
 21
6.59999
  0
LINE
  8
0
 10
72
 20
6.59999
 11
72.0558
 21
6.59901
  0
LINE
  8
0
 10
72.0558
 20
6.59901
 11
72.1116
 21
6.5961
  0
LINE
  8
0
 10
72.1116
 20
6.5961
 11
72.1672
 21
6.59123
  0
LINE
  8
0
 10
72.1672
 20
6.59123
 11
72.2227
 21
6.58443
  0
LINE
  8
0
 10
72.2227
 20
6.58443
 11
72.2778
 21
6.57568
  0
LINE
  8
0
 10
72.2778
 20
6.57568
 11
72.3327
 21
6.56503
  0
LINE
  8
0
 10
72.3327
 20
6.56503
 11
72.3871
 21
6.55246
  0
LINE
  8
0
 10
72.3871
 20
6.55246
 11
72.441
 21
6.53801
  0
LINE
  8
0
 10
72.441
 20
6.53801
 11
72.4944
 21
6.52168
  0
LINE
  8
0
 10
72.4944
 20
6.52168
 11
72.5472
 21
6.50349
  0
LINE
  8
0
 10
72.5472
 20
6.50349
 11
72.5994
 21
6.48349
  0
LINE
  8
0
 10
72.5994
 20
6.48349
 11
72.6508
 21
6.46167
  0
LINE
  8
0
 10
72.6508
 20
6.46167
 11
72.7014
 21
6.43806
  0
LINE
  8
0
 10
72.7014
 20
6.43806
 11
72.7511
 21
6.4127
  0
LINE
  8
0
 10
72.7511
 20
6.4127
 11
72.8
 21
6.38564
  0
LINE
  8
0
 10
72.8
 20
6.38564
 11
72.8479
 21
6.35687
  0
LINE
  8
0
 10
72.8479
 20
6.35687
 11
72.8947
 21
6.32645
  0
LINE
  8
0
 10
72.8947
 20
6.32645
 11
72.9405
 21
6.29442
  0
LINE
  8
0
 10
72.9405
 20
6.29442
 11
72.9851
 21
6.2608
  0
LINE
  8
0
 10
72.9851
 20
6.2608
 11
73.0285
 21
6.22566
  0
LINE
  8
0
 10
73.0285
 20
6.22566
 11
73.0706
 21
6.18903
  0
LINE
  8
0
 10
73.0706
 20
6.18903
 11
73.1115
 21
6.15094
  0
LINE
  8
0
 10
73.1115
 20
6.15094
 11
73.1509
 21
6.11145
  0
LINE
  8
0
 10
73.1509
 20
6.11145
 11
73.189
 21
6.0706
  0
LINE
  8
0
 10
73.189
 20
6.0706
 11
73.2257
 21
6.02846
  0
LINE
  8
0
 10
73.2257
 20
6.02846
 11
73.2608
 21
5.98505
  0
LINE
  8
0
 10
73.2608
 20
5.98505
 11
73.2944
 21
5.94044
  0
LINE
  8
0
 10
73.2944
 20
5.94044
 11
73.3265
 21
5.8947
  0
LINE
  8
0
 10
73.3265
 20
5.8947
 11
73.3569
 21
5.84787
  0
LINE
  8
0
 10
73.3569
 20
5.84787
 11
73.3856
 21
5.79999
  0
LINE
  8
0
 10
73.3856
 20
5.79999
 11
73.4127
 21
5.75114
  0
LINE
  8
0
 10
73.4127
 20
5.75114
 11
73.4381
 21
5.70139
  0
LINE
  8
0
 10
73.4381
 20
5.70139
 11
73.4617
 21
5.65077
  0
LINE
  8
0
 10
73.4617
 20
5.65077
 11
73.4835
 21
5.59937
  0
LINE
  8
0
 10
73.4835
 20
5.59937
 11
73.5035
 21
5.54723
  0
LINE
  8
0
 10
73.5035
 20
5.54723
 11
73.5217
 21
5.49442
  0
LINE
  8
0
 10
73.5217
 20
5.49442
 11
73.538
 21
5.44101
  0
LINE
  8
0
 10
73.538
 20
5.44101
 11
73.5525
 21
5.38707
  0
LINE
  8
0
 10
73.5525
 20
5.38707
 11
73.565
 21
5.33266
  0
LINE
  8
0
 10
73.565
 20
5.33266
 11
73.5757
 21
5.27783
  0
LINE
  8
0
 10
73.5757
 20
5.27783
 11
73.5844
 21
5.22267
  0
LINE
  8
0
 10
73.5844
 20
5.22267
 11
73.5912
 21
5.16724
  0
LINE
  8
0
 10
73.5912
 20
5.16724
 11
73.5961
 21
5.1116
  0
LINE
  8
0
 10
73.5961
 20
5.1116
 11
73.599
 21
5.05583
  0
LINE
  8
0
 10
73.599
 20
5.05583
 11
73.6
 21
5
  0
LINE
  8
0
 10
73.6
 20
5
 11
73.599
 21
4.94415
  0
LINE
  8
0
 10
73.599
 20
4.94415
 11
73.5961
 21
4.88838
  0
LINE
  8
0
 10
73.5961
 20
4.88838
 11
73.5912
 21
4.83275
  0
LINE
  8
0
 10
73.5912
 20
4.83275
 11
73.5844
 21
4.77731
  0
LINE
  8
0
 10
73.5844
 20
4.77731
 11
73.5757
 21
4.72215
  0
LINE
  8
0
 10
73.5757
 20
4.72215
 11
73.565
 21
4.66733
  0
LINE
  8
0
 10
73.565
 20
4.66733
 11
73.5525
 21
4.61292
  0
LINE
  8
0
 10
73.5525
 20
4.61292
 11
73.538
 21
4.55898
  0
LINE
  8
0
 10
73.538
 20
4.55898
 11
73.5217
 21
4.50557
  0
LINE
  8
0
 10
73.5217
 20
4.50557
 11
73.5035
 21
4.45276
  0
LINE
  8
0
 10
73.5035
 20
4.45276
 11
73.4835
 21
4.40062
  0
LINE
  8
0
 10
73.4835
 20
4.40062
 11
73.4617
 21
4.34921
  0
LINE
  8
0
 10
73.4617
 20
4.34921
 11
73.4381
 21
4.2986
  0
LINE
  8
0
 10
73.4381
 20
4.2986
 11
73.4127
 21
4.24884
  0
LINE
  8
0
 10
73.4127
 20
4.24884
 11
73.3856
 21
4.2
  0
LINE
  8
0
 10
73.3856
 20
4.2
 11
73.3569
 21
4.15211
  0
LINE
  8
0
 10
73.3569
 20
4.15211
 11
73.3265
 21
4.10529
  0
LINE
  8
0
 10
73.3265
 20
4.10529
 11
73.2944
 21
4.05954
  0
LINE
  8
0
 10
73.2944
 20
4.05954
 11
73.2608
 21
4.01494
  0
LINE
  8
0
 10
73.2608
 20
4.01494
 11
73.2257
 21
3.97153
  0
LINE
  8
0
 10
73.2257
 20
3.97153
 11
73.189
 21
3.92938
  0
LINE
  8
0
 10
73.189
 20
3.92938
 11
73.1509
 21
3.88853
  0
LINE
  8
0
 10
73.1509
 20
3.88853
 11
73.1115
 21
3.84904
  0
LINE
  8
0
 10
73.1115
 20
3.84904
 11
73.0706
 21
3.81096
  0
LINE
  8
0
 10
73.0706
 20
3.81096
 11
73.0285
 21
3.77432
  0
LINE
  8
0
 10
73.0285
 20
3.77432
 11
72.9851
 21
3.73918
  0
LINE
  8
0
 10
72.9851
 20
3.73918
 11
72.9405
 21
3.70557
  0
LINE
  8
0
 10
72.9405
 20
3.70557
 11
72.8947
 21
3.67354
  0
LINE
  8
0
 10
72.8947
 20
3.67354
 11
72.8479
 21
3.64311
  0
LINE
  8
0
 10
72.8479
 20
3.64311
 11
72.8
 21
3.61435
  0
LINE
  8
0
 10
72.8
 20
3.61435
 11
72.7511
 21
3.58728
  0
LINE
  8
0
 10
72.7511
 20
3.58728
 11
72.7014
 21
3.56192
  0
LINE
  8
0
 10
72.7014
 20
3.56192
 11
72.6508
 21
3.53831
  0
LINE
  8
0
 10
72.6508
 20
3.53831
 11
72.5994
 21
3.51649
  0
LINE
  8
0
 10
72.5994
 20
3.51649
 11
72.5472
 21
3.49649
  0
LINE
  8
0
 10
72.5472
 20
3.49649
 11
72.4944
 21
3.4783
  0
LINE
  8
0
 10
72.4944
 20
3.4783
 11
72.441
 21
3.46198
  0
LINE
  8
0
 10
72.441
 20
3.46198
 11
72.3871
 21
3.44753
  0
LINE
  8
0
 10
72.3871
 20
3.44753
 11
72.3327
 21
3.43495
  0
LINE
  8
0
 10
72.3327
 20
3.43495
 11
72.2778
 21
3.4243
  0
LINE
  8
0
 10
72.2778
 20
3.4243
 11
72.2227
 21
3.41556
  0
LINE
  8
0
 10
72.2227
 20
3.41556
 11
72.1672
 21
3.40875
  0
LINE
  8
0
 10
72.1672
 20
3.40875
 11
72.1116
 21
3.40388
  0
LINE
  8
0
 10
72.1116
 20
3.40388
 11
72.0558
 21
3.40097
  0
LINE
  8
0
 10
72.0558
 20
3.40097
 11
72
 21
3.39999
  0
LINE
  8
0
 10
72
 20
3.39999
 11
71.9442
 21
3.40097
  0
ENDSEC
  0
SECTION
  2
OBJECTS
  0
DICTIONARY
  0
ENDSEC
  0
EOF
