<?xml version="1.0" encoding="UTF-8" standalone="no"?>
<svg
   xml:space="preserve"
   id="svg13"
   viewBox="0 0 100.00001 99.999999"
   height="100mm"
   width="100mm"
   version="1.1"
   sodipodi:docname="gerber.zip.template-top_dsggsd_top-copper.svg"
   inkscape:version="1.2.1 (9c6d41e, 2022-07-14)"
   xmlns:inkscape="http://www.inkscape.org/namespaces/inkscape"
   xmlns:sodipodi="http://sodipodi.sourceforge.net/DTD/sodipodi-0.dtd"
   xmlns="http://www.w3.org/2000/svg"
   xmlns:svg="http://www.w3.org/2000/svg"><sodipodi:namedview
     id="namedview1908"
     pagecolor="#ffffff"
     bordercolor="#000000"
     borderopacity="0.25"
     inkscape:showpageshadow="2"
     inkscape:pageopacity="0.0"
     inkscape:pagecheckerboard="0"
     inkscape:deskcolor="#d1d1d1"
     inkscape:document-units="mm"
     showgrid="false"
     showguides="true"
     inkscape:zoom="2.30699"
     inkscape:cx="161.46581"
     inkscape:cy="124.62126"
     inkscape:window-width="1194"
     inkscape:window-height="945"
     inkscape:window-x="486"
     inkscape:window-y="25"
     inkscape:window-maximized="0"
     inkscape:current-layer="svg13"><sodipodi:guide
       position="87.534795,0"
       orientation="1,0"
       id="guide2079"
       inkscape:locked="false" /></sodipodi:namedview><defs
     id="defs2" /><path
     id="rect2157"
     style="fill:#554400;stroke-width:0.0560001"
     d="M -7.7483643,-3.3677531 V 114.72891 H 122.10211 V -3.3677531 Z M 37.262325,11.829252 h 4.278292 l -0.903821,1.037663 h -2.069124 c -0.733733,0 -1.334286,0.600555 -1.334286,1.334285 v 2.571936 L 36.095471,18.079 v -5.082894 c 0,-0.321148 0.131264,-0.613405 0.343132,-0.825273 0.21075,-0.21075 0.502574,-0.341581 0.823722,-0.341581 z m 7.65328,0 h 4.725293 l -0.903821,1.037663 h -4.725293 z m 8.438244,0 h 4.091223 l -0.915706,1.037663 h -4.076754 z m 7.42642,0 h 1.955953 c 0.320591,0 0.612969,0.132341 0.823723,0.343648 0.211864,0.211868 0.344165,0.504289 0.344165,0.823206 v 0.670243 l -1.137915,1.30638 V 14.2012 c 0,-0.727596 -0.600557,-1.334285 -1.334286,-1.334285 h -1.55081 z m -3.637504,2.78381 c 0.242533,0 0.438733,0.19624 0.438733,0.438216 0,0.241974 -0.1962,0.438216 -0.438733,0.438216 -0.241417,0 -0.438216,-0.196242 -0.438216,-0.438216 0,-0.241976 0.196799,-0.438216 0.438216,-0.438216 z m -10.077938,0.524515 c 0.501794,0 0.871423,0.128084 1.109493,0.383439 0.118201,0.126563 0.208068,0.28091 0.267168,0.460437 0.05798,0.176186 0.08785,0.378291 0.08785,0.604098 0,0.164477 -0.01489,0.318779 -0.04444,0.460954 -0.11374,0.555874 -0.464366,0.9555 -1.025261,1.082621 -0.133808,0.03067 -0.279478,0.04603 -0.436149,0.04547 -0.191794,-0.0061 -0.38177,-0.01628 -0.574125,-0.02687 l -0.492993,-0.0031 v -0.0739 -2.902666 c 0.374115,0 0.736576,-0.02492 1.108459,-0.03049 z m 5.429126,0 c 0.128794,0 0.259256,0.01394 0.388607,0.04237 0.356274,0.0775 0.636628,0.303335 0.714685,0.67076 0.01617,0.07973 0.02532,0.165747 0.02532,0.259416 0,0.204063 -0.03525,0.374047 -0.104387,0.509529 -0.03568,0.06914 -0.07758,0.130525 -0.12609,0.182935 -0.04851,0.05241 -0.105504,0.09852 -0.167949,0.136426 l 0.03617,0.04444 c 0.0552,0.07638 0.106726,0.164348 0.152445,0.263034 l 0.197921,0.443383 c 0.08196,0.153883 0.168304,0.303658 0.255282,0.454753 h -0.942062 c -0.08865,-0.107049 -0.138235,-0.252184 -0.191202,-0.379305 l -0.141077,-0.401009 -0.04651,-0.100769 -0.05013,-0.07752 c -0.01394,-0.01728 -0.02831,-0.03096 -0.04393,-0.03876 l -0.03566,-0.01085 -0.236678,0.0057 v 1.002523 h -0.07338 -0.781865 v -2.976563 l 0.478007,-0.0036 0.413412,-0.02325 z m -12.585278,0.03049 h 0.851628 l -0.0078,1.630909 c -5.58e-4,0.09478 0.003,0.180135 0.01137,0.253731 0.01171,0.09924 0.03491,0.214664 0.09457,0.296623 0.104819,0.143287 0.38759,0.149338 0.52865,0.0646 0.114297,-0.06914 0.150949,-0.24484 0.164331,-0.366386 0.0089,-0.07137 0.01292,-0.154894 0.01292,-0.248563 v -1.630909 h 0.848527 v 1.72651 c 0,0.510155 -0.172478,1.009572 -0.68988,1.195793 -0.156114,0.05631 -0.341069,0.08475 -0.552938,0.08475 -0.151096,0 -0.28769,-0.01411 -0.409794,-0.04031 -0.123775,-0.02676 -0.233921,-0.06783 -0.328146,-0.122473 -0.410911,-0.238073 -0.53175,-0.68082 -0.53175,-1.129647 z m 2.979663,0 h 0.777214 c 0.28825,0.467226 0.781216,1.151566 1.002006,1.614889 -0.05799,-0.54138 -0.03101,-1.067933 -0.03101,-1.614889 h 0.790133 v 2.976563 h -0.826823 c -0.28435,-0.466668 -0.730329,-1.113909 -0.954464,-1.583366 0.06468,0.53636 0.03411,1.035296 0.03411,1.583366 h -0.791166 v -0.0739 z m 6.022372,0 h 1.936316 v 0.676445 h -1.084689 v 0.450618 h 0.837675 v 0.660942 h -0.837675 v 0.500228 h 1.195276 v 0.68833 H 48.91071 v -0.0739 z m 7.529773,0.275436 c 0.0335,-5.19e-4 0.06581,0.0065 0.09508,0.02067 l 0.773596,0.329696 c 0.06635,0.02844 0.11056,0.08622 0.125057,0.150895 l 0.232544,1.067119 c 0.0033,0.01673 0.0052,0.03396 0.0052,0.05013 l 0.51418,0.197404 0.392741,-0.411862 0.0047,-0.0015 0.0062,-0.0021 c 0.381921,-0.09367 0.707412,1.008119 0.77153,1.270724 l 0.0062,0.02532 c 0.04739,0.194027 0.06793,0.279298 0.02945,0.318327 -0.03067,0.03066 -0.09452,0.02862 -0.208256,0.02584 -0.05185,-0.0017 -0.115376,-0.0042 -0.191203,-0.0031 -0.238071,0.0028 -0.472531,0.003 -0.702799,-0.0015 -0.230825,-0.0033 -0.456173,-0.01008 -0.676961,-0.02067 -0.05408,-0.0028 -0.09919,-0.0026 -0.134876,-0.0031 -0.06746,-5.58e-4 -0.104318,-0.0014 -0.119372,-0.01757 -0.03234,-0.0368 0.212146,-0.440925 0.279052,-0.545186 0.0736,-0.113183 0.156854,-0.224891 0.266134,-0.343649 l 0.03256,-0.03307 -1.130163,-0.469738 0.296622,0.469222 c 0.02453,0.03847 0.03427,0.08113 0.03204,0.123506 l -0.03359,0.788583 -0.42478,-0.02015 0.03049,-0.721403 -0.415479,-0.658358 -0.314192,1.345138 -0.436149,-0.01602 0.396875,-1.69447 -1.005624,-0.441317 0.06201,-0.334346 0.402043,0.171049 0.225826,-0.397909 c 0.03146,-0.05543 0.08605,-0.0939 0.148828,-0.104903 v -5.17e-4 l 0.630969,-0.108004 c 0.01143,-0.002 0.02242,-0.0029 0.03359,-0.0031 z m -4.034896,0.340031 c -0.07304,0.0017 -0.154936,0.0046 -0.22686,0.02015 v 0.707967 c 0.092,0.0061 0.181373,0.0077 0.273369,0.0083 0.171722,-5.57e-4 0.270295,-0.07268 0.31936,-0.237712 0.02955,-0.102031 0.02921,-0.232954 -0.0098,-0.333313 -0.05575,-0.140502 -0.223353,-0.165364 -0.35605,-0.165364 z m -5.366081,0.01137 c -0.07694,0.0022 -0.147375,0.0076 -0.223759,0.01602 v 1.679484 c 0.08642,0.01004 0.164171,0.01383 0.251148,0.0155 0.350696,-0.0017 0.512699,-0.257712 0.561206,-0.577742 0.03345,-0.22971 0.02909,-0.580793 -0.05064,-0.800468 -0.09255,-0.253127 -0.280364,-0.332796 -0.537952,-0.332796 z m 9.28057,0.0987 -0.372587,0.06408 -0.155029,0.273369 0.30179,0.134358 z m 0.741557,0.343131 -0.181384,0.475423 0.315226,0.139527 z m 6.842477,1.72651 v 4.844148 c 0,0.318918 -0.132256,0.610821 -0.344682,0.822689 -0.211868,0.211869 -0.504288,0.344682 -0.823206,0.344682 h -4.070035 l 0.904337,-1.03818 h 1.861385 c 0.727596,0 1.334286,-0.605654 1.334286,-1.333251 V 19.269108 Z M 40.865723,19.25929 c 0.08753,0 0.160526,0.0045 0.219624,0.01395 0.0591,0.01004 0.109556,0.0208 0.151929,0.03307 0.04293,0.01171 0.08352,0.02169 0.12144,0.02894 l -0.06098,0.406693 c -0.02441,-0.01604 -0.04959,-0.03087 -0.07545,-0.04444 -0.0329,-0.01728 -0.07471,-0.0321 -0.127124,-0.04548 -0.05185,-0.01282 -0.115934,-0.01964 -0.191203,-0.01964 -0.09646,0 -0.183984,0.02162 -0.261483,0.06511 -0.07806,0.04405 -0.139799,0.108005 -0.185518,0.192753 -0.04572,0.08419 -0.06873,0.186962 -0.06873,0.308508 0,0.124891 0.02084,0.234001 0.06098,0.327112 0.04014,0.09311 0.09959,0.165189 0.179317,0.217041 0.07973,0.05185 0.177906,0.07855 0.296106,0.07855 0.05297,0 0.107067,-0.0068 0.162264,-0.01964 0.0552,-0.01338 0.104224,-0.02914 0.148828,-0.04754 0.04349,-0.0184 0.07648,-0.03694 0.09767,-0.05478 v 0.388606 c -0.03234,0.01338 -0.06968,0.0278 -0.113171,0.04341 -0.04405,0.01505 -0.09502,0.02812 -0.152445,0.03927 -0.05799,0.01115 -0.122775,0.01654 -0.196371,0.01654 -0.208524,0 -0.384762,-0.03921 -0.529167,-0.117822 -0.144403,-0.07917 -0.253912,-0.190457 -0.329178,-0.334863 -0.07471,-0.14329 -0.112655,-0.312838 -0.112655,-0.50798 0,-0.160013 0.02535,-0.299658 0.07441,-0.420646 0.04906,-0.120431 0.11762,-0.221421 0.205155,-0.302824 0.08809,-0.0814 0.19039,-0.142233 0.307475,-0.182934 0.117085,-0.0407 0.243345,-0.06098 0.378272,-0.06098 z m 1.579748,0 c 0.178974,-0.005 0.332759,0.03103 0.460437,0.10852 0.127679,0.0775 0.225583,0.188785 0.292489,0.334863 0.06746,0.14552 0.09946,0.31772 0.09612,0.516765 -0.0045,0.223574 -0.04411,0.406153 -0.119373,0.54777 -0.07527,0.14106 -0.178476,0.245695 -0.310058,0.313159 -0.131024,0.06802 -0.282511,0.103067 -0.454236,0.10697 -0.186779,0.0033 -0.345394,-0.03504 -0.476973,-0.114205 -0.132139,-0.07917 -0.231703,-0.191804 -0.299724,-0.338997 -0.06802,-0.146636 -0.100457,-0.319745 -0.09767,-0.519348 0.0045,-0.223577 0.04597,-0.404848 0.124023,-0.54312 0.07806,-0.138826 0.185427,-0.241208 0.320911,-0.306441 0.135484,-0.06579 0.290099,-0.100919 0.464054,-0.105936 z m 3.757394,0 c 0.141614,0 0.258534,0.01306 0.348299,0.03927 0.08977,0.02621 0.151548,0.04965 0.185001,0.07028 l -0.0739,0.35295 c -0.03791,-0.02955 -0.09653,-0.05759 -0.1757,-0.08268 -0.07865,-0.02438 -0.160535,-0.03675 -0.242879,-0.03669 -0.05966,0 -0.108331,0.0062 -0.146244,0.01964 -0.03847,0.01282 -0.06687,0.0308 -0.08527,0.05478 -0.0184,0.02397 -0.02791,0.05145 -0.02791,0.08268 0,0.03791 0.01129,0.07177 0.03359,0.100769 0.0223,0.02955 0.05747,0.05839 0.10542,0.08682 0.04795,0.02844 0.10965,0.05945 0.186035,0.09457 0.07489,0.03294 0.147717,0.07038 0.218075,0.112138 0.06412,0.03791 0.118176,0.07938 0.16278,0.12454 0.04516,0.0446 0.07942,0.09502 0.102836,0.152445 0.02342,0.05687 0.03462,0.12325 0.03462,0.197404 0,0.112624 -0.02661,0.211441 -0.07958,0.295073 -0.05297,0.08363 -0.129955,0.148026 -0.232544,0.194303 -0.102589,0.04628 -0.228456,0.06976 -0.376204,0.06976 -0.08976,0 -0.17543,-0.0068 -0.256832,-0.02015 -0.08196,-0.01338 -0.153249,-0.02867 -0.212907,-0.04651 -0.06021,-0.0184 -0.102592,-0.03508 -0.127124,-0.05013 l 0.05839,-0.367937 c 0.03122,0.01728 0.07364,0.0353 0.126607,0.05426 0.05353,0.0184 0.112533,0.03421 0.177767,0.04703 0.06468,0.01338 0.130063,0.02015 0.195854,0.02015 0.08921,0 0.153644,-0.01315 0.193787,-0.03824 0.04014,-0.02565 0.06046,-0.0662 0.06046,-0.121956 0,-0.0407 -0.01216,-0.07544 -0.03669,-0.10387 -0.02453,-0.02844 -0.06462,-0.05675 -0.120923,-0.0863 -0.05631,-0.02955 -0.132158,-0.06753 -0.225826,-0.112138 -0.07973,-0.03791 -0.153237,-0.08354 -0.220142,-0.135392 -0.0659,-0.05095 -0.120759,-0.114774 -0.16123,-0.187586 -0.04014,-0.0736 -0.06098,-0.16005 -0.06098,-0.260966 0,-0.08642 0.01676,-0.162183 0.04909,-0.226859 0.03239,-0.06449 0.08012,-0.120035 0.13901,-0.161748 0.0591,-0.04293 0.13043,-0.07593 0.21239,-0.09767 0.08196,-0.02119 0.172493,-0.03204 0.272852,-0.03204 z m 3.210656,0 c 0.08308,0 0.166047,0.009 0.248564,0.02687 0.08308,0.0184 0.158798,0.04944 0.227376,0.09405 0.06858,0.04405 0.124106,0.105953 0.165365,0.183452 0.04182,0.07806 0.06201,0.176314 0.06201,0.295072 0,0.128794 -0.02115,0.234735 -0.06408,0.31781 -0.04293,0.08363 -0.101981,0.148068 -0.17725,0.193787 -0.0184,0.01059 -0.0378,0.02101 -0.05788,0.03049 0.02453,0.01896 0.04763,0.0424 0.0677,0.07028 0.03513,0.04795 0.06709,0.103395 0.09664,0.166398 0.02899,0.063 0.05786,0.128866 0.0863,0.196887 0.02899,0.06858 0.06147,0.133449 0.09715,0.195337 0.01227,0.02286 0.0259,0.04587 0.03927,0.06873 0.01394,0.02286 0.02645,0.04535 0.03928,0.06821 H 49.72358 c -0.01096,-0.01436 -0.02048,-0.02977 -0.02842,-0.04599 -0.0089,-0.0184 -0.02247,-0.04823 -0.04031,-0.08837 -0.02565,-0.05687 -0.04866,-0.116355 -0.06873,-0.178801 -0.02063,-0.06189 -0.04082,-0.120027 -0.06201,-0.174666 -0.02063,-0.05408 -0.04454,-0.09828 -0.07131,-0.132292 -0.02509,-0.03122 -0.0548,-0.04885 -0.08992,-0.05219 -0.05297,0.0033 -0.122352,0.0047 -0.208772,0.0047 v 0.66766 h -0.472323 v -1.887224 h 0.162264 c 0.06802,0 0.145961,-0.0031 0.234611,-0.0098 0.08865,-0.0067 0.200494,-0.01034 0.334863,-0.01034 z m 3.86333,0 c 0.08753,0 0.160524,0.0045 0.219625,0.01395 0.05854,0.01004 0.108998,0.0208 0.151929,0.03307 0.04293,0.01171 0.08301,0.02169 0.120923,0.02894 l -0.06046,0.406693 c -0.01784,-0.01171 -0.04311,-0.02715 -0.07545,-0.04444 -0.0329,-0.01728 -0.07471,-0.0321 -0.127124,-0.04548 -0.05185,-0.01282 -0.115934,-0.01964 -0.191203,-0.01964 -0.09646,0 -0.183984,0.02162 -0.261483,0.06511 -0.07806,0.04405 -0.139799,0.108005 -0.185518,0.192753 -0.04572,0.08419 -0.06873,0.186962 -0.06873,0.308508 0,0.124891 0.02028,0.234001 0.06098,0.327112 0.04014,0.09311 0.09959,0.165189 0.179318,0.217041 0.07917,0.05185 0.177906,0.07855 0.296106,0.07855 0.05297,0 0.107067,-0.0068 0.162264,-0.01964 0.0552,-0.01338 0.104265,-0.02914 0.148311,-0.04754 0.04405,-0.0184 0.07699,-0.03694 0.09819,-0.05478 v 0.388606 c -0.03234,0.01338 -0.0702,0.0278 -0.113688,0.04341 -0.04349,0.01505 -0.0945,0.02812 -0.151929,0.03927 -0.05798,0.01115 -0.123848,0.01654 -0.196887,0.01654 -0.208524,0 -0.384245,-0.03921 -0.52865,-0.117822 -0.144406,-0.07917 -0.25391,-0.190457 -0.329179,-0.334863 -0.07471,-0.14329 -0.112654,-0.312838 -0.112654,-0.50798 0,-0.160013 0.02431,-0.299658 0.07338,-0.420646 0.04906,-0.120431 0.118096,-0.221421 0.206189,-0.302824 0.08809,-0.0814 0.190431,-0.142233 0.306958,-0.182934 0.117086,-0.0407 0.243307,-0.06098 0.378788,-0.06098 z m 4.069519,0 c 0.178416,-0.005 0.331685,0.03103 0.459921,0.10852 0.127679,0.0775 0.225025,0.188785 0.292488,0.334863 0.06746,0.14552 0.09891,0.31772 0.09612,0.516765 -0.0045,0.223574 -0.04466,0.406153 -0.119372,0.54777 -0.07583,0.14106 -0.179035,0.245695 -0.310059,0.313159 -0.131582,0.06802 -0.283027,0.103067 -0.454752,0.10697 -0.186222,0.0033 -0.345392,-0.03504 -0.476974,-0.114205 -0.131581,-0.07917 -0.231185,-0.191804 -0.299206,-0.338997 -0.06858,-0.146636 -0.101016,-0.319745 -0.09767,-0.519348 0.0045,-0.223577 0.04545,-0.404848 0.123507,-0.54312 0.07862,-0.138826 0.185427,-0.241208 0.320911,-0.306441 0.135482,-0.06579 0.290577,-0.100919 0.465087,-0.105936 z m -13.742313,0.02015 h 0.44235 l 0.644922,1.03663 0.130225,0.274401 -0.05116,-0.480074 v -0.830957 h 0.428914 v 1.887224 h -0.474906 l -0.612366,-1.010791 -0.136942,-0.286805 0.05839,0.482658 v 0.814938 h -0.429431 z m 0.371037,0.589628 c -29.316729,-13.2460473 -14.658365,-6.623024 0,0 z m 0.84646,0.721403 c -29.881036,-13.7269827 -14.940518,-6.863491 0,0 z m 2.137854,-1.311031 h 1.48363 v 0.363802 h -0.502812 v 1.523422 h -0.47749 v -1.523422 h -0.503328 z m 3.505729,0 h 0.469738 l -0.0052,1.038697 c -0.0011,0.132139 0.01116,0.234041 0.03514,0.305407 0.02397,0.07137 0.06057,0.121467 0.10852,0.149345 0.04739,0.02732 0.106483,0.04083 0.176734,0.04083 0.07137,0 0.130376,-0.01446 0.177767,-0.04289 0.04739,-0.02899 0.08304,-0.07949 0.106453,-0.151412 0.02398,-0.07192 0.03566,-0.172479 0.03566,-0.301273 v -1.038697 h 0.467155 v 1.102259 c 0,0.252567 -0.06175,0.450037 -0.185519,0.592212 -0.124331,0.142172 -0.322236,0.213423 -0.593762,0.213423 -0.195142,0 -0.350587,-0.03378 -0.467672,-0.101802 -0.116525,-0.06746 -0.200845,-0.162118 -0.252697,-0.284221 -0.05185,-0.122103 -0.07751,-0.2646 -0.07751,-0.426847 z m 3.411678,0 h 1.48363 v 0.363802 H 54.8566 v 1.523422 h -0.476974 v -1.523422 h -0.502811 z m 1.74718,0 h 0.478007 v 1.887224 h -0.478007 z m 2.880961,0 h 0.441317 l 0.645438,1.03663 0.129708,0.272851 -0.05064,-0.478524 v -0.830957 h 0.428398 v 1.887224 h -0.474906 l -0.611333,-1.010791 -0.137459,-0.287321 0.05839,0.483174 v 0.814938 h -0.428914 z m 0.37052,0.589112 c -39.250317,-13.2457033 -19.625159,-6.622852 0,0 z m 0.845943,0.720369 c -39.814279,-13.7259493 -19.90714,-6.862975 0,0 z M 49.35461,19.592603 c -0.03401,0 -0.06771,0.0013 -0.102836,0.0046 -0.03513,0.0039 -0.06812,0.01029 -0.09767,0.01809 v 0.555522 c 0.01673,0.0028 0.04029,0.005 0.06873,0.0067 0.02899,0.0017 0.05774,0.0025 0.08785,0.0031 0.02955,0 0.0543,5.17e-4 0.07493,5.17e-4 0.09646,0 0.166793,-0.03065 0.21084,-0.09198 0.04405,-0.06133 0.06563,-0.135747 0.06563,-0.222725 0,-0.04683 -0.0076,-0.09151 -0.02377,-0.133326 -0.01673,-0.04182 -0.04737,-0.0756 -0.09198,-0.101802 -0.04405,-0.02621 -0.108645,-0.03876 -0.19172,-0.03876 z m -6.916374,0.01705 c -0.07694,0 -0.146763,0.01945 -0.210323,0.05736 -0.06356,0.03791 -0.114572,0.101953 -0.151928,0.191719 -0.03791,0.08976 -0.05684,0.212383 -0.05684,0.367936 0,0.120431 0.01489,0.227841 0.04444,0.320394 0.02955,0.09367 0.07422,0.166618 0.133326,0.220142 0.05854,0.05297 0.132487,0.07958 0.221691,0.07958 0.121546,0 0.21707,-0.04906 0.287321,-0.148312 0.07025,-0.09869 0.10542,-0.262809 0.10542,-0.491959 0,-0.118758 -0.0135,-0.222361 -0.04082,-0.312126 -0.02676,-0.08976 -0.06727,-0.159668 -0.122473,-0.20929 -0.0552,-0.05018 -0.125059,-0.07545 -0.209807,-0.07545 z m 14.900383,0 c -0.07694,0 -0.14728,0.01945 -0.21084,0.05736 -0.06356,0.03791 -0.114015,0.101953 -0.151929,0.191719 -0.03735,0.08976 -0.05633,0.212383 -0.05633,0.367936 0,0.120431 0.01489,0.227841 0.04444,0.320394 0.03011,0.09367 0.0737,0.166618 0.132808,0.220142 0.05854,0.05297 0.132484,0.07958 0.221692,0.07958 0.122103,0 0.218104,-0.04906 0.288355,-0.148312 0.07025,-0.09869 0.104903,-0.262809 0.104903,-0.491959 0,-0.118758 -0.01299,-0.222361 -0.04031,-0.312126 -0.02732,-0.08976 -0.06831,-0.159668 -0.123506,-0.20929 -0.05464,-0.05018 -0.124542,-0.07545 -0.20929,-0.07545 z m -20.105233,1.037146 v 0.956531 c 0,0.73373 0.606686,1.333251 1.334286,1.333251 h 1.396297 l -0.904338,1.03818 h -1.797306 c -0.318918,0 -0.611337,-0.131779 -0.823206,-0.343648 l -0.01033,-0.0098 c -0.205735,-0.210196 -0.333313,-0.498332 -0.333313,-0.813904 v -0.854211 z m 6.470923,2.289782 h 4.009574 l -0.904337,1.03818 h -4.006991 z m 7.451742,0 H 55.8276 l -0.904337,1.03818 h -4.666899 z m 4.684985,1.406116 h 2.190047 v 4.823995 h 1.473295 v 0.746208 h -5.136637 v -0.746208 h 1.473295 z m -15.014071,0.0026 h 2.190048 v 4.821411 h 1.473811 v 0.746208 H 39.35367 v -0.746208 h 1.473295 z"
     sodipodi:nodetypes="cccccsccssccssscccccccccccscsccssccssssscccscccccccccccscscccccccccccccccccccccccccccsccscsccccccccccccccccccccccccccccccsccccccccccccccccccccccccccccccccccccccsccccccccccccccccccccccccscsccssccsccccccsccssssccccccsccsccsscscccccccccccsscccccsscsccccssssccccccscssscccscccsscccsccccccccccccccccccccscssccccccsccsccscsccccsccscscscccccccsccccccccccccccccccccccccccccccccccccscsccsccscscscccccccccccccccccccccccccccccccccccscccccsssccssscsccscsccssscsccscsscscssccsccscccccccccccccccccccccccccccccc" /></svg>
