<?xml version="1.0" encoding="UTF-8" standalone="no"?>
<svg
   xml:space="preserve"
   id="svg13"
   viewBox="0 0 28.546579 12.882935"
   height="12.882935mm"
   width="28.546577mm"
   version="1.1"
   sodipodi:docname="gerber.zip.template-top_dsggsd_top-silk_copy_2.svg"
   inkscape:version="1.2.1 (9c6d41e, 2022-07-14)"
   xmlns:inkscape="http://www.inkscape.org/namespaces/inkscape"
   xmlns:sodipodi="http://sodipodi.sourceforge.net/DTD/sodipodi-0.dtd"
   xmlns="http://www.w3.org/2000/svg"
   xmlns:svg="http://www.w3.org/2000/svg"><sodipodi:namedview
     id="namedview8"
     pagecolor="#ffffff"
     bordercolor="#000000"
     borderopacity="0.25"
     inkscape:showpageshadow="2"
     inkscape:pageopacity="0.0"
     inkscape:pagecheckerboard="0"
     inkscape:deskcolor="#d1d1d1"
     inkscape:document-units="mm"
     showgrid="false"
     inkscape:zoom="4.8468512"
     inkscape:cx="44.152377"
     inkscape:cy="14.545526"
     inkscape:window-width="725"
     inkscape:window-height="497"
     inkscape:window-x="955"
     inkscape:window-y="25"
     inkscape:window-maximized="0"
     inkscape:current-layer="svg13" /><defs
     id="defs2" /><path
     style="fill:#000000;stroke-width:0.0436683"
     d="M 11.966532,24.345703 V 5.4674672 H 54.158873 96.351215 V 24.345703 43.223939 H 54.158873 11.966532 Z"
     id="path306"
     transform="scale(0.26458333)" /><path
     style="fill:#000000;stroke-width:0.0436683"
     d="M 8.9369245,43.569301 C 7.7058599,43.115423 6.5137683,42.090795 5.8801063,40.941903 L 5.2611477,39.819667 V 24.345703 8.8717393 L 5.8801063,7.7495043 C 6.5137683,6.6006105 7.7058599,5.5759826 8.9369245,5.1221044 9.7996143,4.8040415 86.447878,4.737514 86.447878,5.0548282 c 0,0.1367916 -12.94957,0.2078465 -38.42701,0.2108507 C 9.8075446,5.2701849 9.5886946,5.2725472 8.6654198,5.6904807 7.5207143,6.2086479 6.7020847,6.9660874 6.1191103,8.0464612 5.6741861,8.8709992 5.6737867,8.8856169 5.6737867,24.345703 c 0,15.460087 4.003e-4,15.474705 0.4453236,16.299242 0.5829744,1.080374 1.401604,1.837814 2.5463095,2.355981 0.9232748,0.417933 1.1421248,0.420296 39.3554482,0.424802 25.47744,0.003 38.42701,0.07406 38.42701,0.21085 0,0.317313 -76.6482637,0.250788 -77.5109535,-0.06728 z"
     id="path308"
     transform="scale(0.26458333)" /><path
     style="fill:#000000;stroke-width:0.0436683"
     d="M 8.9369245,43.569301 C 7.7058599,43.115423 6.5137683,42.090795 5.8801063,40.941903 L 5.2611477,39.819667 V 24.345703 8.8717393 L 5.8801063,7.7495043 C 6.5137683,6.6006105 7.7058599,5.5759826 8.9369245,5.1221044 9.7943467,4.8059835 86.447878,4.7373457 86.447878,5.0526988 c 0,0.1337891 -13.320087,0.2227082 -38.63333,0.2578994 L 9.1812186,5.3643075 8.3559405,5.8096311 C 7.3902675,6.3307124 6.5967114,7.1389301 6.0583996,8.149621 5.6929664,8.8357291 5.6737867,9.643386 5.6737867,24.345703 c 0,14.22342 0.028574,15.526155 0.3535673,16.119769 0.5863283,1.070953 1.4044061,1.925794 2.3029597,2.406455 l 0.8509049,0.455172 38.6333294,0.05371 c 25.313243,0.03519 38.63333,0.124111 38.63333,0.257899 0,0.315353 -76.6535313,0.246715 -77.5109535,-0.06941 z"
     id="path310"
     transform="scale(0.26458333)" /></svg>
