<?xml version="1.0" encoding="UTF-8" standalone="no"?>
<svg
   xml:space="preserve"
   id="svg13"
   viewBox="0 0 27.80832 12.145672"
   height="12.145672mm"
   width="27.808319mm"
   version="1.1"
   sodipodi:docname="gerber.zip.template-top_dsggsd_top-mask_copy_1.svg"
   inkscape:version="1.2.1 (9c6d41e, 2022-07-14)"
   xmlns:inkscape="http://www.inkscape.org/namespaces/inkscape"
   xmlns:sodipodi="http://sodipodi.sourceforge.net/DTD/sodipodi-0.dtd"
   xmlns="http://www.w3.org/2000/svg"
   xmlns:svg="http://www.w3.org/2000/svg"><sodipodi:namedview
     id="namedview7"
     pagecolor="#ffffff"
     bordercolor="#000000"
     borderopacity="0.25"
     inkscape:showpageshadow="2"
     inkscape:pageopacity="0.0"
     inkscape:pagecheckerboard="0"
     inkscape:deskcolor="#d1d1d1"
     inkscape:document-units="mm"
     showgrid="false"
     inkscape:zoom="34.914569"
     inkscape:cx="56.91034"
     inkscape:cy="3.4799227"
     inkscape:window-width="1194"
     inkscape:window-height="945"
     inkscape:window-x="486"
     inkscape:window-y="25"
     inkscape:window-maximized="0"
     inkscape:current-layer="g-top-mask" /><defs
     id="defs2" /><g
     id="g-top-mask"
     style="display:inline;fill:#554400"
     transform="translate(-10.28786,-16.892485)"><rect
       style="display:inline;fill:#000000;stroke-width:0.0689095"
       id="rect461-6"
       width="3.7234855"
       height="1.4284694"
       x="39.843887"
       y="23.254025"
       transform="matrix(1,0,-0.6872376,0.72643271,0,0)" /><rect
       style="display:inline;fill:#000000;stroke-width:0.0694499"
       id="rect461-1"
       width="3.7631309"
       height="1.4356729"
       x="56.815239"
       y="38.738983"
       transform="matrix(1,0,-0.69106998,0.72278785,0,0)" /><rect
       style="display:inline;fill:#000000;stroke-width:0.0685806"
       id="rect461-3"
       width="3.6993334"
       height="1.4241009"
       x="48.038647"
       y="38.426731"
       transform="matrix(1,0,-0.68487443,0.72866111,0,0)" /><rect
       style="display:inline;fill:#000000;stroke-width:0.0690314"
       id="rect461-7"
       width="3.7324276"
       height="1.4300908"
       x="40.758221"
       y="38.588364"
       transform="matrix(1,0,-0.68810708,0.72560916,0,0)" /><rect
       style="display:inline;fill:#000000;stroke-width:0.0642399"
       id="rect461-4"
       width="3.3796027"
       height="1.3677479"
       x="46.142639"
       y="22.265541"
       transform="matrix(1,0,-0.65146009,0.75868291,0,0)" /><rect
       style="fill:#000000;stroke-width:0.0642399"
       id="rect461"
       width="3.3796027"
       height="1.3677479"
       x="30.231462"
       y="22.265539"
       transform="matrix(1,0,-0.65146009,0.75868291,0,0)" /><rect
       style="display:inline;fill:#000000;stroke-width:0.0768622"
       id="rect461-8"
       width="3.8974516"
       height="1.6978813"
       x="-38.407791"
       y="-17.04723"
       transform="matrix(0,-1,-0.67024735,0.74213778,0,0)" /><rect
       style="display:inline;fill:#000000;stroke-width:0.0838446"
       id="rect461-8-4"
       width="4.3515949"
       height="1.8095247"
       x="-70.128494"
       y="-60.576538"
       transform="matrix(0,-1,-0.62889469,0.77749049,0,0)" /></g></svg>
