<?xml version="1.0" encoding="UTF-8" standalone="no"?>
<svg
   xml:space="preserve"
   id="svg13"
   viewBox="0 0 28.546579 12.882935"
   height="12.882935mm"
   width="28.546577mm"
   version="1.1"
   sodipodi:docname="gerber.zip.template-top_dsggsd_top-silk_copy_3.svg"
   inkscape:version="1.2.1 (9c6d41e, 2022-07-14)"
   xmlns:inkscape="http://www.inkscape.org/namespaces/inkscape"
   xmlns:sodipodi="http://sodipodi.sourceforge.net/DTD/sodipodi-0.dtd"
   xmlns="http://www.w3.org/2000/svg"
   xmlns:svg="http://www.w3.org/2000/svg"><sodipodi:namedview
     id="namedview8"
     pagecolor="#ffffff"
     bordercolor="#000000"
     borderopacity="0.25"
     inkscape:showpageshadow="2"
     inkscape:pageopacity="0.0"
     inkscape:pagecheckerboard="0"
     inkscape:deskcolor="#d1d1d1"
     inkscape:document-units="mm"
     showgrid="false"
     inkscape:zoom="5.7944124"
     inkscape:cx="45.388554"
     inkscape:cy="14.755595"
     inkscape:window-width="1194"
     inkscape:window-height="945"
     inkscape:window-x="486"
     inkscape:window-y="25"
     inkscape:window-maximized="0"
     inkscape:current-layer="g6987" /><defs
     id="defs2" /><g
     id="g-top-silk"
     style="display:inline"
     transform="translate(-9.9187744,-16.523539)"><g
       style="clip-rule:evenodd;display:inline;fill:#000000;fill-opacity:1;fill-rule:evenodd;stroke:#ff0000;stroke-width:1.0044;stroke-dasharray:none;stroke-opacity:1;image-rendering:optimizeQuality;shape-rendering:geometricPrecision;text-rendering:geometricPrecision"
       id="g6987"
       transform="matrix(0.05575491,0,0,0.05575491,9.918752,16.523399)"><path
         id="path6957"
         style="display:inline;fill:#000000;fill-opacity:1;stroke:none;stroke-width:1.0044;stroke-dasharray:none;stroke-opacity:1"
         d="m 27.546381,0.00251503 c -7.559993,0 -14.444584,3.08994157 -19.4545794,8.10993657 C 3.1018066,13.102447 4.0201056e-4,19.988501 4.0201056e-4,27.548494 V 203.52021 c 0,7.46 3.03603448944,14.26214 7.90602958944,19.23214 l 0.1946385,0.21317 c 4.9999949,4.99 11.8953179,8.10067 19.4453109,8.10067 H 484.43703 c 7.55,0 14.45532,-3.11994 19.44532,-8.10993 4.99999,-5 8.1192,-11.89605 8.1192,-19.43605 V 27.548494 c 0,-7.549993 -3.10921,-14.445316 -8.1192,-19.4453109 -4.99,-4.979995 -11.88532,-8.10066807 -19.44532,-8.10066807 z m 0,6.61770827 H 484.43703 c 5.75,0 10.994,2.3735555 14.77399,6.1635517 3.8,3.799996 6.17282,9.044725 6.17282,14.764719 V 203.52021 c 0,5.72 -2.37209,10.95546 -6.18209,14.75545 -3.79999,3.8 -9.04472,6.18209 -14.76472,6.18209 H 27.546381 c -5.719994,0 -10.964723,-2.36355 -14.764719,-6.16355 l -0.18537,-0.1761 c -3.6899963,-3.77 -5.9781818,-8.93789 -5.9781818,-14.59789 V 27.548494 c 0,-5.759994 2.3542871,-11.001797 6.1542838,-14.801793 3.779996,-3.7799962 9.013993,-6.1264777 14.773987,-6.1264777 z" /><path
         id="path6965"
         style="display:inline;fill:#000000;fill-opacity:1;stroke:none;stroke-width:1.0044;stroke-dasharray:none;stroke-opacity:1"
         d="m 50.958609,22.228375 c -7.409993,0 -14.138965,3.034572 -19.01896,7.924567 -4.869995,4.869995 -7.906029,11.619699 -7.906029,19.009691 V 181.92461 c 0,7.37999 3.044571,14.11189 7.924566,18.98189 4.889995,4.88999 11.63043,7.93383 19.000423,7.93383 H 461.04334 c 7.35,0 14.09263,-3.06237 18.97262,-7.95237 4.89,-4.87999 7.95237,-11.62336 7.95237,-18.96335 V 49.162633 c 0,-7.359992 -3.03384,-14.109696 -7.93383,-19.009691 -4.88,-4.869995 -11.60116,-7.924567 -18.99116,-7.924567 z"
         sodipodi:nodetypes="scsscsscsscss" /></g></g></svg>
