<?xml version="1.0" encoding="UTF-8" standalone="no"?>
<svg
   xml:space="preserve"
   id="svg13"
   viewBox="0 0 27.80832 12.145672"
   height="12.145672mm"
   width="27.808319mm"
   version="1.1"
   xmlns="http://www.w3.org/2000/svg"
   xmlns:svg="http://www.w3.org/2000/svg"><defs
     id="defs2" /><g
     id="g-top-mask"
     style="display:inline;fill:#554400"
     transform="translate(-10.28786,-16.892485)"><path
       fill="#ffb206"
       fill-rule="nonzero"
       d="m 36.928671,16.892485 h -1.955882 l -10.524297,12.14565 h 4.667244 L 38.09618,18.72961 v -0.670174 c 0,-0.318919 -0.13214,-0.611632 -0.344008,-0.8235 -0.210754,-0.211312 -0.50291,-0.343451 -0.823501,-0.343451 z m -5.291141,0 h -4.091295 l -10.551617,12.14565 h 4.007106 l 6.451958,-7.405925 z m -7.804572,0 H 19.107729 L 10.28786,27.016462 v 0.854165 c 0,0.315573 0.127679,0.603826 0.333415,0.814022 l 0.01003,0.0095 c 0.211869,0.211869 0.504582,0.344008 0.823501,0.344008 h 1.79698 z m -8.100073,0 h -4.278074 c -0.321149,0 -0.613305,0.131024 -0.824058,0.341778 -0.211869,0.211869 -0.342893,0.504024 -0.342893,0.825173 v 5.082617 z m 17.125678,12.14565 h 4.070108 c 0.318919,0 0.611075,-0.132697 0.822943,-0.344565 0.212426,-0.211869 0.344566,-0.504025 0.344566,-0.822943 V 23.02664 Z"
       id="path7097"
       style="clip-rule:evenodd;display:inline;fill:#554400;fill-rule:evenodd;stroke-width:0.0557549;image-rendering:optimizeQuality;shape-rendering:geometricPrecision;text-rendering:geometricPrecision" /><path
       fill="#ffffff"
       d="m 12.760076,17.930172 h 22.863973 c 0.733734,0 1.334215,0.606614 1.334215,1.334215 v 7.402022 c 0,0.727602 -0.606614,1.333658 -1.334215,1.333658 H 12.760076 c -0.727601,0 -1.334215,-0.599923 -1.334215,-1.333658 v -7.402022 c 0,-0.733733 0.600481,-1.334215 1.334215,-1.334215 z"
       id="path7658"
       style="clip-rule:evenodd;display:inline;fill:#554400;fill-rule:evenodd;stroke-width:0.0557549;image-rendering:optimizeQuality;shape-rendering:geometricPrecision;text-rendering:geometricPrecision" /></g></svg>
