<?xml version="1.0" encoding="UTF-8" standalone="no"?>
<svg
   version="1.1"
   width="18.453062mm"
   height="28.546577mm"
   viewBox="0 0 18.453063 28.546577"
   id="svg13"
   xml:space="preserve"
   xmlns="http://www.w3.org/2000/svg"
   xmlns:svg="http://www.w3.org/2000/svg"><defs
     id="defs2" /><g
     id="g-top-silk"
     style="display:inline"
     transform="translate(-11.391569,-9.8089317)"><g
       id="g262"
       transform="rotate(-90,21.571157,26.703127)"><path
         id="path6961"
         style="clip-rule:evenodd;display:inline;fill:#782121;fill-rule:evenodd;stroke-width:0.0557549;image-rendering:optimizeQuality;shape-rendering:geometricPrecision;text-rendering:geometricPrecision"
         d="m 11.454598,16.892509 c -0.321148,0 -0.612969,0.130827 -0.823723,0.341581 -0.211868,0.211868 -0.343131,0.504124 -0.343131,0.825272 v 5.082894 l 1.137915,-1.305863 v -2.571936 c 0,-0.733734 0.600552,-1.334286 1.334285,-1.334286 h 2.069125 l 0.903821,-1.037662 z m 7.65328,0 -0.903822,1.037662 h 4.725294 l 0.90382,-1.037662 z m 8.438244,0 -0.901237,1.037662 h 4.076754 l 0.915706,-1.037662 z m 7.42642,0 -0.89917,1.037662 h 1.55081 c 0.733733,0 1.334286,0.606686 1.334286,1.334286 v 0.771529 l 1.137915,-1.30638 v -0.670244 c 0,-0.318917 -0.132297,-0.611337 -0.344165,-0.823205 -0.210754,-0.211311 -0.503132,-0.343648 -0.823723,-0.343648 z m 3.123841,6.133992 -1.137915,1.305863 v 2.334225 c 0,0.727601 -0.606686,1.333252 -1.334286,1.333252 H 33.762797 L 32.85846,29.03802 h 4.070035 c 0.318918,0 0.611338,-0.132813 0.823206,-0.344682 0.212426,-0.211868 0.344682,-0.50377 0.344682,-0.822688 z m -26.670724,2.683557 -1.137915,1.306381 v 0.854211 c 0,0.315572 0.127578,0.603708 0.333313,0.813904 l 0.01033,0.0098 c 0.211869,0.211869 0.504288,0.343648 0.823206,0.343648 h 1.797311 l 0.904338,-1.038161 h -1.396298 c -0.7276,0 -1.334285,-0.599518 -1.334285,-1.333252 z m 6.470923,2.289783 -0.901754,1.038179 h 4.006991 l 0.904337,-1.038179 z m 7.451741,0 -0.899687,1.038179 h 4.666899 l 0.904338,-1.038179 z" /><path
         fill="#1a1a1a"
         d="m 13.545609,34.230043 h 1.473602 v -4.821127 h 2.190053 v 4.821127 h 1.473603 v 0.746558 h -5.137258 z m 15.01424,0 h 1.473045 v -4.823915 h 2.190052 v 4.823915 h 1.473603 v 0.746558 h -5.1367 z"
         id="path6963"
         style="clip-rule:evenodd;display:inline;fill:#782121;fill-rule:evenodd;stroke-width:0.0557549;image-rendering:optimizeQuality;shape-rendering:geometricPrecision;text-rendering:geometricPrecision" /><path
         fill-rule="nonzero"
         d="m 15.36211,23.238525 c -0.151096,0 -0.287695,-0.01394 -0.409799,-0.04014 -0.123775,-0.02676 -0.233613,-0.06802 -0.327838,-0.122661 -0.410914,-0.238073 -0.531902,-0.680767 -0.531902,-1.129594 l 0.0084,-1.714464 h 0.85134 l -0.0078,1.630831 c -5.58e-4,0.09478 0.0033,0.180089 0.01171,0.253685 0.01171,0.09924 0.03457,0.214657 0.09423,0.296616 0.104819,0.14329 0.387497,0.149423 0.528557,0.06468 0.114297,-0.06914 0.151095,-0.244764 0.164477,-0.36631 0.0089,-0.07137 0.01282,-0.154998 0.01282,-0.248667 V 20.23167 h 0.84859 v 1.726172 c 0,0.510158 -0.172283,1.009722 -0.689688,1.195943 -0.156114,0.05631 -0.34122,0.08475 -0.553089,0.08475 z m 17.334759,2.991808 v -1.887304 h 0.441579 l 0.645084,1.036484 0.241419,0.507927 h -0.08642 l -0.07583,-0.713663 v -0.830748 h 0.428755 v 1.887304 h -0.475031 l -0.611632,-1.010837 -0.277102,-0.579293 h 0.104262 l 0.09423,0.774993 v 0.815137 z M 14.092571,25.290305 c 0,-0.160016 0.02509,-0.299961 0.07415,-0.420949 0.04906,-0.120431 0.117643,-0.221347 0.205178,-0.30275 0.08809,-0.0814 0.190682,-0.142175 0.307767,-0.182876 0.117085,-0.0407 0.243091,-0.06077 0.378018,-0.06077 0.08753,0 0.160574,0.0045 0.219675,0.01394 0.0591,0.01004 0.109837,0.02063 0.15221,0.0329 0.04293,0.01171 0.08307,0.02174 0.120989,0.02899 l -0.06077,0.406453 a 0.89207856,0.89207856 0 0 0 -0.07527,-0.04405 c -0.0329,-0.01728 -0.07471,-0.03234 -0.127122,-0.04572 -0.05185,-0.01282 -0.11597,-0.01951 -0.191239,-0.01951 -0.09646,0 -0.183991,0.02174 -0.26149,0.06523 -0.07806,0.04405 -0.139945,0.107607 -0.185664,0.192355 -0.04572,0.08419 -0.06858,0.187336 -0.06858,0.308882 0,0.124891 0.02063,0.233613 0.06077,0.326724 0.04014,0.09311 0.0998,0.165592 0.179531,0.217444 0.07973,0.05185 0.177858,0.07861 0.296058,0.07861 0.05297,0 0.10705,-0.0072 0.162247,-0.02007 0.0552,-0.01338 0.104262,-0.02899 0.148866,-0.04739 0.04349,-0.0184 0.07638,-0.0368 0.09757,-0.05464 v 0.388612 c -0.03234,0.01338 -0.06969,0.02788 -0.113183,0.04349 -0.04405,0.01505 -0.09478,0.02788 -0.15221,0.03903 -0.05799,0.01115 -0.123219,0.01673 -0.196815,0.01673 -0.208524,0 -0.384709,-0.03959 -0.529114,-0.1182 -0.144406,-0.07917 -0.253685,-0.190124 -0.328954,-0.33453 -0.07471,-0.14329 -0.112625,-0.312785 -0.112625,-0.507927 z m 2.510086,0.960657 c -0.186779,0.0033 -0.345123,-0.03513 -0.476705,-0.114297 -0.132139,-0.07917 -0.23194,-0.191797 -0.299961,-0.33899 -0.06802,-0.146636 -0.100359,-0.320033 -0.09757,-0.519636 0.0045,-0.223577 0.04628,-0.404781 0.124333,-0.543053 0.07806,-0.138829 0.185107,-0.240861 0.320591,-0.306094 0.135484,-0.06579 0.290483,-0.100917 0.464438,-0.105934 0.178974,-0.005 0.3323,0.03067 0.459978,0.108164 0.127679,0.0775 0.225808,0.189009 0.292714,0.335087 0.06746,0.14552 0.09924,0.317803 0.0959,0.516848 -0.0045,0.223577 -0.04405,0.405896 -0.119315,0.547513 -0.07527,0.14106 -0.178416,0.245879 -0.309998,0.313343 -0.131024,0.06802 -0.282677,0.103146 -0.454402,0.107049 z m 0.0078,-0.340662 c 0.121546,0 0.217445,-0.04906 0.287696,-0.148308 0.07025,-0.09869 0.105377,-0.262606 0.105377,-0.491759 0,-0.118758 -0.01338,-0.222462 -0.0407,-0.312227 -0.02676,-0.08976 -0.06746,-0.160017 -0.12266,-0.209639 -0.0552,-0.05018 -0.124891,-0.07527 -0.209639,-0.07527 -0.07694,0 -0.147193,0.01952 -0.210753,0.05743 -0.06356,0.03791 -0.114298,0.102031 -0.151654,0.191797 -0.03791,0.08976 -0.05687,0.212426 -0.05687,0.367982 0,0.120431 0.01505,0.22748 0.0446,0.320033 0.02955,0.09367 0.07415,0.166708 0.133254,0.220232 0.05854,0.05297 0.13214,0.07973 0.221347,0.07973 z m 1.185907,0.320033 v -1.887304 h 0.442137 l 0.645084,1.036484 0.240861,0.507927 h -0.08586 l -0.07638,-0.713663 v -0.830748 h 0.429312 v 1.887304 h -0.475031 l -0.612189,-1.010837 -0.277102,-0.579293 h 0.104261 l 0.09423,0.774993 v 0.815137 z m 2.535176,0.02063 c -0.08976,0 -0.175628,-0.0067 -0.25703,-0.02007 -0.08196,-0.01338 -0.153326,-0.02899 -0.212984,-0.04683 -0.06021,-0.0184 -0.102589,-0.03513 -0.127121,-0.05018 l 0.05854,-0.367982 c 0.03122,0.01728 0.0736,0.03568 0.126563,0.05464 0.05353,0.0184 0.112625,0.03401 0.177859,0.04683 0.06468,0.01338 0.129908,0.02007 0.195699,0.02007 0.08921,0 0.153884,-0.01282 0.194027,-0.03791 0.04014,-0.02565 0.06022,-0.06635 0.06022,-0.122103 0,-0.0407 -0.01227,-0.07527 -0.0368,-0.103704 -0.02453,-0.02844 -0.06468,-0.05687 -0.120988,-0.08642 -0.05631,-0.02955 -0.132139,-0.06746 -0.225807,-0.112067 -0.07973,-0.03791 -0.152769,-0.08363 -0.219674,-0.135484 a 0.61441911,0.61441911 0 0 1 -0.16169,-0.187894 c -0.04014,-0.0736 -0.06077,-0.160017 -0.06077,-0.260933 0,-0.08642 0.01673,-0.162247 0.04906,-0.226923 a 0.44040803,0.44040803 0 0 1 0.138829,-0.161689 c 0.0591,-0.04293 0.130467,-0.07583 0.212427,-0.09757 0.08196,-0.02119 0.17284,-0.03178 0.273199,-0.03178 0.141617,0 0.258145,0.01282 0.34791,0.03903 0.08977,0.02621 0.151654,0.04962 0.185107,0.07025 l -0.0736,0.352929 c -0.03791,-0.02955 -0.09646,-0.05743 -0.175628,-0.08252 a 0.81848208,0.81848208 0 0 0 -0.243091,-0.0368 c -0.05966,0 -0.108165,0.0061 -0.146078,0.01951 -0.03847,0.01282 -0.06691,0.03122 -0.08531,0.0552 -0.0184,0.02397 -0.02788,0.05129 -0.02788,0.08252 0,0.03791 0.01115,0.07192 0.03345,0.100916 0.0223,0.02955 0.05743,0.05799 0.105377,0.08642 0.04795,0.02844 0.109837,0.05966 0.186222,0.09478 a 2.0239032,2.0239032 0 0 1 0.218001,0.112067 c 0.06412,0.03791 0.118201,0.07917 0.162805,0.124334 0.04516,0.0446 0.07917,0.09534 0.102589,0.152768 0.02342,0.05687 0.03457,0.123219 0.03457,0.197373 0,0.112624 -0.0262,0.211311 -0.07917,0.294943 -0.05297,0.08363 -0.130467,0.148308 -0.233056,0.194585 -0.102589,0.04628 -0.228037,0.06969 -0.375788,0.06969 z m 1.323064,-0.02063 v -1.523782 h -0.502909 v -0.363522 h 1.483638 v 0.363522 h -0.502909 v 1.523782 z m 1.691604,0 h -0.472244 v -1.887304 h 0.162247 c 0.06802,0 0.146078,-0.0033 0.234728,-0.01004 0.08865,-0.0067 0.20016,-0.01004 0.334529,-0.01004 0.08308,0 0.16615,0.0089 0.248667,0.02676 0.08308,0.0184 0.158902,0.04962 0.22748,0.09423 0.06858,0.04405 0.123776,0.105934 0.165035,0.183433 0.04182,0.07806 0.06245,0.176186 0.06245,0.294944 0,0.128794 -0.02119,0.234728 -0.06412,0.317803 -0.04293,0.08363 -0.102031,0.14775 -0.1773,0.193469 -0.0184,0.01059 -0.03791,0.02119 -0.05799,0.03067 0.02453,0.01896 0.04739,0.04237 0.06746,0.07025 0.03513,0.04795 0.06746,0.103704 0.09701,0.166707 0.02899,0.063 0.05798,0.128794 0.08642,0.196815 0.02899,0.06858 0.06133,0.133254 0.09701,0.195142 0.01227,0.02286 0.02565,0.04572 0.03903,0.06858 0.01394,0.02286 0.02676,0.04572 0.03959,0.06858 h -0.520751 a 0.27487171,0.27487171 0 0 1 -0.02843,-0.04628 c -0.0089,-0.0184 -0.0223,-0.04795 -0.04014,-0.08809 -0.02565,-0.05687 -0.04851,-0.116528 -0.06858,-0.178974 -0.02063,-0.06189 -0.0407,-0.119873 -0.06189,-0.174512 -0.02063,-0.05408 -0.0446,-0.09869 -0.07137,-0.132697 -0.02509,-0.03122 -0.0552,-0.04851 -0.09032,-0.05185 -0.05297,0.0033 -0.122103,0.0045 -0.208523,0.0045 z m 0,-0.995783 c 0.01673,0.0028 0.04014,0.005 0.06858,0.0067 0.02899,0.0017 0.05798,0.0022 0.08809,0.0028 0.02955,0 0.05408,5.57e-4 0.07471,5.57e-4 0.09646,0 0.166707,-0.03067 0.210754,-0.092 0.04405,-0.06133 0.06579,-0.135485 0.06579,-0.222463 0,-0.04683 -0.0078,-0.09144 -0.02397,-0.133254 -0.01673,-0.04182 -0.04739,-0.07583 -0.092,-0.102031 -0.04405,-0.02621 -0.108164,-0.03903 -0.191239,-0.03903 -0.03401,0 -0.06802,0.0017 -0.103147,0.005 -0.03513,0.0039 -0.06802,0.01004 -0.09757,0.01784 z m 2.103633,1.016412 c -0.195142,0 -0.350699,-0.03401 -0.467784,-0.102031 -0.116528,-0.06746 -0.200718,-0.162247 -0.25257,-0.28435 -0.05185,-0.122103 -0.0775,-0.264278 -0.0775,-0.426525 l 0.005,-1.095027 h 0.470014 l -0.005,1.038714 c -0.0011,0.132139 0.01115,0.234171 0.03513,0.305537 0.02397,0.07137 0.06021,0.120988 0.108164,0.148866 0.04739,0.02732 0.106492,0.04126 0.176743,0.04126 0.07137,0 0.130467,-0.0145 0.177858,-0.04293 0.04739,-0.02899 0.08308,-0.07973 0.106492,-0.151653 0.02398,-0.07192 0.03568,-0.172283 0.03568,-0.301077 v -1.038714 h 0.467227 v 1.102275 c 0,0.25257 -0.06189,0.449942 -0.185664,0.592117 -0.124334,0.142175 -0.322264,0.213541 -0.59379,0.213541 z m 1.053768,-0.960657 c 0,-0.160016 0.02453,-0.299961 0.0736,-0.420949 0.04906,-0.120431 0.117643,-0.221347 0.205736,-0.30275 0.08809,-0.0814 0.190682,-0.142175 0.307209,-0.182876 0.117086,-0.0407 0.243092,-0.06077 0.378576,-0.06077 0.08753,0 0.160574,0.0045 0.219675,0.01394 0.05854,0.01004 0.109279,0.02063 0.15221,0.0329 0.04293,0.01171 0.08308,0.02174 0.120989,0.02899 l -0.06077,0.406453 c -0.01784,-0.01171 -0.04293,-0.02676 -0.07527,-0.04405 -0.0329,-0.01728 -0.07471,-0.03234 -0.127122,-0.04572 -0.05185,-0.01282 -0.11597,-0.01951 -0.191239,-0.01951 -0.09646,0 -0.183991,0.02174 -0.26149,0.06523 -0.07806,0.04405 -0.139945,0.107607 -0.185664,0.192355 -0.04572,0.08419 -0.06858,0.187336 -0.06858,0.308882 0,0.124891 0.02007,0.233613 0.06077,0.326724 0.04014,0.09311 0.0998,0.165592 0.179531,0.217444 0.07917,0.05185 0.177858,0.07861 0.296058,0.07861 0.05297,0 0.10705,-0.0072 0.162247,-0.02007 0.0552,-0.01338 0.104262,-0.02899 0.148308,-0.04739 0.04405,-0.0184 0.07694,-0.0368 0.09813,-0.05464 v 0.388612 c -0.03234,0.01338 -0.07025,0.02788 -0.11374,0.04349 -0.04349,0.01505 -0.09423,0.02788 -0.151654,0.03903 -0.05798,0.01115 -0.123775,0.01673 -0.196814,0.01673 -0.208524,0 -0.384709,-0.03959 -0.529114,-0.1182 -0.144406,-0.07917 -0.253685,-0.190124 -0.328954,-0.33453 -0.07471,-0.14329 -0.112625,-0.312785 -0.112625,-0.507927 z m 2.067949,0.940028 v -1.523782 h -0.502909 v -0.363522 h 1.483638 v 0.363522 H 29.04882 v 1.523782 z m 1.24445,0 v -1.887304 h 0.477819 v 1.887304 z m 1.686586,0.02063 c -0.186222,0.0033 -0.345123,-0.03513 -0.476705,-0.114297 -0.131581,-0.07917 -0.231382,-0.191797 -0.299403,-0.33899 -0.06858,-0.146636 -0.100917,-0.320033 -0.09757,-0.519636 0.0045,-0.223577 0.04572,-0.404781 0.123776,-0.543053 0.07862,-0.138829 0.185107,-0.240861 0.320591,-0.306094 0.135485,-0.06579 0.290483,-0.100917 0.464996,-0.105934 0.178416,-0.005 0.331742,0.03067 0.459978,0.108164 0.127679,0.0775 0.22525,0.189009 0.292713,0.335087 0.06746,0.14552 0.09869,0.317803 0.0959,0.516848 -0.0045,0.223577 -0.0446,0.405896 -0.119316,0.547513 -0.07583,0.14106 -0.178973,0.245879 -0.309997,0.313343 -0.131582,0.06802 -0.283235,0.103146 -0.45496,0.107049 z m 0.0078,-0.340662 c 0.122103,0 0.218001,-0.04906 0.288252,-0.148308 0.07025,-0.09869 0.105377,-0.262606 0.105377,-0.491759 0,-0.118758 -0.01338,-0.222462 -0.0407,-0.312227 -0.02732,-0.08976 -0.06802,-0.160017 -0.123218,-0.209639 -0.05464,-0.05018 -0.124891,-0.07527 -0.209639,-0.07527 -0.07694,0 -0.147193,0.01952 -0.210753,0.05743 -0.06356,0.03791 -0.11374,0.102031 -0.151654,0.191797 -0.03735,0.08976 -0.05631,0.212426 -0.05631,0.367982 0,0.120431 0.0145,0.22748 0.04405,0.320033 0.03011,0.09367 0.07415,0.166708 0.133255,0.220232 0.05854,0.05297 0.132139,0.07973 0.221347,0.07973 z M 17.080465,23.134264 v -2.902601 h 0.777224 c 0.288253,0.467226 0.781126,1.151339 1.001916,1.614662 -0.05799,-0.54138 -0.03122,-1.067706 -0.03122,-1.614662 h 0.790604 v 2.976197 h -0.826845 c -0.28435,-0.466668 -0.730389,-1.113425 -0.954524,-1.582882 0.06468,0.536363 0.03401,1.034812 0.03401,1.582882 h -0.791163 z m 3.068193,0 v -2.902601 c 0.374115,0 0.736522,-0.02509 1.108408,-0.03066 0.501794,0 0.871449,0.128236 1.109522,0.383594 0.118201,0.126563 0.207966,0.281005 0.267066,0.460535 0.05798,0.176186 0.08754,0.378019 0.08754,0.603826 0,0.164477 -0.0145,0.318918 -0.04405,0.461093 -0.11374,0.555877 -0.464438,0.955639 -1.025333,1.08276 -0.133811,0.03067 -0.279332,0.04572 -0.436003,0.04516 -0.191797,-0.0061 -0.381921,-0.01617 -0.574276,-0.02676 l -0.492873,-0.0033 z m 0.859183,-0.580409 c 0.08642,0.01004 0.16392,0.01394 0.250897,0.01561 0.350699,-0.0017 0.512945,-0.257588 0.561452,-0.577621 0.03345,-0.22971 0.02899,-0.580966 -0.05074,-0.800641 -0.09255,-0.253127 -0.280447,-0.332857 -0.538035,-0.332857 -0.07694,0.0022 -0.147193,0.0078 -0.223577,0.01617 z m 2.094712,0.580409 v -2.902601 h 1.936368 v 0.676307 h -1.084433 v 0.4505 h 0.837439 v 0.661253 h -0.837439 v 0.500122 h 1.195385 v 0.688015 h -2.04732 z m 3.194757,0.0736 h -0.781684 v -2.976197 l 0.477819,-0.0039 0.413702,-0.02286 0.278774,-0.0039 c 0.128794,0 0.259261,0.01394 0.388612,0.04237 0.356274,0.0775 0.636721,0.303306 0.714778,0.670731 0.01617,0.07973 0.02509,0.165592 0.02509,0.259261 0,0.204063 -0.03513,0.374115 -0.104262,0.5096 -0.03568,0.06914 -0.0775,0.130466 -0.126006,0.182876 -0.04851,0.05241 -0.105377,0.09869 -0.167822,0.136599 l 0.03624,0.0446 c 0.0552,0.07638 0.106492,0.164477 0.152211,0.263163 l 0.19793,0.443252 c 0.08196,0.153883 0.16838,0.303307 0.255358,0.454402 h -0.942258 c -0.08865,-0.107049 -0.138273,-0.252012 -0.19124,-0.379133 l -0.14106,-0.400878 -0.04628,-0.100916 -0.05018,-0.0775 c -0.01394,-0.01728 -0.02843,-0.03067 -0.04405,-0.03847 l -0.03568,-0.01115 -0.236401,0.0056 v 1.002473 z m 0.0736,-1.632503 c 0.092,0.0061 0.181203,0.0072 0.273199,0.0078 0.171725,-5.57e-4 0.270411,-0.07248 0.319476,-0.237516 0.02955,-0.102031 0.02899,-0.233055 -0.01004,-0.333414 -0.05575,-0.140502 -0.22302,-0.165035 -0.355717,-0.165035 -0.07304,0.0017 -0.154998,0.0045 -0.226922,0.02007 z"
         id="path6971"
         style="clip-rule:evenodd;display:inline;fill:#782121;fill-rule:evenodd;stroke-width:0.0557549;image-rendering:optimizeQuality;shape-rendering:geometricPrecision;text-rendering:geometricPrecision" /><path
         d="m 31.334764,19.676388 c 0.242533,0 0.438791,0.196258 0.438791,0.438234 0,0.241976 -0.196258,0.438234 -0.438791,0.438234 -0.241419,0 -0.438234,-0.196258 -0.438234,-0.438234 0,-0.241976 0.196815,-0.438234 0.438234,-0.438234 z m 0.499564,3.280062 c 0.0736,-0.113183 0.157228,-0.224692 0.266508,-0.34345 l 0.03234,-0.03345 -1.130152,-0.469457 0.296616,0.468899 c 0.02453,0.03847 0.03457,0.0814 0.03234,0.123776 l -0.03401,0.788374 -0.424852,-0.02007 0.03066,-0.721469 -0.415374,-0.658465 -0.314458,1.345366 -0.436003,-0.01617 0.396975,-1.694392 -1.005819,-0.441021 0.06245,-0.33453 0.401993,0.171168 0.225807,-0.39809 a 0.21348555,0.21348555 0 0 1 0.148866,-0.10482 v -5.57e-4 l 0.630588,-0.108165 c 0.04572,-0.0078 0.08976,-0.0011 0.128794,0.01784 l 0.773878,0.329511 c 0.06635,0.02844 0.110394,0.08642 0.124891,0.151096 l 0.232498,1.067149 c 0.0033,0.01673 0.005,0.03401 0.005,0.05018 l 0.51406,0.197372 0.393072,-0.412029 0.0045,-0.0017 0.0061,-0.0017 c 0.381921,-0.09367 0.707529,1.008049 0.771647,1.270654 l 0.0061,0.02509 c 0.04739,0.194027 0.06802,0.279332 0.02955,0.318361 -0.03067,0.03066 -0.09423,0.02843 -0.207966,0.02565 -0.05185,-0.0017 -0.115413,-0.0039 -0.19124,-0.0028 -0.238073,0.0028 -0.472801,0.0028 -0.703069,-0.0017 -0.230825,-0.0033 -0.456075,-0.01004 -0.676865,-0.02063 -0.05408,-0.0028 -0.09924,-0.0028 -0.134926,-0.0033 -0.06746,-5.58e-4 -0.104262,-0.0011 -0.119316,-0.01728 -0.03234,-0.0368 0.211869,-0.441022 0.278775,-0.545283 z m -1.321949,-1.999371 -0.225808,0.471686 -0.302191,-0.134369 0.154998,-0.273199 z m 0.559779,0.818482 0.181761,-0.47559 0.133812,0.614977 z"
         id="path6969"
         style="clip-rule:evenodd;display:inline;fill:#782121;fill-rule:evenodd;stroke-width:0.0557549;image-rendering:optimizeQuality;shape-rendering:geometricPrecision;text-rendering:geometricPrecision" /><path
         fill="#ffb206"
         fill-rule="nonzero"
         d="m 36.928671,16.892485 h -1.955882 l -10.524297,12.14565 h 4.667244 L 38.09618,18.72961 v -0.670174 c 0,-0.318919 -0.13214,-0.611632 -0.344008,-0.8235 -0.210754,-0.211312 -0.50291,-0.343451 -0.823501,-0.343451 z m -5.291141,0 h -4.091295 l -10.551617,12.14565 h 4.007106 l 6.451958,-7.405925 z m -7.804572,0 H 19.107729 L 10.28786,27.016462 v 0.854165 c 0,0.315573 0.127679,0.603826 0.333415,0.814022 l 0.01003,0.0095 c 0.211869,0.211869 0.504582,0.344008 0.823501,0.344008 h 1.79698 z m -8.100073,0 h -4.278074 c -0.321149,0 -0.613305,0.131024 -0.824058,0.341778 -0.211869,0.211869 -0.342893,0.504024 -0.342893,0.825173 v 5.082617 z m 17.125678,12.14565 h 4.070108 c 0.318919,0 0.611075,-0.132697 0.822943,-0.344565 0.212426,-0.211869 0.344566,-0.504025 0.344566,-0.822943 V 23.02664 Z"
         id="path7097"
         style="clip-rule:evenodd;display:inline;fill:#554400;fill-rule:evenodd;stroke-width:0.0557549;image-rendering:optimizeQuality;shape-rendering:geometricPrecision;text-rendering:geometricPrecision" /><path
         fill="#ffffff"
         d="m 12.760076,17.930172 h 22.863973 c 0.733734,0 1.334215,0.606614 1.334215,1.334215 v 7.402022 c 0,0.727602 -0.606614,1.333658 -1.334215,1.333658 H 12.760076 c -0.727601,0 -1.334215,-0.599923 -1.334215,-1.333658 v -7.402022 c 0,-0.733733 0.600481,-1.334215 1.334215,-1.334215 z"
         id="path7658"
         style="clip-rule:evenodd;display:inline;fill:#554400;fill-rule:evenodd;stroke-width:0.0557549;image-rendering:optimizeQuality;shape-rendering:geometricPrecision;text-rendering:geometricPrecision" /><g
         style="clip-rule:evenodd;display:inline;fill:#000000;fill-opacity:1;fill-rule:evenodd;stroke:#ff0000;stroke-width:1.0044;stroke-dasharray:none;stroke-opacity:1;image-rendering:optimizeQuality;shape-rendering:geometricPrecision;text-rendering:geometricPrecision"
         id="g6987"
         transform="matrix(0.05575491,0,0,0.05575491,9.918752,16.523399)"><path
           id="path6957"
           style="display:inline;fill:#000000;fill-opacity:1;stroke:none;stroke-width:1.0044;stroke-dasharray:none;stroke-opacity:1"
           d="m 27.546381,0.00251503 c -7.559993,0 -14.444584,3.08994157 -19.4545794,8.10993657 C 3.1018066,13.102447 4.0201056e-4,19.988501 4.0201056e-4,27.548494 V 203.52021 c 0,7.46 3.03603448944,14.26214 7.90602958944,19.23214 l 0.1946385,0.21317 c 4.9999949,4.99 11.8953179,8.10067 19.4453109,8.10067 H 484.43703 c 7.55,0 14.45532,-3.11994 19.44532,-8.10993 4.99999,-5 8.1192,-11.89605 8.1192,-19.43605 V 27.548494 c 0,-7.549993 -3.10921,-14.445316 -8.1192,-19.4453109 -4.99,-4.979995 -11.88532,-8.10066807 -19.44532,-8.10066807 z m 0,6.61770827 H 484.43703 c 5.75,0 10.994,2.3735555 14.77399,6.1635517 3.8,3.799996 6.17282,9.044725 6.17282,14.764719 V 203.52021 c 0,5.72 -2.37209,10.95546 -6.18209,14.75545 -3.79999,3.8 -9.04472,6.18209 -14.76472,6.18209 H 27.546381 c -5.719994,0 -10.964723,-2.36355 -14.764719,-6.16355 l -0.18537,-0.1761 c -3.6899963,-3.77 -5.9781818,-8.93789 -5.9781818,-14.59789 V 27.548494 c 0,-5.759994 2.3542871,-11.001797 6.1542838,-14.801793 3.779996,-3.7799962 9.013993,-6.1264777 14.773987,-6.1264777 z" /><path
           id="path6965"
           style="display:inline;fill:#000000;fill-opacity:1;stroke:none;stroke-width:1.0044;stroke-dasharray:none;stroke-opacity:1"
           d="m 50.958609,22.228375 c -7.409993,0 -14.138965,3.034572 -19.01896,7.924567 -4.869995,4.869995 -7.906029,11.619699 -7.906029,19.009691 V 181.92461 c 0,7.37999 3.044571,14.11189 7.924566,18.98189 4.889995,4.88999 11.63043,7.93383 19.000423,7.93383 H 461.04334 c 7.35,0 14.09263,-3.06237 18.97262,-7.95237 4.89,-4.87999 7.95237,-11.62336 7.95237,-18.96335 V 49.162633 c 0,-7.359992 -3.03384,-14.109696 -7.93383,-19.009691 -4.88,-4.869995 -11.60116,-7.924567 -18.99116,-7.924567 z m 0,3.002994 H 461.04334 c 13.15999,0 23.93127,10.881277 23.93127,23.931264 V 181.92461 c 0,13.04999 -10.88128,23.91273 -23.93127,23.91273 H 50.958609 c -13.049987,0 -23.931264,-10.75274 -23.931264,-23.91273 V 49.162633 c 0,-13.159987 10.771277,-23.931264 23.931264,-23.931264 z" /></g></g></g></svg>
